<svg width="22" height="22" viewBox="0 0 22 22" fill="none" xmlns="http://www.w3.org/2000/svg">
<rect x="0.5" y="0.5" width="21" height="21" rx="10.5" stroke="#F9F9F9"/>
<mask id="mask0_30_29" style="mask-type:alpha" maskUnits="userSpaceOnUse" x="1" y="1" width="20" height="20">
<circle cx="11" cy="11" r="10" fill="white"/>
</mask>
<g mask="url(#mask0_30_29)">
<path d="M-2.75 1H24.125V21H-2.75V1Z" fill="#234075"/>
<path d="M0.399414 1L10.6455 8.54167L20.8496 1H24.125V3.58333L14.0469 11.0417L24.125 18.4583V21H20.7656L10.6875 13.5417L0.651367 21H-2.75V18.5L7.28613 11.0833L-2.75 3.66667V1H0.399414Z" fill="#F9F9F9"/>
<path d="M15.0547 12.7083L24.125 19.3333V21L12.7451 12.7083H15.0547ZM7.32812 13.5417L7.58008 15L-0.482422 21H-2.75L7.32812 13.5417ZM24.125 1V1.125L13.6689 8.95833L13.7529 7.125L22.0254 1H24.125ZM-2.75 1L7.28613 8.33333H4.7666L-2.75 2.75V1Z" fill="#D84D4D"/>
<path d="M7.37012 1V21H14.0889V1H7.37012ZM-2.75 7.66667V14.3333H24.125V7.66667H-2.75Z" fill="#F9F9F9"/>
<path d="M-2.75 9.04167V13.0417H24.125V9.04167H-2.75ZM8.71387 1V21H12.7451V1H8.71387Z" fill="#D84D4D"/>
</g>
</svg>
