<svg width="129" height="40" viewBox="0 0 129 40" fill="none" xmlns="http://www.w3.org/2000/svg">
<path d="M83.0376 9.26501C84.4533 10.8597 84.6902 12.5149 84.6314 14.6151C84.438 16.4005 83.9042 18.113 83.0682 19.6996C83.5519 19.7809 84.0357 19.8622 84.5341 19.9459C84.5341 19.7021 84.5341 19.4583 84.5341 19.2071C84.7397 19.2468 84.9454 19.2865 85.1573 19.3274C86.0342 19.4585 86.8698 19.4948 87.756 19.4996C88.1996 19.5048 88.1996 19.5048 88.6522 19.5101C89.4601 19.5143 89.4601 19.5144 90.1534 18.9609C90.097 18.0621 89.9697 17.7835 89.2868 17.1766C89.0286 16.9985 88.7703 16.8204 88.5043 16.637C85.8696 14.728 85.8696 14.728 85.6517 13.404C85.5782 11.85 85.7691 10.8241 86.733 9.6036C87.9077 8.72369 89.0253 8.34025 90.4769 8.34833C90.7281 8.34912 90.9793 8.34992 91.2381 8.35073C91.6309 8.35383 91.6309 8.35383 92.0316 8.35699C92.2963 8.3581 92.561 8.35921 92.8338 8.36035C93.4877 8.36326 94.1416 8.36731 94.7955 8.37238C94.7203 8.8189 94.6437 9.26517 94.5664 9.71133C94.5026 10.0841 94.5026 10.0841 94.4376 10.4645C94.3068 11.0811 94.3068 11.0811 94.0625 11.3273C93.7351 11.3657 93.4059 11.389 93.0766 11.4052C92.879 11.4155 92.6814 11.4259 92.4778 11.4365C92.2701 11.4462 92.0624 11.4559 91.8484 11.4658C91.5354 11.4818 91.5354 11.4818 91.2161 11.498C90.699 11.5243 90.1819 11.549 89.6648 11.5736C89.5842 11.9799 89.5035 12.3862 89.4205 12.8048C90.3428 13.6427 91.2402 14.4578 92.2912 15.1287C93.239 15.8013 93.7677 16.5975 94.0625 17.7297C94.0673 18.5095 93.9619 19.1732 93.8182 19.9459C94.8663 19.9459 95.9144 19.9459 96.9943 19.9459C97.0768 19.5301 97.1593 19.1142 97.2444 18.6858C97.7311 16.233 98.2178 13.7801 98.7045 11.3273C97.5758 11.3273 96.447 11.3273 95.2841 11.3273C95.4979 8.6494 95.4979 8.6494 95.7727 8.37238C96.1103 8.34953 96.449 8.34345 96.7873 8.34442C97.0025 8.34444 97.2177 8.34446 97.4394 8.34448C97.6733 8.34575 97.9072 8.34702 98.1481 8.34833C98.5055 8.34885 98.5055 8.34885 98.8702 8.34939C99.6344 8.35077 100.399 8.35386 101.163 8.35699C101.68 8.35822 102.197 8.35934 102.713 8.36035C103.983 8.36308 105.253 8.3672 106.523 8.37238C106.448 8.8189 106.371 9.26517 106.294 9.71133C106.23 10.0841 106.23 10.0841 106.165 10.4645C106.034 11.0811 106.034 11.0811 105.79 11.3273C105.172 11.3453 104.56 11.3501 103.942 11.3427C103.768 11.3416 103.595 11.3405 103.416 11.3393C102.986 11.3364 102.555 11.332 102.125 11.3273C102.093 11.5487 102.093 11.5487 102.061 11.7746C101.638 14.5246 101.01 17.2294 100.415 19.9459C102.35 19.9459 104.285 19.9459 106.278 19.9459C106.003 22.4429 106.003 22.4429 105.805 23.3933C105.742 23.6976 105.742 23.6976 105.677 24.008C105.634 24.2114 105.59 24.4149 105.545 24.6245C105.502 24.8356 105.459 25.0467 105.414 25.2642C105.088 26.809 105.088 26.809 104.812 27.087C104.257 27.1111 103.701 27.1174 103.146 27.1173C102.88 27.1177 102.88 27.1177 102.608 27.1181C102.007 27.1188 101.406 27.1177 100.804 27.1166C100.371 27.1167 99.9389 27.1169 99.5064 27.1172C98.3119 27.1178 97.1175 27.1168 95.923 27.1156C94.6371 27.1145 93.3512 27.1148 92.0653 27.115C89.8355 27.1152 87.6057 27.1144 85.3758 27.113C82.1518 27.111 78.9278 27.1104 75.7038 27.1101C70.4736 27.1095 65.2435 27.1079 60.0133 27.1055C54.9313 27.1033 49.8493 27.1015 44.7673 27.1005C44.2978 27.1004 44.2978 27.1004 43.8188 27.1003C42.2486 27.1 40.6784 27.0997 39.1082 27.0994C26.0721 27.0968 13.0361 27.0925 0 27.087C0.0352444 26.7015 0.0713666 26.3162 0.107844 25.9308C0.127862 25.7162 0.14788 25.5016 0.168506 25.2805C0.286394 24.2605 0.503879 23.2695 0.732955 22.2698C0.776416 22.0716 0.819878 21.8733 0.864657 21.6691C1.18862 20.2253 1.18862 20.2253 1.46591 19.9459C2.11838 19.9111 2.76674 19.9354 3.42045 19.9459C3.50108 19.7021 3.5817 19.4583 3.66477 19.2071C3.83043 19.2468 3.99609 19.2865 4.16677 19.3274C4.99677 19.4727 5.78483 19.4951 6.62713 19.4996C6.92507 19.503 7.223 19.5065 7.52996 19.5101C8.34524 19.5153 8.34524 19.5153 9.03977 18.9609C8.98335 18.0621 8.85605 17.7835 8.17321 17.1766C7.91495 16.9985 7.6567 16.8204 7.39062 16.637C4.75596 14.728 4.75596 14.728 4.53802 13.404C4.4646 11.85 4.65547 10.8241 5.61932 9.6036C6.79404 8.72369 7.91164 8.34025 9.3633 8.34833C9.61447 8.34912 9.86563 8.34992 10.1244 8.35073C10.5172 8.35383 10.5172 8.35383 10.918 8.35699C11.1827 8.3581 11.4474 8.35921 11.7201 8.36035C12.374 8.36326 13.0279 8.36767 13.6818 8.37238C13.5206 9.26625 13.3593 10.1601 13.1932 11.0811C11.6613 11.2436 10.1294 11.4061 8.55114 11.5736C8.47051 11.9799 8.38989 12.3862 8.30682 12.8048C9.2777 13.6844 10.2444 14.5279 11.315 15.2826C12.1679 15.9274 12.6446 16.4204 12.9489 17.4834C12.9315 18.3167 12.8383 19.124 12.7045 19.9459C13.4302 19.9459 14.1558 19.9459 14.9034 19.9459C14.8886 19.7528 14.8738 19.5597 14.8586 19.3607C14.5815 15.6937 14.3268 12.0511 14.4148 8.37238C15.4629 8.37238 16.511 8.37238 17.5909 8.37238C17.5909 11.2165 17.5909 14.0606 17.5909 16.9909C17.7522 16.9909 17.9134 16.9909 18.0795 16.9909C18.1178 16.8507 18.156 16.7104 18.1953 16.5659C18.708 14.7596 19.3768 13.0352 20.0799 11.2965C20.1931 11.014 20.3063 10.7315 20.423 10.4404C20.6996 9.7507 20.9775 9.06148 21.2557 8.37238C22.5457 8.37238 23.8357 8.37238 25.1648 8.37238C25.2454 11.2165 25.326 14.0606 25.4091 16.9909C25.6532 16.3894 25.8973 15.7879 26.1487 15.1682C26.3847 14.5878 26.6209 14.0076 26.857 13.4274C27.0215 13.0231 27.1857 12.6187 27.3497 12.2142C27.5851 11.634 27.8212 11.054 28.0575 10.4741C28.131 10.2922 28.2046 10.1104 28.2804 9.92301C28.8017 8.64666 28.8017 8.64666 29.0739 8.37238C29.6488 8.35447 30.2242 8.35176 30.7994 8.35699C31.1146 8.35921 31.4299 8.36143 31.7547 8.36372C31.9988 8.36658 32.2428 8.36943 32.4943 8.37238C30.9383 12.2616 29.2691 16.1014 27.608 19.9459C28.7367 19.9459 29.8655 19.9459 31.0284 19.9459C31.0911 19.5024 31.1538 19.059 31.2183 18.6021C31.4979 16.7719 31.873 14.9705 32.2712 13.1636C32.3893 12.627 32.5056 12.09 32.6217 11.5529C33.1931 8.93376 33.1931 8.93376 33.4716 8.37238C34.5197 8.37238 35.5678 8.37238 36.6477 8.37238C36.5021 9.87621 36.2776 11.324 35.952 12.798C35.909 12.9971 35.8659 13.1962 35.8216 13.4014C35.6857 14.0287 35.5483 14.6557 35.4109 15.2826C35.3177 15.7114 35.2247 16.1403 35.1317 16.5692C34.9053 17.6129 34.6774 18.6563 34.4489 19.6996C35.0132 19.7809 35.5776 19.8622 36.1591 19.9459C36.1591 19.7021 36.1591 19.4583 36.1591 19.2071C36.3647 19.2465 36.5704 19.2859 36.7823 19.3264C37.6578 19.4583 38.4961 19.5035 39.381 19.5149C39.8246 19.5245 39.8246 19.5245 40.2772 19.5342C41.0323 19.513 41.0323 19.513 41.5312 19.1417C41.8291 18.7265 41.8291 18.7265 41.7183 18.233C41.4033 17.3723 40.5875 16.9851 39.8544 16.4985C37.5842 14.9731 37.5842 14.9731 37.2299 13.7705C37.0678 12.3943 37.1482 11.3022 37.8693 10.0961C38.6828 9.14603 39.6043 8.67294 40.8011 8.37238C41.7285 8.31481 42.6516 8.3259 43.5803 8.3416C43.9549 8.34493 43.9549 8.34493 44.3371 8.34833C44.9502 8.3541 45.5631 8.36219 46.1761 8.37238C46.1417 8.7316 46.1058 9.09068 46.0692 9.4497C46.0395 9.74966 46.0395 9.74966 46.0091 10.0557C45.9318 10.5886 45.9318 10.5886 45.6875 11.0811C45.2599 11.1783 45.2599 11.1783 44.7102 11.2282C44.5137 11.2478 44.3172 11.2673 44.1147 11.2874C43.9081 11.3056 43.7015 11.3239 43.4886 11.3427C43.0814 11.3806 42.6741 11.4193 42.267 11.4591C42.0856 11.4753 41.9042 11.4915 41.7173 11.5082C41.2838 11.5309 41.2838 11.5309 41.0455 11.8198C40.8984 12.3937 40.8984 12.3937 41.0455 13.051C41.5445 13.5157 42.0018 13.8846 42.5572 14.2669C43.7 15.072 44.6473 15.8221 45.4432 16.9909C45.5625 17.7277 45.5625 17.7278 45.5195 18.4376C45.5085 18.6757 45.4975 18.9138 45.4861 19.159C45.4649 19.4266 45.4649 19.4266 45.4432 19.6996C45.6044 19.7809 45.7657 19.8622 45.9318 19.9459C45.9318 19.7021 45.9318 19.4583 45.9318 19.2071C46.1375 19.2468 46.3431 19.2865 46.555 19.3274C47.432 19.4585 48.2676 19.4948 49.1538 19.4996C49.5974 19.5048 49.5974 19.5048 50.0499 19.5101C50.8578 19.5143 50.8578 19.5144 51.5511 18.9609C51.5581 18.386 51.5581 18.386 51.3068 17.7297C50.7517 17.2717 50.2273 16.8848 49.6271 16.4985C47.6541 15.2129 47.6541 15.2129 47.1534 14.036C46.9496 12.7816 46.9636 11.5035 47.5504 10.3577C48.3761 9.28461 49.245 8.62422 50.5739 8.37238C51.0151 8.3527 51.4569 8.34586 51.8985 8.34833C52.1489 8.34912 52.3993 8.34992 52.6572 8.35073C52.9171 8.3528 53.1769 8.35486 53.4446 8.35699C53.7082 8.3581 53.9718 8.35921 54.2434 8.36035C54.8933 8.36325 55.5433 8.3673 56.1932 8.37238C56.118 8.8189 56.0414 9.26517 55.9641 9.71133C55.9216 9.95988 55.8791 10.2084 55.8353 10.4645C55.7045 11.0811 55.7045 11.0811 55.4602 11.3273C55.1328 11.3657 54.8036 11.389 54.4744 11.4052C54.2767 11.4155 54.0791 11.4259 53.8755 11.4365C53.6678 11.4462 53.4601 11.4559 53.2461 11.4658C52.9331 11.4818 52.9331 11.4818 52.6138 11.498C52.0968 11.5243 51.5796 11.549 51.0625 11.5736C50.9819 11.9799 50.9013 12.3862 50.8182 12.8048C51.7406 13.6427 52.638 14.4578 53.6889 15.1287C54.6966 15.8439 55.0492 16.5559 55.4602 17.7297C55.3796 18.461 55.299 19.1924 55.2159 19.9459C56.7478 19.9459 58.2797 19.9459 59.858 19.9459C59.9206 19.5453 59.9833 19.1447 60.0479 18.732C60.348 16.9178 60.7196 15.1215 61.1007 13.3232C61.2186 12.7665 61.335 12.2095 61.4513 11.6524C61.5261 11.2972 61.601 10.9419 61.676 10.5867C61.7106 10.4207 61.7453 10.2548 61.7809 10.0838C62.0287 8.92148 62.0287 8.92148 62.3011 8.37238C63.1969 8.3435 64.0926 8.32618 64.9886 8.31082C65.2403 8.30256 65.4919 8.29431 65.7512 8.28581C67.5392 8.26285 68.8641 8.50093 70.2548 9.67911C70.9901 10.4525 71.2917 11.2132 71.3562 12.2786C71.3002 14.2089 70.7147 15.592 69.3864 16.9909C68.1197 18.0553 66.9163 18.2684 65.3093 18.3607C65.1378 18.3713 64.9663 18.3819 64.7896 18.3929C64.3674 18.419 63.9451 18.4438 63.5227 18.4684C63.4421 18.8747 63.3615 19.281 63.2784 19.6996C66.1003 19.7809 68.9222 19.8622 71.8295 19.9459C71.6683 19.5396 71.507 19.1333 71.3409 18.7147C70.9845 15.9117 71.6772 12.8456 73.3546 10.5645C75.9255 7.76037 79.7943 7.41737 83.0376 9.26501ZM64.9886 11.0811C64.8251 11.7273 64.6623 12.3737 64.5 13.0202C64.4534 13.204 64.4068 13.3878 64.3588 13.5772C64.1038 14.5333 64.1038 14.5333 64.0114 15.5135C65.7254 15.6107 65.7254 15.6107 67.1875 14.7747C67.7266 14.0814 67.9076 13.6512 68.0121 12.774C67.9076 11.9668 67.8114 11.8118 67.1875 11.3273C66.6325 11.1862 66.6325 11.1862 66.0423 11.158C65.8448 11.1418 65.6473 11.1256 65.4439 11.109C65.2936 11.0998 65.1434 11.0906 64.9886 11.0811ZM75.983 12.5585C75.0902 14.2734 74.6262 16.0352 74.7614 17.9759C75.144 19.0213 75.144 19.0213 75.9429 19.74C76.8795 20.1047 77.7251 20.009 78.6705 19.6996C79.9747 18.6939 80.5919 17.218 81.0373 15.6674C81.2548 13.8294 81.2548 13.8294 80.7777 12.0814C80.2319 11.3342 80.2319 11.3342 79.4235 10.981C77.8529 10.9156 76.9444 11.2825 75.983 12.5585ZM22.233 13.2973C21.8236 14.266 21.4172 15.2359 21.0114 16.206C20.8948 16.4817 20.7783 16.7574 20.6582 17.0414C20.548 17.3057 20.4378 17.57 20.3242 17.8422C20.2219 18.0859 20.1195 18.3297 20.014 18.5808C19.7483 19.212 19.7483 19.212 19.7898 19.9459C20.7573 19.9459 21.7248 19.9459 22.7216 19.9459C22.7489 17.7136 22.6461 15.5216 22.4773 13.2973C22.3966 13.2973 22.316 13.2973 22.233 13.2973Z" fill="#E5E7EB"/>
<path d="M110.92 0C114.71 0 118.499 0 122.403 0C121.854 3.3243 121.854 3.3243 121.6 4.42856C121.551 4.64115 121.503 4.85375 121.453 5.07278C121.394 5.32871 121.335 5.58463 121.273 5.84831C121.082 6.68123 120.89 7.51416 120.693 8.37232C123.434 8.37232 126.176 8.37232 129 8.37232C128.45 11.6966 128.45 11.6966 128.09 13.3395C128.021 13.6521 127.953 13.9647 127.883 14.2868C127.798 14.6712 127.713 15.0557 127.626 15.4519C127.354 16.6911 127.081 17.9303 126.801 19.2071C123.979 19.2071 121.157 19.2071 118.25 19.2071C118.169 20.0197 118.089 20.8323 118.006 21.6695C117.92 22.1469 117.825 22.6228 117.715 23.0951C117.666 23.3089 117.617 23.5227 117.566 23.743C117.505 24.0034 117.443 24.2638 117.38 24.5321C117.085 25.7967 117.085 25.7967 116.784 27.0869C113.64 27.0869 110.495 27.0869 107.256 27.0869C107.744 24.3782 107.744 24.3782 107.989 24.132C108.459 24.1104 108.931 24.1056 109.402 24.1079C109.831 24.1091 109.831 24.1091 110.268 24.1103C110.72 24.1134 110.72 24.1134 111.18 24.1166C111.633 24.1183 111.633 24.1183 112.095 24.12C112.844 24.1229 113.592 24.1269 114.341 24.132C114.368 23.8276 114.396 23.5232 114.424 23.2095C114.583 21.7649 114.895 20.362 115.211 18.9454C115.408 18.0567 115.604 17.1679 115.807 16.2521C118.629 16.2521 121.451 16.2521 124.358 16.2521C124.519 15.1958 124.68 14.1394 124.847 13.051C125.008 12.4821 125.169 11.9133 125.335 11.3273C122.594 11.3273 119.853 11.3273 117.028 11.3273C117.178 9.9736 117.313 8.79267 117.617 7.49411C117.715 7.07154 117.715 7.07154 117.815 6.64043C117.917 6.21024 117.917 6.21024 118.021 5.77136C118.124 5.32831 118.124 5.32831 118.229 4.87632C118.398 4.1535 118.568 3.43106 118.739 2.70869C116.965 2.70869 115.191 2.70869 113.364 2.70869C113.308 3.07944 113.253 3.4502 113.196 3.83218C112.783 6.35015 112.202 8.8366 111.653 11.3273C110.605 11.3273 109.557 11.3273 108.477 11.3273C109.641 5.42192 109.641 5.42192 110.249 2.47784C110.288 2.283 110.328 2.08816 110.369 1.88741C110.647 0.550391 110.647 0.550391 110.92 0Z" fill="#9CA3AF"/>
<path d="M14.4148 8.37238C15.4629 8.37238 16.511 8.37238 17.5909 8.37238C17.5909 11.2165 17.5909 14.0606 17.5909 16.9909C17.7522 16.9909 17.9134 16.9909 18.0795 16.9909C18.1178 16.8507 18.156 16.7104 18.1953 16.5659C18.708 14.7596 19.3768 13.0352 20.0799 11.2965C20.1931 11.014 20.3063 10.7315 20.423 10.4404C20.6996 9.7507 20.9775 9.06148 21.2557 8.37238C22.5457 8.37238 23.8357 8.37238 25.1648 8.37238C25.2454 11.2165 25.326 14.0606 25.4091 16.9909C25.6532 16.3894 25.8973 15.7879 26.1487 15.1682C26.3847 14.5878 26.6209 14.0076 26.857 13.4274C27.0215 13.0231 27.1857 12.6187 27.3497 12.2142C27.5851 11.634 27.8212 11.054 28.0575 10.4741C28.131 10.2922 28.2046 10.1104 28.2804 9.92301C28.8017 8.64666 28.8017 8.64666 29.0739 8.37238C29.6488 8.35447 30.2242 8.35176 30.7994 8.35699C31.2722 8.36032 31.2722 8.36032 31.7547 8.36372C31.9988 8.36658 32.2428 8.36943 32.4943 8.37238C31.4888 10.8858 30.4418 13.381 29.3758 15.869C29.237 16.1929 29.0985 16.5169 28.9603 16.841C28.1556 18.726 27.3172 20.5825 26.3864 22.4083C25.2576 22.4083 24.1289 22.4083 22.9659 22.4083C22.724 19.5642 22.4822 16.7201 22.2329 13.7897C21.4827 15.7043 21.4827 15.7043 20.7349 17.6199C20.0872 19.2621 19.3756 20.8395 18.5682 22.4083C17.4394 22.4083 16.3107 22.4083 15.1477 22.4083C15.041 21.122 14.9368 19.8354 14.8346 18.5487C14.7996 18.1132 14.7641 17.6777 14.7279 17.2422C14.482 14.2781 14.3663 11.3468 14.4148 8.37238Z" fill="#9CA3AF"/>
<path d="M83.0376 9.26501C84.4532 10.8596 84.6926 12.5165 84.6295 14.617C84.3683 17.0708 83.6109 19.2458 81.816 20.9616C80.0555 22.3901 78.2357 22.8301 75.9953 22.7478C74.2578 22.5303 73.2281 21.742 72.1292 20.4085C71.0195 18.6953 71.1378 16.8249 71.5088 14.8786C72.1762 12.2891 73.0863 10.3206 75.4055 8.90234C77.8934 7.6797 80.6529 7.90652 83.0376 9.26501ZM75.983 12.5585C75.0902 14.2734 74.6262 16.0352 74.7614 17.9759C75.144 19.0213 75.144 19.0213 75.9429 19.74C76.8795 20.1047 77.7251 20.009 78.6705 19.6996C79.9747 18.6939 80.5919 17.218 81.0373 15.6674C81.2548 13.8294 81.2548 13.8294 80.7777 12.0814C80.2319 11.3342 80.2319 11.3342 79.4235 10.981C77.8529 10.9156 76.9444 11.2825 75.983 12.5585Z" fill="#9CA3AF"/>
<path d="M62.3011 8.37238C63.1969 8.3435 64.0926 8.32618 64.9886 8.31082C65.2403 8.30256 65.4919 8.29431 65.7512 8.28581C67.5392 8.26285 68.8641 8.50093 70.2548 9.67911C70.9901 10.4525 71.2917 11.2132 71.3562 12.2786C71.3002 14.2089 70.7147 15.592 69.3864 16.9909C68.1203 18.0548 66.9139 18.2684 65.3093 18.3607C64.7197 18.3962 64.1302 18.4318 63.5227 18.4684C63.2002 19.7686 62.8777 21.0687 62.5454 22.4083C61.4973 22.4083 60.4492 22.4083 59.3693 22.4083C59.9292 19.1311 60.5644 15.8731 61.2475 12.6201C61.3047 12.3461 61.3047 12.3461 61.363 12.0666C61.4723 11.5442 61.5825 11.0221 61.6932 10.5001C61.7894 10.045 61.7894 10.045 61.8876 9.58072C62.0568 8.86484 62.0568 8.86487 62.3011 8.37238ZM64.9886 11.0811C64.8251 11.7273 64.6623 12.3737 64.5 13.0202C64.4534 13.204 64.4068 13.3878 64.3588 13.5772C64.1038 14.5333 64.1038 14.5333 64.0114 15.5135C65.7254 15.6107 65.7254 15.6107 67.1875 14.7747C67.7266 14.0814 67.9076 13.6512 68.0121 12.774C67.9076 11.9668 67.8114 11.8118 67.1875 11.3273C66.6325 11.1862 66.6325 11.1862 66.0423 11.158C65.8448 11.1418 65.6473 11.1256 65.4439 11.109C65.2936 11.0998 65.1434 11.0906 64.9886 11.0811Z" fill="#9CA3AF"/>
<path d="M90.4769 8.34833C90.7281 8.34912 90.9793 8.34992 91.2381 8.35073C91.6309 8.35383 91.6309 8.35383 92.0316 8.35699C92.2963 8.3581 92.561 8.35921 92.8338 8.36035C93.4877 8.36326 94.1416 8.36731 94.7955 8.37238C94.7203 8.8189 94.6437 9.26517 94.5664 9.71133C94.5239 9.95988 94.4814 10.2084 94.4376 10.4645C94.3068 11.0811 94.3068 11.0811 94.0625 11.3273C93.7351 11.3657 93.4059 11.389 93.0766 11.4052C92.879 11.4155 92.6814 11.4259 92.4778 11.4365C92.1662 11.451 92.1662 11.451 91.8484 11.4658C91.5354 11.4818 91.5354 11.4818 91.2161 11.498C90.699 11.5243 90.1819 11.549 89.6648 11.5736C89.5842 11.9799 89.5035 12.3862 89.4205 12.8048C90.3428 13.6427 91.2402 14.4578 92.2912 15.1287C93.2444 15.8052 93.7543 16.5969 94.0625 17.7297C94.1621 18.938 93.9501 19.7323 93.3143 20.7615C91.3227 22.598 89.2724 22.7088 86.6585 22.6959C85.628 22.6487 84.7777 22.4834 83.8012 22.162C84.043 21.1869 84.2849 20.2118 84.5341 19.2071C85.0178 19.2884 85.5016 19.3696 86 19.4534C86.5849 19.4813 87.1705 19.4964 87.756 19.4996C88.1996 19.5048 88.1996 19.5048 88.6522 19.5101C89.4601 19.5143 89.4601 19.5144 90.1534 18.9609C90.097 18.0621 89.9697 17.7835 89.2868 17.1766C89.0286 16.9985 88.7703 16.8204 88.5043 16.637C85.8696 14.728 85.8696 14.728 85.6517 13.404C85.5782 11.85 85.7691 10.8241 86.733 9.6036C87.9077 8.72369 89.0253 8.34025 90.4769 8.34833Z" fill="#9CA3AF"/>
<path d="M51.8985 8.34833C52.1489 8.34912 52.3993 8.34992 52.6572 8.35073C52.9171 8.3528 53.1769 8.35486 53.4446 8.35699C53.7082 8.3581 53.9718 8.35921 54.2434 8.36035C54.8933 8.36325 55.5433 8.3673 56.1932 8.37238C56.118 8.8189 56.0414 9.26517 55.9641 9.71133C55.9216 9.95988 55.8791 10.2084 55.8353 10.4645C55.7045 11.0811 55.7045 11.0811 55.4602 11.3273C55.1328 11.3657 54.8036 11.389 54.4744 11.4052C54.2767 11.4155 54.0791 11.4259 53.8755 11.4365C53.5639 11.451 53.5639 11.451 53.2461 11.4658C52.9331 11.4818 52.9331 11.4818 52.6138 11.498C52.0968 11.5243 51.5796 11.549 51.0625 11.5736C50.9819 11.9799 50.9013 12.3862 50.8182 12.8048C51.7406 13.6427 52.638 14.4578 53.6889 15.1287C54.6411 15.8045 55.1546 16.597 55.4602 17.7297C55.5326 18.8227 55.3697 19.6617 54.8494 20.623C52.6136 22.6511 50.3044 22.799 47.3977 22.6546C46.7819 22.5416 46.2737 22.3871 45.6875 22.1621C45.7681 21.1869 45.8488 20.2118 45.9318 19.2071C46.2403 19.2667 46.2403 19.2667 46.555 19.3274C47.432 19.4585 48.2676 19.4948 49.1538 19.4996C49.5974 19.5048 49.5974 19.5048 50.0499 19.5101C50.8578 19.5143 50.8578 19.5144 51.5511 18.9609C51.5581 18.386 51.5581 18.386 51.3068 17.7297C50.7517 17.2717 50.2273 16.8848 49.6271 16.4985C47.6541 15.2129 47.6541 15.2129 47.1534 14.036C46.9496 12.7816 46.9636 11.5035 47.5504 10.3577C48.7648 8.77942 49.9929 8.33766 51.8985 8.34833Z" fill="#9CA3AF"/>
<path d="M9.3633 8.34833C9.61447 8.34912 9.86563 8.34992 10.1244 8.35073C10.5172 8.35383 10.5172 8.35383 10.918 8.35699C11.1827 8.3581 11.4474 8.35921 11.7201 8.36035C12.374 8.36326 13.0279 8.36767 13.6818 8.37238C13.5206 9.26625 13.3593 10.1601 13.1932 11.0811C11.6613 11.2436 10.1294 11.4061 8.55114 11.5736C8.47051 11.9799 8.38989 12.3862 8.30682 12.8048C9.2777 13.6844 10.2444 14.5279 11.315 15.2826C12.1679 15.9274 12.6446 16.4204 12.9489 17.4834C13.0131 18.761 12.8667 19.6785 12.2007 20.7769C10.4749 22.3312 8.76941 22.6891 6.48972 22.7007C6.02156 22.7059 6.02156 22.7059 5.54394 22.7113C4.6658 22.656 3.99169 22.4835 3.17615 22.162C3.20389 21.7155 3.23506 21.2692 3.26777 20.8231C3.28478 20.5745 3.30178 20.326 3.31931 20.0699C3.35269 19.8665 3.38607 19.663 3.42047 19.4534C3.90911 19.2071 3.90911 19.2071 4.32044 19.312C5.09045 19.5043 5.81946 19.4953 6.61188 19.4995C6.91202 19.503 7.21215 19.5065 7.52139 19.5101C8.34407 19.5161 8.34406 19.5162 9.03977 18.9609C8.98335 18.0621 8.85605 17.7835 8.17321 17.1766C7.91495 16.9985 7.6567 16.8204 7.39062 16.637C4.75596 14.728 4.75596 14.728 4.53802 13.404C4.4646 11.85 4.65547 10.8241 5.61932 9.6036C6.79404 8.72369 7.91164 8.34025 9.3633 8.34833Z" fill="#9CA3AF"/>
<path d="M43.5803 8.3416C43.9549 8.34493 43.9549 8.34493 44.3371 8.34833C44.9502 8.3541 45.5631 8.36219 46.1761 8.37238C46.1417 8.7316 46.1058 9.09068 46.0692 9.4497C46.0494 9.64968 46.0296 9.84965 46.0091 10.0557C45.9318 10.5886 45.9318 10.5886 45.6875 11.0811C45.2599 11.1783 45.2599 11.1783 44.7102 11.2282C44.5137 11.2478 44.3172 11.2673 44.1147 11.2874C43.8048 11.3148 43.8048 11.3148 43.4886 11.3427C43.0814 11.3806 42.6741 11.4193 42.267 11.4591C42.0856 11.4753 41.9042 11.4915 41.7173 11.5082C41.2838 11.5309 41.2838 11.5309 41.0455 11.8198C40.8984 12.3937 40.8984 12.3937 41.0455 13.051C41.5445 13.5157 42.0018 13.8846 42.5572 14.2669C45.2141 16.1387 45.2141 16.1387 45.6226 17.6585C45.63 18.9195 45.5305 19.7833 44.7408 20.7923C42.9292 22.5566 41.0254 22.7418 38.6181 22.7483C37.5508 22.7255 36.6629 22.5553 35.6705 22.1621C35.8317 21.1869 35.993 20.2118 36.1591 19.2071C36.6428 19.2884 37.1266 19.3697 37.625 19.4534C38.2097 19.4872 38.7954 19.5074 39.381 19.5149C39.8246 19.5245 39.8246 19.5245 40.2772 19.5342C41.0323 19.513 41.0323 19.513 41.5312 19.1417C41.8291 18.7265 41.8291 18.7265 41.7183 18.233C41.4033 17.3723 40.5875 16.9851 39.8544 16.4985C37.5842 14.9731 37.5842 14.9731 37.2299 13.7705C37.0678 12.3943 37.1482 11.3022 37.8693 10.0961C39.4278 8.27579 41.3745 8.30431 43.5803 8.3416Z" fill="#9CA3AF"/>
<path d="M96.2103 8.34275C96.4007 8.34329 96.5911 8.34386 96.7873 8.34442C97.1101 8.34445 97.1101 8.34445 97.4394 8.34448C97.6733 8.34575 97.9072 8.34702 98.1481 8.34833C98.5055 8.34885 98.5055 8.34885 98.8702 8.34939C99.6344 8.35077 100.399 8.35386 101.163 8.35699C101.68 8.35822 102.197 8.35934 102.713 8.36035C103.983 8.36308 105.253 8.3672 106.523 8.37238C106.448 8.8189 106.371 9.26517 106.294 9.71133C106.251 9.95988 106.209 10.2084 106.165 10.4645C106.034 11.0811 106.034 11.0811 105.79 11.3273C105.172 11.3453 104.56 11.3501 103.942 11.3427C103.768 11.3416 103.595 11.3405 103.416 11.3393C102.986 11.3364 102.555 11.332 102.125 11.3273C102.1 11.4946 102.075 11.6618 102.049 11.8341C101.736 13.821 101.327 15.7793 100.882 17.7395C100.764 18.2605 100.648 18.7819 100.532 19.3033C100.457 19.6362 100.382 19.969 100.307 20.3018C100.206 20.7494 100.206 20.7494 100.103 21.2061C99.9262 21.9158 99.9262 21.9158 99.6819 22.4083C98.7144 22.4083 97.7469 22.4083 96.75 22.4083C96.8881 19.9384 97.3369 17.6127 97.8647 15.2056C97.9462 14.8277 98.0275 14.4496 98.1086 14.0716C98.305 13.1563 98.5048 12.2419 98.7045 11.3273C97.5758 11.3273 96.447 11.3273 95.2841 11.3273C95.5186 8.38958 95.5187 8.38956 96.2103 8.34275Z" fill="#9CA3AF"/>
<path d="M33.4716 8.37238C34.5197 8.37238 35.5678 8.37238 36.6477 8.37238C36.5038 9.84211 36.2928 11.2613 35.9778 12.7028C35.9365 12.8955 35.8952 13.0881 35.8526 13.2866C35.7657 13.6911 35.6782 14.0954 35.5902 14.4996C35.4575 15.1098 35.3267 15.7204 35.1962 16.3311C34.7566 18.3743 34.2875 20.3975 33.7159 22.4083C32.6678 22.4083 31.6197 22.4083 30.5398 22.4083C31.0718 19.0776 31.7017 15.7764 32.418 12.4816C32.4752 12.2171 32.4752 12.2171 32.5335 11.9472C32.6427 11.4438 32.7529 10.9406 32.8637 10.4375C32.9599 10.0003 32.9599 10.0003 33.0581 9.55421C33.2273 8.86484 33.2273 8.86487 33.4716 8.37238Z" fill="#9CA3AF"/>
<path d="M99.4528 35.3362C100.411 35.5056 100.411 35.5056 101.346 35.3054C102.125 35.213 102.125 35.213 102.598 35.4593C103.311 36.8116 102.723 38.4899 102.369 39.8917C101.886 39.8917 101.402 39.8917 100.903 39.8917C101.042 38.7367 101.193 37.5905 101.392 36.4443C101.15 36.5255 100.908 36.6068 100.659 36.6905C100.352 37.4333 100.352 37.4333 100.125 38.3065C100.041 38.6014 99.9564 38.8963 99.8698 39.2001C99.7767 39.5424 99.7767 39.5424 99.6818 39.8917C99.2787 39.8917 98.8755 39.8917 98.4602 39.8917C98.5408 38.8353 98.6215 37.7789 98.7045 36.6905C98.4626 36.7718 98.2208 36.853 97.9716 36.9368C97.7191 37.6242 97.7191 37.6242 97.5593 38.4296C97.4979 38.7016 97.4365 38.9737 97.3732 39.254C97.3288 39.4644 97.2844 39.6749 97.2386 39.8917C96.7549 39.8917 96.2711 39.8917 95.7727 39.8917C95.8487 39.3838 95.9251 38.8759 96.0018 38.3681C96.0443 38.0852 96.0868 37.8024 96.1306 37.511C96.2403 36.8227 96.3642 36.1415 96.5057 35.4593C97.5324 35.293 98.4224 35.1756 99.4528 35.3362Z" fill="#9CA3AF"/>
<path d="M77.6932 35.4593C78.0963 35.4593 78.4994 35.4593 78.9148 35.4593C79.076 36.1906 79.2373 36.922 79.4034 37.6755C79.7259 36.9441 80.0484 36.2128 80.3807 35.4593C80.945 35.4593 81.5094 35.4593 82.0909 35.4593C82.1715 36.1094 82.2521 36.7595 82.3352 37.4292C82.442 37.2159 82.442 37.2159 82.5509 36.9983C82.8557 36.4418 83.1483 35.9444 83.5568 35.4593C84.3661 35.3362 84.3661 35.3362 85.0227 35.4593C84.6455 36.4788 84.1651 37.4134 83.6484 38.3681C83.5691 38.5152 83.4897 38.6623 83.4079 38.8139C83.2138 39.1735 83.0189 39.5326 82.8238 39.8917C82.2595 39.8917 81.6951 39.8917 81.1136 39.8917C81.033 39.1604 80.9524 38.429 80.8693 37.6755C80.4662 38.4068 80.0631 39.1382 79.6477 39.8917C79.164 39.8917 78.6802 39.8917 78.1818 39.8917C78.0988 39.4303 78.0178 38.9685 77.9375 38.5066C77.8695 38.1209 77.8695 38.1209 77.8001 37.7274C77.6963 36.96 77.6747 36.2327 77.6932 35.4593Z" fill="#9CA3AF"/>
<path d="M116.784 35.213C117.486 35.567 117.486 35.567 118.006 36.198C118.249 37.3405 118.163 38.1609 117.548 39.1529C116.688 39.9681 116.025 39.9939 114.879 39.9734C114.341 39.8917 114.341 39.8917 113.7 39.4146C113.232 38.3652 113.287 37.5394 113.608 36.4442C114.463 35.2952 115.393 35.0729 116.784 35.213ZM115.562 36.4442C115.155 36.8616 115.155 36.8616 114.83 37.4292C114.846 38.087 114.846 38.087 115.074 38.6604C115.235 38.7417 115.396 38.823 115.562 38.9067C116.08 38.6389 116.08 38.6389 116.54 38.1679C116.621 37.3982 116.621 37.3982 116.54 36.6905C116.217 36.6092 115.895 36.528 115.562 36.4442Z" fill="#9CA3AF"/>
<path d="M106.523 35.213C107.137 35.4195 107.415 35.5996 107.821 36.1057C108.075 36.9908 107.998 37.7787 107.744 38.6605C107.281 39.2473 106.938 39.5593 106.278 39.8917C104.531 40.0053 104.531 40.0053 103.781 39.5935C103.224 39.0286 103.208 38.7394 103.209 37.9525C103.244 36.9767 103.308 36.7401 103.927 35.9364C104.867 35.2366 105.353 35.1423 106.523 35.213ZM105.301 36.4443C104.811 37.0573 104.555 37.4318 104.599 38.2295C104.669 38.3717 104.74 38.514 104.812 38.6605C105.054 38.7417 105.296 38.823 105.545 38.9067C106.251 38.3192 106.43 37.8502 106.523 36.9368C106.442 36.7742 106.361 36.6117 106.278 36.4443C105.956 36.4443 105.633 36.4443 105.301 36.4443Z" fill="#9CA3AF"/>
<path d="M67.1875 35.213C67.7677 35.5824 67.7678 35.5824 68.1648 36.198C68.2445 36.8773 68.2103 37.4797 68.1648 38.168C67.1973 38.168 66.2298 38.168 65.2329 38.168C65.2329 38.3305 65.2329 38.493 65.2329 38.6605C66.0392 38.6605 66.8455 38.6605 67.6761 38.6605C67.5149 39.0668 67.3536 39.4731 67.1875 39.8917C64.9971 40.0813 64.9971 40.0813 64.0877 39.3992C63.6695 38.4357 63.7003 37.6728 64.0114 36.6905C64.8521 35.363 65.6402 35.0539 67.1875 35.213ZM65.7216 36.4443C65.641 36.688 65.5603 36.9318 65.4773 37.183C65.961 37.183 66.4448 37.183 66.9432 37.183C66.8625 36.9392 66.7819 36.6954 66.6989 36.4443C66.3764 36.4443 66.0539 36.4443 65.7216 36.4443Z" fill="#9CA3AF"/>
<path d="M75.983 35.213C76.5975 35.4195 76.8753 35.5996 77.2809 36.1057C77.5352 36.9908 77.4579 37.7787 77.2046 38.6605C76.7418 39.2473 76.3983 39.5593 75.7387 39.8917C73.9911 40.0053 73.9911 40.0053 73.2411 39.5935C72.6843 39.0286 72.6682 38.7394 72.6694 37.9525C72.7048 36.9767 72.7687 36.7401 73.3871 35.9364C74.3278 35.2366 74.8133 35.1423 75.983 35.213ZM74.3186 36.8598C73.9557 37.5719 74.0452 37.9099 74.2728 38.6605C74.5146 38.7417 74.7565 38.823 75.0057 38.9067C75.7113 38.3192 75.89 37.8502 75.983 36.9368C75.9024 36.7742 75.8217 36.6117 75.7387 36.4443C74.7798 36.3324 74.7798 36.3324 74.3186 36.8598Z" fill="#9CA3AF"/>
<path d="M59.858 33.7356C60.3417 33.7356 60.8255 33.7356 61.3239 33.7356C61.6464 34.3856 61.9689 35.0357 62.3011 35.7055C62.3871 35.5633 62.4731 35.4211 62.5617 35.2746C62.9342 34.71 63.2882 34.2129 63.7671 33.7356C64.7138 33.6124 64.7138 33.6124 65.4773 33.7356C65.0938 34.6368 64.5325 35.2685 63.8892 35.9979C62.8696 37.2249 62.5025 38.0728 62.3011 39.6454C62.0568 39.8917 62.0568 39.8917 61.4308 39.9071C61.2342 39.902 61.0377 39.8969 60.8352 39.8917C60.8466 39.6892 60.8579 39.4866 60.8696 39.278C60.9248 37.5579 60.8027 36.2653 60.0717 34.7023C59.858 34.228 59.858 34.228 59.858 33.7356Z" fill="#9CA3AF"/>
<path d="M122.403 35.4593C123.201 36.9818 122.621 38.3447 122.159 39.8917C121.756 39.8917 121.353 39.8917 120.938 39.8917C121.018 38.8353 121.099 37.7789 121.182 36.6905C120.94 36.6905 120.698 36.6905 120.449 36.6905C120.126 37.7469 119.804 38.8033 119.472 39.8917C118.988 39.8917 118.504 39.8917 118.006 39.8917C118.122 39.2451 118.239 38.5987 118.357 37.9525C118.39 37.7687 118.423 37.5849 118.457 37.3955C118.711 36.0075 118.711 36.0075 118.983 35.4593C120.208 35.229 121.175 35.1807 122.403 35.4593Z" fill="#9CA3AF"/>
<path d="M93.0852 35.4593C93.7963 36.5342 93.5422 37.4256 93.3296 38.6604C93.07 39.43 93.07 39.43 92.8409 39.8917C92.4378 39.8917 92.0347 39.8917 91.6193 39.8917C91.7 38.8353 91.7806 37.7789 91.8636 36.6905C91.6218 36.6905 91.3799 36.6905 91.1307 36.6905C90.8082 37.7469 90.4857 38.8033 90.1534 39.8917C89.7503 39.8917 89.3472 39.8917 88.9318 39.8917C89.0499 38.3636 89.2575 36.9369 89.6648 35.4593C90.8668 35.2713 91.8938 35.1161 93.0852 35.4593Z" fill="#9CA3AF"/>
<path d="M110.432 33.9818C110.676 34.7205 110.676 34.7205 110.432 35.4593C110.754 35.4593 111.077 35.4593 111.409 35.4593C111.328 35.7843 111.248 36.1093 111.165 36.4442C110.842 36.4442 110.52 36.4442 110.188 36.4442C110.107 37.1756 110.026 37.9069 109.943 38.6604C110.185 38.6604 110.427 38.6604 110.676 38.6604C110.596 39.0667 110.515 39.473 110.432 39.8917C109.729 39.9224 109.729 39.9224 108.966 39.8917C108.477 39.3992 108.477 39.3992 108.421 38.8923C108.424 38.6989 108.428 38.5056 108.431 38.3065C108.433 38.1138 108.435 37.9211 108.436 37.7226C108.477 37.183 108.477 37.183 108.722 36.4442C108.48 36.4442 108.238 36.4442 107.989 36.4442C108.069 36.1192 108.15 35.7941 108.233 35.4593C108.475 35.4593 108.717 35.4593 108.966 35.4593C108.981 35.3069 108.996 35.1545 109.012 34.9975C109.21 34.4743 109.21 34.4743 109.836 34.1665C110.033 34.1055 110.229 34.0446 110.432 33.9818Z" fill="#9CA3AF"/>
<path d="M71.5853 33.4893C72.069 33.4893 72.5528 33.4893 73.0512 33.4893C72.8538 34.4642 72.6549 35.4389 72.4556 36.4135C72.3994 36.6912 72.3432 36.9689 72.2853 37.2551C72.231 37.5202 72.1766 37.7852 72.1207 38.0583C72.0708 38.3033 72.0209 38.5483 71.9695 38.8008C71.8296 39.3992 71.8296 39.3992 71.5853 39.8917C71.1821 39.8917 70.779 39.8917 70.3637 39.8917C70.469 37.6842 71.0231 35.6135 71.5853 33.4893Z" fill="#9CA3AF"/>
<path d="M70.2567 33.4739C70.5515 33.4815 70.5515 33.4815 70.8523 33.4893C70.6943 35.6785 70.151 37.7671 69.6307 39.8917C69.2275 39.8917 68.8244 39.8917 68.4091 39.8917C68.8412 33.5087 68.8412 33.5087 70.2567 33.4739Z" fill="#9CA3AF"/>
<path d="M111.898 35.4593C112.382 35.4593 112.865 35.4593 113.364 35.4593C113.247 36.1058 113.13 36.7522 113.012 37.3984C112.98 37.5822 112.947 37.766 112.913 37.9554C112.658 39.3434 112.658 39.3434 112.386 39.8917C111.983 39.8917 111.58 39.8917 111.165 39.8917C111.283 38.3636 111.491 36.9369 111.898 35.4593Z" fill="#9CA3AF"/>
<path d="M87.4659 35.4593C87.9496 35.4593 88.4334 35.4593 88.9318 35.4593C88.8156 36.1058 88.6984 36.7522 88.5806 37.3984C88.5477 37.5822 88.5148 37.766 88.4809 37.9554C88.2265 39.3434 88.2265 39.3434 87.9545 39.8917C87.5514 39.8917 87.1483 39.8917 86.7329 39.8917C86.851 38.3636 87.0586 36.9369 87.4659 35.4593Z" fill="#9CA3AF"/>
<path d="M123.762 38.3988C124.057 38.4064 124.057 38.4064 124.358 38.4142C124.368 38.8245 124.368 39.2351 124.358 39.6454C124.114 39.8917 124.114 39.8917 123.488 39.907C123.193 39.8994 123.193 39.8994 122.892 39.8917C122.882 39.4814 122.882 39.0707 122.892 38.6604C123.136 38.4142 123.136 38.4142 123.762 38.3988Z" fill="#9CA3AF"/>
<path d="M112.386 33.4893C112.789 33.4893 113.193 33.4893 113.608 33.4893C113.608 33.8956 113.608 34.3019 113.608 34.7205C113.124 34.7205 112.64 34.7205 112.142 34.7205C112.223 34.3142 112.303 33.9079 112.386 33.4893Z" fill="#9CA3AF"/>
<path d="M87.9545 33.4893C88.4383 33.4893 88.922 33.4893 89.4204 33.4893C89.3398 33.8956 89.2592 34.3019 89.1761 34.7205C88.6924 34.7205 88.2086 34.7205 87.7102 34.7205C87.7908 34.3142 87.8714 33.9079 87.9545 33.4893Z" fill="#9CA3AF"/>
</svg>
