<svg width="115" height="28" viewBox="0 0 115 28" fill="none" xmlns="http://www.w3.org/2000/svg">
<g clip-path="url(#clip0_33_213)">
<path d="M49.8206 -0.00576137C49.8533 -0.00563108 49.886 -0.00550079 49.9198 -0.00536656C49.9715 -0.00542388 49.9715 -0.00542388 50.0244 -0.00548237C50.1409 -0.00555649 50.2575 -0.00530925 50.3741 -0.00506558C50.4573 -0.00505297 50.5405 -0.00506002 50.6237 -0.00508537C50.8504 -0.00509825 51.077 -0.00483443 51.3036 -0.00452295C51.5402 -0.00424421 51.7768 -0.00421714 52.0134 -0.00416399C52.4617 -0.00402472 52.91 -0.00365732 53.3584 -0.00320906C53.8686 -0.0027099 54.3789 -0.00246338 54.8892 -0.00223866C55.9391 -0.00177056 56.9891 -0.000983321 58.039 1.22376e-05C58.0155 0.200613 57.9901 0.395938 57.9431 0.592616C57.9329 0.635806 57.9227 0.678995 57.9121 0.723494C57.901 0.769841 57.8898 0.816188 57.8783 0.863939C57.8664 0.913914 57.8545 0.963888 57.8423 1.01538C57.8027 1.18167 57.7629 1.34791 57.723 1.51414C57.6948 1.63244 57.6666 1.75075 57.6384 1.86907C57.5782 2.12205 57.5178 2.37499 57.4573 2.62792C57.3616 3.02812 57.2661 3.42838 57.1708 3.82865C57.1466 3.93 57.1225 4.03135 57.0983 4.1327C57.0822 4.20036 57.0661 4.26803 57.0499 4.3357C56.9932 4.57371 56.9365 4.81171 56.8797 5.04971C56.6109 6.17691 56.3438 7.30452 56.0777 8.43236C55.9923 8.79451 55.9067 9.15666 55.8212 9.5188C55.7999 9.60931 55.7785 9.69981 55.7571 9.79032C55.4702 11.0055 55.1824 12.2204 54.8945 13.4353C54.8692 13.5422 54.8439 13.6491 54.8185 13.7561C54.6792 14.3443 54.5398 14.9325 54.4004 15.5208C54.4769 15.4446 54.5119 15.3436 54.5585 15.2472C55.1066 14.1245 55.7458 13.058 56.6198 12.1532C56.7144 12.0547 56.8032 11.9549 56.8907 11.8503C57.3291 11.3499 57.8619 10.9453 58.3984 10.5559C58.4249 10.5365 58.4513 10.517 58.4786 10.4969C60.6649 8.90406 63.5536 8.33545 66.2064 8.74248C67.5939 8.97799 68.9534 9.4746 70.0781 10.3323C70.1163 10.361 70.1545 10.3897 70.1939 10.4193C70.6759 10.792 71.0994 11.1915 71.4707 11.6741C71.5212 11.7376 71.5212 11.7376 71.5728 11.8024C72.0774 12.4489 72.7285 13.4625 72.7285 14.3131C72.7581 14.3131 72.7878 14.3131 72.8183 14.3131C72.8269 14.2346 72.8269 14.2346 72.8355 14.1544C72.8582 13.9752 72.8983 13.806 72.9473 13.6318C72.9599 13.5866 72.9599 13.5866 72.9727 13.5404C73.0004 13.4416 73.0283 13.3429 73.0563 13.2442C73.0758 13.1744 73.0954 13.1047 73.1149 13.0349C73.1663 12.8514 73.218 12.6681 73.2697 12.4848C73.3216 12.3009 73.3732 12.1169 73.4248 11.9329C73.4832 11.7245 73.5417 11.5162 73.6004 11.3079C73.6094 11.276 73.6184 11.2442 73.6276 11.2114C73.6453 11.1485 73.663 11.0857 73.6808 11.0229C73.729 10.8519 73.7766 10.6807 73.8236 10.5094C73.8338 10.4722 73.844 10.4351 73.8546 10.3968C73.8743 10.3248 73.894 10.2528 73.9135 10.1807C73.9813 9.93473 73.9813 9.93473 74.0312 9.885C74.1153 9.8808 74.1996 9.87974 74.2837 9.87992C74.3647 9.87992 74.3647 9.87992 74.4473 9.87993C74.506 9.88016 74.5647 9.88039 74.6252 9.88063C74.6856 9.88071 74.7459 9.88078 74.8063 9.88082C74.9655 9.88099 75.1246 9.88143 75.2838 9.88192C75.4461 9.88238 75.6083 9.88259 75.7706 9.88281C76.0893 9.88329 76.4079 9.88406 76.7265 9.885C76.7316 9.83621 76.7367 9.78743 76.7419 9.73717C76.7722 9.49715 76.8288 9.26468 76.8856 9.02973C76.8972 8.981 76.9089 8.93227 76.9208 8.88206C76.9593 8.721 76.998 8.56 77.0368 8.399C77.064 8.28536 77.0911 8.17172 77.1183 8.05807C77.1827 7.78845 77.2473 7.51888 77.312 7.24932C77.4262 6.77358 77.5401 6.29776 77.6539 5.82193C77.6885 5.67755 77.723 5.53318 77.7576 5.38881C77.8931 4.8234 78.0281 4.25792 78.1586 3.69135C78.1683 3.64934 78.178 3.60734 78.1879 3.56405C78.2319 3.37284 78.2757 3.18157 78.319 2.99021C78.3339 2.92512 78.3488 2.86003 78.3636 2.79494C78.3825 2.71169 78.3825 2.71169 78.4017 2.62676C78.4336 2.5048 78.4336 2.5048 78.4785 2.46008C78.5876 2.45571 78.6954 2.45426 78.8045 2.4547C78.8563 2.45464 78.8563 2.45464 78.9091 2.45458C79.0257 2.45451 79.1423 2.45475 79.2588 2.455C79.3421 2.45501 79.4253 2.455 79.5085 2.45498C79.7351 2.45497 79.9618 2.45523 80.1884 2.45554C80.425 2.45582 80.6616 2.45585 80.8981 2.4559C81.3465 2.45604 81.7948 2.45641 82.2431 2.45686C82.7534 2.45735 83.2637 2.4576 83.7739 2.45783C84.8239 2.45829 85.8738 2.45908 86.9238 2.46008C86.9002 2.66162 86.8745 2.85748 86.8267 3.05496C86.8163 3.09854 86.8059 3.14211 86.7951 3.18701C86.7837 3.23366 86.7723 3.28031 86.7606 3.32837C86.7486 3.37848 86.7365 3.42859 86.7241 3.48022C86.6841 3.64586 86.6439 3.81143 86.6037 3.977C86.5755 4.09375 86.5474 4.21051 86.5192 4.32727C86.4524 4.60423 86.3854 4.88115 86.3183 5.15804C86.2362 5.49676 86.1544 5.83552 86.0726 6.17428C86.0507 6.26483 86.0288 6.35538 86.007 6.44593C85.9925 6.50581 85.978 6.56569 85.9636 6.62557C85.9207 6.80299 85.8778 6.9804 85.8349 7.15781C85.6117 8.08126 85.3909 9.00526 85.1719 9.92972C85.7796 9.92972 86.3874 9.92972 87.0136 9.92972C87.0433 9.7526 87.0729 9.57548 87.1035 9.39298C87.1432 9.21451 87.1842 9.03695 87.2276 8.85937C87.2458 8.78373 87.2458 8.78373 87.2644 8.70657C87.3043 8.54104 87.3444 8.37559 87.3846 8.21013C87.4128 8.0932 87.4411 7.97627 87.4693 7.85933C87.536 7.5828 87.6029 7.30631 87.6699 7.02984C87.7668 6.6297 87.8634 6.22951 87.9601 5.8293C87.9747 5.76888 87.9893 5.70846 88.0039 5.64804C88.0146 5.60354 88.0146 5.60354 88.0256 5.55814C88.0734 5.36026 88.1213 5.1624 88.1692 4.96454C88.371 4.13038 88.5682 3.29532 88.7656 2.46008C91.5674 2.46008 94.3692 2.46008 97.2558 2.46008C97.1966 2.78451 97.1338 3.10296 97.0564 3.42284C97.0458 3.46716 97.0352 3.51148 97.0243 3.55714C96.9893 3.70289 96.9542 3.84859 96.9191 3.9943C96.8942 4.09797 96.8693 4.20164 96.8445 4.30532C96.7788 4.57891 96.713 4.85245 96.6472 5.12599C96.5821 5.39651 96.5172 5.66707 96.4522 5.93762C96.3381 6.41314 96.2238 6.88862 96.1095 7.36408C95.9771 7.91427 95.845 8.46449 95.7129 9.01471C95.6439 9.30191 95.5749 9.5891 95.5039 9.885C96.6453 9.885 97.7868 9.885 98.9629 9.885C98.9123 10.2876 98.9123 10.2876 98.8634 10.4846C98.8526 10.5285 98.8418 10.5723 98.8307 10.6175C98.8191 10.6636 98.8075 10.7097 98.7956 10.7572C98.7778 10.8294 98.7778 10.8294 98.7596 10.9031C98.7218 11.0558 98.6837 11.2084 98.6456 11.361C98.6198 11.465 98.5941 11.5689 98.5683 11.6729C98.5054 11.9268 98.4422 12.1807 98.3789 12.4345C98.4149 12.3955 98.4509 12.3565 98.488 12.3164C98.5363 12.2642 98.5845 12.212 98.6328 12.1599C98.6564 12.1343 98.68 12.1087 98.7044 12.0823C99.0804 11.6761 99.4689 11.2998 99.9062 10.9585C99.9499 10.9231 99.9937 10.8878 100.039 10.8514C102.195 9.14062 105.031 8.41505 107.758 8.70948C108.048 8.74735 108.335 8.79742 108.621 8.85624C108.662 8.86462 108.703 8.87299 108.745 8.88162C110.325 9.21586 111.711 9.95412 112.889 11.0479C112.922 11.0791 112.956 11.1103 112.991 11.1425C114.203 12.3025 114.966 14.0998 115.007 15.7673C115.008 15.8381 115.009 15.9088 115.009 15.9796C115.01 16.0371 115.01 16.0371 115.01 16.0958C115.011 16.2191 115.011 16.3424 115.011 16.4657C115.011 16.5288 115.011 16.5288 115.011 16.5932C115.01 17.6392 114.884 18.597 114.551 19.5911C110.504 19.5911 106.457 19.5911 102.287 19.5911C102.223 20.1614 102.163 20.745 102.377 21.2907C102.389 21.3221 102.401 21.3535 102.413 21.3858C102.622 21.8598 102.98 22.133 103.455 22.3195C104.105 22.5605 104.913 22.4226 105.531 22.1495C105.88 21.9861 106.206 21.796 106.51 21.5591C106.538 21.5372 106.566 21.5152 106.596 21.4925C106.709 21.4007 106.806 21.3206 106.883 21.1961C106.959 21.0802 107.022 21.0092 107.139 20.9329C107.376 20.9145 107.6 20.9685 107.832 21.0173C107.904 21.031 107.977 21.0446 108.049 21.0579C108.211 21.0878 108.372 21.1187 108.533 21.1502C108.818 21.2053 109.104 21.2549 109.39 21.3038C109.441 21.3125 109.492 21.3213 109.545 21.3303C109.65 21.3483 109.756 21.3663 109.861 21.3843C110.13 21.4305 110.398 21.4776 110.667 21.5248C110.776 21.5439 110.885 21.563 110.994 21.5822C111.048 21.5917 111.103 21.6012 111.159 21.6111C111.384 21.6505 111.608 21.6897 111.833 21.7289C112.051 21.7669 112.268 21.8049 112.485 21.843C112.588 21.8611 112.692 21.8792 112.795 21.8972C112.938 21.9221 113.08 21.9472 113.223 21.9723C113.266 21.9797 113.308 21.987 113.352 21.9946C113.39 22.0014 113.429 22.0083 113.469 22.0153C113.519 22.0241 113.519 22.0241 113.57 22.0331C113.652 22.0511 113.652 22.0511 113.742 22.0959C113.717 22.318 113.644 22.4973 113.543 22.6941C113.527 22.7251 113.511 22.7561 113.495 22.7881C113.18 23.3905 112.816 23.9254 112.35 24.4217C112.312 24.4614 112.312 24.4614 112.274 24.5018C111.908 24.8871 111.52 25.2253 111.092 25.5399C111.066 25.5591 111.04 25.5782 111.014 25.5979C110.621 25.8892 110.216 26.1508 109.789 26.3898C109.755 26.409 109.721 26.4282 109.685 26.448C107.894 27.4424 105.871 28.0226 103.817 28.014C103.777 28.0139 103.737 28.0138 103.695 28.0137C103.038 28.0115 102.396 27.9815 101.748 27.8658C101.705 27.8582 101.661 27.8505 101.617 27.8426C100.205 27.5831 98.8849 27.0684 97.7949 26.1214C97.7459 26.0808 97.7459 26.0808 97.6959 26.0393C97.482 25.8596 97.298 25.6662 97.1211 25.4505C97.0874 25.4102 97.0537 25.3699 97.0189 25.3284C96.4823 24.6634 96.1015 23.9277 95.8183 23.1246C95.8015 23.0771 95.8015 23.0771 95.7843 23.0286C95.5309 22.294 95.3908 21.485 95.3691 20.7093C95.3682 20.6792 95.3673 20.6492 95.3663 20.6182C95.3227 18.9823 95.7242 17.4561 96.2676 15.9233C95.178 15.9012 95.178 15.9012 94.0664 15.8786C94.0516 16.0114 94.0367 16.1443 94.0215 16.2812C94.0065 16.3602 93.9899 16.439 93.971 16.5172C93.961 16.5596 93.9509 16.6019 93.9405 16.6456C93.9294 16.6908 93.9184 16.736 93.9071 16.7826C93.8953 16.8315 93.8836 16.8805 93.8715 16.9309C93.8324 17.0938 93.793 17.2566 93.7535 17.4195C93.7255 17.5359 93.6975 17.6524 93.6695 17.7689C93.6096 18.0181 93.5496 18.2672 93.4894 18.5163C93.395 18.9075 93.3008 19.2988 93.2068 19.69C93.195 19.7391 93.195 19.7391 93.183 19.7891C93.151 19.922 93.1191 20.0549 93.0871 20.1878C93.0468 20.3556 93.0065 20.5235 92.9661 20.6913C92.7351 21.6514 92.5057 22.6119 92.2781 23.5728C92.2643 23.631 92.2505 23.6893 92.2367 23.7476C92.1064 24.2974 91.9763 24.8473 91.8465 25.3973C91.7993 25.5968 91.7521 25.7963 91.7049 25.9958C91.6727 26.1319 91.6406 26.2681 91.6085 26.4042C91.5894 26.485 91.5703 26.5657 91.5511 26.6465C91.5383 26.7013 91.5383 26.7013 91.5251 26.7573C91.466 27.0058 91.466 27.0058 91.416 27.1054C88.629 27.1054 85.8421 27.1054 82.9707 27.1054C83.0007 26.8062 83.0361 26.5351 83.1065 26.2466C83.1158 26.2076 83.125 26.1686 83.1346 26.1285C83.1655 25.9987 83.1968 25.8691 83.2281 25.7395C83.2506 25.6454 83.273 25.5513 83.2955 25.4572C83.3439 25.2542 83.3925 25.0511 83.4413 24.8481C83.5596 24.3557 83.677 23.8632 83.7945 23.3706C83.8222 23.2545 83.8499 23.1384 83.8776 23.0222C84.1067 22.0629 84.3337 21.1031 84.5594 20.143C84.5672 20.1101 84.5749 20.0772 84.5829 20.0432C84.7357 19.3934 84.8883 18.7436 85.0409 18.0937C85.1049 17.821 85.169 17.5483 85.2331 17.2756C85.2723 17.1088 85.3114 16.942 85.3505 16.7752C85.374 16.6753 85.3975 16.5754 85.421 16.4755C85.4316 16.4302 85.4422 16.3848 85.4531 16.3381C85.4628 16.2969 85.4725 16.2557 85.4825 16.2132C85.4909 16.1775 85.4993 16.1418 85.5079 16.105C85.5272 16.0286 85.5511 15.9533 85.5761 15.8786C84.9832 15.8934 84.3902 15.9081 83.7793 15.9233C83.734 16.1136 83.734 16.1136 83.6879 16.3077C83.5424 16.9194 83.3969 17.5312 83.2514 18.143C83.2314 18.2272 83.2314 18.2272 83.211 18.3132C82.8783 19.712 82.5454 21.1108 82.2121 22.5094C82.2049 22.5396 82.1977 22.5697 82.1903 22.6008C82.0436 23.2164 81.8969 23.832 81.7501 24.4477C81.6984 24.6644 81.6467 24.8812 81.5951 25.098C81.56 25.2452 81.5248 25.3925 81.4897 25.5397C81.4735 25.6079 81.4735 25.6079 81.4569 25.6774C81.4361 25.7645 81.4154 25.8515 81.3946 25.9386C81.3473 26.1365 81.3005 26.3344 81.2548 26.5326C81.2465 26.5684 81.2382 26.6042 81.2296 26.641C81.2143 26.7073 81.199 26.7736 81.184 26.8399C81.1339 27.0557 81.1339 27.0557 81.084 27.1054C80.9749 27.1098 80.8671 27.1113 80.7579 27.1108C80.7234 27.1109 80.6889 27.1109 80.6533 27.1109C80.5367 27.111 80.4202 27.1108 80.3036 27.1105C80.2204 27.1105 80.1372 27.1105 80.054 27.1105C79.8273 27.1106 79.6007 27.1103 79.3741 27.11C79.1375 27.1097 78.9009 27.1097 78.6643 27.1096C78.216 27.1095 77.7677 27.1091 77.3193 27.1087C76.8091 27.1082 76.2988 27.1079 75.7885 27.1077C74.7386 27.1072 73.6886 27.1064 72.6386 27.1054C72.6933 26.7559 72.7604 26.4123 72.8439 26.0685C72.8608 25.9976 72.8608 25.9976 72.8781 25.9253C72.9156 25.769 72.9533 25.6127 72.991 25.4564C73.0179 25.3442 73.0449 25.2319 73.0718 25.1197C73.1293 24.8797 73.1869 24.6398 73.2447 24.3999C73.3355 24.0227 73.426 23.6454 73.5165 23.2681C73.5241 23.2365 73.5317 23.2049 73.5395 23.1723C73.5703 23.0438 73.6011 22.9152 73.6319 22.7867C73.6709 22.6242 73.7099 22.4617 73.7489 22.2992C73.9751 21.3564 74.2001 20.4134 74.4238 19.47C74.4306 19.4411 74.4374 19.4123 74.4445 19.3826C74.5819 18.8033 74.7191 18.2241 74.8561 17.6448C74.9035 17.4446 74.951 17.2444 74.9984 17.0443C75.0308 16.9076 75.0631 16.7709 75.0954 16.6342C75.1146 16.5529 75.1339 16.4716 75.1532 16.3902C75.1662 16.3352 75.1662 16.3352 75.1794 16.2791C75.2116 16.1435 75.2448 16.0108 75.289 15.8786C74.533 15.8786 73.777 15.8786 72.998 15.8786C73.0128 15.9967 73.0277 16.1148 73.0429 16.2364C73.0788 16.974 73.013 17.7265 72.8717 18.4505C72.8654 18.4835 72.859 18.5166 72.8525 18.5507C72.7798 18.8958 72.6628 19.2058 72.5488 19.5463C68.5018 19.5463 64.4548 19.5463 60.2851 19.5463C60.2215 20.1167 60.1611 20.7003 60.375 21.246C60.387 21.2774 60.399 21.3088 60.4113 21.3411C60.6083 21.7873 60.9599 22.0918 61.4082 22.2748C62.2293 22.5249 63.0914 22.3588 63.8406 21.9768C64.177 21.7957 64.5563 21.5791 64.7692 21.2562C65.0154 20.9111 65.0154 20.9111 65.2258 20.8714C65.493 20.8669 65.7536 20.9285 66.0139 20.9825C66.1007 20.9985 66.1876 21.0141 66.2745 21.0295C66.5061 21.0713 66.7369 21.1164 66.9678 21.1622C67.2052 21.2087 67.4433 21.252 67.6813 21.2957C68.0558 21.3646 68.4298 21.4351 68.8037 21.5068C69.2336 21.5892 69.6641 21.6672 70.0955 21.7414C70.178 21.7555 70.178 21.7555 70.2621 21.77C70.3645 21.7875 70.4668 21.805 70.5692 21.8225C70.7923 21.8607 71.0152 21.8997 71.238 21.9391C71.2742 21.9454 71.3103 21.9517 71.3475 21.9582C71.4825 21.9822 71.61 22.0079 71.7402 22.0511C71.7139 22.2861 71.6367 22.4724 71.5353 22.6829C71.5111 22.7333 71.5111 22.7333 71.4864 22.7847C71.3411 23.0806 71.1728 23.3512 70.9765 23.6166C70.9258 23.687 70.9258 23.687 70.8741 23.7588C70.3202 24.5063 69.627 25.1424 68.8652 25.6741C68.8365 25.6943 68.8078 25.7145 68.7782 25.7354C66.9523 27.0112 64.613 27.9529 62.3586 27.9644C62.3173 27.9647 62.276 27.965 62.2335 27.9653C59.7248 27.9802 57.3001 27.5591 55.4287 25.7601C54.0245 24.3693 53.3747 22.3132 53.3665 20.3754C53.3666 20.3194 53.3667 20.2634 53.3668 20.2057C53.3668 20.1493 53.3669 20.0928 53.3669 20.0347C53.367 19.9916 53.3671 19.9485 53.3672 19.9042C53.3603 19.9332 53.3534 19.9622 53.3463 19.9921C53.1772 20.7043 53.008 21.4166 52.8388 22.1289C52.7569 22.4734 52.6751 22.8178 52.5933 23.1623C52.5218 23.4633 52.4503 23.7642 52.3788 24.0652C52.3411 24.2239 52.3034 24.3826 52.2657 24.5413C52.2232 24.7204 52.1807 24.8994 52.1381 25.0785C52.1262 25.1286 52.1143 25.1787 52.1021 25.2304C51.9569 25.841 51.808 26.4507 51.6601 27.0607C48.8584 27.0607 46.0566 27.0607 43.1699 27.0607C43.3763 26.0846 43.3763 26.0846 43.4836 25.6369C43.4958 25.5856 43.5079 25.5343 43.5205 25.4815C43.5603 25.3143 43.6002 25.147 43.6402 24.9798C43.6687 24.8602 43.6972 24.7405 43.7256 24.6209C43.7859 24.3674 43.8463 24.114 43.9068 23.8606C44.0023 23.4603 44.0976 23.06 44.1929 22.6596C44.2089 22.5923 44.2249 22.525 44.2409 22.4577C44.2649 22.357 44.2888 22.2564 44.3128 22.1557C44.3605 21.9552 44.4082 21.7547 44.456 21.5542C44.6927 20.5601 44.9286 19.5658 45.1634 18.5712C45.1889 18.4632 45.2144 18.3552 45.2399 18.2472C45.3213 17.9022 45.4028 17.5573 45.4842 17.2123C45.755 16.0649 46.026 14.9175 46.2971 13.7702C46.32 13.6731 46.343 13.576 46.3659 13.4788C46.9233 11.1194 47.4821 8.76029 48.0419 6.40142C48.1047 6.13675 48.1675 5.87208 48.2303 5.60741C48.2457 5.5426 48.2611 5.47779 48.2765 5.41298C48.4762 4.57125 48.6756 3.72942 48.8742 2.88743C48.909 2.73992 48.9438 2.59242 48.9787 2.44492C48.9897 2.39817 49.0007 2.35142 49.0121 2.30326C49.0337 2.21171 49.0554 2.12016 49.077 2.02861C49.1377 1.77131 49.1984 1.51398 49.2589 1.25662C49.2948 1.10395 49.3308 0.951325 49.3669 0.798704C49.3833 0.729402 49.3996 0.660086 49.4158 0.590756C49.4375 0.498147 49.4594 0.405586 49.4813 0.313035C49.4994 0.236246 49.4994 0.236246 49.5179 0.157906C49.5701 -0.0331807 49.6332 -0.00519585 49.8206 -0.00576137ZM61.9922 14.8946C61.9619 14.9201 61.9316 14.9456 61.9004 14.9718C61.5904 15.2524 61.3305 15.6514 61.2285 16.0575C62.7554 16.0723 64.2823 16.087 65.8554 16.1022C65.8554 15.4548 65.8502 15.0023 65.4062 14.5368C64.9911 14.1523 64.4836 14.0661 63.9315 14.0772C63.2143 14.111 62.5248 14.4229 61.9922 14.8946ZM103.674 15.2666C103.502 15.4728 103.23 15.8224 103.23 16.1022C104.757 16.1022 106.284 16.1022 107.857 16.1022C107.857 15.4175 107.839 15.0322 107.382 14.5509C106.974 14.1667 106.453 14.1128 105.917 14.1221C105.015 14.1583 104.266 14.6222 103.674 15.2666ZM54.3105 15.7444C54.3554 15.8339 54.3554 15.8339 54.3554 15.8339L54.3105 15.7444Z" fill="#9CA3AF"/>
<path d="M23.4492 4.56231C23.7479 4.83757 24.0082 5.1371 24.2578 5.45688C24.2872 5.49443 24.2872 5.49443 24.3171 5.53273C24.64 5.94849 24.9101 6.37897 25.1562 6.84346C25.1839 6.89443 25.2116 6.9454 25.2401 6.99792C25.5319 7.55313 25.7365 8.14333 25.9199 8.74162C25.9347 8.78883 25.9347 8.78883 25.9498 8.83699C25.997 8.99715 26.0137 9.09991 25.9648 9.2588C24.9379 9.51572 23.911 9.77234 22.8839 10.0286C22.4071 10.1476 21.9302 10.2667 21.4534 10.386C21.0379 10.49 20.6224 10.5938 20.2067 10.6974C19.9866 10.7522 19.7666 10.8072 19.5465 10.8624C19.3395 10.9143 19.1324 10.966 18.9252 11.0174C18.8492 11.0364 18.7731 11.0554 18.6971 11.0746C18.5934 11.1007 18.4896 11.1264 18.3857 11.1521C18.3556 11.1598 18.3255 11.1674 18.2945 11.1753C18.1377 11.2137 17.9955 11.2351 17.834 11.2268C17.8036 11.1587 17.8036 11.1587 17.7727 11.0892C17.4726 10.4398 17.0545 9.88014 16.3712 9.59444C15.2836 9.19626 14.1942 9.38044 13.1621 9.84027C13.111 9.8627 13.0598 9.88513 13.0071 9.90823C12.3361 10.2214 11.7582 10.6686 11.2304 11.1821C11.1896 11.2201 11.1487 11.258 11.1066 11.2971C10.5564 11.8199 10.1377 12.4333 9.79295 13.1054C9.77116 13.1479 9.77116 13.1479 9.74893 13.1912C8.96245 14.747 8.67585 16.7989 9.223 18.4757C9.52982 19.3174 10.0587 19.9684 10.8658 20.3714C11.6985 20.7406 12.6035 20.7623 13.4765 20.5304C13.5431 20.5132 13.5431 20.5132 13.611 20.4958C14.413 20.2599 15.1896 19.7769 15.6328 19.0543C15.7463 18.8212 15.8392 18.5901 15.9023 18.3387C14.3606 18.3239 12.8189 18.3091 11.2304 18.2939C11.5852 16.3511 12.1202 14.4453 12.5781 12.524C16.7585 12.524 20.939 12.524 25.2461 12.524C25.145 13.0775 25.145 13.0775 25.0953 13.2866C25.0784 13.3582 25.0784 13.3582 25.0611 13.4313C25.049 13.482 25.0369 13.5327 25.0244 13.585C25.0113 13.6401 24.9982 13.6952 24.9848 13.7519C24.9564 13.8717 24.928 13.9913 24.8994 14.111C24.8533 14.3044 24.8075 14.4978 24.7616 14.6912C24.6698 15.0778 24.5779 15.4643 24.4859 15.8508C24.4427 16.032 24.3996 16.2131 24.3565 16.3943C24.3479 16.4303 24.3394 16.4663 24.3306 16.5034C24.2521 16.8332 24.1736 17.163 24.0951 17.4929C24.0599 17.6408 24.0248 17.7887 23.9895 17.9367C23.7703 18.8578 23.5528 19.7794 23.3382 20.7016C23.2513 21.0753 23.1638 21.4489 23.0763 21.8225C23.0015 22.1419 22.9275 22.4615 22.8539 22.7812C22.8087 22.9772 22.7627 23.173 22.7166 23.3688C22.6956 23.4585 22.6749 23.5483 22.6545 23.6382C22.6269 23.7597 22.5983 23.881 22.5694 24.0022C22.5617 24.0373 22.554 24.0724 22.546 24.1085C22.4471 24.5126 22.1217 24.6983 21.7871 24.9137C21.6303 25.0067 21.4708 25.0937 21.3098 25.1793C21.2664 25.2026 21.223 25.2258 21.1783 25.2497C21.052 25.3171 20.9255 25.3839 20.7988 25.4505C20.7669 25.4674 20.7351 25.4843 20.7023 25.5017C18.7139 26.5515 16.5025 27.1437 14.2851 27.4633C14.2304 27.4713 14.1757 27.4793 14.1194 27.4876C13.3035 27.6013 12.4882 27.611 11.6656 27.6142C11.5896 27.6148 11.5896 27.6148 11.512 27.6153C8.70551 27.6304 5.7861 26.8512 3.59373 25.0479C3.55492 25.0161 3.55492 25.0161 3.51534 24.9836C2.9957 24.5548 2.52931 24.1014 2.11131 23.5719C2.05641 23.5042 2.05641 23.5042 2.00041 23.4351C1.738 23.108 1.51281 22.7673 1.30548 22.4032C1.27458 22.349 1.24339 22.2949 1.21186 22.241C0.424043 20.8918 0.00249726 19.2546 -0.0107245 17.6967C-0.0111644 17.6536 -0.0116037 17.6105 -0.012057 17.566C-0.020223 16.5559 0.00179689 15.5781 0.179667 14.5815C0.189533 14.5259 0.199399 14.4704 0.209564 14.4131C0.346428 13.6652 0.530286 12.9346 0.763651 12.2109C0.775971 12.1725 0.788291 12.1341 0.800984 12.0945C1.32362 10.488 2.11381 8.91467 3.18943 7.60385C3.22192 7.56349 3.2544 7.52313 3.28788 7.48154C3.38867 7.35731 3.49096 7.23445 3.59373 7.11183C3.6128 7.08875 3.63186 7.06566 3.65151 7.04188C4.13846 6.45313 4.66753 5.88647 5.27216 5.41582C5.38011 5.33095 5.48357 5.24231 5.58684 5.1519C9.17103 2.03847 14.5961 0.891746 23.4492 4.56231Z" fill="#9CA3AF"/>
<path d="M39.6211 1.22376e-05C42.4228 1.22376e-05 45.2246 1.22376e-05 48.1113 1.22376e-05C47.929 0.803902 47.7467 1.60736 47.5559 2.40921C47.5418 2.46853 47.5277 2.52785 47.5136 2.58717C47.5064 2.61714 47.4993 2.64711 47.492 2.67798C47.4537 2.83873 47.4156 2.9995 47.3774 3.16026C47.3124 3.43447 47.2472 3.70868 47.1821 3.98287C47.0792 4.41561 46.9765 4.84837 46.8738 5.28113C46.8652 5.31734 46.8566 5.35355 46.8477 5.39086C46.813 5.53705 46.7783 5.68325 46.7436 5.82944C46.6917 6.04825 46.6398 6.26706 46.5878 6.48586C46.3036 7.68331 46.0201 8.88095 45.7373 10.0787C45.6405 10.4889 45.5436 10.8991 45.4467 11.3093C45.4362 11.3538 45.4257 11.3984 45.4148 11.4443C45.1727 12.4695 44.9298 13.4946 44.6869 14.5196C44.2827 16.2253 43.8791 17.931 43.476 19.6369C43.3906 19.9982 43.3052 20.3595 43.2199 20.7207C43.1369 21.0718 43.0539 21.4229 42.9709 21.774C42.9599 21.8205 42.9599 21.8205 42.9487 21.868C42.7571 22.679 42.5658 23.49 42.375 24.3012C42.3109 24.5736 42.2468 24.8459 42.1827 25.1182C42.1249 25.3636 42.0672 25.609 42.0097 25.8544C41.9754 26.0006 41.941 26.1468 41.9065 26.293C41.8909 26.3594 41.8753 26.4258 41.8598 26.4922C41.8391 26.581 41.8181 26.6697 41.7972 26.7584C41.7799 26.8321 41.7799 26.8321 41.7622 26.9072C41.7324 27.016 41.7324 27.016 41.6875 27.0607C41.5784 27.0651 41.4706 27.0665 41.3615 27.0661C41.3269 27.0661 41.2924 27.0662 41.2568 27.0662C41.1403 27.0663 41.0237 27.066 40.9071 27.0658C40.8239 27.0658 40.7407 27.0658 40.6575 27.0658C40.4309 27.0658 40.2042 27.0656 39.9776 27.0653C39.741 27.065 39.5044 27.0649 39.2678 27.0649C38.8195 27.0648 38.3712 27.0644 37.9228 27.0639C37.4126 27.0634 36.9023 27.0632 36.3921 27.063C35.3421 27.0625 34.2921 27.0617 33.2422 27.0607C33.2694 26.7663 33.3207 26.4875 33.3905 26.2004C33.4011 26.156 33.4117 26.1117 33.4226 26.0661C33.4577 25.9189 33.4932 25.7718 33.5287 25.6247C33.5539 25.5196 33.579 25.4145 33.6042 25.3094C33.6651 25.0548 33.7262 24.8003 33.7873 24.5459C33.8667 24.2156 33.9458 23.8853 34.0248 23.5549C34.0394 23.4939 34.054 23.4328 34.0686 23.3717C34.0906 23.2798 34.1126 23.1879 34.1346 23.0959C34.1789 22.9106 34.2233 22.7252 34.2676 22.5398C34.5256 21.4623 34.7812 20.3843 35.0355 19.3059C35.1339 18.8887 35.2324 18.4716 35.3309 18.0544C35.3422 18.0065 35.3535 17.9587 35.3651 17.9094C35.6917 16.526 36.02 15.143 36.348 13.7599C36.479 13.2079 36.61 12.6558 36.7409 12.1037C36.7572 12.0349 36.7735 11.9661 36.7899 11.8973C37.1124 10.5375 37.4345 9.1776 37.7565 7.81768C37.824 7.53249 37.8915 7.2473 37.9591 6.96211C38.1836 6.01405 38.408 5.066 38.6323 4.11789C38.7214 3.74126 38.8105 3.36464 38.8996 2.98803C38.9597 2.73435 39.0197 2.48065 39.0796 2.22695C39.1159 2.07336 39.1523 1.91978 39.1887 1.7662C39.205 1.69715 39.2213 1.6281 39.2376 1.55904C39.3606 1.03805 39.4907 0.519304 39.6211 1.22376e-05Z" fill="#9CA3AF"/>
<path d="M27.3574 9.79554C30.1592 9.79554 32.961 9.79554 35.8476 9.79554C35.6413 10.7716 35.6413 10.7716 35.5368 11.2073C35.5249 11.2574 35.513 11.3074 35.5008 11.359C35.4618 11.5226 35.4228 11.6862 35.3837 11.8497C35.3557 11.9673 35.3277 12.0848 35.2997 12.2024C35.2402 12.4524 35.1806 12.7023 35.121 12.9523C35.0264 13.3491 34.9319 13.7459 34.8374 14.1428C34.8295 14.176 34.8216 14.2093 34.8134 14.2436C34.7814 14.3781 34.7494 14.5126 34.7174 14.6472C34.6692 14.8495 34.621 15.0519 34.5729 15.2543C34.3035 16.386 34.0351 17.5179 33.7678 18.65C33.7363 18.7831 33.7049 18.9162 33.6734 19.0493C33.43 20.0796 33.1871 21.1101 32.9445 22.1407C32.9365 22.1746 32.9285 22.2086 32.9203 22.2436C32.9123 22.2777 32.9042 22.3119 32.8959 22.3471C32.8391 22.5884 32.7823 22.8296 32.7255 23.0709C32.7175 23.1049 32.7095 23.1389 32.7013 23.1739C32.669 23.3109 32.6367 23.448 32.6044 23.585C32.5089 23.9908 32.4134 24.3965 32.318 24.8023C32.2584 25.0561 32.1986 25.3099 32.1388 25.5636C32.104 25.7115 32.0692 25.8593 32.0345 26.0072C31.9966 26.1687 31.9586 26.3301 31.9205 26.4915C31.9093 26.5392 31.8982 26.587 31.8866 26.6362C31.8764 26.6794 31.8662 26.7225 31.8557 26.7671C31.8469 26.8046 31.838 26.8421 31.8289 26.8808C31.8047 26.9713 31.8047 26.9713 31.7597 27.0607C28.958 27.0607 26.1562 27.0607 23.2695 27.0607C23.4676 26.1874 23.6672 25.315 23.8751 24.4441C23.9024 24.3293 23.9297 24.2146 23.957 24.0998C24.015 23.8564 24.0729 23.6131 24.1309 23.3697C24.2788 22.7493 24.4263 22.1289 24.5739 21.5085C24.5979 21.4076 24.6219 21.3067 24.6459 21.2058C24.9625 19.875 25.2774 18.5437 25.5917 17.2124C25.7072 16.7233 25.8226 16.2343 25.9382 15.7453C25.9505 15.6929 25.9629 15.6405 25.9757 15.5865C26.2385 14.4739 26.5021 13.3615 26.7663 12.2493C26.7983 12.1147 26.8302 11.9801 26.8622 11.8455C26.9115 11.6377 26.9609 11.4299 27.0103 11.2222C27.0281 11.1473 27.0459 11.0724 27.0636 10.9975C27.0879 10.8952 27.1122 10.7929 27.1366 10.6906C27.15 10.6339 27.1635 10.5773 27.1774 10.5189C27.2359 10.2774 27.2969 10.0365 27.3574 9.79554Z" fill="#9CA3AF"/>
<path d="M29.1094 2.46008C31.9111 2.46008 34.7129 2.46008 37.5996 2.46008C37.5491 2.86264 37.5491 2.86264 37.5189 2.99757C37.5121 3.02836 37.5053 3.05914 37.4983 3.09085C37.4909 3.12323 37.4836 3.15562 37.4761 3.18898C37.4643 3.24174 37.4643 3.24174 37.4524 3.29556C37.4267 3.41063 37.4009 3.52565 37.375 3.64066C37.357 3.72106 37.3391 3.80145 37.3211 3.88185C37.2836 4.04974 37.246 4.2176 37.2083 4.38544C37.1599 4.60069 37.1118 4.81598 37.0637 5.03128C37.0267 5.19702 36.9896 5.36274 36.9525 5.52845C36.9347 5.60786 36.9169 5.68727 36.8992 5.76669C36.8744 5.8774 36.8496 5.98809 36.8247 6.09877C36.8174 6.1316 36.81 6.16444 36.8025 6.19827C36.7736 6.32636 36.7429 6.45043 36.7012 6.57509C36.5815 6.61812 36.4675 6.65202 36.3446 6.68274C36.3082 6.6923 36.2718 6.70185 36.2342 6.7117C36.1205 6.74134 36.0066 6.77013 35.8926 6.79873C35.859 6.80726 35.8255 6.81579 35.791 6.82458C35.5558 6.8844 35.3201 6.94218 35.0843 6.99966C35.0071 7.0186 34.9298 7.03754 34.8526 7.0565C34.6879 7.0969 34.5232 7.13724 34.3584 7.17753C33.9157 7.28581 33.473 7.3945 33.0304 7.50321C32.9845 7.51446 32.9387 7.52571 32.8915 7.5373C32.1657 7.71553 31.4403 7.8954 30.7151 8.07629C30.6673 8.08822 30.6194 8.10015 30.5702 8.11245C30.1035 8.22883 29.6369 8.34534 29.1704 8.4621C28.9986 8.50507 28.8268 8.54797 28.655 8.59084C28.5749 8.61084 28.4949 8.63087 28.4149 8.65095C28.3059 8.67829 28.1969 8.70551 28.0878 8.73269C28.0558 8.74077 28.0237 8.74884 27.9907 8.75716C27.7719 8.81151 27.7719 8.81151 27.6719 8.81151C27.7266 8.46488 27.7918 8.12298 27.8714 7.7812C27.882 7.73508 27.8926 7.68895 27.9036 7.64143C27.9383 7.49055 27.9733 7.33972 28.0082 7.18888C28.0328 7.0826 28.0573 6.97631 28.0818 6.87001C28.1331 6.64761 28.1845 6.42524 28.236 6.20288C28.3013 5.92053 28.3665 5.63814 28.4317 5.35573C28.4945 5.08338 28.5574 4.81105 28.6203 4.53873C28.6379 4.46272 28.6379 4.46272 28.6558 4.38518C28.6897 4.23846 28.7236 4.09175 28.7576 3.94504C28.7671 3.90367 28.7767 3.8623 28.7865 3.81968C28.8917 3.36588 29.001 2.91318 29.1094 2.46008Z" fill="#9CA3AF"/>
</g>
<defs>
<clipPath id="clip0_33_213">
<rect width="115" height="28" fill="white"/>
</clipPath>
</defs>
</svg>
