<svg width="243" height="71" viewBox="0 0 243 71" fill="none" xmlns="http://www.w3.org/2000/svg">
<path d="M3.93082 41.1524C5.54947 41.1524 6.86164 39.9303 6.86164 38.4227C6.86164 36.9151 5.54947 35.693 3.93082 35.693C2.31217 35.693 1 36.9151 1 38.4227C1 39.9303 2.31217 41.1524 3.93082 41.1524Z" fill="#1F2D3D"/>
<path d="M49.8198 11.8233C50.7022 11.2333 51.8717 10.9334 53.2953 10.9334C54.2247 10.9334 55.2446 11.0599 56.3254 11.3095C58.5078 11.9125 59.8879 9.18122 58.0014 7.99795L57.9579 7.97039C54.3866 5.7319 50.1261 4.5 45.9613 4.5C43.1245 4.5 40.4704 5.06246 38.0756 6.17117C31.5509 9.18608 28.0005 15.5984 29.0291 22.5036C29.0691 22.7694 29.1126 23.032 29.1631 23.293C29.5077 25.123 30.0785 26.8687 30.632 28.5626C30.9783 29.6194 31.3107 30.6406 31.5857 31.6569C31.6953 32.0638 31.7963 32.4706 31.885 32.8791C31.9286 33.0833 31.9703 33.2875 32.0069 33.4934C32.2331 34.7269 32.348 35.9361 32.3497 37.1C32.3497 37.489 32.3393 37.8715 32.3149 38.2492L32.3045 38.4113L32.2923 38.5604C31.9686 42.4684 30.3518 45.2208 27.4836 46.7412C26.1452 47.4495 24.5719 47.8094 22.8089 47.8094C20.2001 47.8094 17.217 47.0184 14.4115 45.5839C12.9565 44.8382 11.5259 43.9224 10.0379 42.7861C8.91187 41.9238 3.17554 37.0384 3.17554 37.0384C2.93189 38.1584 2.73522 39.8847 2.76829 40.8735C3.23994 48.2227 7.20629 55.1959 13.3812 59.527C17.9515 62.7348 23.6913 64.5 29.5442 64.5C31.6344 64.5 33.702 64.2714 35.693 63.8225C38.328 63.2276 40.8533 62.2421 43.1976 60.8951L45.568 59.3665C51.1929 55.311 54.9679 49.3006 55.9268 42.8753C55.9373 42.8105 55.946 42.7472 55.9529 42.6824C55.9564 42.6548 55.9616 42.6273 55.9651 42.5997C55.9755 42.5219 55.986 42.4441 55.9947 42.3663L56.0086 42.2593V42.2496C56.08 41.6726 56.127 41.0874 56.1496 40.4974C56.1496 40.4925 56.1496 40.4877 56.1496 40.4812V40.4601L56.1618 40.1278C56.1618 40.11 56.1618 40.0922 56.1618 40.0727C56.1618 40.0241 56.1635 39.9738 56.1635 39.9252C56.1635 39.8717 56.167 39.8199 56.167 39.7664C56.167 39.7518 56.167 39.7372 56.167 39.721H56.1757V39.708C56.1757 39.3871 56.1652 39.0499 56.1461 38.6755C56.1461 38.656 56.1444 38.6366 56.1426 38.6171C55.9947 35.8551 55.302 32.9634 54.0803 30.023C53.9793 29.7815 53.8766 29.5416 53.774 29.3049C53.727 29.198 53.6782 29.091 53.6295 28.9808C53.6208 28.9629 53.6138 28.9467 53.6051 28.9289L53.6017 28.9224C53.5616 28.8333 53.5216 28.7457 53.4816 28.6598C53.4676 28.6323 53.4555 28.6031 53.4415 28.5755C53.3841 28.4523 53.3267 28.3308 53.2727 28.2206C53.1596 27.9823 53.0412 27.7456 52.9212 27.5073C52.6897 27.0502 52.4408 26.6013 52.185 26.1587C51.7568 25.4212 51.3043 24.7032 50.8605 24.0013C49.8041 22.3269 48.7947 20.7287 48.2082 19.0461C48.1699 18.9343 48.1316 18.8208 48.0968 18.709C48.0167 18.4513 47.9454 18.1903 47.8879 17.9277C47.4233 15.8383 47.8392 13.1395 49.8128 11.8168L49.8198 11.8233Z" fill="#1F2D3D"/>
<path d="M44.3776 55.3827C44.1392 56.6049 43.5387 57.7736 42.6616 58.777C42.5014 58.965 42.3291 59.1401 42.1499 59.3151C40.0283 60.5341 37.6997 61.4597 35.2231 62.0189C28.1693 63.6107 20.3828 62.1113 14.5856 58.0443C8.78135 53.974 5.1944 47.4951 4.76453 40.7648C4.76453 40.7648 4.76453 40.7648 4.76453 40.7681C5.3667 41.5121 8.04865 43.6728 8.77091 44.2256C10.2346 45.344 11.7887 46.3652 13.4491 47.2162C17.8679 49.4743 23.8375 50.8115 28.4704 48.3606C28.6723 48.2553 28.8655 48.1434 29.0534 48.0284C29.1143 47.9911 29.177 47.9522 29.2379 47.9133C29.271 47.8938 29.3058 47.8711 29.3389 47.8484C29.412 47.7998 29.4885 47.7512 29.5599 47.6993C29.9027 47.4643 30.2212 47.2146 30.5223 46.9504C30.5815 46.8969 30.6424 46.845 30.6998 46.7899C30.719 46.7705 30.7416 46.751 30.7625 46.7316C30.8269 46.67 30.8913 46.6084 30.9539 46.5452C31.3577 46.1464 31.718 45.7217 32.0417 45.2743C32.073 45.2322 32.1043 45.1868 32.1339 45.143C32.2871 44.9258 32.4298 44.7021 32.5638 44.4752C32.6073 44.4039 32.6491 44.3309 32.6891 44.258C32.7396 44.1672 32.7883 44.0764 32.837 43.984C32.8719 43.9176 32.9067 43.8527 32.938 43.7847C32.9502 43.762 32.9624 43.7393 32.9728 43.715C33.0059 43.6485 33.0407 43.5772 33.0703 43.5091C33.0807 43.488 33.0894 43.467 33.0998 43.4443C33.1329 43.3762 33.1642 43.3049 33.1938 43.2368C33.253 43.1022 33.3087 42.9661 33.3609 42.8299C33.3853 42.7699 33.4079 42.71 33.4323 42.6484C33.4479 42.6078 33.4618 42.5689 33.4775 42.5284C33.4984 42.4684 33.521 42.4085 33.5402 42.3469C33.5576 42.2999 33.5732 42.2529 33.5889 42.2058C33.6515 42.0146 33.7125 41.8217 33.7647 41.6255C33.789 41.5413 33.8117 41.457 33.8343 41.3727C33.8378 41.3613 33.8413 41.3484 33.843 41.337C33.8656 41.2479 33.8882 41.1603 33.9091 41.0712C33.977 40.7924 34.0327 40.5119 34.0832 40.2283C34.1041 40.2769 34.1284 40.3288 34.1528 40.3823C34.1719 40.4244 34.1928 40.4714 34.2137 40.5184C35.8375 44.1559 35.834 48.2472 34.2067 51.883C34.0362 52.2656 33.9126 52.5363 33.8848 52.5995L33.8778 52.6124L35.1901 52.6222C35.3258 52.6222 35.4215 52.6222 35.5347 52.6173C35.6443 52.6124 35.7505 52.6092 35.8584 52.6011C36.0724 52.5865 36.283 52.5687 36.4936 52.546C36.913 52.4974 37.3307 52.4277 37.745 52.3385C38.5734 52.1634 39.3879 51.9025 40.1658 51.5458C40.5539 51.3692 40.9333 51.1649 41.2954 50.9331C41.6574 50.7046 42.0037 50.4517 42.3257 50.168C42.491 50.0319 42.6372 49.8763 42.7903 49.7287L43.0062 49.4937C43.0653 49.4321 43.1175 49.3673 43.1698 49.3024C43.2794 49.5018 43.3803 49.7012 43.4795 49.9038C43.7563 50.4792 43.9843 51.0758 44.1548 51.682C44.5029 52.8929 44.6091 54.1588 44.3741 55.3859L44.3776 55.3827Z" fill="#FFFFFE"/>
<path d="M43.1732 49.2992C32.4976 62.9607 15.7725 54.4328 15.7725 54.4328C23.9889 54.7246 27.3896 50.5295 27.3896 50.5295C12.8695 57.6277 4.90025 41.0112 4.76624 40.7665C5.36841 41.5105 8.05035 43.6712 8.77262 44.224C10.2363 45.3424 11.7905 46.3637 13.4508 47.2147C17.8696 49.4727 23.8392 50.81 28.4721 48.3591C28.674 48.2537 28.8672 48.1419 29.0551 48.0268C29.1178 47.9879 29.1787 47.9506 29.2396 47.9117C29.2727 47.8922 29.3075 47.8695 29.3406 47.8468C29.4154 47.7982 29.4902 47.748 29.5616 47.6977C29.9045 47.4627 30.2229 47.213 30.524 46.9488C30.5832 46.8953 30.6441 46.8435 30.7016 46.7883C30.7207 46.7689 30.7433 46.7494 30.7642 46.73C30.8286 46.6684 30.893 46.6068 30.9556 46.5436C31.3594 46.1448 31.7197 45.7201 32.0434 45.2727C32.0747 45.2306 32.106 45.1852 32.1356 45.1414C32.2888 44.9242 32.4315 44.7005 32.5655 44.4736C32.609 44.4023 32.6508 44.3293 32.6908 44.2564C32.7413 44.1656 32.79 44.0749 32.8388 43.9825C32.8736 43.916 32.9084 43.8512 32.9397 43.7831C32.9519 43.7604 32.9641 43.7377 32.9745 43.7134C33.0076 43.6469 33.0424 43.5756 33.072 43.5075C33.0824 43.4864 33.0911 43.4654 33.1015 43.4427C33.1346 43.3746 33.1659 43.3033 33.1955 43.2352C33.2547 43.1007 33.3104 42.9645 33.3626 42.8283C33.387 42.7684 33.4096 42.7084 33.434 42.6468C33.4496 42.6063 33.4636 42.5674 33.4792 42.5268C33.5001 42.4669 33.5227 42.4069 33.5419 42.3453C33.5593 42.2983 33.5749 42.2513 33.5906 42.2043C33.6533 42.013 33.7142 41.8201 33.7664 41.624C33.7907 41.5397 33.8134 41.4554 33.836 41.3711C33.8395 41.3597 33.843 41.3468 33.8447 41.3354C33.8673 41.2463 33.8899 41.1587 33.9108 41.0696C33.9787 40.7908 34.0344 40.5104 34.0849 40.2267C34.1058 40.2753 34.1301 40.3272 34.1545 40.3807C34.1736 40.4228 34.1963 40.4698 34.2154 40.5168C35.8392 44.1543 35.8357 48.2456 34.2084 51.8814C34.0379 52.264 33.9143 52.5347 33.8865 52.5979L33.8795 52.6108L35.1918 52.6206C35.3275 52.6206 35.4232 52.6206 35.5364 52.6157C35.646 52.6108 35.7522 52.6076 35.8601 52.5995C36.0741 52.5849 36.2847 52.5671 36.4953 52.5444C36.9147 52.4958 37.3324 52.4261 37.7467 52.3369C38.5751 52.1618 39.3896 51.9009 40.1675 51.5443C40.5556 51.3676 40.9351 51.1633 41.2971 50.9315C41.6591 50.703 42.0054 50.4501 42.3274 50.1664C42.4927 50.0303 42.6389 49.8747 42.7921 49.7272L43.0079 49.4921C43.067 49.4305 43.1192 49.3657 43.1715 49.3008L43.1732 49.2992Z" fill="#DEDEE5"/>
<path d="M54.1585 38.7566C54.1759 39.0776 54.1864 39.4002 54.1864 39.7227V39.7292L54.1777 39.4326V39.4844C54.1777 39.6222 54.1777 39.76 54.1742 39.8978C54.1742 39.9642 54.1742 40.0307 54.1707 40.0971C54.1672 40.2009 54.162 40.3062 54.1603 40.41C54.1394 40.9595 54.0959 41.5057 54.028 42.0487C54.0141 42.159 54.0019 42.2676 53.9862 42.3778C53.9775 42.4572 53.9653 42.535 53.9532 42.6144C53.0516 48.6734 49.4821 54.1992 44.3479 57.8997L44.3427 57.9046C44.421 57.796 44.4976 57.689 44.5724 57.5755C44.9727 56.9742 45.2738 56.3096 45.4809 55.6223C45.6863 54.9318 45.782 54.2137 45.7925 53.4989C45.8012 52.7825 45.7176 52.0709 45.5679 51.3755C45.4148 50.6818 45.192 50.0042 44.9188 49.3461C44.7813 49.0171 44.6264 48.6945 44.4593 48.3752C44.3758 48.2163 44.2905 48.0575 44.1965 47.9019L44.0538 47.6652C44.0033 47.5842 43.9598 47.5145 43.8937 47.4188L43.1888 46.3993L42.4962 47.4772C42.1342 48.0429 41.6991 48.5632 41.1682 48.9976C40.6513 49.4434 40.0457 49.8065 39.4017 50.108C38.7578 50.4111 38.0616 50.6364 37.3498 50.8131C37.087 50.8779 36.8242 50.9298 36.5579 50.9735C36.544 50.9768 36.5318 50.98 36.5196 50.9816C36.4953 50.9865 36.4796 50.9897 36.4674 50.9897C36.457 50.9897 36.45 50.993 36.45 50.993C36.7633 50.1663 36.9791 49.3088 37.0818 48.4465C37.1218 48.1223 37.1462 47.7981 37.1619 47.4723C37.1723 47.1481 37.1706 46.824 37.1566 46.5014C37.1323 45.8563 37.054 45.216 36.9339 44.5855C36.8173 43.9549 36.6502 43.3341 36.457 42.7263C36.2586 42.1201 36.0219 41.5268 35.7608 40.9465C35.5015 40.363 35.1987 39.8005 34.8767 39.2526C34.7166 38.9771 34.5478 38.708 34.3668 38.4438C34.3459 38.4146 34.3268 38.3871 34.3076 38.3595C34.4173 36.617 34.278 34.8486 33.9735 33.1823C33.293 29.4623 31.5613 25.9951 31.0043 22.2492C30.1167 16.2907 33.098 10.5461 38.9597 7.83758C44.6473 5.20521 51.6959 6.29122 56.8387 9.51523C54.0906 8.87497 50.9527 8.77447 48.6502 10.3143C46.0727 12.0422 45.293 15.4154 45.9352 18.312C46.7514 21.9801 49.4368 24.9885 51.1198 28.3098C51.2329 28.5335 51.3443 28.7588 51.4522 28.9841C51.5079 29.096 51.5601 29.211 51.6141 29.3245C51.668 29.4363 51.7185 29.5514 51.7707 29.6649C51.8229 29.7784 51.8751 29.8934 51.9239 30.0085C52.0248 30.2387 52.1223 30.4673 52.218 30.6974C53.2883 33.2747 54.0054 35.9687 54.1498 38.7356C54.1498 38.7437 54.1498 38.7502 54.1498 38.7583L54.1585 38.7566Z" fill="#D85401"/>
<path d="M56.8423 9.51361C56.2923 9.36124 55.7267 8.95276 55.1941 8.73555C53.814 8.17145 52.3573 7.75324 50.871 7.52307C49.4386 7.30099 47.9697 7.30262 46.5391 7.52955C43.0131 8.09202 39.7325 9.87995 37.5831 12.5578C33.9439 17.09 34.7375 23.0778 35.0856 28.3573C35.2806 31.3269 35.0543 34.175 34.574 37.1105C34.5374 37.331 34.2346 38.2452 34.3703 38.443C34.3494 38.4138 34.3303 38.3862 34.3112 38.3587C34.4208 36.6161 34.2816 34.8477 33.977 33.1813C33.2965 29.4612 31.5648 25.994 31.0079 22.2479C30.1203 16.2892 33.1016 10.5445 38.9632 7.83591C44.6508 5.20347 51.6994 6.28951 56.8423 9.51361V9.51361Z" fill="#D85401"/>
<path d="M47.331 38.9576C46.7132 37.8229 46.2955 36.6996 46.0327 35.6184C46.7254 37.5393 47.2667 38.7987 47.331 38.9576Z" fill="url(#paint0_linear_138_1292)"/>
<path opacity="0.15" d="M52.225 30.7007C53.4137 33.5843 54.1638 36.6187 54.1864 39.726C54.183 39.6061 54.1795 39.4845 54.1777 39.3645C54.1777 39.3872 54.1777 39.4115 54.1777 39.4342C54.1777 39.4504 54.1777 39.4683 54.1777 39.4861C54.1777 39.5769 54.1777 39.666 54.1777 39.7568C54.1777 39.8054 54.1777 39.8524 54.1743 39.8994C54.1743 39.9659 54.1743 40.0324 54.1708 40.0988C54.1673 40.2026 54.1621 40.3079 54.1603 40.4117C54.136 40.9579 54.0925 41.5058 54.0281 42.0504C54.0141 42.1606 54.002 42.2692 53.9863 42.3794C53.9776 42.4589 53.9654 42.5367 53.9532 42.6161C53.0517 48.6751 49.4822 54.2008 44.348 57.9014C45.0024 57.4054 45.5959 56.3793 46.064 55.7261C46.614 54.9562 47.1431 54.1749 47.6373 53.3725C48.6154 51.784 49.4578 50.1177 50.0426 48.3688C50.958 45.6294 51.2504 42.6939 50.8727 39.8443C50.5508 37.4162 49.6144 35.1064 48.6537 32.8452C47.7087 30.6197 47.1901 28.3001 47.1848 25.8963C47.1848 25.8704 47.1709 25.8039 47.1848 25.778C47.1848 25.778 44.7013 30.1917 46.0275 35.617C42.8983 26.9256 35.9367 3.90366 56.8423 9.51853C54.1203 8.7875 50.9563 8.77777 48.6537 10.3176C46.0762 12.0455 45.2965 15.4187 45.9387 18.3153C46.755 21.9834 49.4404 24.9918 51.1234 28.3131C51.2365 28.5368 51.3479 28.7621 51.4558 28.9874C51.5115 29.0992 51.5637 29.2143 51.6176 29.3278C51.6716 29.4396 51.722 29.5547 51.7743 29.6682C51.8265 29.7817 51.8787 29.8967 51.9274 30.0118C52.0284 30.242 52.1258 30.4705 52.2215 30.7007H52.225Z" fill="#3C1C11"/>
<path d="M45.5837 27.9596C51.1773 39.4876 45.7334 45.2516 45.7334 45.2516C45.8987 39.1278 41.5582 35.599 41.5582 35.599C47.9106 49.4093 37.5622 50.7724 36.5615 50.9718C36.5476 50.9751 36.5354 50.9783 36.5232 50.9799C36.4989 50.9848 36.4832 50.988 36.471 50.988C36.4606 50.988 36.4536 50.9913 36.4536 50.9913C36.7669 50.1646 36.9827 49.3071 37.0854 48.4448C37.1254 48.1206 37.1498 47.7964 37.1654 47.4706C37.1759 47.1464 37.1741 46.8223 37.1602 46.4997C37.1358 45.8546 37.0575 45.2143 36.9374 44.5838C36.8208 43.9532 36.6538 43.3324 36.4606 42.7246C36.2622 42.1184 36.0255 41.5251 35.7644 40.9448C35.5051 40.3613 35.2023 39.7988 34.8803 39.2509C34.7202 38.9754 34.5514 38.7063 34.3704 38.4421C34.2346 38.2444 34.5374 37.3302 34.574 37.1097C35.0543 34.1742 35.2806 31.3263 35.0857 28.3567C34.7376 23.0758 33.944 17.0897 37.5831 12.5576C39.7325 9.88149 43.0131 8.09199 46.5392 7.52953C47.9698 7.30098 49.4387 7.29936 50.871 7.52305C52.359 7.75322 53.814 8.17142 55.1941 8.7355C55.7267 8.9527 56.2906 9.36279 56.8423 9.51354C42.3779 5.51149 39.9901 16.4316 45.582 27.9596H45.5837Z" fill="#F57C00"/>
<path d="M34.3355 42.454C35.9541 42.454 37.2663 41.2319 37.2663 39.7243C37.2663 38.2168 35.9541 36.9946 34.3355 36.9946C32.7168 36.9946 31.4047 38.2168 31.4047 39.7243C31.4047 41.2319 32.7168 42.454 34.3355 42.454Z" fill="#1F2D3D"/>
<path d="M35.3101 54.1619C36.9287 54.1619 38.2409 52.9398 38.2409 51.4322C38.2409 49.9246 36.9287 48.7025 35.3101 48.7025C33.6914 48.7025 32.3793 49.9246 32.3793 51.4322C32.3793 52.9398 33.6914 54.1619 35.3101 54.1619Z" fill="#1F2D3D"/>
<path d="M43.7493 50.9898C45.3679 50.9898 46.6801 49.7677 46.6801 48.2601C46.6801 46.7525 45.3679 45.5304 43.7493 45.5304C42.1307 45.5304 40.8185 46.7525 40.8185 48.2601C40.8185 49.7677 42.1307 50.9898 43.7493 50.9898Z" fill="#1F2D3D"/>
<path d="M43.7493 60.6326C45.3679 60.6326 46.6801 59.4105 46.6801 57.9029C46.6801 56.3953 45.3679 55.1732 43.7493 55.1732C42.1307 55.1732 40.8185 56.3953 40.8185 57.9029C40.8185 59.4105 42.1307 60.6326 43.7493 60.6326Z" fill="#1F2D3D"/>
<path d="M58.0692 12.4217C59.6879 12.4217 61.0001 11.1996 61.0001 9.69198C61.0001 8.18441 59.6879 6.96228 58.0692 6.96228C56.4506 6.96228 55.1384 8.18441 55.1384 9.69198C55.1384 11.1996 56.4506 12.4217 58.0692 12.4217Z" fill="#1F2D3D"/>
<path d="M88.2718 26.7973V13.644H92.8157V27.0978C92.8157 28.2328 92.5994 29.3122 92.1666 30.336C91.7566 31.3598 91.1303 32.2723 90.2875 33.0735C89.4676 33.8524 88.4426 34.4645 87.2127 34.9096C86.0055 35.3547 84.5933 35.5773 82.9762 35.5773C81.7235 35.5773 80.5049 35.4215 79.3205 35.1099C78.1589 34.7983 77.1112 34.3309 76.1774 33.7078C75.2435 33.0624 74.4919 32.2611 73.9225 31.3041C73.353 30.3249 73.0456 29.1787 73 27.8656H77.3048C77.5553 29.1342 78.1931 30.1023 79.218 30.77C80.2658 31.4154 81.5185 31.7381 82.9762 31.7381C84.2289 31.7381 85.2425 31.5267 86.0169 31.1038C86.7913 30.6587 87.3607 30.0689 87.7251 29.3345C88.0896 28.5778 88.2718 27.7321 88.2718 26.7973Z" fill="#1F2D3D"/>
<path d="M107.494 35.644C105.353 35.644 103.462 35.3102 101.822 34.6425C100.205 33.9748 98.941 33.0067 98.0299 31.7381C97.1189 30.4473 96.6633 28.8671 96.6633 26.9976C96.6633 25.1281 97.1189 23.5479 98.0299 22.2571C98.941 20.944 100.205 19.9536 101.822 19.2859C103.462 18.6182 105.353 18.2844 107.494 18.2844C109.635 18.2844 111.502 18.6182 113.097 19.2859C114.714 19.9536 115.978 20.944 116.889 22.2571C117.8 23.5479 118.256 25.1281 118.256 26.9976C118.256 28.8671 117.8 30.4473 116.889 31.7381C115.978 33.0067 114.714 33.9748 113.097 34.6425C111.502 35.3102 109.635 35.644 107.494 35.644ZM107.494 32.3057C108.678 32.3057 109.737 32.1053 110.671 31.7047C111.628 31.2819 112.379 30.681 112.926 29.902C113.473 29.1008 113.746 28.1327 113.746 26.9976C113.746 25.8626 113.473 24.8944 112.926 24.0932C112.379 23.2697 111.639 22.6466 110.705 22.2237C109.771 21.8008 108.701 21.5894 107.494 21.5894C106.309 21.5894 105.239 21.8008 104.282 22.2237C103.326 22.6466 102.562 23.2586 101.993 24.0598C101.446 24.861 101.173 25.8403 101.173 26.9976C101.173 28.1327 101.446 29.1008 101.993 29.902C102.54 30.681 103.291 31.2819 104.248 31.7047C105.205 32.1053 106.286 32.3057 107.494 32.3057Z" fill="#1F2D3D"/>
<path d="M121.539 18.6516H125.98V35.2434H121.539V18.6516ZM133.873 18.2844C134.92 18.2844 135.888 18.4179 136.777 18.685C137.665 18.9521 138.439 19.3638 139.1 19.9202C139.76 20.4766 140.273 21.1888 140.637 22.0568C141.002 22.9025 141.184 23.9152 141.184 25.0947V35.2434H136.742V25.8626C136.742 24.4604 136.389 23.4367 135.683 22.7912C135 22.1236 133.873 21.7897 132.301 21.7897C131.117 21.7897 130.046 22.0123 129.089 22.4574C128.133 22.9025 127.358 23.47 126.766 24.16C126.174 24.8277 125.832 25.5287 125.741 26.2632L125.707 24.5606C125.821 23.7816 126.083 23.0249 126.493 22.2905C126.903 21.556 127.45 20.8884 128.133 20.2874C128.839 19.6643 129.67 19.1746 130.627 18.8185C131.583 18.4625 132.665 18.2844 133.873 18.2844Z" fill="#1F2D3D"/>
<path d="M155.238 35.644C153.097 35.644 151.207 35.3102 149.567 34.6425C147.949 33.9748 146.685 33.0067 145.774 31.7381C144.863 30.4473 144.408 28.8671 144.408 26.9976C144.408 25.1281 144.863 23.5479 145.774 22.2571C146.685 20.944 147.949 19.9536 149.567 19.2859C151.207 18.6182 153.097 18.2844 155.238 18.2844C157.379 18.2844 159.247 18.6182 160.841 19.2859C162.458 19.9536 163.722 20.944 164.633 22.2571C165.544 23.5479 166 25.1281 166 26.9976C166 28.8671 165.544 30.4473 164.633 31.7381C163.722 33.0067 162.458 33.9748 160.841 34.6425C159.247 35.3102 157.379 35.644 155.238 35.644ZM155.238 32.3057C156.422 32.3057 157.482 32.1053 158.415 31.7047C159.372 31.2819 160.124 30.681 160.67 29.902C161.217 29.1008 161.49 28.1327 161.49 26.9976C161.49 25.8626 161.217 24.8944 160.67 24.0932C160.124 23.2697 159.383 22.6466 158.45 22.2237C157.516 21.8008 156.445 21.5894 155.238 21.5894C154.054 21.5894 152.983 21.8008 152.026 22.2237C151.07 22.6466 150.307 23.2586 149.737 24.0598C149.191 24.861 148.917 25.8403 148.917 26.9976C148.917 28.1327 149.191 29.1008 149.737 29.902C150.284 30.681 151.036 31.2819 151.992 31.7047C152.949 32.1053 154.031 32.3057 155.238 32.3057Z" fill="#1F2D3D"/>
<path d="M197.794 12.644V16.5181H180.594V22.5909H194.685V26.2207H180.594V35.2252H176V12.644H197.794Z" fill="#F57C00"/>
<path d="M209.649 35.644C207.484 35.644 205.573 35.295 203.915 34.597C202.28 33.899 201.002 32.8868 200.081 31.5606C199.16 30.2111 198.7 28.5591 198.7 26.6046C198.7 24.6501 199.16 22.9981 200.081 21.6486C201.002 20.2758 202.28 19.2404 203.915 18.5424C205.573 17.8443 207.484 17.4953 209.649 17.4953C211.813 17.4953 213.701 17.8443 215.313 18.5424C216.948 19.2404 218.226 20.2758 219.147 21.6486C220.068 22.9981 220.528 24.6501 220.528 26.6046C220.528 28.5591 220.068 30.2111 219.147 31.5606C218.226 32.8868 216.948 33.899 215.313 34.597C213.701 35.295 211.813 35.644 209.649 35.644ZM209.649 32.1539C210.846 32.1539 211.917 31.9445 212.861 31.5257C213.828 31.0836 214.588 30.4554 215.14 29.641C215.693 28.8034 215.969 27.7912 215.969 26.6046C215.969 25.4179 215.693 24.4058 215.14 23.5682C214.588 22.7073 213.839 22.0558 212.895 21.6137C211.951 21.1716 210.869 20.9506 209.649 20.9506C208.451 20.9506 207.369 21.1716 206.402 21.6137C205.435 22.0558 204.664 22.6956 204.088 23.5333C203.535 24.3709 203.259 25.3947 203.259 26.6046C203.259 27.7912 203.535 28.8034 204.088 29.641C204.641 30.4554 205.4 31.0836 206.367 31.5257C207.334 31.9445 208.428 32.1539 209.649 32.1539Z" fill="#F57C00"/>
<path d="M242.516 17.8792L233.606 27.5469L227.182 35.2252H221.69L230.981 25.0689L237.059 17.8792H242.516ZM221.69 17.8792H227.182L243 35.2252H237.508L230.843 27.6516L221.69 17.8792Z" fill="#F57C00"/>
<path d="M94 55.1736V44.5383H97.2646C98.0659 44.5383 98.7288 44.675 99.2531 44.9485C99.7774 45.2119 100.163 45.5765 100.411 46.0424C100.658 46.4982 100.782 47.0199 100.782 47.6073C100.782 48.1847 100.658 48.7063 100.411 49.1723C100.163 49.6382 99.7774 50.0079 99.2531 50.2814C98.7387 50.5549 98.0758 50.6916 97.2646 50.6916H95.0387V55.1736H94ZM95.0387 49.78H97.2498C98.1401 49.78 98.7733 49.5875 99.1492 49.2026C99.5251 48.8076 99.7131 48.2758 99.7131 47.6073C99.7131 46.9186 99.5251 46.3868 99.1492 46.012C98.7733 45.6271 98.1401 45.4347 97.2498 45.4347H95.0387V49.78Z" fill="#1F2D3D"/>
<path d="M103.263 55.1736V44.5383H106.468C107.27 44.5383 107.922 44.675 108.427 44.9485C108.941 45.222 109.317 45.5917 109.555 46.0576C109.792 46.5134 109.911 47.0351 109.911 47.6225C109.911 48.1898 109.787 48.7114 109.54 49.1874C109.293 49.6534 108.912 50.0281 108.397 50.3118C107.883 50.5852 107.215 50.722 106.394 50.722H104.302V55.1736H103.263ZM108.783 55.1736L106.453 50.3877H107.64L110.03 55.1736H108.783ZM104.302 49.856H106.394C107.235 49.856 107.853 49.6483 108.249 49.233C108.645 48.8177 108.842 48.2809 108.842 47.6225C108.842 46.9439 108.65 46.4121 108.264 46.0272C107.878 45.6322 107.25 45.4347 106.379 45.4347H104.302V49.856Z" fill="#1F2D3D"/>
<path d="M117.285 55.356C116.295 55.356 115.425 55.1281 114.673 54.6723C113.921 54.2063 113.333 53.5631 112.907 52.7427C112.492 51.9121 112.284 50.9499 112.284 49.856C112.284 48.7722 112.492 47.82 112.907 46.9996C113.333 46.169 113.921 45.5208 114.673 45.0549C115.425 44.5889 116.295 44.356 117.285 44.356C118.304 44.356 119.189 44.5889 119.941 45.0549C120.693 45.5208 121.272 46.169 121.677 46.9996C122.093 47.82 122.3 48.7722 122.3 49.856C122.3 50.9499 122.093 51.9121 121.677 52.7427C121.272 53.5631 120.693 54.2063 119.941 54.6723C119.189 55.1281 118.304 55.356 117.285 55.356ZM117.3 54.4292C118.081 54.4292 118.769 54.2468 119.362 53.8822C119.956 53.5176 120.416 52.9959 120.742 52.3173C121.069 51.6285 121.232 50.8081 121.232 49.856C121.232 48.9038 121.069 48.0885 120.742 47.4098C120.416 46.7312 119.956 46.2095 119.362 45.8449C118.769 45.4803 118.081 45.2979 117.3 45.2979C116.518 45.2979 115.83 45.4803 115.237 45.8449C114.643 46.2095 114.178 46.7312 113.842 47.4098C113.516 48.0885 113.352 48.9038 113.352 49.856C113.352 50.8081 113.516 51.6285 113.842 52.3173C114.178 52.9959 114.643 53.5176 115.237 53.8822C115.83 54.2468 116.518 54.4292 117.3 54.4292Z" fill="#1F2D3D"/>
<path d="M124.933 55.1736V44.5383H127.872C129.098 44.5383 130.102 44.751 130.884 45.1764C131.675 45.6018 132.259 46.2146 132.635 47.0148C133.021 47.815 133.214 48.7722 133.214 49.8863C133.214 50.9803 133.021 51.9223 132.635 52.7123C132.259 53.5024 131.675 54.1101 130.884 54.5355C130.102 54.9609 129.098 55.1736 127.872 55.1736H124.933ZM125.972 54.2924H127.872C128.92 54.2924 129.756 54.1152 130.379 53.7607C131.003 53.4061 131.453 52.8997 131.73 52.2413C132.007 51.5829 132.145 50.7979 132.145 49.8863C132.145 48.9646 132.007 48.1695 131.73 47.501C131.453 46.8325 131.003 46.321 130.379 45.9665C129.756 45.6018 128.92 45.4195 127.872 45.4195H125.972V54.2924Z" fill="#1F2D3D"/>
<path d="M139.484 55.356C138.782 55.356 138.144 55.2142 137.57 54.9305C137.006 54.6469 136.556 54.2063 136.22 53.6087C135.883 53.001 135.715 52.2312 135.715 51.2993V44.5383H136.754V51.3145C136.754 52.0337 136.868 52.6262 137.095 53.0921C137.333 53.5479 137.659 53.8822 138.075 54.0949C138.49 54.3076 138.965 54.414 139.499 54.414C140.043 54.414 140.518 54.3076 140.924 54.0949C141.329 53.8822 141.646 53.5479 141.873 53.0921C142.101 52.6262 142.215 52.0337 142.215 51.3145V44.5383H143.253V51.2993C143.253 52.2312 143.085 53.001 142.749 53.6087C142.413 54.2063 141.957 54.6469 141.384 54.9305C140.82 55.2142 140.187 55.356 139.484 55.356Z" fill="#1F2D3D"/>
<path d="M150.65 55.356C149.651 55.356 148.785 55.1281 148.053 54.6723C147.321 54.2063 146.757 53.5631 146.361 52.7427C145.966 51.9121 145.768 50.9499 145.768 49.856C145.768 48.762 145.966 47.8049 146.361 46.9844C146.757 46.1538 147.321 45.5107 148.053 45.0549C148.795 44.5889 149.661 44.356 150.65 44.356C151.817 44.356 152.762 44.6396 153.484 45.2068C154.216 45.7639 154.686 46.5539 154.894 47.577H153.751C153.593 46.8882 153.257 46.3362 152.742 45.9209C152.228 45.4955 151.53 45.2828 150.65 45.2828C149.888 45.2828 149.22 45.4651 148.647 45.8297C148.073 46.1944 147.628 46.7211 147.311 47.4098C146.994 48.0885 146.836 48.9038 146.836 49.856C146.836 50.8081 146.994 51.6285 147.311 52.3173C147.628 52.9959 148.073 53.5176 148.647 53.8822C149.22 54.2468 149.888 54.4292 150.65 54.4292C151.53 54.4292 152.223 54.2215 152.727 53.8062C153.242 53.3909 153.583 52.844 153.751 52.1653H154.894C154.676 53.1681 154.206 53.9531 153.484 54.5203C152.772 55.0774 151.827 55.356 150.65 55.356Z" fill="#1F2D3D"/>
<path d="M159.648 55.1736V45.4195H156.532V44.5383H163.803V45.4195H160.687V55.1736H159.648Z" fill="#1F2D3D"/>
<path d="M170.987 55.1736V44.5383H173.925C175.152 44.5383 176.156 44.751 176.938 45.1764C177.729 45.6018 178.313 46.2146 178.689 47.0148C179.075 47.815 179.267 48.7722 179.267 49.8863C179.267 50.9803 179.075 51.9223 178.689 52.7123C178.313 53.5024 177.729 54.1101 176.938 54.5355C176.156 54.9609 175.152 55.1736 173.925 55.1736H170.987ZM172.026 54.2924H173.925C174.974 54.2924 175.81 54.1152 176.433 53.7607C177.056 53.4061 177.506 52.8997 177.783 52.2413C178.06 51.5829 178.199 50.7979 178.199 49.8863C178.199 48.9646 178.06 48.1695 177.783 47.501C177.506 46.8325 177.056 46.321 176.433 45.9665C175.81 45.6018 174.974 45.4195 173.925 45.4195H172.026V54.2924Z" fill="#1F2D3D"/>
<path d="M181.888 55.1736V44.5383H188.194V45.4195H182.926V49.385H187.749V50.2662H182.926V54.2924H188.194V55.1736H181.888Z" fill="#1F2D3D"/>
<path d="M194.197 55.356C193.435 55.356 192.773 55.2142 192.209 54.9305C191.655 54.6469 191.229 54.2519 190.932 53.7455C190.636 53.2289 190.487 52.6414 190.487 51.983H191.571C191.571 52.4287 191.669 52.8389 191.867 53.2137C192.065 53.5885 192.357 53.8923 192.743 54.1253C193.129 54.3481 193.613 54.4595 194.197 54.4595C194.711 54.4595 195.142 54.3735 195.488 54.2013C195.844 54.0189 196.116 53.7809 196.304 53.4872C196.492 53.1934 196.586 52.8592 196.586 52.4844C196.586 52.0387 196.492 51.6792 196.304 51.4057C196.126 51.1322 195.879 50.9094 195.562 50.7372C195.246 50.565 194.885 50.4181 194.479 50.2966C194.083 50.1649 193.663 50.0231 193.218 49.8712C192.416 49.5875 191.828 49.2381 191.452 48.8228C191.076 48.4075 190.883 47.8758 190.873 47.2275C190.873 46.6704 190.997 46.1792 191.244 45.7537C191.501 45.3182 191.872 44.9789 192.357 44.7358C192.842 44.4826 193.416 44.356 194.078 44.356C194.721 44.356 195.28 44.4826 195.755 44.7358C196.24 44.9789 196.616 45.3233 196.883 45.7689C197.15 46.2045 197.284 46.7059 197.284 47.2731H196.215C196.215 46.949 196.131 46.635 195.963 46.3311C195.805 46.0171 195.562 45.7639 195.236 45.5714C194.919 45.3688 194.514 45.2676 194.019 45.2676C193.613 45.2676 193.252 45.3435 192.936 45.4955C192.629 45.6373 192.387 45.85 192.209 46.1336C192.031 46.4071 191.942 46.7312 191.942 47.106C191.942 47.4706 192.021 47.7694 192.179 48.0024C192.337 48.2353 192.56 48.4278 192.847 48.5797C193.134 48.7316 193.47 48.8735 193.856 49.0051C194.242 49.1267 194.672 49.2685 195.147 49.4305C195.632 49.6027 196.062 49.8104 196.438 50.0535C196.814 50.2966 197.111 50.6106 197.328 50.9955C197.546 51.3702 197.655 51.8463 197.655 52.4236C197.655 52.92 197.526 53.396 197.269 53.8518C197.021 54.2975 196.641 54.6621 196.126 54.9457C195.612 55.2192 194.969 55.356 194.197 55.356Z" fill="#1F2D3D"/>
<path d="M200.254 55.1736V44.5383H201.293V55.1736H200.254Z" fill="#1F2D3D"/>
<path d="M208.766 55.356C207.796 55.356 206.945 55.1281 206.213 54.6723C205.481 54.2063 204.912 53.5631 204.507 52.7427C204.111 51.9121 203.913 50.9499 203.913 49.856C203.913 48.7722 204.116 47.82 204.522 46.9996C204.937 46.169 205.516 45.5208 206.258 45.0549C207.01 44.5889 207.895 44.356 208.914 44.356C210.062 44.356 211.021 44.6396 211.793 45.2068C212.564 45.774 213.059 46.5641 213.277 47.577H212.06C211.921 46.8882 211.575 46.3412 211.021 45.9361C210.477 45.5309 209.775 45.3283 208.914 45.3283C208.123 45.3283 207.43 45.5107 206.836 45.8753C206.253 46.2399 205.798 46.7616 205.471 47.4402C205.145 48.1087 204.982 48.914 204.982 49.856C204.982 50.7979 205.14 51.6083 205.456 52.2869C205.783 52.9655 206.228 53.4872 206.792 53.8518C207.366 54.2165 208.024 54.3988 208.766 54.3988C209.933 54.3988 210.808 54.0443 211.392 53.3352C211.986 52.6262 212.322 51.6488 212.401 50.4029H209.27V49.5369H213.47V55.1736H212.52L212.431 53.2897C212.174 53.7252 211.877 54.1 211.541 54.414C211.214 54.728 210.823 54.966 210.368 55.1281C209.923 55.28 209.389 55.356 208.766 55.356Z" fill="#1F2D3D"/>
<path d="M216.287 55.1736V44.5383H217.326L223.069 53.396V44.5383H224.108V55.1736H223.069L217.326 46.3007V55.1736H216.287Z" fill="#1F2D3D"/>
<path d="M227.159 55.1736V44.5383H233.465V45.4195H228.198V49.385H233.02V50.2662H228.198V54.2924H233.465V55.1736H227.159Z" fill="#1F2D3D"/>
<path d="M236.233 55.1736V44.5383H239.439C240.24 44.5383 240.893 44.675 241.397 44.9485C241.912 45.222 242.288 45.5917 242.525 46.0576C242.763 46.5134 242.881 47.0351 242.881 47.6225C242.881 48.1898 242.758 48.7114 242.51 49.1874C242.263 49.6534 241.882 50.0281 241.368 50.3118C240.853 50.5852 240.185 50.722 239.364 50.722H237.272V55.1736H236.233ZM241.754 55.1736L239.424 50.3877H240.611L243 55.1736H241.754ZM237.272 49.856H239.364C240.205 49.856 240.824 49.6483 241.219 49.233C241.615 48.8177 241.813 48.2809 241.813 47.6225C241.813 46.9439 241.62 46.4121 241.234 46.0272C240.848 45.6322 240.22 45.4347 239.35 45.4347H237.272V49.856Z" fill="#1F2D3D"/>
<defs>
<linearGradient id="paint0_linear_138_1292" x1="46.6819" y1="35.3607" x2="46.6819" y2="39.3742" gradientUnits="userSpaceOnUse">
<stop stop-color="#F37227"/>
<stop offset="1" stop-color="#F2AC52"/>
</linearGradient>
</defs>
</svg>
