<svg width="118" height="32" viewBox="0 0 118 32" fill="none" xmlns="http://www.w3.org/2000/svg">
<g clip-path="url(#clip0_33_174)">
<path d="M0 1.62292e-05C1.58194 1.62292e-05 3.16388 1.62292e-05 4.79375 1.62292e-05C4.9259 0.377704 5.05804 0.755392 5.19419 1.14452C5.44903 1.87184 5.70412 2.59901 5.96626 3.32372C6.21721 4.01752 6.46519 4.71237 6.7124 5.40753C7.01813 6.26709 7.3243 7.12649 7.6314 7.98557C7.64937 8.03584 7.66734 8.08612 7.68586 8.13792C7.81268 8.49273 7.93954 8.84753 8.06641 9.20233C8.21143 9.60791 8.35644 10.0135 8.50142 10.4191C8.51941 10.4694 8.5374 10.5198 8.55594 10.5716C8.85823 11.4174 9.1596 12.2636 9.46069 13.1098C9.75112 13.926 10.0421 14.742 10.3336 15.5578C10.3601 15.6318 10.3601 15.6318 10.387 15.7073C10.4041 15.7551 10.4213 15.803 10.4389 15.8523C10.4536 15.8937 10.4684 15.935 10.4836 15.9775C10.7068 16.6018 10.9308 17.2257 11.1547 17.8497C11.1699 11.9593 11.1851 6.06892 11.2008 1.62292e-05C12.874 1.62292e-05 14.5472 1.62292e-05 16.2711 1.62292e-05C16.2711 9.88857 16.2711 19.7771 16.2711 29.9653C14.5196 30.2316 14.5196 30.2316 13.8764 30.2984C13.8035 30.3063 13.7306 30.3141 13.6578 30.322C13.5088 30.338 13.3599 30.3539 13.2109 30.3695C13.0218 30.3894 12.8327 30.4096 12.6437 30.43C12.4592 30.4498 12.2747 30.4695 12.0902 30.4892C12.0394 30.4946 12.0394 30.4946 11.9876 30.5002C11.5721 30.5445 11.1567 30.5833 10.7398 30.6127C10.2896 29.3375 9.85629 28.0567 9.42617 26.7746C8.94907 25.3503 8.94907 25.3503 8.4582 23.9307C8.12592 22.9859 7.80875 22.0362 7.49023 21.0867C7.14458 20.0564 6.79878 19.0263 6.43814 18.0012C6.18022 17.2663 5.93224 16.528 5.68373 15.7899C5.62479 15.6149 5.56579 15.4398 5.50679 15.2648C5.39197 14.9242 5.27722 14.5835 5.1625 14.2428C5.16242 14.2789 5.16234 14.315 5.16226 14.3521C5.15751 16.4887 5.15253 18.6253 5.14724 20.7618C5.1466 21.0181 5.14597 21.2743 5.14534 21.5306C5.14521 21.5816 5.14509 21.6326 5.14496 21.6852C5.14292 22.5124 5.14105 23.3397 5.13924 24.1669C5.13738 25.0151 5.13534 25.8632 5.13314 26.7114C5.13179 27.2352 5.13058 27.759 5.12953 28.2828C5.12881 28.6414 5.12791 29.0001 5.12688 29.3588C5.1263 29.566 5.12578 29.7733 5.12547 29.9806C5.12518 30.17 5.12468 30.3594 5.12401 30.5488C5.12381 30.6177 5.12368 30.6865 5.12364 30.7553C5.12357 30.8483 5.12319 30.9412 5.1228 31.0342C5.12268 31.086 5.12255 31.1378 5.12243 31.1912C5.11641 31.3064 5.11641 31.3064 5.07031 31.3526C5.00164 31.3648 4.93248 31.3742 4.86324 31.3824C4.81863 31.3879 4.77402 31.3933 4.72805 31.3989C4.67885 31.4048 4.62964 31.4106 4.57895 31.4166C4.4728 31.4295 4.36665 31.4424 4.2605 31.4554C4.20416 31.4622 4.14782 31.469 4.08977 31.476C3.04302 31.6026 1.99916 31.7425 0.956794 31.9013C0.912757 31.908 0.868719 31.9146 0.823347 31.9215C0.741969 31.9338 0.660617 31.9462 0.5793 31.9589C0.543263 31.9644 0.507226 31.9698 0.470098 31.9754C0.439193 31.9802 0.408288 31.985 0.376446 31.9899C0.251553 32.0025 0.125527 32 0 32C0 21.44 0 10.88 0 1.62292e-05Z" fill="#9CA3AF"/>
<path d="M100.392 1.62302e-05C102.187 1.62302e-05 103.982 1.62302e-05 105.831 1.62302e-05C106.406 1.41492 106.406 1.41492 106.619 1.97853C106.691 2.16755 106.763 2.35637 106.835 2.54518C106.851 2.58543 106.866 2.62568 106.882 2.66715C107.081 3.18763 107.285 3.7065 107.488 4.22545C107.507 4.27521 107.527 4.32498 107.547 4.37625C107.625 4.57571 107.703 4.77518 107.781 4.97465C107.974 5.46742 108.166 5.96055 108.358 6.45377C108.372 6.49155 108.387 6.52933 108.402 6.56825C108.416 6.6048 108.431 6.64135 108.445 6.679C108.459 6.71477 108.473 6.75053 108.487 6.78738C108.515 6.857 108.542 6.92663 108.569 6.99627C108.639 7.17758 108.71 7.35862 108.781 7.53937C108.796 7.57752 108.811 7.61567 108.827 7.65497C108.856 7.72806 108.885 7.80108 108.914 7.87402C108.969 8.01501 109.012 8.12449 109.012 8.27747C109.042 8.27747 109.073 8.27747 109.104 8.27747C109.116 8.23986 109.116 8.23986 109.128 8.20148C109.213 7.94034 109.31 7.68676 109.415 7.43336C109.432 7.3928 109.448 7.35223 109.466 7.31043C109.521 7.17704 109.576 7.04373 109.631 6.91042C109.67 6.81579 109.709 6.72116 109.748 6.62652C109.871 6.32896 109.995 6.03152 110.118 5.73412C110.148 5.66273 110.148 5.66273 110.178 5.58989C110.371 5.12377 110.565 4.65773 110.758 4.19175C110.989 3.63674 111.219 3.0815 111.449 2.52603C111.465 2.48757 111.481 2.44911 111.497 2.40949C111.67 1.99092 111.843 1.57212 112.014 1.15283C112.029 1.11568 112.044 1.07852 112.06 1.04024C112.132 0.864476 112.204 0.688672 112.275 0.512774C112.3 0.451198 112.325 0.389623 112.351 0.328051C112.383 0.247712 112.383 0.247712 112.417 0.16575C112.469 0.046259 112.469 0.046259 112.515 1.62302e-05C112.586 -0.00441614 112.657 -0.00561987 112.729 -0.00554467C112.775 -0.00560824 112.821 -0.00567181 112.869 -0.0057373C112.945 -0.00548792 112.945 -0.00548792 113.024 -0.0052335C113.077 -0.00524025 113.131 -0.005247 113.186 -0.00525396C113.364 -0.00522161 113.541 -0.00486113 113.719 -0.00449967C113.842 -0.00441347 113.965 -0.00434535 114.088 -0.00430139C114.379 -0.00415743 114.67 -0.00377764 114.961 -0.00331413C115.292 -0.00279797 115.624 -0.00254318 115.955 -0.00231087C116.637 -0.001827 117.318 -0.00101317 118 1.62302e-05C117.962 0.209236 117.893 0.395231 117.81 0.590515C117.796 0.626187 117.781 0.661858 117.766 0.698611C117.716 0.817468 117.667 0.936197 117.617 1.05493C117.582 1.13967 117.546 1.22441 117.511 1.30916C117.436 1.48931 117.361 1.6694 117.286 1.84946C117.172 2.1223 117.059 2.39531 116.946 2.66837C116.792 3.03914 116.638 3.40986 116.484 3.78054C116.271 4.29309 116.058 4.80567 115.845 5.31826C115.749 5.54937 115.653 5.78047 115.557 6.01158C115.519 6.10406 115.48 6.19655 115.442 6.28903C115.058 7.21389 114.674 8.13875 114.289 9.0636C114.27 9.10938 114.251 9.15516 114.232 9.20232C114.193 9.29483 114.155 9.38733 114.117 9.47983C114.021 9.71079 113.925 9.94175 113.829 10.1727C113.519 10.9177 113.519 10.9177 113.365 11.2885C113.336 11.3587 113.336 11.3587 113.306 11.4303C113.267 11.5248 113.228 11.6193 113.189 11.7138C113.092 11.9463 112.995 12.179 112.899 12.4117C112.729 12.8215 112.559 13.231 112.385 13.6391C112.31 13.8149 112.236 13.9909 112.162 14.1669C112.127 14.2494 112.091 14.3317 112.056 14.4138C112.007 14.5266 111.959 14.6398 111.912 14.7531C111.897 14.7858 111.883 14.8186 111.868 14.8523C111.695 15.2708 111.878 15.62 112.029 16.0183C112.05 16.0741 112.07 16.1299 112.092 16.1874C112.148 16.3377 112.204 16.4878 112.261 16.6379C112.32 16.7946 112.378 16.9514 112.437 17.1082C112.692 17.791 112.95 18.4731 113.211 19.1538C113.438 19.748 113.662 20.3437 113.886 20.9393C113.916 21.0185 113.916 21.0185 113.946 21.0993C114.046 21.3644 114.146 21.6295 114.245 21.8946C114.411 22.3373 114.578 22.7799 114.745 23.2226C114.768 23.2848 114.768 23.2848 114.792 23.3483C115.05 24.0334 115.309 24.7182 115.568 25.4029C115.991 26.5218 116.413 27.6413 116.834 28.7615C117.041 29.3132 117.248 29.8647 117.457 30.4157C117.512 30.5609 117.567 30.7061 117.622 30.8513C117.673 30.9852 117.724 31.119 117.775 31.2528C117.806 31.3324 117.836 31.4121 117.866 31.4917C117.88 31.5275 117.893 31.5634 117.908 31.6003C117.96 31.74 118 31.8494 118 32C117.264 31.9599 116.54 31.8266 115.814 31.7079C115.491 31.6555 115.169 31.6065 114.846 31.5595C114.576 31.5202 114.307 31.4791 114.037 31.4367C113.871 31.4106 113.704 31.3854 113.536 31.3622C113.348 31.3361 113.16 31.3059 112.971 31.2755C112.915 31.2683 112.858 31.261 112.799 31.2536C112.641 31.226 112.518 31.1985 112.377 31.1214C112.256 30.9482 112.203 30.7681 112.146 30.5665C112.118 30.492 112.088 30.4179 112.058 30.3442C112.029 30.2717 112.001 30.1992 111.973 30.1266C111.949 30.0663 111.949 30.0663 111.925 30.0047C111.874 29.8731 111.823 29.7415 111.772 29.6098C111.735 29.516 111.698 29.4221 111.662 29.3282C111.36 28.5542 111.061 27.7795 110.762 27.0046C110.533 26.4112 110.303 25.8182 110.072 25.2255C109.655 24.155 109.241 23.0833 108.827 22.0116C108.61 22.4293 108.422 22.8565 108.239 23.2901C108.186 23.4149 108.133 23.5397 108.08 23.6644C108.002 23.848 107.924 24.0315 107.846 24.2151C107.625 24.7343 107.404 25.253 107.182 25.7717C107.159 25.8257 107.136 25.8797 107.113 25.9353C106.85 26.5511 106.586 27.1664 106.32 27.7807C106.296 27.8361 106.272 27.8916 106.247 27.9487C106.133 28.2126 106.018 28.4764 105.904 28.7402C105.862 28.8359 105.821 28.9316 105.779 29.0273C105.76 29.0724 105.74 29.1175 105.72 29.164C105.63 29.3722 105.541 29.5808 105.456 29.7912C105.441 29.8282 105.427 29.8652 105.411 29.9034C105.384 29.9716 105.357 30.0399 105.33 30.1084C105.242 30.3303 105.242 30.3303 105.14 30.3815C105.039 30.3716 104.939 30.3578 104.839 30.3423C104.775 30.3326 104.711 30.3229 104.646 30.3132C104.595 30.3053 104.595 30.3053 104.543 30.2973C103.916 30.2013 103.288 30.1188 102.658 30.0501C102.622 30.0462 102.586 30.0423 102.55 30.0382C102.297 30.0107 102.045 29.9836 101.792 29.9567C101.535 29.9292 101.278 29.9015 101.021 29.8734C100.921 29.8625 100.82 29.8519 100.719 29.8413C100.405 29.8075 100.1 29.7653 99.793 29.6879C99.8994 29.3435 100.038 29.0214 100.188 28.6937C100.242 28.5735 100.296 28.4533 100.35 28.3331C100.364 28.3012 100.379 28.2692 100.394 28.2363C100.576 27.8313 100.753 27.4243 100.931 27.0174C100.966 26.9363 101.002 26.8553 101.037 26.7742C101.109 26.6097 101.181 26.4452 101.253 26.2806C101.409 25.9219 101.566 25.5633 101.723 25.2047C101.81 25.0074 101.896 24.81 101.982 24.6127C102.017 24.5337 102.052 24.4547 102.086 24.3757C102.103 24.3366 102.12 24.2975 102.138 24.2572C103.045 22.1835 103.045 22.1835 103.953 20.1098C103.97 20.0707 103.987 20.0316 104.005 19.9914C104.039 19.9123 104.074 19.8333 104.109 19.7543C104.195 19.5571 104.281 19.36 104.367 19.1628C104.507 18.8442 104.646 18.5257 104.786 18.2072C104.803 18.1668 104.821 18.1264 104.839 18.0847C104.875 18.0032 104.911 17.9217 104.946 17.8401C105.034 17.6401 105.121 17.4401 105.208 17.2398C105.356 16.9011 105.504 16.5631 105.66 16.2285C105.723 16.0929 105.785 15.9569 105.848 15.8208C105.877 15.7582 105.906 15.6959 105.936 15.6338C105.977 15.549 106.016 15.4632 106.055 15.3774C106.078 15.3299 106.1 15.2824 106.124 15.2334C106.168 15.0002 106.097 14.8314 106.016 14.6127C106 14.5709 105.985 14.529 105.97 14.4858C105.918 14.3469 105.865 14.2087 105.811 14.0706C105.791 14.019 105.771 13.9673 105.751 13.9141C105.697 13.7743 105.643 13.6346 105.589 13.4948C105.531 13.3468 105.474 13.1987 105.417 13.0506C105.312 12.7785 105.207 12.5065 105.101 12.2345C104.993 11.9537 104.884 11.6727 104.775 11.3918C104.669 11.1173 104.563 10.8428 104.457 10.5684C104.155 9.78748 103.854 9.00605 103.554 8.22455C103.244 7.41755 102.933 6.61087 102.621 5.80453C102.408 5.25557 102.196 4.70644 101.985 4.15699C101.964 4.10156 101.943 4.04614 101.921 3.98903C101.834 3.76471 101.748 3.5404 101.662 3.31607C101.323 2.43369 100.981 1.55254 100.636 0.67258C100.619 0.630295 100.602 0.588011 100.585 0.544445C100.555 0.465781 100.524 0.387142 100.493 0.308533C100.392 0.0514679 100.392 0.0514679 100.392 1.62302e-05Z" fill="#9CA3AF"/>
<path d="M21.0187 1.62292e-05C25.5972 1.62292e-05 30.1757 1.62292e-05 34.893 1.62292e-05C34.893 1.66337 34.893 3.32672 34.893 5.04048C31.9725 5.04048 29.052 5.04048 26.043 5.04048C26.043 7.23794 26.043 9.43539 26.043 11.6994C27.363 11.6693 27.363 11.6693 28.6831 11.6386C28.9475 11.6327 28.9475 11.6327 29.074 11.6299C29.1564 11.6281 29.2387 11.6262 29.321 11.6242C30.4562 11.5965 31.5907 11.607 32.7266 11.607C32.7266 13.2703 32.7266 14.9337 32.7266 16.6474C30.6552 16.6676 30.6552 16.6676 30.0175 16.6737C29.8175 16.6757 29.8175 16.6757 29.6174 16.6777C29.5329 16.6786 29.4483 16.6794 29.3638 16.6802C28.2566 16.6903 27.15 16.7172 26.043 16.7399C26.043 19.1815 26.043 21.6231 26.043 24.1387C26.1038 24.1235 26.1647 24.1082 26.2273 24.0925C26.2982 24.0847 26.3692 24.0787 26.4403 24.0738C26.4829 24.0709 26.5256 24.0679 26.5695 24.0648C26.6161 24.0617 26.6627 24.0587 26.7107 24.0555C26.7601 24.0521 26.8095 24.0487 26.8605 24.0452C27.0253 24.0339 27.19 24.0229 27.3548 24.0119C27.4709 24.0041 27.587 23.9962 27.7031 23.9884C28.0134 23.9674 28.3237 23.9467 28.6339 23.9261C28.7934 23.9155 28.9528 23.9048 29.1123 23.8942C33.7543 23.5838 33.7543 23.5838 34.893 23.5838C34.893 25.1861 34.893 26.7885 34.893 28.4393C34.7637 28.4826 34.6639 28.4972 34.5291 28.5079C34.4823 28.5117 34.4355 28.5155 34.3873 28.5194C34.3099 28.5254 34.3099 28.5254 34.231 28.5315C34.1763 28.5359 34.1217 28.5403 34.0654 28.5448C33.9134 28.5569 33.7614 28.5689 33.6094 28.5809C33.4455 28.5937 33.2817 28.6068 33.1179 28.6199C32.7968 28.6455 32.4757 28.6709 32.1546 28.6962C31.7807 28.7257 31.4068 28.7554 31.0329 28.785C30.3657 28.838 29.6984 28.8908 29.0312 28.9435C28.3838 28.9946 27.7363 29.0459 27.0889 29.0973C26.3842 29.1532 25.6795 29.2091 24.9748 29.2649C24.8996 29.2708 24.8244 29.2768 24.7492 29.2827C24.7122 29.2857 24.6752 29.2886 24.6371 29.2916C24.3765 29.3122 24.116 29.3329 23.8554 29.3536C23.5376 29.3788 23.2199 29.404 22.9022 29.429C22.7401 29.4418 22.578 29.4546 22.4159 29.4675C22.2401 29.4815 22.0643 29.4953 21.8885 29.5091C21.8373 29.5132 21.7862 29.5173 21.7335 29.5215C21.6626 29.527 21.6626 29.527 21.5902 29.5327C21.5497 29.5359 21.5091 29.5391 21.4673 29.5424C21.318 29.5504 21.1683 29.5491 21.0187 29.5491C21.0187 19.7979 21.0187 10.0467 21.0187 1.62292e-05Z" fill="#9CA3AF"/>
<path d="M56.557 1.62292e-05C61.1659 1.62292e-05 65.7749 1.62292e-05 70.5234 1.62292e-05C70.5234 1.66337 70.5234 3.32672 70.5234 5.04048C67.5421 5.04048 64.5607 5.04048 61.4891 5.04048C61.4891 7.11585 61.4891 9.19123 61.4891 11.3295C63.7403 11.3295 65.9915 11.3295 68.3109 11.3295C68.3109 13.0081 68.3109 14.6867 68.3109 16.4162C66.0597 16.4162 63.8085 16.4162 61.4891 16.4162C61.4891 20.1549 61.4891 23.8937 61.4891 27.7457C59.8615 27.7457 58.2339 27.7457 56.557 27.7457C56.557 18.5896 56.557 9.43354 56.557 1.62292e-05Z" fill="#9CA3AF"/>
<path d="M38.0273 1.62292e-05C43.1078 1.62292e-05 48.1882 1.62292e-05 53.4227 1.62292e-05C53.4227 1.66337 53.4227 3.32672 53.4227 5.04048C51.7038 5.04048 49.985 5.04048 48.2141 5.04048C48.2141 12.6248 48.2141 20.209 48.2141 28.0231C44.3422 28.0694 44.3422 28.0694 43.1898 28.0694C43.1898 20.4698 43.1898 12.8703 43.1898 5.04048C41.4862 5.04048 39.7826 5.04048 38.0273 5.04048C38.0273 3.37713 38.0273 1.71377 38.0273 1.62292e-05Z" fill="#9CA3AF"/>
<path d="M73.6117 1.62292e-05C75.2697 1.62292e-05 76.9277 1.62292e-05 78.6359 1.62292e-05C78.6359 7.69111 78.6359 15.3822 78.6359 23.3064C79.214 23.3216 79.792 23.3369 80.3875 23.3526C81.3185 23.3958 81.3185 23.3958 81.6307 23.4131C81.7007 23.4169 81.7708 23.4208 81.8408 23.4246C81.876 23.4265 81.9111 23.4285 81.9474 23.4305C82.0578 23.4366 82.1682 23.4425 82.2787 23.4485C82.816 23.4775 83.3533 23.5073 83.8906 23.5376C83.9287 23.5397 83.9667 23.5419 84.0059 23.5441C84.5182 23.573 85.0305 23.6026 85.5428 23.6327C85.6448 23.6387 85.7468 23.6447 85.8488 23.6506C86.0369 23.6615 86.2249 23.6728 86.413 23.6841C86.4687 23.6873 86.5244 23.6905 86.5818 23.6938C86.6578 23.6985 86.6578 23.6985 86.7353 23.7033C86.7793 23.7059 86.8233 23.7085 86.8686 23.7112C86.9789 23.7226 86.9789 23.7226 87.1172 23.7688C87.1172 25.4016 87.1172 27.0345 87.1172 28.7168C86.2705 28.7168 86.2705 28.7168 85.8673 28.69C85.8213 28.6871 85.7752 28.6843 85.7278 28.6813C85.6288 28.6751 85.5297 28.6688 85.4307 28.6625C85.271 28.6522 85.1112 28.6422 84.9514 28.6322C84.7219 28.6179 84.4923 28.6035 84.2628 28.589C82.4838 28.4769 80.7046 28.3691 78.924 28.2861C78.8847 28.2843 78.8454 28.2825 78.8049 28.2806C77.5579 28.2226 76.3105 28.177 75.0625 28.1431C75.0055 28.1415 74.9485 28.14 74.8897 28.1383C74.7856 28.1355 74.6814 28.1328 74.5773 28.1302C74.2529 28.1215 73.9364 28.0965 73.6117 28.0694C73.6117 18.8065 73.6117 9.5436 73.6117 1.62292e-05Z" fill="#9CA3AF"/>
<path d="M91.2656 1.62292e-05C92.8932 1.62292e-05 94.5208 1.62292e-05 96.1977 1.62292e-05C96.1977 9.72071 96.1977 19.4414 96.1977 29.4567C95.8165 29.4293 95.4356 29.4017 95.0549 29.3703C94.961 29.3627 94.8671 29.355 94.7732 29.3474C94.6309 29.3358 94.4886 29.3241 94.3464 29.3124C93.32 29.2279 92.2931 29.1586 91.2656 29.0867C91.2656 19.4881 91.2656 9.88949 91.2656 1.62292e-05Z" fill="#9CA3AF"/>
</g>
<defs>
<clipPath id="clip0_33_174">
<rect width="118" height="32" fill="white"/>
</clipPath>
</defs>
</svg>
