<svg width="288" height="81" viewBox="0 0 288 81" fill="none" xmlns="http://www.w3.org/2000/svg">
<path d="M4.05838 45.7773C5.67703 45.7773 6.9892 44.5551 6.9892 43.0476C6.9892 41.54 5.67703 40.3179 4.05838 40.3179C2.43974 40.3179 1.12756 41.54 1.12756 43.0476C1.12756 44.5551 2.43974 45.7773 4.05838 45.7773Z" fill="#1F2D3D"/>
<path d="M49.9473 16.4482C50.8297 15.8582 51.9993 15.5583 53.4229 15.5583C54.3523 15.5583 55.3721 15.6847 56.4529 15.9344C58.6354 16.5373 60.0155 13.8061 58.1289 12.6228L58.0854 12.5953C54.5141 10.3568 50.2537 9.12488 46.0889 9.12488C43.2521 9.12488 40.598 9.68734 38.2032 10.796C31.6784 13.811 28.1281 20.2233 29.1566 27.1284C29.1967 27.3943 29.2402 27.6569 29.2906 27.9178C29.6352 29.7479 30.2061 31.4936 30.7595 33.1874C31.1059 34.2443 31.4383 35.2655 31.7133 36.2818C31.8229 36.6886 31.9238 37.0955 32.0126 37.504C32.0561 37.7082 32.0979 37.9124 32.1344 38.1183C32.3607 39.3518 32.4756 40.561 32.4773 41.7248C32.4773 42.1139 32.4668 42.4964 32.4425 42.8741L32.432 43.0362L32.4199 43.1853C32.0961 47.0933 30.4793 49.8456 27.6112 51.3661C26.2728 52.0744 24.6995 52.4343 22.9365 52.4343C20.3276 52.4343 17.3446 51.6432 14.5391 50.2087C13.0841 49.4631 11.6535 48.5473 10.1655 47.411C9.03944 46.5487 3.3031 41.6632 3.3031 41.6632C3.05945 42.7833 2.86279 44.5096 2.89585 45.4983C3.3675 52.8476 7.33385 59.8208 13.5088 64.1519C18.079 67.3597 23.8188 69.1249 29.6718 69.1249C31.762 69.1249 33.8296 68.8963 35.8206 68.4473C38.4555 67.8525 40.9808 66.8669 43.3252 65.5199L45.6956 63.9914C51.3205 59.9359 55.0954 53.9255 56.0544 47.5002C56.0648 47.4353 56.0735 47.3721 56.0805 47.3073C56.084 47.2797 56.0892 47.2522 56.0927 47.2246C56.1031 47.1468 56.1136 47.069 56.1223 46.9912L56.1362 46.8842V46.8745C56.2075 46.2974 56.2545 45.7123 56.2771 45.1223C56.2771 45.1174 56.2771 45.1126 56.2771 45.1061V45.085L56.2893 44.7527C56.2893 44.7349 56.2893 44.7171 56.2893 44.6976C56.2893 44.649 56.2911 44.5987 56.2911 44.5501C56.2911 44.4966 56.2946 44.4447 56.2946 44.3912C56.2946 44.3767 56.2946 44.3621 56.2946 44.3459H56.3033V44.3329C56.3033 44.012 56.2928 43.6748 56.2737 43.3004C56.2737 43.2809 56.2719 43.2615 56.2702 43.242C56.1223 40.48 55.4296 37.5882 54.2078 34.6479C54.1069 34.4064 54.0042 34.1665 53.9015 33.9298C53.8545 33.8228 53.8058 33.7159 53.7571 33.6056C53.7484 33.5878 53.7414 33.5716 53.7327 33.5538L53.7292 33.5473C53.6892 33.4581 53.6492 33.3706 53.6091 33.2847C53.5952 33.2571 53.583 33.228 53.5691 33.2004C53.5117 33.0772 53.4542 32.9557 53.4003 32.8454C53.2872 32.6072 53.1688 32.3705 53.0487 32.1322C52.8172 31.6751 52.5684 31.2261 52.3125 30.7836C51.8844 30.0461 51.4319 29.328 50.9881 28.6262C49.9317 26.9518 48.9223 25.3535 48.3357 23.671C48.2975 23.5592 48.2592 23.4457 48.2244 23.3339C48.1443 23.0761 48.0729 22.8152 48.0155 22.5526C47.5508 20.4632 47.9668 17.7644 49.9404 16.4417L49.9473 16.4482Z" fill="#1F2D3D"/>
<path d="M44.5051 60.0075C44.2667 61.2298 43.6663 62.3985 42.7891 63.4018C42.629 63.5899 42.4567 63.7649 42.2774 63.94C40.1559 65.159 37.8273 66.0845 35.3507 66.6438C28.2969 68.2356 20.5104 66.7362 14.7131 62.6692C8.90891 58.5989 5.32197 52.1199 4.89209 45.3897C4.89209 45.3897 4.89209 45.3897 4.89209 45.3929C5.49427 46.137 8.17621 48.2977 8.89847 48.8504C10.3621 49.9689 11.9163 50.9901 13.5766 51.8411C17.9955 54.0991 23.965 55.4364 28.598 52.9855C28.7999 52.8802 28.993 52.7683 29.181 52.6532C29.2419 52.6159 29.3046 52.577 29.3655 52.5381C29.3985 52.5187 29.4334 52.496 29.4664 52.4733C29.5395 52.4247 29.6161 52.376 29.6875 52.3242C30.0303 52.0891 30.3488 51.8395 30.6499 51.5753C30.7091 51.5218 30.77 51.4699 30.8274 51.4148C30.8466 51.3954 30.8692 51.3759 30.8901 51.3565C30.9545 51.2949 31.0189 51.2333 31.0815 51.1701C31.4853 50.7713 31.8455 50.3466 32.1693 49.8992C32.2006 49.8571 32.2319 49.8117 32.2615 49.7679C32.4146 49.5507 32.5574 49.327 32.6914 49.1001C32.7349 49.0288 32.7766 48.9558 32.8167 48.8829C32.8671 48.7921 32.9159 48.7013 32.9646 48.6089C32.9994 48.5425 33.0342 48.4776 33.0656 48.4095C33.0777 48.3869 33.0899 48.3642 33.1004 48.3398C33.1334 48.2734 33.1682 48.2021 33.1978 48.134C33.2083 48.1129 33.217 48.0918 33.2274 48.0691C33.2605 48.0011 33.2918 47.9297 33.3214 47.8617C33.3806 47.7271 33.4363 47.591 33.4885 47.4548C33.5128 47.3948 33.5355 47.3348 33.5598 47.2733C33.5755 47.2327 33.5894 47.1938 33.6051 47.1533C33.626 47.0933 33.6486 47.0333 33.6677 46.9718C33.6851 46.9247 33.7008 46.8777 33.7165 46.8307C33.7791 46.6395 33.84 46.4466 33.8922 46.2504C33.9166 46.1661 33.9392 46.0818 33.9619 45.9975C33.9653 45.9862 33.9688 45.9732 33.9706 45.9619C33.9932 45.8727 34.0158 45.7852 34.0367 45.6961C34.1046 45.4172 34.1603 45.1368 34.2107 44.8531C34.2316 44.9018 34.256 44.9536 34.2803 45.0071C34.2995 45.0493 34.3204 45.0963 34.3413 45.1433C35.965 48.7807 35.9616 52.8721 34.3343 56.5079C34.1637 56.8904 34.0402 57.1611 34.0123 57.2243L34.0054 57.2373L35.3176 57.247C35.4534 57.247 35.5491 57.247 35.6622 57.2422C35.7719 57.2373 35.878 57.2341 35.9859 57.226C36.2 57.2114 36.4106 57.1936 36.6212 57.1709C37.0406 57.1222 37.4583 57.0525 37.8725 56.9634C38.7009 56.7883 39.5154 56.5273 40.2934 56.1707C40.6815 55.994 41.0609 55.7898 41.4229 55.558C41.7849 55.3294 42.1313 55.0766 42.4532 54.7929C42.6186 54.6567 42.7648 54.5011 42.9179 54.3536L43.1337 54.1186C43.1929 54.057 43.2451 53.9921 43.2973 53.9273C43.407 54.1267 43.5079 54.3261 43.6071 54.5287C43.8838 55.1041 44.1118 55.7006 44.2824 56.3069C44.6305 57.5177 44.7366 58.7837 44.5017 60.0108L44.5051 60.0075Z" fill="#FFFFFE"/>
<path d="M43.3008 53.9241C32.6252 67.5856 15.9 59.0577 15.9 59.0577C24.1164 59.3495 27.5171 55.1544 27.5171 55.1544C12.9971 62.2526 5.02781 45.6361 4.8938 45.3913C5.49597 46.1354 8.17792 48.2961 8.90018 48.8489C10.3638 49.9673 11.918 50.9885 13.5784 51.8395C17.9972 54.0975 23.9668 55.4348 28.5997 52.9839C28.8016 52.8786 28.9947 52.7667 29.1827 52.6516C29.2454 52.6127 29.3063 52.5755 29.3672 52.5366C29.4003 52.5171 29.4351 52.4944 29.4681 52.4717C29.543 52.4231 29.6178 52.3728 29.6892 52.3226C30.032 52.0875 30.3505 51.8379 30.6516 51.5737C30.7108 51.5202 30.7717 51.4683 30.8291 51.4132C30.8483 51.3938 30.8709 51.3743 30.8918 51.3549C30.9562 51.2933 31.0206 51.2317 31.0832 51.1685C31.487 50.7697 31.8472 50.345 32.171 49.8976C32.2023 49.8555 32.2336 49.8101 32.2632 49.7663C32.4163 49.5491 32.5591 49.3254 32.6931 49.0985C32.7366 49.0272 32.7784 48.9542 32.8184 48.8813C32.8689 48.7905 32.9176 48.6997 32.9663 48.6073C33.0011 48.5409 33.0359 48.476 33.0673 48.408C33.0794 48.3853 33.0916 48.3626 33.1021 48.3383C33.1351 48.2718 33.1699 48.2005 33.1995 48.1324C33.21 48.1113 33.2187 48.0902 33.2291 48.0676C33.2622 47.9995 33.2935 47.9282 33.3231 47.8601C33.3823 47.7255 33.438 47.5894 33.4902 47.4532C33.5145 47.3932 33.5372 47.3333 33.5615 47.2717C33.5772 47.2311 33.5911 47.1922 33.6068 47.1517C33.6277 47.0917 33.6503 47.0318 33.6694 46.9702C33.6868 46.9232 33.7025 46.8761 33.7182 46.8291C33.7808 46.6379 33.8417 46.445 33.8939 46.2488C33.9183 46.1645 33.9409 46.0803 33.9636 45.996C33.967 45.9846 33.9705 45.9716 33.9723 45.9603C33.9949 45.8711 34.0175 45.7836 34.0384 45.6945C34.1063 45.4157 34.162 45.1352 34.2124 44.8516C34.2333 44.9002 34.2577 44.9521 34.2821 45.0056C34.3012 45.0477 34.3238 45.0947 34.343 45.1417C35.9668 48.7792 35.9633 52.8705 34.336 56.5063C34.1654 56.8888 34.0419 57.1595 34.014 57.2228L34.0071 57.2357L35.3193 57.2455C35.4551 57.2455 35.5508 57.2455 35.6639 57.2406C35.7736 57.2357 35.8797 57.2325 35.9876 57.2244C36.2017 57.2098 36.4123 57.192 36.6229 57.1693C37.0423 57.1206 37.46 57.0509 37.8742 56.9618C38.7026 56.7867 39.5171 56.5257 40.2951 56.1691C40.6832 55.9925 41.0626 55.7882 41.4246 55.5564C41.7866 55.3279 42.133 55.075 42.4549 54.7913C42.6203 54.6552 42.7665 54.4995 42.9196 54.352L43.1354 54.117C43.1946 54.0554 43.2468 53.9906 43.299 53.9257L43.3008 53.9241Z" fill="#DEDEE5"/>
<path d="M54.2861 43.3815C54.3035 43.7025 54.3139 44.025 54.3139 44.3476V44.3541L54.3052 44.0574V44.1093C54.3052 44.2471 54.3052 44.3849 54.3017 44.5227C54.3017 44.5891 54.3017 44.6556 54.2983 44.722C54.2948 44.8258 54.2896 44.9311 54.2878 45.0349C54.2669 45.5844 54.2234 46.1306 54.1556 46.6736C54.1416 46.7838 54.1294 46.8924 54.1138 47.0027C54.1051 47.0821 54.0929 47.1599 54.0807 47.2393C53.1792 53.2983 49.6097 58.824 44.4755 62.5246L44.4703 62.5295C44.5486 62.4209 44.6252 62.3139 44.7 62.2004C45.1003 61.5991 45.4014 60.9345 45.6085 60.2472C45.8139 59.5567 45.9096 58.8386 45.92 58.1238C45.9287 57.4074 45.8452 56.6958 45.6955 56.0004C45.5424 55.3066 45.3196 54.6291 45.0463 53.971C44.9089 53.642 44.754 53.3194 44.5869 53.0001C44.5033 52.8412 44.4181 52.6824 44.3241 52.5268L44.1814 52.2901C44.1309 52.2091 44.0874 52.1394 44.0213 52.0437L43.3164 51.0242L42.6237 52.1021C42.2617 52.6678 41.8266 53.1881 41.2958 53.6225C40.7789 54.0683 40.1732 54.4313 39.5293 54.7328C38.8854 55.0359 38.1892 55.2613 37.4774 55.4379C37.2146 55.5028 36.9518 55.5546 36.6855 55.5984C36.6716 55.6016 36.6594 55.6049 36.6472 55.6065C36.6228 55.6114 36.6072 55.6146 36.595 55.6146C36.5846 55.6146 36.5776 55.6179 36.5776 55.6179C36.8909 54.7912 37.1067 53.9337 37.2094 53.0714C37.2494 52.7472 37.2738 52.423 37.2894 52.0972C37.2999 51.773 37.2981 51.4488 37.2842 51.1263C37.2598 50.4812 37.1815 49.8409 37.0614 49.2104C36.9448 48.5798 36.7777 47.959 36.5846 47.3512C36.3862 46.7449 36.1495 46.1517 35.8884 45.5714C35.6291 44.9879 35.3263 44.4254 35.0043 43.8775C34.8442 43.602 34.6754 43.3329 34.4943 43.0687C34.4735 43.0395 34.4543 43.012 34.4352 42.9844C34.5448 41.2419 34.4056 39.4735 34.101 37.8072C33.4205 34.0872 31.6888 30.62 31.1319 26.8741C30.2443 20.9156 33.2256 15.171 39.0872 12.4625C44.7748 9.83008 51.8234 10.9161 56.9663 14.1401C54.2182 13.4998 51.0803 13.3994 48.7777 14.9392C46.2002 16.6671 45.4205 20.0403 46.0627 22.9368C46.879 26.605 49.5644 29.6134 51.2474 32.9347C51.3605 33.1584 51.4719 33.3837 51.5798 33.609C51.6355 33.7208 51.6877 33.8359 51.7416 33.9494C51.7956 34.0612 51.8461 34.1763 51.8983 34.2898C51.9505 34.4032 52.0027 34.5183 52.0514 34.6334C52.1524 34.8636 52.2498 35.0921 52.3455 35.3223C53.4159 37.8996 54.1329 40.5935 54.2774 43.3605C54.2774 43.3686 54.2774 43.375 54.2774 43.3831L54.2861 43.3815Z" fill="#D85401"/>
<path d="M56.9698 14.1385C56.4199 13.9861 55.8542 13.5776 55.3217 13.3604C53.9415 12.7963 52.4848 12.3781 50.9985 12.1479C49.5662 11.9259 48.0973 11.9275 46.6667 12.1544C43.1407 12.7169 39.86 14.5048 37.7107 17.1827C34.0715 21.7149 34.8651 27.7027 35.2132 32.9822C35.4081 35.9518 35.1819 38.7998 34.7015 41.7354C34.665 41.9559 34.3621 42.8701 34.4979 43.0678C34.477 43.0387 34.4579 43.0111 34.4387 42.9835C34.5484 41.241 34.4091 39.4725 34.1046 37.8062C33.4241 34.0861 31.6924 30.6188 31.1355 26.8728C30.2479 20.9141 33.2291 15.1694 39.0908 12.4608C44.7784 9.82834 51.827 10.9144 56.9698 14.1385V14.1385Z" fill="#D85401"/>
<path d="M47.4586 43.5825C46.8408 42.4478 46.4231 41.3245 46.1603 40.2433C46.853 42.1641 47.3942 43.4236 47.4586 43.5825Z" fill="url(#paint0_linear_138_1292)"/>
<path opacity="0.15" d="M52.3526 35.3256C53.5413 38.2092 54.2914 41.2436 54.314 44.3509C54.3105 44.2309 54.307 44.1094 54.3053 43.9894C54.3053 44.0121 54.3053 44.0364 54.3053 44.0591C54.3053 44.0753 54.3053 44.0932 54.3053 44.111C54.3053 44.2018 54.3053 44.2909 54.3053 44.3817C54.3053 44.4303 54.3053 44.4773 54.3018 44.5243C54.3018 44.5908 54.3018 44.6572 54.2983 44.7237C54.2949 44.8274 54.2896 44.9328 54.2879 45.0365C54.2635 45.5828 54.22 46.1307 54.1556 46.6753C54.1417 46.7855 54.1295 46.8941 54.1139 47.0043C54.1052 47.0838 54.093 47.1616 54.0808 47.241C53.1793 53.3 49.6097 58.8257 44.4756 62.5263C45.13 62.0303 45.7234 61.0042 46.1916 60.351C46.7416 59.581 47.2706 58.7998 47.7649 57.9974C48.743 56.4089 49.5854 54.7426 50.1701 52.9936C51.0856 50.2543 51.378 47.3188 51.0003 44.4692C50.6783 42.0411 49.742 39.7313 48.7813 37.4701C47.8363 35.2445 47.3176 32.925 47.3124 30.5212C47.3124 30.4953 47.2985 30.4288 47.3124 30.4029C47.3124 30.4029 44.8289 34.8166 46.1551 40.2418C43.0258 31.5505 36.0643 8.52854 56.9698 14.1434C54.2479 13.4124 51.0838 13.4026 48.7813 14.9425C46.2038 16.6704 45.4241 20.0436 46.0663 22.9401C46.8825 26.6083 49.568 29.6167 51.2509 32.938C51.364 33.1617 51.4754 33.387 51.5833 33.6123C51.639 33.7241 51.6912 33.8392 51.7452 33.9527C51.7991 34.0645 51.8496 34.1796 51.9018 34.2931C51.954 34.4065 52.0062 34.5216 52.055 34.6367C52.1559 34.8669 52.2534 35.0954 52.3491 35.3256H52.3526Z" fill="#3C1C11"/>
<path d="M45.7113 32.5845C51.3049 44.1125 45.8609 49.8765 45.8609 49.8765C46.0263 43.7526 41.6857 40.2239 41.6857 40.2239C48.0382 54.0341 37.6898 55.3973 36.6891 55.5967C36.6752 55.5999 36.663 55.6032 36.6508 55.6048C36.6264 55.6097 36.6108 55.6129 36.5986 55.6129C36.5881 55.6129 36.5812 55.6162 36.5812 55.6162C36.8944 54.7895 37.1102 53.932 37.2129 53.0697C37.253 52.7455 37.2773 52.4213 37.293 52.0955C37.3034 51.7713 37.3017 51.4471 37.2878 51.1246C37.2634 50.4794 37.1851 49.8392 37.065 49.2086C36.9484 48.5781 36.7813 47.9573 36.5881 47.3495C36.3897 46.7432 36.153 46.15 35.892 45.5697C35.6327 44.9862 35.3298 44.4237 35.0079 43.8758C34.8477 43.6003 34.6789 43.3312 34.4979 43.067C34.3622 42.8692 34.665 41.955 34.7015 41.7346C35.1819 38.7991 35.4081 35.9511 35.2132 32.9816C34.8651 27.7007 34.0715 21.7146 37.7107 17.1825C39.8601 14.5064 43.1407 12.7169 46.6667 12.1544C48.0973 11.9259 49.5662 11.9242 50.9986 12.1479C52.4866 12.3781 53.9416 12.7963 55.3217 13.3604C55.8543 13.5776 56.4181 13.9877 56.9699 14.1384C42.5055 10.1364 40.1176 21.0565 45.7095 32.5845H45.7113Z" fill="#F57C00"/>
<path d="M34.463 47.0789C36.0817 47.0789 37.3939 45.8568 37.3939 44.3492C37.3939 42.8416 36.0817 41.6195 34.463 41.6195C32.8444 41.6195 31.5322 42.8416 31.5322 44.3492C31.5322 45.8568 32.8444 47.0789 34.463 47.0789Z" fill="#1F2D3D"/>
<path d="M35.4377 58.7868C37.0563 58.7868 38.3685 57.5647 38.3685 56.0571C38.3685 54.5495 37.0563 53.3274 35.4377 53.3274C33.819 53.3274 32.5068 54.5495 32.5068 56.0571C32.5068 57.5647 33.819 58.7868 35.4377 58.7868Z" fill="#1F2D3D"/>
<path d="M43.8769 55.6147C45.4955 55.6147 46.8077 54.3926 46.8077 52.885C46.8077 51.3774 45.4955 50.1553 43.8769 50.1553C42.2582 50.1553 40.946 51.3774 40.946 52.885C40.946 54.3926 42.2582 55.6147 43.8769 55.6147Z" fill="#1F2D3D"/>
<path d="M43.8769 65.2575C45.4955 65.2575 46.8077 64.0354 46.8077 62.5278C46.8077 61.0202 45.4955 59.7981 43.8769 59.7981C42.2582 59.7981 40.946 61.0202 40.946 62.5278C40.946 64.0354 42.2582 65.2575 43.8769 65.2575Z" fill="#1F2D3D"/>
<path d="M58.1967 17.0466C59.8153 17.0466 61.1275 15.8244 61.1275 14.3169C61.1275 12.8093 59.8153 11.5872 58.1967 11.5872C56.578 11.5872 55.2659 12.8093 55.2659 14.3169C55.2659 15.8244 56.578 17.0466 58.1967 17.0466Z" fill="#1F2D3D"/>
<path d="M92.352 29.4518V12.9337H98.0721V29.8291C98.0721 31.2545 97.7997 32.61 97.2549 33.8957C96.7388 35.1814 95.9504 36.3273 94.8895 37.3335C93.8573 38.3117 92.5671 39.0803 91.0188 39.6393C89.4992 40.1983 87.7215 40.4778 85.6858 40.4778C84.1089 40.4778 82.5749 40.2821 81.084 39.8908C79.6217 39.4995 78.3028 38.9126 77.1273 38.13C75.9517 37.3195 75.0056 36.3133 74.2888 35.1115C73.572 33.8817 73.1849 32.4423 73.1276 30.7933H78.5465C78.8619 32.3864 79.6647 33.6022 80.955 34.4407C82.2739 35.2513 83.8508 35.6565 85.6858 35.6565C87.2628 35.6565 88.5387 35.391 89.5135 34.86C90.4884 34.301 91.2052 33.5603 91.6639 32.638C92.1227 31.6877 92.352 30.6256 92.352 29.4518Z" fill="#1F2D3D"/>
<path d="M116.549 40.5616C113.854 40.5616 111.474 40.1424 109.41 39.3039C107.374 38.4654 105.783 37.2496 104.636 35.6565C103.489 34.0355 102.916 32.0511 102.916 29.7033C102.916 27.3556 103.489 25.3712 104.636 23.7501C105.783 22.1011 107.374 20.8573 109.41 20.0189C111.474 19.1804 113.854 18.7611 116.549 18.7611C119.244 18.7611 121.595 19.1804 123.602 20.0189C125.638 20.8573 127.229 22.1011 128.376 23.7501C129.523 25.3712 130.096 27.3556 130.096 29.7033C130.096 32.0511 129.523 34.0355 128.376 35.6565C127.229 37.2496 125.638 38.4654 123.602 39.3039C121.595 40.1424 119.244 40.5616 116.549 40.5616ZM116.549 36.3692C118.04 36.3692 119.373 36.1177 120.549 35.6146C121.753 35.0836 122.699 34.3289 123.387 33.3507C124.075 32.3445 124.419 31.1287 124.419 29.7033C124.419 28.2779 124.075 27.0621 123.387 26.0559C122.699 25.0218 121.767 24.2392 120.592 23.7082C119.416 23.1771 118.069 22.9116 116.549 22.9116C115.058 22.9116 113.71 23.1771 112.506 23.7082C111.302 24.2392 110.342 25.0078 109.625 26.014C108.937 27.0202 108.593 28.2499 108.593 29.7033C108.593 31.1287 108.937 32.3445 109.625 33.3507C110.313 34.3289 111.259 35.0836 112.463 35.6146C113.667 36.1177 115.029 36.3692 116.549 36.3692Z" fill="#1F2D3D"/>
<path d="M134.23 19.2223H139.821V40.0585H134.23V19.2223ZM149.755 18.7611C151.074 18.7611 152.293 18.9288 153.411 19.2642C154.529 19.5996 155.504 20.1167 156.336 20.8154C157.167 21.5142 157.812 22.4085 158.271 23.4986C158.73 24.5606 158.959 25.8323 158.959 27.3136V40.0585H153.368V28.2779C153.368 26.5171 152.924 25.2314 152.035 24.4209C151.175 23.5824 149.755 23.1632 147.777 23.1632C146.286 23.1632 144.938 23.4427 143.734 24.0016C142.53 24.5606 141.555 25.2733 140.81 26.1398C140.064 26.9783 139.634 27.8587 139.52 28.781L139.476 26.6429C139.62 25.6646 139.95 24.7144 140.466 23.792C140.982 22.8697 141.67 22.0312 142.53 21.2766C143.419 20.494 144.465 19.8791 145.67 19.4319C146.874 18.9847 148.236 18.7611 149.755 18.7611Z" fill="#1F2D3D"/>
<path d="M176.651 40.5616C173.956 40.5616 171.576 40.1424 169.511 39.3039C167.476 38.4654 165.884 37.2496 164.738 35.6565C163.591 34.0355 163.017 32.0511 163.017 29.7033C163.017 27.3556 163.591 25.3712 164.738 23.7501C165.884 22.1011 167.476 20.8573 169.511 20.0189C171.576 19.1804 173.956 18.7611 176.651 18.7611C179.346 18.7611 181.697 19.1804 183.704 20.0189C185.74 20.8573 187.331 22.1011 188.478 23.7501C189.625 25.3712 190.198 27.3556 190.198 29.7033C190.198 32.0511 189.625 34.0355 188.478 35.6565C187.331 37.2496 185.74 38.4654 183.704 39.3039C181.697 40.1424 179.346 40.5616 176.651 40.5616ZM176.651 36.3692C178.142 36.3692 179.475 36.1177 180.65 35.6146C181.855 35.0836 182.801 34.3289 183.489 33.3507C184.177 32.3445 184.521 31.1287 184.521 29.7033C184.521 28.2779 184.177 27.0621 183.489 26.0559C182.801 25.0218 181.869 24.2392 180.693 23.7082C179.518 23.1771 178.17 22.9116 176.651 22.9116C175.16 22.9116 173.812 23.1771 172.608 23.7082C171.404 24.2392 170.443 25.0078 169.726 26.014C169.038 27.0202 168.694 28.2499 168.694 29.7033C168.694 31.1287 169.038 32.3445 169.726 33.3507C170.415 34.3289 171.361 35.0836 172.565 35.6146C173.769 36.1177 175.131 36.3692 176.651 36.3692Z" fill="#1F2D3D"/>
<path d="M230.221 11.6779V16.5429H208.569V24.1693H226.308V28.7276H208.569V40.0356H202.786V11.6779H230.221Z" fill="#F57C00"/>
<path d="M245.144 40.5616C242.419 40.5616 240.014 40.1233 237.927 39.2467C235.869 38.3701 234.26 37.099 233.101 35.4335C231.941 33.7388 231.362 31.6642 231.362 29.2097C231.362 26.7552 231.941 24.6806 233.101 22.9859C234.26 21.2619 235.869 19.9617 237.927 19.0851C240.014 18.2085 242.419 17.7702 245.144 17.7702C247.869 17.7702 250.245 18.2085 252.274 19.0851C254.332 19.9617 255.941 21.2619 257.1 22.9859C258.26 24.6806 258.839 26.7552 258.839 29.2097C258.839 31.6642 258.26 33.7388 257.1 35.4335C255.941 37.099 254.332 38.3701 252.274 39.2467C250.245 40.1233 247.869 40.5616 245.144 40.5616ZM245.144 36.1786C246.651 36.1786 247.999 35.9156 249.187 35.3897C250.405 34.8345 251.361 34.0456 252.057 33.0229C252.753 31.971 253.1 30.6999 253.1 29.2097C253.1 27.7195 252.753 26.4484 252.057 25.3965C251.361 24.3154 250.419 23.4972 249.231 22.9421C248.042 22.3869 246.68 22.1093 245.144 22.1093C243.637 22.1093 242.274 22.3869 241.057 22.9421C239.84 23.4972 238.869 24.3008 238.144 25.3527C237.448 26.4046 237.101 27.6903 237.101 29.2097C237.101 30.6999 237.448 31.971 238.144 33.0229C238.84 34.0456 239.796 34.8345 241.014 35.3897C242.231 35.9156 243.608 36.1786 245.144 36.1786Z" fill="#F57C00"/>
<path d="M286.519 18.2523L275.302 30.3931L267.215 40.0356H260.302L271.997 27.2812L279.649 18.2523H286.519ZM260.302 18.2523H267.215L287.128 40.0356H280.215L271.823 30.5246L260.302 18.2523Z" fill="#F57C00"/>
<path d="M99.5629 65.0871V51.731H103.672C104.681 51.731 105.516 51.9028 106.176 52.2462C106.836 52.5769 107.321 53.0348 107.633 53.62C107.944 54.1924 108.1 54.8474 108.1 55.5852C108.1 56.3102 107.944 56.9653 107.633 57.5504C107.321 58.1356 106.836 58.5999 106.176 58.9433C105.528 59.2867 104.694 59.4585 103.672 59.4585H100.87V65.0871H99.5629ZM100.87 58.3137H103.654C104.775 58.3137 105.572 58.072 106.045 57.5886C106.518 57.0925 106.755 56.4247 106.755 55.5852C106.755 54.7202 106.518 54.0524 106.045 53.5818C105.572 53.0984 104.775 52.8568 103.654 52.8568H100.87V58.3137Z" fill="#1F2D3D"/>
<path d="M111.223 65.0871V51.731H115.258C116.267 51.731 117.089 51.9028 117.724 52.2462C118.371 52.5896 118.845 53.0539 119.144 53.639C119.442 54.2114 119.592 54.8665 119.592 55.6043C119.592 56.3166 119.436 56.9717 119.125 57.5695C118.814 58.1547 118.334 58.6253 117.687 58.9815C117.039 59.3249 116.198 59.4966 115.165 59.4966H112.531V65.0871H111.223ZM118.172 65.0871L115.239 59.0769H116.734L119.741 65.0871H118.172ZM112.531 58.4091H115.165C116.223 58.4091 117.002 58.1483 117.5 57.6268C117.998 57.1052 118.247 56.4311 118.247 55.6043C118.247 54.752 118.004 54.0842 117.518 53.6009C117.033 53.1048 116.242 52.8568 115.146 52.8568H112.531V58.4091Z" fill="#1F2D3D"/>
<path d="M128.874 65.316C127.629 65.316 126.533 65.0298 125.587 64.4574C124.64 63.8723 123.899 63.0646 123.364 62.0343C122.841 60.9912 122.579 59.7828 122.579 58.4091C122.579 57.048 122.841 55.8523 123.364 54.822C123.899 53.779 124.64 52.9649 125.587 52.3798C126.533 51.7946 127.629 51.5021 128.874 51.5021C130.157 51.5021 131.271 51.7946 132.218 52.3798C133.164 52.9649 133.893 53.779 134.403 54.822C134.927 55.8523 135.188 57.048 135.188 58.4091C135.188 59.7828 134.927 60.9912 134.403 62.0343C133.893 63.0646 133.164 63.8723 132.218 64.4574C131.271 65.0298 130.157 65.316 128.874 65.316ZM128.893 64.1521C129.877 64.1521 130.742 63.9232 131.489 63.4653C132.237 63.0073 132.816 62.3523 133.227 61.5C133.638 60.6351 133.843 59.6047 133.843 58.4091C133.843 57.2134 133.638 56.1894 133.227 55.3372C132.816 54.4849 132.237 53.8298 131.489 53.3719C130.742 52.914 129.877 52.685 128.893 52.685C127.909 52.685 127.044 52.914 126.296 53.3719C125.549 53.8298 124.964 54.4849 124.54 55.3372C124.129 56.1894 123.924 57.2134 123.924 58.4091C123.924 59.6047 124.129 60.6351 124.54 61.5C124.964 62.3523 125.549 63.0073 126.296 63.4653C127.044 63.9232 127.909 64.1521 128.893 64.1521Z" fill="#1F2D3D"/>
<path d="M138.503 65.0871V51.731H142.201C143.745 51.731 145.009 51.9982 145.993 52.5324C146.989 53.0666 147.724 53.8362 148.197 54.8411C148.683 55.846 148.926 57.048 148.926 58.4472C148.926 59.821 148.683 61.0039 148.197 61.9961C147.724 62.9883 146.989 63.7515 145.993 64.2857C145.009 64.8199 143.745 65.0871 142.201 65.0871H138.503ZM139.81 63.9804H142.201C143.521 63.9804 144.574 63.7578 145.358 63.3126C146.143 62.8674 146.709 62.2314 147.058 61.4046C147.407 60.5778 147.581 59.592 147.581 58.4472C147.581 57.2897 147.407 56.2912 147.058 55.4516C146.709 54.6121 146.143 53.9698 145.358 53.5246C144.574 53.0666 143.521 52.8377 142.201 52.8377H139.81V63.9804Z" fill="#1F2D3D"/>
<path d="M156.82 65.316C155.935 65.316 155.132 65.1379 154.41 64.7818C153.7 64.4256 153.133 63.8723 152.71 63.1218C152.287 62.3586 152.075 61.3919 152.075 60.2217V51.731H153.382V60.2407C153.382 61.1439 153.526 61.888 153.812 62.4731C154.111 63.0455 154.522 63.4653 155.045 63.7324C155.568 63.9995 156.166 64.1331 156.838 64.1331C157.523 64.1331 158.121 63.9995 158.632 63.7324C159.142 63.4653 159.541 63.0455 159.827 62.4731C160.113 61.888 160.257 61.1439 160.257 60.2407V51.731H161.564V60.2217C161.564 61.3919 161.353 62.3586 160.929 63.1218C160.506 63.8723 159.933 64.4256 159.211 64.7818C158.501 65.1379 157.704 65.316 156.82 65.316Z" fill="#1F2D3D"/>
<path d="M170.875 65.316C169.617 65.316 168.528 65.0298 167.606 64.4574C166.685 63.8723 165.975 63.0646 165.477 62.0343C164.978 60.9912 164.729 59.7828 164.729 58.4091C164.729 57.0353 164.978 55.8332 165.477 54.8029C165.975 53.7599 166.685 52.9522 167.606 52.3798C168.54 51.7946 169.63 51.5021 170.875 51.5021C172.345 51.5021 173.534 51.8582 174.443 52.5706C175.364 53.2702 175.956 54.2623 176.218 55.547H174.779C174.58 54.6821 174.157 53.9888 173.509 53.4673C172.861 52.9331 171.983 52.666 170.875 52.666C169.916 52.666 169.076 52.8949 168.353 53.3528C167.631 53.8108 167.071 54.4722 166.672 55.3372C166.274 56.1894 166.074 57.2134 166.074 58.4091C166.074 59.6047 166.274 60.6351 166.672 61.5C167.071 62.3523 167.631 63.0073 168.353 63.4653C169.076 63.9232 169.916 64.1521 170.875 64.1521C171.983 64.1521 172.855 63.8914 173.49 63.3699C174.138 62.8483 174.567 62.1615 174.779 61.3092H176.218C175.944 62.5685 175.352 63.5543 174.443 64.2666C173.546 64.9662 172.357 65.316 170.875 65.316Z" fill="#1F2D3D"/>
<path d="M182.202 65.0871V52.8377H178.279V51.731H187.432V52.8377H183.509V65.0871H182.202Z" fill="#1F2D3D"/>
<path d="M196.476 65.0871V51.731H200.175C201.719 51.731 202.983 51.9982 203.967 52.5324C204.963 53.0666 205.698 53.8362 206.171 54.8411C206.657 55.846 206.9 57.048 206.9 58.4472C206.9 59.821 206.657 61.0039 206.171 61.9961C205.698 62.9883 204.963 63.7515 203.967 64.2857C202.983 64.8199 201.719 65.0871 200.175 65.0871H196.476ZM197.784 63.9804H200.175C201.495 63.9804 202.547 63.7578 203.332 63.3126C204.116 62.8674 204.683 62.2314 205.032 61.4046C205.38 60.5778 205.555 59.592 205.555 58.4472C205.555 57.2897 205.38 56.2912 205.032 55.4516C204.683 54.6121 204.116 53.9698 203.332 53.5246C202.547 53.0666 201.495 52.8377 200.175 52.8377H197.784V63.9804Z" fill="#1F2D3D"/>
<path d="M210.198 65.0871V51.731H218.137V52.8377H211.505V57.8176H217.576V58.9242H211.505V63.9804H218.137V65.0871H210.198Z" fill="#1F2D3D"/>
<path d="M225.693 65.316C224.734 65.316 223.9 65.1379 223.19 64.7818C222.493 64.4256 221.957 63.9295 221.584 63.2935C221.21 62.6448 221.023 61.9071 221.023 61.0803H222.387C222.387 61.6399 222.511 62.1551 222.761 62.6257C223.01 63.0964 223.377 63.478 223.863 63.7705C224.348 64.0504 224.959 64.1903 225.693 64.1903C226.341 64.1903 226.883 64.0822 227.318 63.8659C227.767 63.637 228.109 63.3381 228.346 62.9692C228.582 62.6003 228.701 62.1805 228.701 61.7099C228.701 61.1502 228.582 60.6987 228.346 60.3552C228.122 60.0118 227.81 59.7319 227.412 59.5157C227.013 59.2995 226.559 59.115 226.048 58.9624C225.55 58.797 225.021 58.6189 224.46 58.4281C223.452 58.072 222.711 57.6331 222.238 57.1116C221.764 56.5901 221.521 55.9223 221.509 55.1082C221.509 54.4086 221.665 53.7917 221.976 53.2574C222.3 52.7105 222.767 52.2844 223.377 51.9791C223.987 51.6611 224.709 51.5021 225.544 51.5021C226.353 51.5021 227.057 51.6611 227.655 51.9791C228.265 52.2844 228.738 52.7168 229.074 53.2765C229.411 53.8235 229.579 54.4531 229.579 55.1654H228.234C228.234 54.7584 228.128 54.3641 227.916 53.9825C227.717 53.5882 227.412 53.2702 227.001 53.0285C226.602 52.7741 226.092 52.6469 225.469 52.6469C224.959 52.6469 224.504 52.7423 224.105 52.9331C223.719 53.1112 223.414 53.3783 223.19 53.7344C222.966 54.0779 222.854 54.4849 222.854 54.9556C222.854 55.4135 222.954 55.7887 223.153 56.0813C223.352 56.3738 223.632 56.6155 223.993 56.8063C224.355 56.9971 224.778 57.1752 225.264 57.3406C225.749 57.4932 226.291 57.6713 226.889 57.8748C227.499 58.0911 228.041 58.3518 228.514 58.6571C228.987 58.9624 229.361 59.3567 229.635 59.8401C229.909 60.3107 230.046 60.9085 230.046 61.6336C230.046 62.2569 229.884 62.8547 229.56 63.4271C229.249 63.9868 228.769 64.4447 228.122 64.8009C227.474 65.1443 226.665 65.316 225.693 65.316Z" fill="#1F2D3D"/>
<path d="M233.318 65.0871V51.731H234.626V65.0871H233.318Z" fill="#1F2D3D"/>
<path d="M244.032 65.316C242.812 65.316 241.741 65.0298 240.82 64.4574C239.898 63.8723 239.182 63.0646 238.671 62.0343C238.173 60.9912 237.924 59.7828 237.924 58.4091C237.924 57.048 238.179 55.8523 238.69 54.822C239.213 53.779 239.942 52.9649 240.876 52.3798C241.822 51.7946 242.937 51.5021 244.219 51.5021C245.664 51.5021 246.872 51.8582 247.843 52.5706C248.815 53.2829 249.437 54.275 249.711 55.547H248.179C248.005 54.6821 247.569 53.9952 246.872 53.4864C246.187 52.9776 245.303 52.7232 244.219 52.7232C243.223 52.7232 242.351 52.9522 241.604 53.4101C240.869 53.868 240.296 54.5231 239.886 55.3753C239.475 56.2148 239.269 57.2261 239.269 58.4091C239.269 59.592 239.468 60.6096 239.867 61.4619C240.278 62.3141 240.838 62.9692 241.548 63.4271C242.27 63.885 243.098 64.114 244.032 64.114C245.502 64.114 246.604 63.6688 247.339 62.7784C248.086 61.888 248.509 60.6605 248.609 59.0959H244.668V58.0084H249.954V65.0871H248.759L248.646 62.7211C248.323 63.2681 247.949 63.7387 247.526 64.1331C247.115 64.5274 246.623 64.8263 246.05 65.0298C245.49 65.2206 244.817 65.316 244.032 65.316Z" fill="#1F2D3D"/>
<path d="M253.501 65.0871V51.731H254.809L262.038 62.8547V51.731H263.345V65.0871H262.038L254.809 53.9443V65.0871H253.501Z" fill="#1F2D3D"/>
<path d="M267.186 65.0871V51.731H275.125V52.8377H268.494V57.8176H274.565V58.9242H268.494V63.9804H275.125V65.0871H267.186Z" fill="#1F2D3D"/>
<path d="M278.61 65.0871V51.731H282.644C283.653 51.731 284.475 51.9028 285.11 52.2462C285.758 52.5896 286.231 53.0539 286.53 53.639C286.829 54.2114 286.978 54.8665 286.978 55.6043C286.978 56.3166 286.822 56.9717 286.511 57.5695C286.2 58.1547 285.72 58.6253 285.073 58.9815C284.425 59.3249 283.585 59.4966 282.551 59.4966H279.917V65.0871H278.61ZM285.558 65.0871L282.626 59.0769H284.12L287.128 65.0871H285.558ZM279.917 58.4091H282.551C283.61 58.4091 284.388 58.1483 284.886 57.6268C285.384 57.1052 285.633 56.4311 285.633 55.6043C285.633 54.752 285.39 54.0842 284.905 53.6009C284.419 53.1048 283.628 52.8568 282.532 52.8568H279.917V58.4091Z" fill="#1F2D3D"/>
<defs>
<linearGradient id="paint0_linear_138_1292" x1="46.8094" y1="39.9856" x2="46.8094" y2="43.9991" gradientUnits="userSpaceOnUse">
<stop stop-color="#F37227"/>
<stop offset="1" stop-color="#F2AC52"/>
</linearGradient>
</defs>
</svg>
