<svg width="141" height="25" viewBox="0 0 141 25" fill="none" xmlns="http://www.w3.org/2000/svg">
<path d="M77.279 9.08979C77.4319 9.08947 77.5848 9.08916 77.7422 9.08883C77.9829 9.09025 77.9829 9.09025 78.2285 9.0917C78.3885 9.09076 78.5485 9.08981 78.7133 9.08883C78.9428 9.0893 78.9428 9.0893 79.177 9.08979C79.3177 9.09006 79.4584 9.09034 79.6034 9.09063C79.9574 9.12235 79.9574 9.12235 80.3262 9.36754C80.4794 9.73246 80.4794 9.73246 80.6259 10.1797C80.8109 10.7409 81.0183 11.2406 81.2904 11.767C81.6114 12.4383 81.8643 13.1408 82.132 13.8346C82.2525 14.1462 82.3734 14.4576 82.4946 14.7689C82.5475 14.9059 82.6003 15.0428 82.6548 15.1839C82.7561 15.484 82.7561 15.484 82.9081 15.6199C83.3258 15.665 83.3258 15.665 83.7687 15.4973C84.0402 15.1335 84.188 14.7255 84.3507 14.3044C84.4005 14.1839 84.4503 14.0633 84.5015 13.9392C84.6601 13.5531 84.8138 13.1653 84.9674 12.7772C85.0726 12.5181 85.1781 12.2591 85.2839 12.0002C85.4333 11.6345 85.5823 11.2687 85.7288 10.9018C86.3704 9.29632 86.3704 9.29632 86.7194 9.12235C87.2052 9.08287 87.6921 9.08259 88.1793 9.07638C88.3148 9.0718 88.4503 9.06721 88.5899 9.06249C89.5735 9.05177 89.5735 9.05177 89.9707 9.34216C90.2625 9.94244 90.5269 10.5493 90.7765 11.1682C90.8288 11.2955 90.8811 11.4228 90.935 11.5539C91.2186 12.2457 91.4965 12.9398 91.7743 13.6339C91.9669 14.1116 92.1682 14.5856 92.3686 15.0601C92.4607 15.2844 92.5438 15.5125 92.6207 15.7425C93.2693 15.6262 93.2693 15.6262 93.7101 15.1688C93.7663 15.0309 93.8225 14.8929 93.8804 14.7507C93.912 14.6757 93.9436 14.6006 93.9762 14.5233C94.0781 14.2795 94.1754 14.0342 94.2728 13.7886C94.3421 13.6209 94.4117 13.4534 94.4816 13.2859C94.6531 12.8736 94.8211 12.4601 94.988 12.0459C95.1637 11.6115 95.3432 11.1786 95.5238 10.7462C95.6045 10.5527 95.6841 10.3587 95.7622 10.1642C96.0823 9.38485 96.0823 9.38485 96.432 9.12235C96.7389 9.07671 96.7389 9.07671 97.1005 9.07782C97.2308 9.07789 97.361 9.07797 97.4953 9.07805C97.6992 9.08102 97.6992 9.08102 97.9073 9.08404C98.1113 9.08345 98.1113 9.08345 98.3194 9.08284C99.3334 9.08961 99.3334 9.08961 99.7515 9.36754C99.8248 9.87906 99.7618 10.2488 99.5469 10.7084C99.5022 10.8056 99.4574 10.9027 99.4113 11.0027C99.3613 11.1104 99.3112 11.2181 99.2597 11.3291C99.1485 11.5753 99.0376 11.8216 98.9269 12.068C98.8354 12.2709 98.8354 12.2709 98.7421 12.4778C98.1206 13.8572 97.5026 15.2382 96.8905 16.6218C96.8153 16.7917 96.7401 16.9615 96.6648 17.1313C96.231 18.1104 95.8 19.0907 95.3742 20.0732C95.1724 20.5387 94.9698 21.0039 94.7671 21.469C94.6685 21.6961 94.5702 21.9233 94.4724 22.1507C94.3357 22.4683 94.1978 22.7852 94.0595 23.1021C94.0189 23.1975 93.9782 23.293 93.9364 23.3913C93.7437 23.8296 93.6435 24.0529 93.2354 24.3242C92.9357 24.3242 92.9357 24.3242 92.6207 24.2016C92.2331 23.6861 91.9615 23.1381 91.7068 22.5494C91.6681 22.4617 91.6294 22.374 91.5896 22.2836C91.5068 22.0958 91.4244 21.9079 91.3422 21.7199C91.1256 21.2247 90.9066 20.7306 90.6877 20.2364C90.6436 20.1369 90.5996 20.0374 90.5543 19.9349C90.1634 19.0528 89.7649 18.1745 89.3588 17.2994C89.2567 17.0792 89.1552 16.8587 89.0536 16.6382C88.9618 16.4409 88.9618 16.4409 88.868 16.2396C88.8148 16.1252 88.7617 16.0107 88.7069 15.8928C88.573 15.605 88.573 15.605 88.3176 15.3747C88.0266 15.2723 88.0266 15.2723 87.7029 15.3747C87.3084 15.8108 87.0797 16.3541 86.8697 16.8966C86.4907 17.856 86.0744 18.7995 85.6647 19.746C85.3463 20.4838 85.0333 21.2226 84.737 21.9695C84.5782 22.3685 84.4127 22.7642 84.2451 23.1595C84.1839 23.3049 84.1227 23.4503 84.0597 23.6001C83.8916 23.9564 83.8916 23.9564 83.6457 24.2016C83.2001 24.2169 83.2001 24.2169 82.7851 24.2016C82.0928 22.8447 81.4399 21.4739 80.8103 20.087C80.6451 19.7241 80.4797 19.3613 80.3142 18.9985C80.2737 18.9095 80.2332 18.8206 80.1915 18.729C79.9331 18.1625 79.6705 17.5982 79.4051 17.035C78.915 15.9932 78.449 14.9408 77.9826 13.8883C77.8562 13.6031 77.7297 13.3179 77.603 13.0328C77.5209 12.8481 77.439 12.6633 77.3573 12.4783C77.1715 12.0594 76.9826 11.643 76.7816 11.231C76.714 11.0918 76.6465 10.9525 76.5769 10.809C76.5172 10.6894 76.4576 10.5698 76.3961 10.4465C76.2529 10.0595 76.2273 9.77697 76.2691 9.36754C76.6076 9.02995 76.8058 9.09072 77.279 9.08979Z" fill="#9CA3AF"/>
<path d="M61.9652 0.00143667C62.101 0.000962567 62.2369 0.000488467 62.3768 0C62.5186 0.0014223 62.6605 0.0028446 62.8066 0.00431C63.0194 0.00217655 63.0194 0.00217655 63.2364 0C63.3723 0.0004741 63.5081 0.0009482 63.648 0.00143667C63.7725 0.0018515 63.897 0.00226634 64.0253 0.00269375C64.3996 0.0586932 64.4837 0.125069 64.7122 0.41807C64.7589 0.667505 64.7589 0.667505 64.7596 0.958648C64.7608 1.06917 64.762 1.1797 64.7632 1.29357C64.7626 1.41453 64.7621 1.53548 64.7615 1.6601C64.7624 1.7877 64.7632 1.91531 64.7641 2.04678C64.7666 2.46949 64.7665 2.89216 64.7665 3.31487C64.768 3.60786 64.7696 3.90085 64.7714 4.19384C64.7759 4.96586 64.7784 5.73788 64.7802 6.50991C64.7833 7.74622 64.7881 8.98251 64.7952 10.2188C64.7972 10.6517 64.7977 11.0846 64.7981 11.5174C64.7993 11.7815 64.8005 12.0456 64.8018 12.3096C64.8014 12.4914 64.8014 12.4914 64.8009 12.6769C64.8022 12.8422 64.8022 12.8422 64.8034 13.0108C64.8036 13.1068 64.8038 13.2028 64.8041 13.3018C64.8149 13.5653 64.8149 13.5653 65.0811 13.781C65.4179 13.8839 65.4179 13.8839 65.8188 13.781C66.1888 13.4921 66.4926 13.1516 66.8023 12.8002C66.8676 12.7266 66.9329 12.6529 67.0002 12.5771C67.1352 12.4231 67.2694 12.2686 67.4031 12.1135C67.8127 11.65 68.2372 11.2004 68.661 10.7498C68.7259 10.6805 68.7909 10.6112 68.8578 10.5399C68.9251 10.4702 68.9924 10.4006 69.0618 10.3288C69.2693 10.1053 69.2693 10.1053 69.4347 9.83408C69.7572 9.36575 69.97 9.15259 70.5411 9.03885C70.9629 9.01695 71.3733 9.01204 71.7948 9.02816C72.0594 9.03812 72.3232 9.04073 72.5879 9.04214C73.8533 9.06353 73.8533 9.06353 74.1652 9.29341C74.3019 9.49014 74.3019 9.49014 74.3788 9.76598C74.2737 10.2269 74.0282 10.4141 73.6867 10.73C73.4437 10.9591 73.228 11.1981 73.011 11.4517C72.6724 11.8436 72.3166 12.2086 71.9463 12.5707C71.7297 12.7905 71.5284 13.0171 71.3277 13.2513C71.011 13.6151 70.6846 13.9641 70.3451 14.3068C70.2592 14.3944 70.1732 14.4819 70.0846 14.5721C69.9075 14.7518 69.7291 14.9302 69.5496 15.1075C69.0559 15.6101 69.0559 15.6101 68.7915 16.2482C68.9318 16.7386 69.2216 17.0328 69.5762 17.3822C69.713 17.5231 69.8498 17.6641 69.9864 17.8051C70.0526 17.8723 70.1188 17.9395 70.187 18.0088C70.4069 18.2347 70.6153 18.469 70.8211 18.7078C71.1308 19.0653 71.4472 19.4159 71.7662 19.7652C72.2456 20.2942 72.6966 20.8413 73.144 21.3972C73.3611 21.6546 73.5789 21.8982 73.8116 22.1405C73.8739 22.2057 73.9362 22.2709 74.0004 22.3381C74.122 22.4642 74.2448 22.589 74.3691 22.7124C74.6325 22.986 74.7843 23.1703 74.8547 23.5475C74.7797 23.8996 74.7146 23.9884 74.4249 24.2016C73.7991 24.3121 73.1616 24.3162 72.5269 24.3242C72.3916 24.326 72.3916 24.326 72.2535 24.3279C70.392 24.3334 70.392 24.3334 69.7433 23.6993C69.5199 23.4181 69.3229 23.1316 69.1426 22.8212C68.9493 22.4973 68.7063 22.2204 68.4621 21.9336C68.3752 21.8257 68.2884 21.7177 68.1989 21.6065C67.8016 21.131 67.3808 20.6791 66.9557 20.2283C66.8969 20.1657 66.838 20.1031 66.7773 20.0386C66.6911 19.9471 66.6911 19.9471 66.6032 19.8537C66.4285 19.6601 66.268 19.4588 66.1064 19.2542C65.8464 18.8918 65.8464 18.8918 65.4269 18.8687C65.0654 18.8988 65.0654 18.8988 64.8352 19.1752C64.8095 19.5222 64.7982 19.8581 64.7973 20.2053C64.7942 20.4151 64.791 20.625 64.7879 20.8348C64.7844 21.1662 64.7814 21.4977 64.7791 21.8292C64.7764 22.1486 64.7716 22.468 64.7665 22.7875C64.7665 22.8867 64.7665 22.9859 64.7665 23.0882C64.7542 23.781 64.7542 23.781 64.5455 24.0438C64.2433 24.2798 63.996 24.2493 63.6168 24.2505C63.4749 24.2509 63.333 24.2514 63.1867 24.2519C62.9643 24.2498 62.9643 24.2498 62.7375 24.2476C62.5143 24.2497 62.5144 24.2497 62.2867 24.2519C62.145 24.2514 62.0032 24.2509 61.8572 24.2505C61.7269 24.25 61.5966 24.2496 61.4624 24.2492C61.3582 24.2335 61.2541 24.2178 61.1469 24.2016C60.8472 23.7534 60.8662 23.4213 60.8689 22.9031C60.8685 22.8074 60.868 22.7118 60.8675 22.6132C60.8662 22.2916 60.8667 21.97 60.8672 21.6484C60.8667 21.4183 60.866 21.1881 60.8653 20.958C60.8637 20.3321 60.8636 19.7062 60.8639 19.0803C60.864 18.5584 60.8634 18.0365 60.8628 17.5146C60.8615 16.2837 60.8614 15.0529 60.8622 13.822C60.8629 12.5507 60.8614 11.2795 60.8588 10.0082C60.8566 8.91792 60.8559 7.82763 60.8563 6.73733C60.8565 6.08562 60.8562 5.43392 60.8545 4.78222C60.8529 4.16961 60.8531 3.55702 60.8548 2.94441C60.855 2.7192 60.8547 2.49398 60.8537 2.26877C60.8524 1.96207 60.8534 1.65547 60.855 1.34878C60.8541 1.25899 60.8531 1.1692 60.8522 1.07669C60.8561 0.719374 60.8597 0.476964 61.0684 0.178982C61.3678 -0.0123437 61.6121 0.00261318 61.9652 0.00143667Z" fill="#9CA3AF"/>
<path d="M122.988 10.2257C123.111 10.3483 123.111 10.3483 123.156 10.6682C123.095 11.2301 122.851 11.5331 122.512 11.9727C122.455 12.0492 122.398 12.1257 122.34 12.2045C122.119 12.5015 121.898 12.7834 121.636 13.0454C120.985 13.1233 120.617 12.9859 120.064 12.6886C118.851 12.0936 117.457 11.9936 116.157 12.3405C115.709 12.4973 115.375 12.6278 115.12 13.0454C115.038 13.4745 115.038 13.4745 115.12 13.9036C115.837 14.7872 117.184 14.8831 118.245 15.0995C120.311 15.5232 121.883 16.042 123.295 17.6964C123.854 18.8339 123.881 20.1415 123.484 21.3311C122.912 22.6612 121.71 23.5377 120.406 24.079C118.093 24.9641 115.517 24.9809 113.233 23.9765C112.37 23.5721 111.531 23.1225 110.816 22.4853C110.709 22.4106 110.709 22.4106 110.6 22.3344C110.448 22.1175 110.448 22.1175 110.444 21.7176C110.6 21.1529 110.848 20.8484 111.239 20.4241C111.332 20.319 111.332 20.319 111.427 20.2117C111.667 19.9407 111.912 19.6763 112.169 19.4204C112.81 19.4204 113.142 19.7011 113.619 20.0793C114.652 20.8379 115.791 21.1852 117.064 21.1827C117.209 21.1825 117.209 21.1825 117.358 21.1824C118.104 21.1673 118.788 21.069 119.423 20.6463C119.664 20.2858 119.707 20.195 119.715 19.7882C119.718 19.7047 119.722 19.6213 119.725 19.5353C119.686 19.2807 119.686 19.2807 119.468 19.0981C119.121 18.8976 118.796 18.7971 118.408 18.6925C118.256 18.6507 118.103 18.609 117.945 18.566C117.538 18.4593 117.129 18.36 116.719 18.2618C114.787 17.7953 112.837 17.2401 111.677 15.4973C111.154 14.4952 110.996 13.4497 111.266 12.3467C111.537 11.5846 111.963 11.0327 112.538 10.4709C112.605 10.404 112.672 10.3372 112.741 10.2683C115.541 7.68031 119.988 8.54314 122.988 10.2257Z" fill="#9CA3AF"/>
<path d="M14.9115 8.59078C15.6264 9.05161 16.3239 9.59817 16.5833 10.4369C16.8961 11.9524 16.537 12.953 15.802 14.252C15.5474 14.7178 15.328 15.2001 15.1041 15.6812C14.6561 16.6312 14.1921 17.5718 13.7179 18.509C13.4684 19.0034 13.2205 19.4985 12.9725 19.9936C12.8317 20.2745 12.6905 20.5552 12.5489 20.8357C12.1203 21.6858 12.1203 21.6858 11.714 22.5466C11.2621 23.5214 10.7686 24.3268 9.76467 24.805C9.51106 24.8827 9.28294 24.9159 9.01836 24.9372C8.84268 24.9519 8.84268 24.9519 8.66345 24.9669C7.70147 25.0078 7.06744 24.867 6.32558 24.2533C5.55923 23.536 5.08419 22.7506 5.03803 21.6884C5.06214 20.3947 5.8752 19.1615 6.45189 18.0335C6.97965 16.9911 7.50026 15.9461 8.00407 14.892C8.05912 14.7768 8.11417 14.6617 8.17089 14.543C8.43197 13.9956 8.69136 13.4474 8.9492 12.8984C10.8016 8.95725 10.8016 8.95725 12.1703 8.34511C13.0872 8.0897 14.0659 8.15285 14.9115 8.59078Z" fill="#9CA3AF"/>
<path d="M25.1063 8.61042C26.0566 9.12996 26.4764 9.82612 26.8453 10.8387C27.07 12.1081 26.4238 13.1834 25.8618 14.279C25.3746 15.2395 24.897 16.2037 24.4325 17.1754C24.3765 17.2926 24.3204 17.4099 24.2626 17.5307C23.9516 18.1826 23.6424 18.8354 23.3337 19.4884C21.1076 24.1914 21.1076 24.1914 19.5407 24.8428C18.7032 25.0913 17.8909 25.0481 17.0943 24.692C16.3529 24.2754 15.877 23.6719 15.4115 22.9757C15.3404 22.6912 15.3404 22.6912 15.2885 22.3627C15.2689 22.2517 15.2492 22.1408 15.229 22.0265C15.1041 20.5577 15.8035 19.4336 16.4659 18.1658C16.7096 17.6936 16.9331 17.2132 17.1558 16.7309C17.5751 15.837 18.0149 14.9543 18.4607 14.0733C18.6322 13.7331 18.8022 13.3922 18.9721 13.0512C19.0363 12.9224 19.1005 12.7937 19.1667 12.6611C19.2926 12.4087 19.4184 12.1563 19.5439 11.9037C19.7219 11.5477 19.9018 11.1929 20.0834 10.8387C20.1459 10.7166 20.2085 10.5946 20.2729 10.4688C20.5845 9.87804 20.8586 9.36303 21.382 8.9308C21.4709 8.85478 21.5598 8.77877 21.6514 8.70045C22.6758 7.99162 24.0131 8.09794 25.1063 8.61042Z" fill="#9CA3AF"/>
<path d="M55.8526 8.71625C55.946 8.71586 56.0394 8.71546 56.1357 8.71505C57.6793 8.72951 57.6793 8.72951 58.1962 9.24495C58.1962 10.0008 57.9933 10.6259 57.7198 11.3214C57.6882 11.4027 57.6567 11.4839 57.6242 11.5676C57.4493 11.9926 57.3597 12.1712 56.9668 12.4324C56.7187 12.4525 56.7187 12.4525 56.4361 12.4391C56.3325 12.4357 56.229 12.4324 56.1223 12.4289C55.9584 12.423 55.9584 12.423 55.7911 12.4171C54.3997 12.3953 53.5313 12.62 52.4908 13.5746C52.0295 14.0605 52.0134 14.4389 52.0156 15.0737C52.0147 15.2146 52.0147 15.2146 52.0137 15.3584C52.0124 15.5623 52.0117 15.7662 52.0115 15.97C52.011 16.2926 52.009 16.615 52.0065 16.9376C51.9996 17.8545 51.9959 18.7714 51.9929 19.6884C51.9909 20.2492 51.9872 20.81 51.9824 21.3708C51.981 21.5847 51.9803 21.7986 51.9803 22.0125C51.9802 22.3113 51.978 22.6101 51.9753 22.9088C51.9758 22.9975 51.9764 23.0862 51.977 23.1775C51.9718 23.5333 51.9667 23.7757 51.7591 24.0724C51.2631 24.3897 50.527 24.2586 49.9589 24.2552C49.8112 24.2577 49.6635 24.2601 49.5113 24.2627C49.3699 24.2626 49.2286 24.2625 49.0829 24.2624C48.9533 24.2627 48.8237 24.2629 48.6901 24.2631C48.3606 24.2016 48.3606 24.2016 48.1585 23.9898C47.9654 23.6671 47.9455 23.488 47.945 23.1148C47.9439 22.995 47.9429 22.8752 47.9418 22.7518C47.9426 22.6212 47.9433 22.4905 47.9441 22.3559C47.9434 22.2178 47.9428 22.0796 47.9421 21.9372C47.9405 21.4799 47.9416 21.0227 47.9428 20.5654C47.9426 20.2481 47.9422 19.9309 47.9417 19.6136C47.9412 18.9486 47.942 18.2836 47.9437 17.6185C47.9457 16.8496 47.9451 16.0806 47.943 15.3117C47.9412 14.5719 47.9414 13.8321 47.9424 13.0922C47.9427 12.7774 47.9424 12.4626 47.9415 12.1477C47.9406 11.7083 47.942 11.269 47.9441 10.8296C47.9433 10.6987 47.9426 10.5678 47.9418 10.4329C47.9428 10.3135 47.9439 10.194 47.945 10.071C47.9451 9.96706 47.9452 9.86316 47.9454 9.75612C48.0026 9.42827 48.0953 9.3192 48.3606 9.12235C48.6959 9.0806 48.6959 9.0806 49.0959 9.08643C49.2389 9.08762 49.382 9.0888 49.5293 9.09002C49.6787 9.09311 49.8281 9.09619 49.982 9.09936C50.1328 9.10102 50.2836 9.10268 50.4389 9.10439C50.8117 9.10873 51.1844 9.11478 51.5572 9.12235C51.6789 9.36509 51.8006 9.60783 51.926 9.85792C52.6628 9.95172 53.0111 9.76086 53.5973 9.31917C54.3557 8.81458 54.9592 8.69746 55.8526 8.71625Z" fill="#9CA3AF"/>
<path d="M103.885 9.0735C104.088 9.07279 104.088 9.07279 104.295 9.07206C104.436 9.07348 104.577 9.07491 104.723 9.07637C104.864 9.07495 105.005 9.07353 105.15 9.07206C105.285 9.07254 105.421 9.07301 105.56 9.0735C105.684 9.07391 105.808 9.07433 105.935 9.07476C106.326 9.13068 106.475 9.22086 106.759 9.49013C106.821 9.75611 106.821 9.75611 106.821 10.0709C106.822 10.1904 106.823 10.3099 106.825 10.4329C106.823 10.6293 106.823 10.6293 106.821 10.8296C106.822 10.9675 106.822 11.1055 106.823 11.2477C106.825 11.705 106.823 12.1623 106.82 12.6197C106.82 12.9368 106.821 13.254 106.821 13.5711C106.821 14.2364 106.82 14.9016 106.817 15.5668C106.813 16.3357 106.813 17.1046 106.815 17.8735C106.816 18.6132 106.815 19.353 106.813 20.0927C106.813 20.4074 106.813 20.7222 106.813 21.0369C106.814 21.4766 106.812 21.9162 106.809 22.3559C106.81 22.4866 106.81 22.6172 106.811 22.7518C106.809 22.8716 106.808 22.9914 106.807 23.1148C106.807 23.2188 106.806 23.3227 106.806 23.4298C106.748 23.7778 106.633 23.9476 106.39 24.2016C106.061 24.2631 106.061 24.2631 105.668 24.2624C105.527 24.2625 105.385 24.2626 105.24 24.2627C105.018 24.259 105.018 24.259 104.792 24.2552C104.571 24.2565 104.571 24.2565 104.345 24.2579C103.259 24.25 103.259 24.25 102.992 24.0513C102.774 23.7677 102.779 23.6025 102.778 23.2475C102.777 23.1269 102.776 23.0062 102.775 22.8819C102.776 22.7496 102.777 22.6174 102.777 22.4812C102.777 22.3418 102.776 22.2025 102.775 22.0589C102.774 21.5969 102.775 21.1351 102.776 20.6731C102.776 20.353 102.776 20.0328 102.775 19.7126C102.774 19.0411 102.775 18.3695 102.777 17.698C102.779 16.9214 102.778 16.1449 102.776 15.3684C102.774 14.6215 102.775 13.8747 102.776 13.1279C102.776 12.81 102.776 12.4921 102.775 12.1742C102.774 11.7303 102.775 11.2866 102.777 10.8428C102.777 10.7105 102.776 10.5783 102.775 10.4421C102.776 10.3214 102.777 10.2007 102.778 10.0764C102.778 9.97147 102.779 9.86651 102.779 9.75837C102.889 9.12051 103.308 9.07543 103.885 9.0735Z" fill="#9CA3AF"/>
<path fill-rule="evenodd" clip-rule="evenodd" d="M32.1209 10.2985C35.1378 8.00564 39.1751 8.25461 42.2108 10.3561C43.6628 11.4709 44.8687 13.1711 45.1639 15.0065C45.3016 16.7235 45.3742 18.4786 44.5496 20.0338C44.4949 20.1428 44.44 20.2516 44.3836 20.3639C43.9404 21.17 43.3474 21.8311 42.7049 22.485C42.6308 22.5634 42.5567 22.6425 42.4803 22.7233C40.9354 24.2234 38.7161 24.6361 36.6463 24.6295C34.4517 24.5712 32.6 23.6964 31.0838 22.1041C29.3129 20.0398 28.9083 17.8868 29.0584 15.2526C29.2993 13.2175 30.5889 11.5818 32.1209 10.2985ZM39.5575 12.9811C38.189 12.1432 36.4596 11.9439 35.0028 12.7311C34.861 12.8278 34.8604 12.8278 34.7215 12.9225C34.4339 13.114 34.4333 13.1144 34.2215 13.2907V13.5358H33.9764C33.7459 13.8269 33.7457 13.827 33.618 14.0348C33.5726 14.1152 33.5283 14.1931 33.4842 14.2711C33.0444 15.032 32.9424 15.7441 32.9383 16.608C32.9597 18.039 33.3387 19.1519 34.3758 20.1862C34.4907 20.2591 34.6022 20.3302 34.7137 20.401C35.633 21.0367 36.464 21.0897 37.5477 21.0592C38.6905 20.9521 39.7344 20.4045 40.4764 19.528C41.386 18.2435 41.5311 16.808 41.2762 15.2828C40.8728 14.3321 40.4154 13.5822 39.5575 12.9811Z" fill="#9CA3AF"/>
<path d="M5.20708 8.75455C6.03761 9.40736 6.58243 10.137 6.73284 11.1926C6.78728 12.2795 6.46844 13.0645 5.76802 13.8882C4.84448 14.6519 4.08241 14.956 2.88314 14.9293C1.99025 14.8238 1.35673 14.4275 0.788761 13.7427C0.111802 12.7747 -0.102234 11.9019 0.0434099 10.7161C0.160859 10.3515 0.320852 10.0518 0.535188 9.73532C0.608725 9.62659 0.682261 9.51786 0.758025 9.40584C1.93224 8.16805 3.72836 7.79584 5.20708 8.75455Z" fill="#9CA3AF"/>
<path d="M105.844 1.8552C106.525 2.17191 106.966 2.66666 107.251 3.36035C107.353 4.15345 107.421 4.96155 106.936 5.63603C106.728 5.85871 106.728 5.85871 106.513 6.05745C106.454 6.12177 106.395 6.18609 106.333 6.25236C105.759 6.77877 105.098 6.75841 104.348 6.72981C103.567 6.61839 103.143 6.29834 102.656 5.69733C102.3 5.0291 102.143 4.48925 102.21 3.72814C102.45 2.98419 102.872 2.30644 103.534 1.86765C104.231 1.61107 105.137 1.6557 105.844 1.8552Z" fill="#9CA3AF"/>
<path fill-rule="evenodd" clip-rule="evenodd" d="M128.397 10.3484C131.149 8.22047 134.755 8.17634 137.667 10.0047C139.337 11.1568 140.421 12.8361 140.876 14.8104C140.958 15.39 140.983 15.9618 140.992 16.5467C140.995 16.6548 140.997 16.7635 141 16.8748C141 16.9766 140.999 17.0785 140.999 17.1834C140.999 17.2748 141 17.3665 141 17.4608C140.938 17.7041 140.938 17.7043 140.751 17.9002C140.324 18.1412 139.922 18.1247 139.444 18.1229C139.344 18.1239 139.243 18.1247 139.14 18.1258C138.808 18.1289 138.475 18.1301 138.143 18.1307C137.913 18.1324 137.682 18.1335 137.452 18.1356C136.846 18.1407 136.238 18.1438 135.632 18.1463C134.66 18.1507 133.688 18.1582 132.716 18.1658C132.375 18.1682 132.035 18.1704 131.694 18.1717C131.487 18.1729 131.28 18.1733 131.073 18.1746C130.978 18.1747 130.882 18.1755 130.784 18.1756C130.354 18.1398 130.354 18.1399 129.996 18.3172C130.009 18.9799 130.176 19.3549 130.618 19.825C131.716 20.7875 132.869 21.0734 134.308 21.0535C135.215 20.9798 136.084 20.7352 136.857 20.2479C137.392 19.955 137.629 19.9278 138.233 20.033C138.546 20.274 138.749 20.5672 138.971 20.8914C139.04 20.9842 139.109 21.0771 139.181 21.1727C139.799 22.033 139.799 22.0336 139.709 22.6082C139.434 22.9194 139.074 23.1212 138.725 23.3436C138.609 23.4232 138.609 23.4234 138.491 23.5047C136.57 24.7146 133.888 24.9223 131.701 24.4832C131.318 24.3744 130.972 24.244 130.61 24.0789C130.485 24.027 130.36 23.9752 130.231 23.9217C129.31 23.5066 128.613 22.9557 127.906 22.24C127.826 22.1604 127.746 22.0809 127.664 21.9988C126.038 20.2678 125.618 18.1447 125.651 15.8602C125.734 13.7055 126.83 11.7992 128.397 10.3484ZM135.405 12.6775C133.579 11.7252 131.288 11.9889 130.05 13.7195C129.78 14.1607 129.647 14.482 129.75 15.0066C129.996 15.2518 129.996 15.2519 130.275 15.283C130.395 15.2832 130.511 15.2838 130.627 15.284C130.762 15.2848 130.895 15.2852 131.026 15.2859C131.173 15.2854 131.316 15.2855 131.459 15.285C131.759 15.2855 132.059 15.2858 132.359 15.2859C132.834 15.2844 133.309 15.2827 133.784 15.284C134.093 15.285 134.403 15.2851 134.712 15.285C134.863 15.2847 135.009 15.2852 135.155 15.285C135.302 15.2855 135.444 15.2854 135.587 15.2859C135.723 15.2852 135.855 15.2848 135.987 15.284C136.464 15.2832 136.594 15.2788 137.004 15.0066C137.058 14.7389 137.058 14.7386 137.004 14.3943C136.663 13.5954 136.14 13.1329 135.405 12.6775Z" fill="#9CA3AF"/>
</svg>
