<svg width="104" height="42" viewBox="0 0 104 42" fill="none" xmlns="http://www.w3.org/2000/svg">
<g clip-path="url(#clip0_33_195)">
<path d="M64.8568 1.13436C65.1875 1.43721 65.2874 1.82436 65.3195 2.25532C65.3575 3.9348 64.376 5.72569 63.752 7.24229C63.7369 7.27904 63.7369 7.27904 63.7215 7.31654C63.3174 8.29947 62.907 9.27985 62.4959 10.2599C62.4765 10.3063 62.457 10.3526 62.4376 10.399C62.4281 10.4216 62.4186 10.4443 62.4088 10.4676C62.3715 10.5565 62.3342 10.6455 62.2969 10.7344C62.2707 10.797 62.2444 10.8596 62.2181 10.9222C61.6372 12.3071 61.0843 13.7025 60.554 15.1076C60.544 15.134 60.534 15.1605 60.5238 15.1877C60.3019 15.7752 60.0817 16.3634 59.8634 16.9522C59.8544 16.9766 59.8453 17.0009 59.836 17.0261C59.7325 17.3053 59.6303 17.585 59.53 17.8654C59.4922 17.9709 59.4544 18.0764 59.4165 18.182C59.4073 18.2076 59.3981 18.2333 59.3886 18.2597C59.2731 18.5811 59.1517 18.8984 59.0168 19.2122C58.642 20.0459 58.642 20.0459 58.7043 20.9318C58.7628 21.0618 58.8385 21.143 58.968 21.2077C59.3784 21.2517 59.7153 21.0675 60.06 20.8702C60.0812 20.8582 60.1024 20.8461 60.1242 20.8337C60.8955 20.3928 61.6184 19.8792 62.2938 19.3028C62.3677 19.2399 62.443 19.1789 62.5186 19.1181C62.6507 19.0108 62.7756 18.8972 62.9003 18.7817C62.9565 18.73 63.0132 18.6794 63.0711 18.6297C63.2024 18.5156 63.33 18.3977 63.4559 18.2779C63.5307 18.2069 63.6068 18.1381 63.6845 18.0702C64.0062 17.7805 64.1491 17.5032 64.2818 17.0966C64.3019 17.0384 64.3223 16.9803 64.3427 16.9223C64.3851 16.8018 64.427 16.6811 64.4686 16.5602C64.5592 16.2995 64.6591 16.0425 64.7593 15.7854C64.7922 15.7009 64.825 15.6163 64.8576 15.5316C64.9223 15.3643 64.9871 15.197 65.052 15.0297C65.0623 15.0033 65.0725 14.9768 65.0831 14.9496C65.1742 14.7148 65.2654 14.4801 65.3566 14.2454C65.5156 13.8364 65.6739 13.4272 65.832 13.0179C66.0109 12.5549 66.1901 12.0919 66.3699 11.6292C66.385 11.5903 66.385 11.5903 66.4004 11.5506C66.481 11.3433 66.5615 11.1361 66.6421 10.9289C66.7128 10.747 66.7835 10.5651 66.8541 10.3832C66.8642 10.3573 66.8743 10.3314 66.8847 10.3047C67.0543 9.86811 67.2232 9.43132 67.392 8.99445C67.5709 8.53139 67.7501 8.06843 67.9299 7.6057C67.945 7.5668 67.945 7.5668 67.9604 7.52711C68.041 7.31986 68.1215 7.11261 68.2021 6.90537C68.2728 6.72349 68.3435 6.54161 68.4141 6.35972C68.4293 6.32084 68.4293 6.32084 68.4447 6.28118C68.6021 5.87598 68.759 5.47058 68.9156 5.0651C68.9518 4.97143 68.9881 4.87778 69.0243 4.78412C69.0482 4.72219 69.0722 4.66026 69.0961 4.59833C69.1079 4.56783 69.1197 4.53732 69.1319 4.50589C69.2021 4.32434 69.2721 4.14272 69.3419 3.96104C69.3861 3.84618 69.4304 3.73136 69.4748 3.61655C69.4952 3.56349 69.5156 3.5104 69.536 3.45729C70.286 1.50045 70.286 1.50045 71.1994 1.07453C71.6893 0.877855 72.2953 0.849079 72.7878 1.04979C73.1075 1.19211 73.3681 1.40984 73.5076 1.73494C73.7394 2.34937 73.5508 2.9572 73.294 3.5303C73.2023 3.732 73.1087 3.93285 73.0151 4.13368C72.7971 4.60199 72.5898 5.07482 72.3836 5.54839C72.3527 5.61906 72.3218 5.68966 72.2908 5.76026C71.4783 7.61288 70.7333 9.49601 69.9932 11.3784C69.9624 11.4566 69.9317 11.5348 69.9009 11.613C69.8023 11.8636 69.7036 12.1143 69.605 12.3649C69.4765 12.6917 69.3478 13.0183 69.2186 13.3448C68.68 14.7053 68.1498 16.069 67.6226 17.4339C67.4948 17.7649 67.3665 18.0956 67.2374 18.426C67.1761 18.5831 67.115 18.7403 67.054 18.8974C67.0368 18.9416 67.0368 18.9416 67.0193 18.9867C66.8337 19.4647 66.6611 19.9415 66.5746 20.4484C66.5682 20.4859 66.5683 20.4859 66.5617 20.5242C66.5238 20.7682 66.4953 21.0087 66.612 21.2336C66.7532 21.3383 66.8847 21.3315 67.054 21.3115C67.1809 21.2812 67.2988 21.2338 67.418 21.1817C67.4493 21.1681 67.4493 21.1681 67.4813 21.1542C68.1243 20.8702 68.7173 20.4964 69.29 20.0915C69.3106 20.077 69.3312 20.0625 69.3524 20.0476C69.632 19.8506 69.9035 19.6442 70.1723 19.4328C70.2217 19.394 70.2712 19.3555 70.3208 19.317C70.6527 19.0591 70.976 18.7906 71.2964 18.5185C71.3454 18.477 71.3957 18.437 71.4473 18.3987C71.5322 18.3277 71.5725 18.2467 71.6119 18.1448C71.6192 18.1271 71.6265 18.1093 71.6341 18.0909C71.6581 18.0322 71.6814 17.9732 71.7048 17.9143C71.7217 17.8724 71.7387 17.8306 71.7557 17.7888C71.7914 17.701 71.8268 17.6132 71.8622 17.5252C71.9142 17.396 71.9675 17.2673 72.0211 17.1387C72.1992 16.7113 72.3706 16.2823 72.5327 15.8487C72.811 15.1054 73.1207 14.3737 73.4301 13.6429C73.475 13.5367 73.5193 13.4303 73.5626 13.3235C73.7021 12.9803 73.8639 12.7011 74.126 12.4339C74.1417 12.4173 74.1573 12.4008 74.1735 12.3837C74.4352 12.1292 74.8589 11.9884 75.218 11.9666C75.2403 11.9653 75.2626 11.9639 75.2856 11.9625C75.6266 11.9519 75.9532 12.0223 76.258 12.1743C76.2912 12.1906 76.2912 12.1906 76.325 12.2073C76.6917 12.4067 76.9359 12.7429 77.064 13.1347C77.2464 13.7688 76.9547 14.3602 76.6891 14.922C76.5559 15.2055 76.4338 15.4934 76.3133 15.7825C76.3033 15.8063 76.2934 15.8301 76.2831 15.8547C76.1874 16.0842 76.0923 16.314 75.9974 16.5439C75.9565 16.6427 75.9155 16.7415 75.8745 16.8402C75.8666 16.8594 75.8587 16.8785 75.8505 16.8982C75.7389 17.1668 75.622 17.4324 75.5008 17.6969C74.7267 19.2399 74.7267 19.2399 74.6933 20.8802C74.7476 21.0031 74.8091 21.0684 74.932 21.1298C75.5147 21.3237 76.2152 21.0347 76.7348 20.7771C77.3311 20.4732 77.8726 20.0719 78.39 19.6502C78.423 19.6236 78.423 19.6236 78.4566 19.5966C78.6381 19.4495 78.8157 19.298 78.9928 19.1456C79.0401 19.105 79.0875 19.0646 79.135 19.0242C79.2711 18.9083 79.4066 18.7921 79.5389 18.6719C79.6239 18.5947 79.7109 18.5214 79.8005 18.4496C79.9325 18.3432 80.0558 18.2293 80.1792 18.1133C80.2675 18.0306 80.3573 17.9521 80.4521 17.8769C80.6029 17.7566 80.7417 17.6247 80.8811 17.4917C80.9684 17.4086 81.0562 17.3273 81.1482 17.2493C81.3402 17.0811 81.4566 16.9273 81.5373 16.6842C81.5462 16.6588 81.5551 16.6335 81.5642 16.6073C81.5927 16.5256 81.6204 16.4436 81.6481 16.3616C81.6676 16.3054 81.687 16.2492 81.7065 16.193C81.7542 16.0554 81.8013 15.9176 81.8483 15.7798C81.8911 15.6546 81.9346 15.5296 81.9781 15.4046C82.0306 15.2539 82.0823 15.1028 82.134 14.9518C82.1181 14.952 82.1021 14.9522 82.0857 14.9523C81.9173 14.9541 81.749 14.9552 81.5807 14.9561C81.5181 14.9565 81.4556 14.957 81.393 14.9577C80.2822 14.9694 80.2822 14.9694 79.8639 14.6336C79.682 14.4462 79.6561 14.2392 79.6584 13.9894C79.6823 13.5547 79.8203 13.1706 80.1385 12.8703C80.4292 12.6236 80.789 12.5459 81.1584 12.4983C81.1844 12.4949 81.2104 12.4916 81.2371 12.4881C81.5283 12.4521 81.8201 12.4351 82.1129 12.4193C82.6903 12.4298 82.6903 12.4298 83.1832 12.1995C83.2506 12.119 83.3 12.0363 83.3463 11.9423C83.3622 11.911 83.3622 11.911 83.3785 11.8791C83.4965 11.6429 83.5997 11.3997 83.7044 11.1573C83.8669 10.7817 84.0415 10.4121 84.2179 10.0428C84.2618 9.95088 84.3054 9.85881 84.3489 9.7667C84.6405 9.15192 84.9542 8.55176 85.306 7.96911C85.3203 7.94536 85.3346 7.92161 85.3494 7.89713C85.7195 7.28531 86.1212 6.68485 86.5931 6.14606C86.6229 6.11087 86.652 6.07502 86.6807 6.03891C86.8287 5.85333 86.9883 5.68451 87.1568 5.51754C87.2007 5.47395 87.2444 5.43009 87.288 5.38619C87.4599 5.21432 87.6366 5.0563 87.828 4.90607C87.8584 4.88135 87.8888 4.85658 87.9191 4.83175C88.949 4.00837 90.1243 3.42802 91.4718 3.56843C91.5933 3.584 91.7125 3.60709 91.832 3.63413C91.8533 3.63888 91.8745 3.64362 91.8964 3.64851C92.8472 3.8698 93.631 4.42034 94.1509 5.24028C94.6161 5.99422 94.9106 6.87545 94.705 7.76794C94.6171 8.09873 94.4619 8.42187 94.224 8.66998C94.203 8.69211 94.203 8.69211 94.1815 8.71469C93.8984 8.98224 93.5442 9.05015 93.1705 9.0413C92.867 9.02588 92.6195 8.88788 92.4081 8.67322C92.1795 8.39381 92.1184 8.01585 92.0387 7.67389C91.8897 7.02909 91.8897 7.02909 91.4666 6.54528C91.4499 6.53544 91.4332 6.5256 91.416 6.51547C91.3758 6.49137 91.3758 6.49137 91.3348 6.4668C91.1178 6.38418 90.8612 6.42152 90.6527 6.50888C90.2647 6.69279 89.9553 6.94777 89.648 7.24229C89.6158 7.27286 89.6158 7.27286 89.5829 7.30404C89.4601 7.42323 89.3501 7.54934 89.2434 7.68305C89.1825 7.75844 89.1198 7.83206 89.0568 7.90574C88.9235 8.06408 88.8064 8.23111 88.6925 8.40391C88.6826 8.41895 88.6726 8.43398 88.6623 8.44947C87.912 9.58288 87.23 10.8493 86.814 12.1483C87.168 12.1802 87.5216 12.1781 87.8768 12.1778C87.9429 12.1778 88.0091 12.1778 88.0752 12.1779C88.6322 12.1782 89.1891 12.177 89.746 12.1755C90.0954 12.1745 90.4448 12.174 90.7943 12.1763C90.9666 12.1775 91.1389 12.1779 91.3113 12.1775C91.4038 12.1774 91.4962 12.1776 91.5887 12.179C92.0639 12.1853 92.4331 12.107 92.8702 11.9206C94.0743 11.4397 95.7585 11.248 96.9779 11.7592C97.5841 12.0265 98.0293 12.4605 98.297 13.0664C98.6308 13.9649 98.5236 14.959 98.1303 15.8222C97.7961 16.5218 97.2413 17.1712 96.6327 17.6492C96.5608 17.7059 96.492 17.7653 96.4226 17.825C94.9226 19.0743 93.0133 19.8844 91.2111 20.5891C91.1602 20.609 91.1092 20.629 91.0583 20.649C90.9799 20.6797 90.9015 20.7101 90.8229 20.7404C90.8015 20.7487 90.7801 20.7571 90.7581 20.7656C90.6791 20.7956 90.6173 20.8183 90.532 20.8183C90.6739 21.1298 90.8312 21.3189 91.1571 21.4463C93.0959 22.0852 95.615 20.7301 97.318 19.8838C97.4602 19.8119 97.601 19.7373 97.7414 19.662C97.8217 19.6191 97.9022 19.5766 97.9827 19.5342C98.3592 19.335 98.7293 19.1273 99.0964 18.911C99.2095 18.8448 99.3238 18.7808 99.4384 18.7171C99.5163 18.6737 99.5939 18.63 99.6707 18.5848C100.13 18.3164 100.691 17.994 101.243 18.1086C101.452 18.1746 101.594 18.284 101.7 18.4769C101.867 18.852 101.889 19.2369 101.745 19.6235C101.43 20.3839 100.686 20.8217 100.018 21.2395C99.9199 21.3007 99.8226 21.3626 99.7254 21.4245C99.6534 21.4703 99.5814 21.5161 99.5093 21.5618C99.4231 21.6165 99.337 21.6714 99.251 21.7264C98.7691 22.0339 98.2768 22.3275 97.774 22.5996C97.7256 22.6259 97.6772 22.6522 97.6288 22.6786C96.0676 23.5302 94.3773 24.2598 92.625 24.6033C92.6056 24.6071 92.5862 24.611 92.5661 24.6149C91.2085 24.88 89.6727 24.8636 88.4803 24.0773C88.4359 24.0471 88.3919 24.0163 88.348 23.9852C88.3335 23.9749 88.319 23.9647 88.3041 23.9541C87.7545 23.5586 87.3213 23.0442 86.996 22.4537C86.9872 22.4376 86.9783 22.4216 86.9692 22.4051C86.2674 21.1108 86.1707 19.5977 86.58 18.1966C86.9597 16.9892 87.62 15.9023 88.443 14.946C88.4916 14.8886 88.5372 14.8305 88.582 14.7701C88.2645 14.7689 87.9469 14.768 87.6294 14.7674C87.4819 14.7671 87.3344 14.7668 87.1869 14.7662C87.0445 14.7656 86.902 14.7653 86.7596 14.7652C86.7054 14.7651 86.6512 14.7649 86.5969 14.7646C86.5207 14.7642 86.4445 14.7642 86.3683 14.7642C86.3461 14.764 86.324 14.7638 86.3011 14.7636C86.1103 14.7643 85.8757 14.7774 85.7107 14.8823C85.6539 14.9431 85.6294 15.0067 85.5976 15.0835C85.591 15.0995 85.5843 15.1155 85.5774 15.132C85.4939 15.3347 85.4168 15.5398 85.3401 15.7451C85.3279 15.7779 85.3279 15.7779 85.3153 15.8114C85.0904 16.4121 84.875 17.0163 84.6596 17.6205C84.6313 17.6998 84.603 17.7792 84.5746 17.8585C84.4628 18.1718 84.3512 18.4852 84.2399 18.7987C84.2138 18.8722 84.1876 18.9457 84.1615 19.0192C83.6811 20.3701 83.2075 21.7235 82.7344 23.077C82.6383 23.3518 82.5422 23.6266 82.4461 23.9014C82.4163 23.9866 82.3865 24.0718 82.3567 24.157C82.2321 24.5133 82.1075 24.8696 81.9823 25.2257C81.9468 25.3266 81.9114 25.4275 81.8759 25.5285C81.847 25.6108 81.8181 25.693 81.7892 25.7753C81.6745 26.1015 81.5605 26.4278 81.4503 26.7556C81.4373 26.7941 81.4373 26.7941 81.4241 26.8335C81.4115 26.8711 81.4115 26.8711 81.3986 26.9095C81.2549 27.3367 81.1109 27.7589 80.912 28.1644C80.8975 28.1945 80.8975 28.1945 80.8826 28.2251C80.5316 28.9428 79.988 29.607 79.2242 29.9028C78.7872 30.0487 78.3433 30.0633 77.9172 29.8744C77.6678 29.7399 77.5213 29.5445 77.428 29.2806C77.2392 28.6128 77.6005 27.8654 77.8256 27.248C77.8943 27.0596 77.962 26.8707 78.0297 26.6819C78.0457 26.6371 78.0618 26.5924 78.0779 26.5476C78.2574 26.0469 78.4309 25.5442 78.6044 25.0414C78.6147 25.0114 78.625 24.9815 78.6357 24.9506C78.6459 24.9209 78.6562 24.8913 78.6667 24.8607C78.7547 24.6059 78.8435 24.3514 78.9328 24.0971C78.9397 24.0775 78.9466 24.0578 78.9537 24.0375C78.9829 23.9545 79.012 23.8715 79.0412 23.7885C79.1072 23.6008 79.173 23.413 79.2388 23.2252C79.2573 23.1724 79.2758 23.1196 79.2943 23.0668C79.3004 23.0493 79.3065 23.0318 79.3129 23.0138C79.319 22.9963 79.3251 22.9787 79.3315 22.9607C79.3682 22.8558 79.405 22.7509 79.4417 22.6459C79.476 22.548 79.5104 22.45 79.5447 22.3521C79.5548 22.3232 79.5649 22.2943 79.5753 22.2645C79.6474 22.059 79.7205 21.8539 79.794 21.649C79.7854 21.6404 79.7769 21.6318 79.768 21.623C79.7565 21.6325 79.7451 21.642 79.7332 21.6518C79.5369 21.8143 79.3406 21.9764 79.1392 22.1324C79.0179 22.2264 78.9006 22.3238 78.7849 22.4245C78.5827 22.5998 78.3705 22.7609 78.156 22.9209C78.1391 22.9336 78.1221 22.9463 78.1047 22.9594C76.8948 23.8642 75.4462 24.6767 73.8953 24.6682C73.868 24.6681 73.868 24.6681 73.8403 24.6681C73.0279 24.6645 72.2151 24.4126 71.63 23.8294C71.6103 23.8101 71.5906 23.7907 71.5703 23.7707C71.1805 23.3647 70.9946 22.8376 70.876 22.2979C70.8517 22.3181 70.8274 22.3382 70.8024 22.359C69.517 23.4174 67.9763 24.4424 66.3 24.712C66.2675 24.7178 66.2349 24.7235 66.2014 24.7294C65.4625 24.8426 64.595 24.8018 63.9691 24.3508C63.9036 24.2999 63.8405 24.2474 63.778 24.1928C63.762 24.1791 63.746 24.1653 63.7296 24.1511C63.225 23.6832 63.0175 22.9628 62.972 22.2979C62.9708 22.2286 62.9712 22.1596 62.972 22.0902C62.7861 22.2402 62.7861 22.2402 62.6043 22.3951C61.3098 23.5292 59.6312 24.5411 57.8514 24.4453C57.4502 24.4167 57.0903 24.323 56.732 24.1409C56.7042 24.127 56.6765 24.1132 56.6478 24.0988C56.0286 23.7645 55.627 23.1399 55.4241 22.4827C55.371 22.3024 55.3348 22.1194 55.302 21.9345C55.2828 21.9606 55.2636 21.9866 55.2438 22.0135C54.8547 22.5388 54.4242 23.0457 53.898 23.4401C53.8679 23.4637 53.8377 23.4874 53.8076 23.511C53.531 23.7262 53.238 23.9115 52.936 24.089C52.9188 24.0992 52.9015 24.1093 52.8838 24.1198C52.2321 24.4988 51.496 24.7345 50.752 24.8418C50.7247 24.8458 50.7247 24.8458 50.6967 24.8499C49.8499 24.9594 48.9154 24.8502 48.2056 24.3486C48.1614 24.3145 48.1175 24.2799 48.074 24.2448C48.0541 24.2291 48.0342 24.2135 48.0137 24.1974C47.3555 23.6513 47.112 22.7528 47.0275 21.9361C46.9888 21.5138 47.0036 21.0861 47.008 20.6626C46.9898 20.6711 46.9715 20.6797 46.9527 20.6885C46.2148 21.0296 45.4279 21.0711 44.659 20.8048C44.5265 20.7512 44.4029 20.6852 44.2786 20.6148C44.2022 20.5769 44.2022 20.5769 44.1285 20.6023C43.9065 20.7324 43.7646 20.9868 43.6345 21.2012C43.5114 21.4028 43.3698 21.5775 43.212 21.7528C43.1928 21.7745 43.1736 21.7962 43.1538 21.8186C43.0958 21.8837 43.037 21.9481 42.978 22.0124C42.9649 22.0267 42.9519 22.0411 42.9384 22.0559C42.6383 22.3853 42.6383 22.3853 42.484 22.5137C42.4203 22.5674 42.3598 22.6241 42.2988 22.6808C42.1335 22.8308 41.9601 22.9681 41.782 23.1026C41.765 23.1156 41.7481 23.1285 41.7306 23.1418C41.3918 23.3988 41.0329 23.6183 40.664 23.8294C40.6426 23.8418 40.6211 23.8541 40.599 23.8668C39.4675 24.51 38.1363 24.8732 36.8355 24.8742C36.8162 24.8743 36.7969 24.8743 36.777 24.8743C35.5446 24.8725 34.4103 24.5153 33.5298 23.6376C32.8294 22.8979 32.6411 21.954 32.578 20.9741C32.5574 20.9797 32.5368 20.9853 32.5156 20.9911C31.7635 21.1703 31.041 21.0149 30.368 20.6626C30.2137 20.8175 30.0884 20.983 29.9667 21.1639C29.6574 21.6228 29.3095 22.0406 28.9163 22.4302C28.8711 22.475 28.8263 22.5201 28.7815 22.5651C28.6077 22.7389 28.4293 22.8986 28.236 23.0507C28.2046 23.0767 28.1732 23.1027 28.142 23.1289C27.7285 23.47 27.2741 23.7515 26.806 24.0111C26.7884 24.0211 26.7707 24.0311 26.7525 24.0414C25.8421 24.5554 24.8019 24.8776 23.764 24.9975C23.7432 25 23.7225 25.0024 23.7011 25.005C23.4824 25.0279 23.2637 25.0298 23.0441 25.03C23.0142 25.03 23.0142 25.03 22.9835 25.03C21.7518 25.0283 20.6317 24.6711 19.7496 23.7932C18.9993 22.9994 18.7994 21.9192 18.8205 20.8652C18.8705 19.4685 19.3695 18.001 20.0186 16.7694C20.0497 16.7099 20.0801 16.65 20.1104 16.59C20.6715 15.49 21.4668 14.3716 22.4482 13.6034C22.5204 13.5466 22.5895 13.4868 22.659 13.4268C23.7879 12.4868 25.2916 11.8575 26.754 11.733C26.7867 11.7302 26.8194 11.7273 26.853 11.7244C28.1954 11.6248 29.6197 11.859 30.6708 12.7519C30.7357 12.8092 30.799 12.8677 30.862 12.9271C30.8812 12.9446 30.9004 12.962 30.9201 12.98C31.3686 13.4039 31.6423 13.9645 31.772 14.5624C31.7781 14.5895 31.7841 14.6166 31.7903 14.6446C31.9575 15.5483 31.7988 16.5234 31.5336 17.3932C31.4935 17.5275 31.4723 17.6408 31.486 17.7812C31.5465 17.8742 31.6433 17.894 31.7461 17.922C32.3069 18.03 32.8213 17.7309 33.28 17.4438C33.316 17.4187 33.3518 17.3934 33.3873 17.3675C33.462 17.314 33.462 17.314 33.514 17.314C33.5185 17.2997 33.5229 17.2855 33.5275 17.2708C33.5737 17.1269 33.6289 16.991 33.6944 16.8549C33.7096 16.8232 33.7096 16.8232 33.7251 16.7909C34.0501 16.1221 34.4371 15.4885 34.892 14.8999C34.9112 14.875 34.9303 14.8502 34.95 14.8246C34.9991 14.7623 35.0491 14.7011 35.1 14.6403C35.1108 14.6274 35.1215 14.6145 35.1326 14.6012C35.4205 14.2569 35.7201 13.9198 36.062 13.628C36.0888 13.6042 36.1156 13.5804 36.1424 13.5566C37.1871 12.634 38.4956 11.9819 39.8629 11.7136C39.9022 11.7058 39.9022 11.7058 39.9423 11.6979C40.3611 11.6199 40.7749 11.5934 41.2003 11.5951C41.2361 11.5952 41.2361 11.5952 41.2726 11.5953C41.6461 11.5965 42.0123 11.61 42.38 11.6811C42.4031 11.6856 42.4262 11.69 42.45 11.6946C43.3146 11.8685 44.0863 12.2319 44.72 12.8492C44.7386 12.8661 44.7571 12.883 44.7762 12.9004C45.2673 13.3596 45.5268 14.015 45.63 14.6663C45.6348 14.6959 45.6396 14.7255 45.6445 14.756C45.7478 15.6207 45.5883 16.5238 45.3303 17.347C45.2928 17.4714 45.2817 17.5747 45.292 17.7034C45.4619 17.8605 45.6708 17.8731 45.8922 17.8684C46.4029 17.8217 46.887 17.532 47.294 17.2361C47.3326 17.2082 47.3326 17.2082 47.372 17.1796C47.6382 16.9834 47.8899 16.774 48.1322 16.5493C48.1888 16.4973 48.2461 16.447 48.3048 16.3973C48.551 16.1823 48.7729 15.9598 48.9526 15.6861C49.0579 15.5296 49.1778 15.3842 49.296 15.2373C49.3258 15.2 49.3258 15.2 49.3561 15.1619C49.4806 15.0075 49.6114 14.8606 49.7465 14.7154C49.808 14.649 49.8682 14.5816 49.9281 14.5138C50.1269 14.2929 50.3371 14.0762 50.5643 13.8844C50.612 13.8441 50.659 13.8031 50.7057 13.7617C52.2056 12.4381 54.3262 11.1714 56.3962 11.295C56.9615 11.3346 57.4583 11.506 57.9469 11.7878C57.992 11.8138 58.0374 11.8395 58.084 11.8628C58.6372 10.5625 59.1083 9.22929 59.5505 7.88775C59.615 7.69235 59.6803 7.49723 59.7456 7.30212C59.9514 6.68737 60.1572 6.07264 60.3574 5.45606C60.5963 4.72112 60.8385 3.98755 61.0955 3.25868C61.1144 3.20488 61.1334 3.15107 61.1522 3.09724C61.3418 2.55714 61.5367 2.08069 61.906 1.63537C61.9259 1.60913 61.9457 1.5829 61.9661 1.55587C62.6683 0.789592 63.9812 0.457713 64.8568 1.13436ZM53.2796 15.8595C53.2283 15.9065 53.176 15.9517 53.1229 15.9966C52.872 16.2157 52.6485 16.456 52.442 16.7169C52.4041 16.7618 52.3662 16.8067 52.3283 16.8516C51.4594 17.914 50.9377 19.2667 50.9275 20.6398C50.9273 20.6645 50.927 20.6891 50.9268 20.7144C50.9278 20.9294 50.9376 21.1388 51.0931 21.2999C51.2521 21.4218 51.4389 21.4272 51.631 21.4042C52.631 21.2258 53.5703 20.5506 54.21 19.78C54.233 19.7537 54.2561 19.7274 54.2792 19.7012C54.8917 19.0037 55.3912 18.2116 55.822 17.3919C55.8343 17.3687 55.8466 17.3454 55.8592 17.3215C56.3252 16.4354 56.6822 15.4943 57.044 14.5624C57.054 14.5367 57.0641 14.5109 57.0744 14.4843C57.1039 14.4082 57.1333 14.332 57.1626 14.2558C57.1717 14.2325 57.1807 14.2093 57.19 14.1853C57.1982 14.164 57.2063 14.1426 57.2147 14.1206C57.222 14.1019 57.2292 14.0831 57.2366 14.0638C57.2547 14.0173 57.2547 14.0173 57.252 13.9654C55.8702 13.9308 54.2536 14.9643 53.2796 15.8595ZM92.326 15.1854C92.3116 15.199 92.2971 15.2126 92.2822 15.2266C91.4824 15.9826 90.9351 16.9945 90.5109 17.9986C90.4938 18.0389 90.4938 18.0389 90.4763 18.08C90.4661 18.1048 90.4559 18.1295 90.4454 18.155C90.4363 18.1768 90.4273 18.1987 90.418 18.2212C90.3951 18.2754 90.3951 18.2754 90.428 18.3263C90.844 18.0971 91.2492 17.8542 91.65 17.5995C91.7022 17.5666 91.7543 17.5337 91.8064 17.5008C92.1384 17.2905 92.4664 17.0746 92.7931 16.8563C92.9931 16.7227 93.1936 16.5901 93.3953 16.459C93.4192 16.4434 93.4432 16.4278 93.4679 16.4118C93.5849 16.3358 93.7021 16.2602 93.8195 16.1849C94.6788 15.6446 94.6788 15.6446 95.186 14.7961C95.2061 14.6582 95.1956 14.5396 95.1186 14.4215C95.0121 14.3028 94.8713 14.2332 94.7131 14.2204C93.7752 14.1963 93.0029 14.5423 92.326 15.1854ZM38.922 15.445C38.8983 15.4576 38.8983 15.4576 38.8741 15.4704C38.5323 15.6516 38.2414 15.8815 37.96 16.1459C37.9434 16.1608 37.9268 16.1757 37.9096 16.1911C37.0383 17.0067 36.5712 18.2762 36.4991 19.4437C36.4857 19.999 36.6154 20.6426 36.972 21.0779C36.9869 21.0963 37.0018 21.1147 37.0171 21.1337C37.2233 21.3632 37.525 21.494 37.83 21.5192C37.8498 21.521 37.8696 21.5228 37.8899 21.5246C38.6484 21.5578 39.4614 21.1255 40.014 20.6366C40.0394 20.6144 40.0648 20.5922 40.0909 20.5694C41.0277 19.7389 41.6828 18.5173 41.782 17.2621C41.8121 16.5851 41.7829 15.8566 41.3124 15.3217C41.0359 15.0631 40.6701 14.9878 40.3045 14.9973C39.8156 15.02 39.3467 15.215 38.922 15.445ZM24.492 15.9901C24.4763 16.0028 24.4605 16.0156 24.4442 16.0287C23.4958 16.7984 22.8665 18.0245 22.7349 19.2344C22.6738 19.8969 22.7526 20.6516 23.1658 21.1983C23.3746 21.4461 23.6348 21.619 23.9614 21.6568C24.0307 21.6603 24.0993 21.6611 24.1686 21.6603C24.1936 21.6601 24.2185 21.6598 24.2443 21.6596C24.9676 21.6418 25.6763 21.2656 26.208 20.7924C26.2416 20.7631 26.2416 20.7631 26.2758 20.7332C26.3407 20.6759 26.4045 20.6176 26.468 20.5587C26.494 20.5349 26.494 20.5349 26.5204 20.5107C26.6867 20.3521 26.8238 20.1705 26.962 19.9877C26.9732 19.973 26.9844 19.9583 26.996 19.9432C27.7162 18.9957 28.1137 17.732 27.9547 16.5424C27.8806 16.0712 27.7437 15.641 27.3591 15.3309C26.5073 14.732 25.1713 15.4356 24.492 15.9901Z" fill="#9CA3AF"/>
<path d="M16.1857 -0.00817823C16.2656 -0.0080965 16.3455 -0.0087067 16.4254 -0.00936332C16.8879 -0.0108433 17.3456 0.033122 17.797 0.136295C17.8334 0.144464 17.8334 0.144464 17.8705 0.152798C18.3463 0.263025 18.7974 0.417178 19.24 0.623007C19.2588 0.631741 19.2776 0.640474 19.297 0.649472C19.8982 0.932472 20.4636 1.29296 20.956 1.7392C20.9835 1.76381 21.0111 1.78842 21.0386 1.81302C21.3005 2.04862 21.5448 2.29195 21.762 2.56986C21.7816 2.59475 21.8012 2.61965 21.8213 2.6453C22.3702 3.35836 22.7489 4.20978 22.6384 5.12492C22.5693 5.56078 22.3582 5.93505 21.9993 6.1991C21.6059 6.4563 21.1578 6.55788 20.6937 6.46146C20.3491 6.37999 20.074 6.20545 19.812 5.97035C19.7948 5.95533 19.7776 5.9403 19.7599 5.92482C19.4211 5.60917 19.1717 5.18814 18.9199 4.80386C18.6672 4.41483 18.6672 4.41483 18.382 4.04946C18.3507 4.01242 18.3507 4.01242 18.3187 3.97463C17.8383 3.43797 17.2207 3.1323 16.499 3.08487C14.9313 3.01062 13.5535 3.97919 12.402 4.93203C12.387 4.94445 12.3719 4.95686 12.3564 4.96965C12.156 5.13543 11.9626 5.30775 11.7727 5.48545C11.7214 5.53338 11.67 5.58116 11.6187 5.62894C11.5819 5.66324 11.5451 5.69755 11.5083 5.73186C11.4913 5.7477 11.4743 5.76353 11.4567 5.77985C11.2386 5.98385 11.2386 5.98385 11.037 6.20397C10.9786 6.27163 10.9188 6.33608 10.855 6.39866C10.7761 6.47624 10.7031 6.55744 10.6308 6.6412C10.5775 6.70236 10.523 6.7622 10.4683 6.8221C10.3689 6.93215 10.2741 7.04506 10.1807 7.16026C10.1311 7.22159 10.0808 7.28237 10.0302 7.34298C9.83205 7.5809 9.6407 7.82293 9.45385 8.06982C9.41204 8.12484 9.36989 8.17959 9.32762 8.23427C8.88292 8.80986 8.45823 9.4034 8.06845 10.0175C8.03277 10.0737 7.99685 10.1297 7.9609 10.1857C6.65255 12.2308 5.57979 14.441 4.49802 18.7417C4.49574 18.7615 4.49346 18.7813 4.49111 18.8017C4.38393 19.7841 4.39245 20.9303 5.0099 21.7577C5.12444 21.8952 5.25751 21.9946 5.40802 22.0903C5.43361 22.1067 5.43361 22.1067 5.45972 22.1234C5.90436 22.3753 6.47068 22.2841 6.94101 22.1615C8.01026 21.866 8.9291 21.1921 9.79564 20.5256C9.87038 20.4683 9.9458 20.4121 10.0214 20.3559C10.2837 20.1599 10.5388 19.9566 10.7878 19.7441C10.8617 19.6812 10.937 19.6202 11.0126 19.5593C11.1446 19.4522 11.2695 19.3386 11.3941 19.2232C11.4515 19.1704 11.5093 19.1187 11.5684 19.0678C11.8054 18.8619 12.0326 18.6469 12.2523 18.4229C12.313 18.3614 12.3716 18.3038 12.4402 18.2509C12.5159 18.1884 12.5754 18.1188 12.6391 18.0445C12.7366 17.9338 12.8437 17.8325 12.949 17.7293C13.0519 17.6278 13.1497 17.5237 13.2441 17.4142C13.3031 17.3463 13.3644 17.2808 13.4258 17.215C13.5394 17.0923 13.6465 16.9656 13.7514 16.8354C13.8009 16.7751 13.8522 16.7176 13.9051 16.6602C14.4194 16.0873 14.7277 15.4217 15.0055 14.7121C15.0382 14.6287 15.0711 14.5454 15.104 14.4621C15.1704 14.2939 15.2365 14.1255 15.3026 13.9571C15.3379 13.8669 15.3733 13.7768 15.4088 13.6866C15.6419 13.0935 15.6419 13.0935 15.8731 12.4996C16.5225 10.8215 16.5225 10.8215 17.329 10.4416C17.822 10.2303 18.4164 10.1995 18.9207 10.3947C19.2715 10.5493 19.4666 10.7877 19.6097 11.1341C19.8033 11.6464 19.7333 12.2719 19.63 12.7973C19.6246 12.8251 19.6191 12.853 19.6135 12.8816C19.5004 13.44 19.3274 13.9747 19.136 14.5105C19.127 14.5358 19.127 14.5358 19.1178 14.5616C18.8552 15.2951 18.5393 16.0065 18.2098 16.7121C17.5029 18.2269 16.9249 19.7955 16.3795 21.3747C16.3712 21.3987 16.3629 21.4227 16.3544 21.4474C16.2593 21.7231 16.1651 21.9992 16.0712 22.2753C16.0618 22.3029 16.0524 22.3305 16.0427 22.359C15.8404 22.9531 15.6393 23.5477 15.4387 24.1424C15.4008 24.2547 15.3629 24.3669 15.325 24.4792C15.0556 25.2764 14.7882 26.0741 14.5385 26.8778C14.1853 28.0145 13.7365 29.3912 12.6502 30.0379C12.251 30.2433 11.844 30.296 11.414 30.1632C11.1101 30.0363 10.9175 29.8194 10.7851 29.523C10.6755 29.2435 10.6504 28.9588 10.6519 28.6609C10.652 28.6304 10.6522 28.5998 10.6523 28.5684C10.6676 27.4542 11.1064 26.4008 11.4889 25.3707C11.6355 24.9752 11.7769 24.578 11.9161 24.1799C12.0941 23.6714 12.2769 23.165 12.4638 22.6597C12.4754 22.6281 12.4871 22.5965 12.4991 22.564C12.7282 21.9446 12.7282 21.9446 12.844 21.649C12.8354 21.6404 12.8269 21.6318 12.818 21.623C12.6661 21.744 12.5182 21.8672 12.376 21.9994C12.2576 22.1093 12.1355 22.213 12.0095 22.3142C11.9239 22.3841 11.8404 22.456 11.7569 22.5283C11.5918 22.6705 11.4223 22.8061 11.2497 22.9391C11.2082 22.9712 11.1668 23.0034 11.1254 23.0356C11.0555 23.0897 10.9854 23.1434 10.915 23.1968C10.8829 23.2211 10.8509 23.2455 10.819 23.2699C8.99145 24.6624 6.60438 26.0324 4.21725 25.755C3.61247 25.673 3.0591 25.4917 2.52202 25.2052C2.49534 25.1911 2.46867 25.177 2.44118 25.1625C1.32475 24.5435 0.558562 23.429 0.204176 22.2231C0.026837 21.5753 -0.0101097 20.9334 -0.00810282 20.2651C-0.00804678 20.2316 -0.00799075 20.1981 -0.00793302 20.1636C-0.00662122 19.6757 0.00513896 19.1989 0.0780222 18.7157C0.0832663 18.6791 0.0884826 18.6425 0.0936755 18.6058C0.397647 16.4792 1.15538 14.4658 3.2052 10.2794C3.25267 10.1969 3.29985 10.1142 3.34701 10.0315C3.52735 9.71609 3.71219 9.40488 3.90935 9.09972C3.95755 9.0248 4.00523 8.94956 4.05287 8.8743C4.24243 8.57553 4.43578 8.28124 4.64316 7.99451C4.68055 7.94242 4.71734 7.88994 4.75396 7.8373C4.94862 7.5579 5.15345 7.28696 5.36139 7.0173C5.40123 6.96557 5.4409 6.91371 5.48044 6.86174C5.70874 6.56264 5.94679 6.27132 6.19129 5.98529C6.26332 5.90094 6.3333 5.81526 6.40252 5.72862C6.51936 5.58502 6.64559 5.45101 6.77325 5.31706C6.85458 5.23165 6.93434 5.14547 7.01169 5.05645C7.09342 4.9624 7.17997 4.87513 7.26946 4.78845C7.32073 4.73594 7.36871 4.68262 7.41662 4.62713C7.51739 4.51124 7.62445 4.40262 7.7334 4.29444C7.75191 4.27585 7.77043 4.25726 7.78951 4.23811C7.89595 4.13204 8.00513 4.03098 8.11904 3.93296C8.17116 3.88748 8.21995 3.83959 8.26802 3.78988C8.35047 3.70644 8.43587 3.62849 8.52487 3.5521C8.58587 3.49928 8.64547 3.44508 8.70515 3.39078C8.81535 3.29159 8.92839 3.19694 9.04376 3.10382C9.10556 3.05392 9.16676 3.00336 9.22779 2.95253C10.3817 1.99289 11.6779 1.17173 13.078 0.623007C13.1014 0.61378 13.1248 0.604553 13.1488 0.595047C13.6923 0.382572 14.2541 0.231225 14.8265 0.120072C14.8583 0.113877 14.8901 0.107683 14.9229 0.1013C15.3462 0.022486 15.7555 -0.00909351 16.1857 -0.00817823Z" fill="#9CA3AF"/>
<path d="M76.83 34.9394C80.2195 34.9394 80.2195 34.9394 80.7503 35.447C81.1328 35.8678 81.1711 36.3976 81.1512 36.9397C81.1258 37.3137 80.9589 37.6855 80.6831 37.9424C80.5398 38.0566 80.3752 38.1326 80.21 38.2102C80.2314 38.2177 80.2528 38.2253 80.2748 38.2331C80.7065 38.3913 81.0127 38.6024 81.2175 39.023C81.3306 39.2919 81.3681 39.5603 81.3654 39.8504C81.3652 39.8809 81.3649 39.9114 81.3647 39.9428C81.3547 40.4472 81.2288 40.9279 80.8652 41.2965C80.8463 41.3145 80.8275 41.3325 80.808 41.3511C80.7921 41.3675 80.7762 41.3839 80.7598 41.4007C79.8617 42.2687 77.4934 41.8702 76.83 41.8702C76.83 39.5831 76.83 37.2959 76.83 34.9394ZM78.26 36.0037C78.26 36.5862 78.26 37.1687 78.26 37.7689C78.9423 37.8059 78.9423 37.8059 79.5266 37.5197C79.7103 37.3229 79.75 37.0812 79.746 36.8186C79.7304 36.575 79.6704 36.3614 79.4902 36.1903C79.1538 35.9152 78.6511 36.0037 78.26 36.0037ZM78.26 38.7812C78.26 39.4494 78.26 40.1175 78.26 40.8059C78.9998 40.8569 78.9998 40.8569 79.638 40.5464C79.8442 40.3283 79.8973 40.0612 79.898 39.7676C79.8843 39.4871 79.8339 39.2238 79.6387 39.0108C79.2457 38.6746 78.7474 38.7812 78.26 38.7812Z" fill="#9CA3AF"/>
<path d="M15.99 34.9394C16.4619 34.9394 16.9338 34.9394 17.42 34.9394C17.42 35.8132 17.42 36.6869 17.42 37.5872C17.9434 37.5872 18.4668 37.5872 19.006 37.5872C19.006 36.7134 19.006 35.8397 19.006 34.9394C19.4779 34.9394 19.9498 34.9394 20.436 34.9394C20.436 37.2266 20.436 39.5138 20.436 41.8702C19.9641 41.8702 19.4922 41.8702 19.006 41.8702C19.006 40.8594 19.006 39.8486 19.006 38.8072C18.4826 38.8072 17.9593 38.8072 17.42 38.8072C17.42 39.818 17.42 40.8288 17.42 41.8702C16.9481 41.8702 16.4762 41.8702 15.99 41.8702C15.99 39.5831 15.99 37.2959 15.99 34.9394Z" fill="#9CA3AF"/>
<path d="M47.034 34.9394C47.4973 34.9394 47.9607 34.9394 48.438 34.9394C48.438 35.8132 48.438 36.6869 48.438 37.5872C48.97 37.5872 49.5019 37.5872 50.05 37.5872C50.05 36.7134 50.05 35.8397 50.05 34.9394C50.5133 34.9394 50.9767 34.9394 51.454 34.9394C51.454 37.2266 51.454 39.5138 51.454 41.8702C50.9907 41.8702 50.5274 41.8702 50.05 41.8702C50.05 40.8594 50.05 39.8486 50.05 38.8072C49.5181 38.8072 48.9861 38.8072 48.438 38.8072C48.438 39.818 48.438 40.8288 48.438 41.8702C47.9747 41.8702 47.5114 41.8702 47.034 41.8702C47.034 39.5831 47.034 37.2959 47.034 34.9394Z" fill="#9CA3AF"/>
<path d="M70.096 34.9394C70.5679 34.9394 71.0398 34.9394 71.526 34.9394C71.5263 35.0955 71.5265 35.2515 71.5268 35.4122C71.5276 35.9282 71.5291 36.4442 71.5308 36.9601C71.5318 37.2729 71.5327 37.5857 71.5331 37.8984C71.5334 38.1712 71.5341 38.4439 71.5352 38.7167C71.5358 38.861 71.5362 39.0053 71.5362 39.1496C71.5362 39.2856 71.5367 39.4217 71.5375 39.5578C71.5377 39.6075 71.5378 39.6572 71.5376 39.7069C71.5355 40.2452 71.5355 40.2452 71.7728 40.7148C71.9319 40.8741 72.0776 40.9218 72.2992 40.9362C72.519 40.9349 72.7045 40.8832 72.8621 40.7262C73.1212 40.4169 73.0976 39.9701 73.0973 39.5896C73.0975 39.5387 73.0978 39.4877 73.0981 39.4368C73.0988 39.2996 73.099 39.1624 73.0992 39.0251C73.0994 38.8813 73.1001 38.7375 73.1007 38.5937C73.1019 38.3219 73.1026 38.0501 73.1032 37.7782C73.1039 37.4685 73.1051 37.1589 73.1062 36.8492C73.1087 36.2126 73.1105 35.576 73.112 34.9394C73.5839 34.9394 74.0558 34.9394 74.542 34.9394C74.5432 35.5769 74.5442 36.2144 74.5447 36.8519C74.545 37.1479 74.5453 37.4439 74.5459 37.74C74.5465 37.9982 74.5468 38.2565 74.5469 38.5147C74.547 38.6513 74.5471 38.7878 74.5475 38.9243C74.5479 39.0533 74.548 39.1822 74.5479 39.3112C74.5479 39.3581 74.548 39.405 74.5482 39.4519C74.5511 40.1485 74.5113 40.8997 74.0013 41.43C73.5119 41.9132 72.8719 42.0064 72.2139 42.0065C71.6414 42.0014 71.0524 41.8801 70.6251 41.4714C70.2284 41.0266 70.0906 40.4401 70.0929 39.8559C70.0929 39.8241 70.0929 39.8241 70.0928 39.7917C70.0928 39.7214 70.0929 39.6511 70.0931 39.5808C70.0931 39.5301 70.0931 39.4795 70.0931 39.4288C70.093 39.2917 70.0932 39.1547 70.0934 39.0176C70.0935 38.8742 70.0936 38.7307 70.0936 38.5873C70.0937 38.3159 70.0939 38.0446 70.0941 37.7732C70.0944 37.4641 70.0946 37.1551 70.0947 36.846C70.095 36.2105 70.0955 35.575 70.096 34.9394Z" fill="#9CA3AF"/>
<path d="M87.2252 35.2732C87.5568 35.5689 87.7287 35.9552 87.776 36.3931C87.776 36.5559 87.776 36.7186 87.776 36.8863C87.3299 36.8863 86.8837 36.8863 86.424 36.8863C86.3983 36.7235 86.3725 36.5608 86.346 36.3931C86.2788 36.2029 86.197 36.0424 86.0129 35.9421C85.7958 35.8553 85.4909 35.8641 85.2755 35.9526C85.0884 36.0518 85.0098 36.1833 84.9483 36.3775C84.8927 36.6115 84.9003 36.9207 85.0233 37.1345C85.058 37.1814 85.058 37.1814 85.098 37.2237C85.1113 37.2387 85.1245 37.2537 85.1381 37.2691C85.4297 37.5576 85.9008 37.6915 86.2693 37.8479C87.0173 38.1653 87.0173 38.1653 87.308 38.3659C87.3312 38.3818 87.3543 38.3977 87.3781 38.4141C87.7417 38.6833 87.9295 39.0667 88.0003 39.5048C88.0567 40.1136 87.988 40.7417 87.62 41.2472C87.6084 41.2637 87.5967 41.2801 87.5847 41.297C87.247 41.7303 86.6764 41.9079 86.1539 41.983C85.4078 42.0676 84.5979 42.0212 83.9729 41.5678C83.5682 41.2388 83.4371 40.7302 83.382 40.2349C83.382 40.055 83.382 39.8751 83.382 39.6898C83.8539 39.6898 84.3258 39.6898 84.812 39.6898C84.8206 39.8611 84.8292 40.0324 84.838 40.2089C84.8787 40.4375 84.9317 40.6537 85.1299 40.7954C85.3954 40.9402 85.7032 40.9755 85.9944 40.8911C86.1865 40.8147 86.3475 40.6939 86.4354 40.5042C86.5434 40.2363 86.5325 39.9297 86.424 39.6638C86.185 39.2293 85.6317 39.0796 85.1939 38.9289C84.6134 38.7267 84.0529 38.4626 83.72 37.9246C83.7076 37.9051 83.6951 37.8855 83.6822 37.8654C83.4099 37.3871 83.4211 36.7179 83.5386 36.196C83.6794 35.7058 83.9554 35.3184 84.4017 35.0678C85.2012 34.6445 86.5158 34.6733 87.2252 35.2732Z" fill="#9CA3AF"/>
<path d="M30.264 34.9394C30.8389 34.9394 31.4137 34.9394 32.006 34.9394C32.1012 35.2722 32.1952 35.6042 32.2823 35.939C32.2933 35.9812 32.3043 36.0234 32.3153 36.0655C32.3388 36.1551 32.3622 36.2447 32.3855 36.3343C32.4489 36.5773 32.5126 36.8203 32.5762 37.0633C32.5827 37.0883 32.5893 37.1133 32.596 37.139C32.7314 37.6559 32.8682 38.1723 33.0056 38.6887C33.035 38.7994 33.0644 38.91 33.0938 39.0207C33.0996 39.0426 33.1054 39.0645 33.1114 39.087C33.129 39.1533 33.1466 39.2195 33.1642 39.2858C33.17 39.3075 33.1758 39.3293 33.1818 39.3517C33.3043 39.8131 33.4269 40.2744 33.5489 40.7359C33.5781 40.8462 33.6073 40.9565 33.6365 41.0667C33.6636 41.1686 33.6906 41.2705 33.7175 41.3724C33.7273 41.4097 33.7372 41.447 33.7471 41.4843C33.7606 41.5351 33.774 41.5858 33.7874 41.6366C33.7949 41.665 33.8024 41.6934 33.8101 41.7226C33.826 41.7924 33.826 41.7924 33.826 41.8702C33.337 41.8702 32.8479 41.8702 32.344 41.8702C32.2411 41.3991 32.1381 40.9279 32.032 40.4425C31.1311 40.4297 31.1311 40.4297 30.212 40.4166C30.2034 40.4937 30.1949 40.5708 30.186 40.6502C30.1781 40.6956 30.1694 40.7409 30.1596 40.7859C30.1545 40.8097 30.1494 40.8335 30.1441 40.8581C30.1386 40.8829 30.1332 40.9077 30.1275 40.9333C30.1219 40.9594 30.1162 40.9855 30.1103 41.0124C30.0984 41.0672 30.0864 41.1219 30.0744 41.1766C30.0559 41.2607 30.0377 41.3448 30.0195 41.4289C30.0078 41.4822 29.9962 41.5355 29.9845 41.5887C29.9791 41.614 29.9736 41.6392 29.9679 41.6653C29.9628 41.6884 29.9577 41.7116 29.9524 41.7354C29.9479 41.7559 29.9435 41.7763 29.9388 41.7974C29.926 41.8443 29.926 41.8443 29.9 41.8702C29.8545 41.8727 29.809 41.8733 29.7634 41.8732C29.7343 41.8732 29.7051 41.8732 29.6751 41.8732C29.6275 41.873 29.6275 41.873 29.579 41.8728C29.5467 41.8727 29.5144 41.8727 29.4812 41.8726C29.3952 41.8725 29.3092 41.8723 29.2233 41.872C29.1356 41.8717 29.048 41.8716 28.9603 41.8715C28.7882 41.8712 28.6161 41.8708 28.444 41.8702C28.459 41.7334 28.4816 41.6048 28.5168 41.4714C28.5215 41.4533 28.5263 41.4353 28.5311 41.4167C28.5468 41.3569 28.5626 41.2971 28.5785 41.2374C28.5898 41.1945 28.6011 41.1516 28.6123 41.1086C28.6428 40.9925 28.6735 40.8765 28.7042 40.7604C28.7302 40.6622 28.7561 40.564 28.7819 40.4658C28.9792 39.717 29.1781 38.9686 29.3779 38.2204C29.4984 37.769 29.6183 37.3175 29.7372 36.8657C29.759 36.7829 29.7808 36.7001 29.8026 36.6174C29.8662 36.376 29.9298 36.1345 29.9932 35.893C30.0192 35.7941 30.0452 35.6953 30.0713 35.5964C30.0834 35.5503 30.0955 35.5042 30.1076 35.458C30.1241 35.3948 30.1408 35.3315 30.1575 35.2683C30.1647 35.2407 30.1647 35.2407 30.172 35.2125C30.1972 35.1174 30.2272 35.0313 30.264 34.9394ZM31.122 36.1854C31.041 36.558 30.9601 36.9305 30.8793 37.3031C30.8418 37.476 30.8042 37.649 30.7666 37.822C30.7303 37.989 30.694 38.1559 30.6579 38.3229C30.644 38.3866 30.6302 38.4503 30.6163 38.5139C30.5969 38.6032 30.5776 38.6924 30.5583 38.7816C30.5525 38.8079 30.5468 38.8342 30.5409 38.8613C30.5356 38.8858 30.5303 38.9103 30.5248 38.9355C30.518 38.9671 30.518 38.9671 30.511 38.9994C30.4951 39.0819 30.4839 39.1653 30.472 39.2485C30.9096 39.2485 31.3472 39.2485 31.798 39.2485C31.6321 38.4603 31.4658 37.6723 31.2975 36.8847C31.2919 36.8582 31.2919 36.8582 31.2861 36.8311C31.2401 36.6159 31.1941 36.4007 31.148 36.1854C31.1394 36.1854 31.1309 36.1854 31.122 36.1854Z" fill="#9CA3AF"/>
<path d="M22.828 34.9394C24.1064 34.9394 25.3849 34.9394 26.702 34.9394C26.702 35.3249 26.702 35.7104 26.702 36.1076C25.8869 36.1076 25.0718 36.1076 24.232 36.1076C24.232 36.6387 24.232 37.1698 24.232 37.7169C24.9956 37.7169 25.7593 37.7169 26.546 37.7169C26.546 38.1024 26.546 38.4879 26.546 38.8851C25.7824 38.8851 25.0188 38.8851 24.232 38.8851C24.232 39.4847 24.232 40.0843 24.232 40.7021C25.0814 40.7021 25.9309 40.7021 26.806 40.7021C26.806 41.0876 26.806 41.4731 26.806 41.8702C25.4933 41.8702 24.1805 41.8702 22.828 41.8702C22.828 39.5831 22.828 37.2959 22.828 34.9394Z" fill="#9CA3AF"/>
<path d="M61.3389 35.2574C61.7784 35.6761 61.9184 36.1665 61.984 36.7565C61.984 36.9364 61.984 37.1163 61.984 37.3016C61.5207 37.3016 61.0574 37.3016 60.58 37.3016C60.5475 36.9593 60.5475 36.9593 60.5381 36.8536C60.5084 36.5615 60.4632 36.2427 60.242 36.0297C60.0377 35.8783 59.8106 35.8804 59.566 35.8999C59.4853 35.926 59.4304 35.9578 59.358 36.0037C59.3194 36.0166 59.3194 36.0166 59.28 36.0297C59.2514 36.0773 59.2514 36.0773 59.228 36.1335C59.2132 36.1585 59.2132 36.1585 59.1982 36.184C58.6346 37.1839 58.7885 39.2444 59.0687 40.322C59.1301 40.5266 59.2158 40.7019 59.3792 40.8433C59.5842 40.9436 59.7843 40.9529 60.008 40.9098C60.0833 40.8811 60.1459 40.8467 60.216 40.806C60.2418 40.7974 60.2675 40.7888 60.294 40.78C60.3226 40.7323 60.3226 40.7323 60.346 40.6762C60.3559 40.6598 60.3657 40.6434 60.3759 40.6266C60.6174 40.2034 60.6045 39.6665 60.632 39.1966C61.0953 39.1966 61.5587 39.1966 62.036 39.1966C62.036 39.6031 62.0345 39.9706 61.958 40.3647C61.9545 40.3827 61.9511 40.4007 61.9475 40.4193C61.8762 40.7678 61.7212 41.105 61.49 41.377C61.4661 41.4086 61.4661 41.4086 61.4417 41.4409C61.148 41.7887 60.6619 41.9454 60.2232 41.9953C59.4765 42.0545 58.8053 41.9651 58.2129 41.4902C57.6235 40.9569 57.5273 40.0155 57.486 39.2744C57.4822 39.1446 57.4812 39.0148 57.4807 38.885C57.4807 38.867 57.4806 38.8491 57.4805 38.8307C57.4801 38.7355 57.4799 38.6404 57.4798 38.5453C57.4797 38.4686 57.4793 38.3919 57.4787 38.3151C57.4711 37.3086 57.4651 36.1205 58.1975 35.3397C58.9633 34.6385 60.5412 34.571 61.3389 35.2574Z" fill="#9CA3AF"/>
<path d="M79.2358 6.85211C79.5436 7.11495 79.7388 7.4481 79.7738 7.85463C79.8025 8.53551 79.6425 9.16097 79.1895 9.68559C78.695 10.2118 77.9983 10.5047 77.2803 10.5442C76.8921 10.5491 76.5359 10.4927 76.18 10.3313C76.1555 10.321 76.131 10.3107 76.1057 10.3002C75.7884 10.1511 75.5778 9.84558 75.452 9.52659C75.4432 9.50454 75.4345 9.48249 75.4254 9.45977C75.3007 9.0685 75.3375 8.58368 75.478 8.20274C75.4877 8.17573 75.4975 8.14873 75.5075 8.12091C75.764 7.46198 76.2455 6.99034 76.882 6.69717C77.598 6.40227 78.5942 6.35385 79.2358 6.85211Z" fill="#9CA3AF"/>
<path d="M40.586 34.9394C42.0446 34.9394 43.5032 34.9394 45.006 34.9394C45.006 35.3249 45.006 35.7104 45.006 36.1076C44.5084 36.1076 44.0107 36.1076 43.498 36.1076C43.498 38.0092 43.498 39.9109 43.498 41.8702C43.0347 41.8702 42.5714 41.8702 42.094 41.8702C42.094 39.9685 42.094 38.0669 42.094 36.1076C41.5964 36.1076 41.0987 36.1076 40.586 36.1076C40.586 35.7221 40.586 35.3366 40.586 34.9394Z" fill="#9CA3AF"/>
<path d="M35.724 34.9394C36.1959 34.9394 36.6678 34.9394 37.154 34.9394C37.154 36.8411 37.154 38.7428 37.154 40.7021C37.9691 40.7021 38.7842 40.7021 39.624 40.7021C39.624 41.0876 39.624 41.4731 39.624 41.8702C38.337 41.8702 37.05 41.8702 35.724 41.8702C35.724 39.5831 35.724 37.2959 35.724 34.9394Z" fill="#9CA3AF"/>
<path d="M64.272 34.9394C64.7353 34.9394 65.1987 34.9394 65.676 34.9394C65.676 36.8411 65.676 38.7428 65.676 40.7021C66.4911 40.7021 67.3062 40.7021 68.146 40.7021C68.146 41.0876 68.146 41.4731 68.146 41.8702C66.8676 41.8702 65.5892 41.8702 64.272 41.8702C64.272 39.5831 64.272 37.2959 64.272 34.9394Z" fill="#9CA3AF"/>
<path d="M103.564 21.5384C103.811 21.7619 103.975 22.0937 104.007 22.4236C104.01 22.4982 104.011 22.5721 104.01 22.6467C104.009 22.673 104.009 22.6992 104.009 22.7263C103.997 23.2512 103.754 23.6954 103.396 24.0718C103.105 24.3466 102.749 24.5045 102.347 24.5173C101.923 24.5041 101.586 24.3116 101.296 24.0111C100.999 23.6599 100.933 23.2867 100.958 22.843C101.001 22.4786 101.207 22.1233 101.452 21.8566C101.469 21.837 101.487 21.8174 101.504 21.7972C102.05 21.2115 102.906 21.0285 103.564 21.5384Z" fill="#9CA3AF"/>
</g>
<defs>
<clipPath id="clip0_33_195">
<rect width="104" height="42" fill="white"/>
</clipPath>
</defs>
</svg>
