<svg width="287" height="81" viewBox="0 0 287 81" fill="none" xmlns="http://www.w3.org/2000/svg">
<path d="M4.05838 45.7773C5.67703 45.7773 6.9892 44.5551 6.9892 43.0476C6.9892 41.54 5.67703 40.3179 4.05838 40.3179C2.43974 40.3179 1.12756 41.54 1.12756 43.0476C1.12756 44.5551 2.43974 45.7773 4.05838 45.7773Z" fill="#1F2D3D"/>
<path d="M49.9473 16.4482C50.8297 15.8582 51.9993 15.5583 53.4229 15.5583C54.3523 15.5583 55.3721 15.6847 56.4529 15.9344C58.6354 16.5373 60.0155 13.8061 58.1289 12.6228L58.0854 12.5953C54.5141 10.3568 50.2537 9.12488 46.0889 9.12488C43.2521 9.12488 40.598 9.68734 38.2032 10.796C31.6784 13.811 28.1281 20.2233 29.1566 27.1284C29.1967 27.3943 29.2402 27.6569 29.2906 27.9178C29.6352 29.7479 30.2061 31.4936 30.7595 33.1874C31.1059 34.2443 31.4383 35.2655 31.7133 36.2818C31.8229 36.6886 31.9238 37.0955 32.0126 37.504C32.0561 37.7082 32.0979 37.9124 32.1344 38.1183C32.3607 39.3518 32.4755 40.561 32.4773 41.7248C32.4773 42.1139 32.4668 42.4964 32.4425 42.8741L32.432 43.0362L32.4199 43.1853C32.0961 47.0933 30.4793 49.8456 27.6112 51.3661C26.2728 52.0744 24.6995 52.4343 22.9365 52.4343C20.3276 52.4343 17.3446 51.6432 14.5391 50.2087C13.0841 49.4631 11.6535 48.5473 10.1655 47.411C9.03944 46.5487 3.3031 41.6632 3.3031 41.6632C3.05945 42.7833 2.86279 44.5096 2.89585 45.4983C3.3675 52.8476 7.33385 59.8208 13.5088 64.1519C18.079 67.3597 23.8188 69.1249 29.6718 69.1249C31.762 69.1249 33.8296 68.8963 35.8206 68.4473C38.4555 67.8525 40.9808 66.8669 43.3252 65.52L45.6956 63.9914C51.3205 59.9359 55.0954 53.9255 56.0544 47.5002C56.0648 47.4353 56.0735 47.3721 56.0805 47.3073C56.084 47.2797 56.0892 47.2522 56.0927 47.2246C56.1031 47.1468 56.1136 47.069 56.1223 46.9912L56.1362 46.8842V46.8745C56.2075 46.2975 56.2545 45.7123 56.2771 45.1223C56.2771 45.1174 56.2771 45.1126 56.2771 45.1061V45.085L56.2893 44.7527C56.2893 44.7349 56.2893 44.7171 56.2893 44.6976C56.2893 44.649 56.2911 44.5987 56.2911 44.5501C56.2911 44.4966 56.2946 44.4447 56.2946 44.3912C56.2946 44.3767 56.2946 44.3621 56.2946 44.3459H56.3033V44.3329C56.3033 44.012 56.2928 43.6748 56.2737 43.3004C56.2737 43.2809 56.2719 43.2615 56.2702 43.242C56.1223 40.48 55.4296 37.5882 54.2078 34.6479C54.1069 34.4064 54.0042 34.1665 53.9015 33.9298C53.8545 33.8228 53.8058 33.7159 53.7571 33.6056C53.7484 33.5878 53.7414 33.5716 53.7327 33.5538L53.7292 33.5473C53.6892 33.4581 53.6492 33.3706 53.6091 33.2847C53.5952 33.2571 53.583 33.228 53.5691 33.2004C53.5117 33.0772 53.4542 32.9557 53.4003 32.8454C53.2872 32.6072 53.1688 32.3705 53.0487 32.1322C52.8172 31.6751 52.5684 31.2261 52.3125 30.7836C51.8844 30.0461 51.4319 29.328 50.9881 28.6262C49.9317 26.9518 48.9223 25.3535 48.3357 23.671C48.2975 23.5592 48.2592 23.4457 48.2244 23.3339C48.1443 23.0761 48.0729 22.8152 48.0155 22.5526C47.5508 20.4632 47.9668 17.7644 49.9404 16.4417L49.9473 16.4482Z" fill="#1F2D3D"/>
<path d="M44.5051 60.0075C44.2667 61.2298 43.6663 62.3985 42.7891 63.4018C42.629 63.5899 42.4567 63.7649 42.2774 63.94C40.1559 65.159 37.8273 66.0845 35.3507 66.6438C28.2969 68.2356 20.5104 66.7362 14.7131 62.6692C8.90891 58.5989 5.32197 52.1199 4.89209 45.3897C4.89209 45.3897 4.89209 45.3897 4.89209 45.3929C5.49427 46.137 8.17621 48.2977 8.89847 48.8504C10.3621 49.9689 11.9163 50.9901 13.5766 51.8411C17.9955 54.0991 23.965 55.4364 28.598 52.9855C28.7999 52.8802 28.993 52.7683 29.181 52.6532C29.2419 52.6159 29.3046 52.577 29.3655 52.5381C29.3985 52.5187 29.4334 52.496 29.4664 52.4733C29.5395 52.4247 29.6161 52.376 29.6875 52.3242C30.0303 52.0891 30.3488 51.8395 30.6499 51.5753C30.7091 51.5218 30.77 51.4699 30.8274 51.4148C30.8466 51.3954 30.8692 51.3759 30.8901 51.3565C30.9545 51.2949 31.0189 51.2333 31.0815 51.1701C31.4853 50.7713 31.8455 50.3466 32.1693 49.8992C32.2006 49.8571 32.2319 49.8117 32.2615 49.7679C32.4146 49.5507 32.5574 49.327 32.6914 49.1001C32.7349 49.0288 32.7766 48.9558 32.8167 48.8829C32.8671 48.7921 32.9159 48.7013 32.9646 48.6089C32.9994 48.5425 33.0342 48.4776 33.0656 48.4095C33.0777 48.3869 33.0899 48.3642 33.1004 48.3398C33.1334 48.2734 33.1682 48.2021 33.1978 48.134C33.2083 48.1129 33.217 48.0918 33.2274 48.0691C33.2605 48.0011 33.2918 47.9297 33.3214 47.8617C33.3806 47.7271 33.4363 47.591 33.4885 47.4548C33.5128 47.3948 33.5355 47.3348 33.5598 47.2733C33.5755 47.2327 33.5894 47.1938 33.6051 47.1533C33.626 47.0933 33.6486 47.0333 33.6677 46.9718C33.6851 46.9247 33.7008 46.8777 33.7165 46.8307C33.7791 46.6395 33.84 46.4466 33.8922 46.2504C33.9166 46.1661 33.9392 46.0818 33.9619 45.9975C33.9653 45.9862 33.9688 45.9732 33.9706 45.9619C33.9932 45.8727 34.0158 45.7852 34.0367 45.6961C34.1046 45.4172 34.1603 45.1368 34.2107 44.8531C34.2316 44.9018 34.256 44.9536 34.2803 45.0071C34.2995 45.0493 34.3204 45.0963 34.3413 45.1433C35.965 48.7807 35.9616 52.8721 34.3343 56.5079C34.1637 56.8904 34.0402 57.1611 34.0123 57.2243L34.0054 57.2373L35.3176 57.247C35.4534 57.247 35.5491 57.247 35.6622 57.2422C35.7719 57.2373 35.878 57.2341 35.9859 57.226C36.2 57.2114 36.4106 57.1936 36.6212 57.1709C37.0406 57.1222 37.4583 57.0525 37.8725 56.9634C38.7009 56.7883 39.5154 56.5273 40.2934 56.1707C40.6815 55.994 41.0609 55.7898 41.4229 55.558C41.7849 55.3294 42.1313 55.0766 42.4532 54.7929C42.6186 54.6567 42.7648 54.5011 42.9179 54.3536L43.1337 54.1186C43.1929 54.057 43.2451 53.9921 43.2973 53.9273C43.407 54.1267 43.5079 54.3261 43.6071 54.5287C43.8838 55.1041 44.1118 55.7006 44.2824 56.3069C44.6305 57.5177 44.7366 58.7837 44.5017 60.0108L44.5051 60.0075Z" fill="#FFFFFE"/>
<path d="M43.3008 53.9241C32.6252 67.5856 15.9 59.0577 15.9 59.0577C24.1164 59.3495 27.5171 55.1544 27.5171 55.1544C12.9971 62.2526 5.02781 45.6361 4.8938 45.3913C5.49597 46.1354 8.17792 48.2961 8.90018 48.8489C10.3638 49.9673 11.918 50.9885 13.5784 51.8395C17.9972 54.0975 23.9668 55.4348 28.5997 52.9839C28.8016 52.8786 28.9947 52.7667 29.1827 52.6516C29.2454 52.6127 29.3063 52.5755 29.3672 52.5366C29.4003 52.5171 29.4351 52.4944 29.4681 52.4717C29.543 52.4231 29.6178 52.3728 29.6892 52.3226C30.032 52.0875 30.3505 51.8379 30.6516 51.5737C30.7108 51.5202 30.7717 51.4683 30.8291 51.4132C30.8483 51.3938 30.8709 51.3743 30.8918 51.3549C30.9562 51.2933 31.0206 51.2317 31.0832 51.1685C31.487 50.7697 31.8472 50.345 32.171 49.8976C32.2023 49.8555 32.2336 49.8101 32.2632 49.7663C32.4163 49.5491 32.5591 49.3254 32.6931 49.0985C32.7366 49.0272 32.7784 48.9542 32.8184 48.8813C32.8689 48.7905 32.9176 48.6997 32.9663 48.6073C33.0011 48.5409 33.0359 48.476 33.0673 48.408C33.0794 48.3853 33.0916 48.3626 33.1021 48.3383C33.1351 48.2718 33.1699 48.2005 33.1995 48.1324C33.21 48.1113 33.2187 48.0902 33.2291 48.0676C33.2622 47.9995 33.2935 47.9282 33.3231 47.8601C33.3823 47.7255 33.438 47.5894 33.4902 47.4532C33.5145 47.3932 33.5372 47.3333 33.5615 47.2717C33.5772 47.2311 33.5911 47.1922 33.6068 47.1517C33.6277 47.0917 33.6503 47.0318 33.6694 46.9702C33.6868 46.9232 33.7025 46.8761 33.7182 46.8291C33.7808 46.6379 33.8417 46.445 33.8939 46.2488C33.9183 46.1645 33.9409 46.0803 33.9636 45.996C33.967 45.9846 33.9705 45.9716 33.9723 45.9603C33.9949 45.8711 34.0175 45.7836 34.0384 45.6945C34.1063 45.4157 34.162 45.1352 34.2124 44.8516C34.2333 44.9002 34.2577 44.9521 34.2821 45.0056C34.3012 45.0477 34.3238 45.0947 34.343 45.1417C35.9668 48.7792 35.9633 52.8705 34.336 56.5063C34.1654 56.8888 34.0419 57.1595 34.014 57.2228L34.0071 57.2357L35.3193 57.2455C35.4551 57.2455 35.5508 57.2455 35.6639 57.2406C35.7736 57.2357 35.8797 57.2325 35.9876 57.2244C36.2017 57.2098 36.4123 57.192 36.6229 57.1693C37.0423 57.1206 37.46 57.0509 37.8742 56.9618C38.7026 56.7867 39.5172 56.5257 40.2951 56.1691C40.6832 55.9924 41.0626 55.7882 41.4246 55.5564C41.7866 55.3279 42.133 55.075 42.4549 54.7913C42.6203 54.6552 42.7665 54.4995 42.9196 54.352L43.1354 54.117C43.1946 54.0554 43.2468 53.9906 43.299 53.9257L43.3008 53.9241Z" fill="#DEDEE5"/>
<path d="M54.2861 43.3815C54.3035 43.7025 54.3139 44.025 54.3139 44.3476V44.3541L54.3052 44.0574V44.1093C54.3052 44.2471 54.3052 44.3849 54.3017 44.5227C54.3017 44.5891 54.3017 44.6556 54.2983 44.722C54.2948 44.8258 54.2896 44.9311 54.2878 45.0349C54.2669 45.5844 54.2234 46.1306 54.1556 46.6736C54.1416 46.7838 54.1294 46.8924 54.1138 47.0027C54.1051 47.0821 54.0929 47.1599 54.0807 47.2393C53.1792 53.2983 49.6097 58.824 44.4755 62.5246L44.4703 62.5295C44.5486 62.4209 44.6252 62.3139 44.7 62.2004C45.1003 61.5991 45.4014 60.9345 45.6085 60.2472C45.8139 59.5567 45.9096 58.8386 45.92 58.1238C45.9287 57.4074 45.8452 56.6958 45.6955 56.0004C45.5424 55.3066 45.3196 54.6291 45.0463 53.971C44.9089 53.642 44.754 53.3194 44.5869 53.0001C44.5033 52.8412 44.4181 52.6824 44.3241 52.5268L44.1814 52.2901C44.1309 52.2091 44.0874 52.1394 44.0213 52.0437L43.3164 51.0242L42.6237 52.1021C42.2617 52.6678 41.8266 53.1881 41.2958 53.6225C40.7789 54.0683 40.1732 54.4313 39.5293 54.7328C38.8854 55.0359 38.1892 55.2612 37.4774 55.4379C37.2146 55.5028 36.9518 55.5546 36.6855 55.5984C36.6716 55.6016 36.6594 55.6049 36.6472 55.6065C36.6228 55.6114 36.6072 55.6146 36.595 55.6146C36.5846 55.6146 36.5776 55.6179 36.5776 55.6179C36.8909 54.7912 37.1067 53.9337 37.2094 53.0714C37.2494 52.7472 37.2738 52.423 37.2894 52.0972C37.2999 51.773 37.2981 51.4488 37.2842 51.1263C37.2598 50.4812 37.1815 49.8409 37.0614 49.2104C36.9448 48.5798 36.7777 47.959 36.5846 47.3512C36.3862 46.7449 36.1495 46.1517 35.8884 45.5714C35.6291 44.9879 35.3263 44.4254 35.0043 43.8775C34.8442 43.602 34.6753 43.3329 34.4943 43.0687C34.4735 43.0395 34.4543 43.012 34.4352 42.9844C34.5448 41.2419 34.4056 39.4735 34.101 37.8072C33.4205 34.0872 31.6888 30.62 31.1319 26.8741C30.2443 20.9156 33.2256 15.171 39.0872 12.4625C44.7748 9.83008 51.8234 10.9161 56.9663 14.1401C54.2182 13.4998 51.0803 13.3994 48.7777 14.9392C46.2002 16.6671 45.4205 20.0403 46.0627 22.9368C46.879 26.605 49.5644 29.6134 51.2474 32.9347C51.3605 33.1584 51.4719 33.3837 51.5798 33.609C51.6355 33.7208 51.6877 33.8359 51.7416 33.9494C51.7956 34.0612 51.8461 34.1763 51.8983 34.2898C51.9505 34.4032 52.0027 34.5183 52.0514 34.6334C52.1524 34.8636 52.2498 35.0921 52.3455 35.3223C53.4159 37.8996 54.1329 40.5935 54.2774 43.3605C54.2774 43.3686 54.2774 43.375 54.2774 43.3831L54.2861 43.3815Z" fill="#D85401"/>
<path d="M56.9698 14.1385C56.4199 13.9861 55.8542 13.5776 55.3217 13.3604C53.9415 12.7963 52.4848 12.3781 50.9985 12.1479C49.5662 11.9259 48.0973 11.9275 46.6667 12.1544C43.1407 12.7169 39.86 14.5048 37.7107 17.1827C34.0715 21.7149 34.8651 27.7027 35.2132 32.9822C35.4081 35.9518 35.1819 38.7998 34.7015 41.7354C34.665 41.9559 34.3621 42.8701 34.4979 43.0678C34.477 43.0387 34.4579 43.0111 34.4387 42.9835C34.5484 41.241 34.4091 39.4725 34.1046 37.8062C33.4241 34.0861 31.6924 30.6188 31.1355 26.8728C30.2479 20.9141 33.2291 15.1694 39.0908 12.4608C44.7784 9.82834 51.827 10.9144 56.9698 14.1385Z" fill="#D85401"/>
<path d="M47.4586 43.5825C46.8408 42.4478 46.4231 41.3245 46.1603 40.2433C46.853 42.1641 47.3942 43.4236 47.4586 43.5825Z" fill="url(#paint0_linear_170_2775)"/>
<path opacity="0.15" d="M52.3526 35.3256C53.5413 38.2092 54.2914 41.2436 54.314 44.3509C54.3105 44.2309 54.307 44.1094 54.3053 43.9894C54.3053 44.0121 54.3053 44.0364 54.3053 44.0591C54.3053 44.0753 54.3053 44.0932 54.3053 44.111C54.3053 44.2018 54.3053 44.2909 54.3053 44.3817C54.3053 44.4303 54.3053 44.4773 54.3018 44.5243C54.3018 44.5908 54.3018 44.6572 54.2983 44.7237C54.2949 44.8274 54.2896 44.9328 54.2879 45.0365C54.2635 45.5828 54.22 46.1306 54.1556 46.6753C54.1417 46.7855 54.1295 46.8941 54.1139 47.0043C54.1052 47.0838 54.093 47.1616 54.0808 47.241C53.1793 53.3 49.6097 58.8257 44.4756 62.5263C45.13 62.0303 45.7234 61.0042 46.1916 60.351C46.7416 59.581 47.2706 58.7998 47.7649 57.9974C48.743 56.4089 49.5854 54.7426 50.1701 52.9936C51.0856 50.2543 51.378 47.3188 51.0003 44.4692C50.6783 42.0411 49.742 39.7313 48.7813 37.4701C47.8363 35.2445 47.3176 32.925 47.3124 30.5212C47.3124 30.4953 47.2985 30.4288 47.3124 30.4029C47.3124 30.4029 44.8289 34.8166 46.1551 40.2418C43.0258 31.5505 36.0643 8.52854 56.9698 14.1434C54.2479 13.4124 51.0838 13.4026 48.7813 14.9425C46.2038 16.6704 45.4241 20.0436 46.0663 22.9401C46.8825 26.6083 49.568 29.6167 51.2509 32.938C51.364 33.1617 51.4754 33.387 51.5833 33.6123C51.639 33.7241 51.6912 33.8392 51.7452 33.9527C51.7991 34.0645 51.8496 34.1796 51.9018 34.2931C51.954 34.4065 52.0062 34.5216 52.055 34.6367C52.1559 34.8669 52.2534 35.0954 52.3491 35.3256H52.3526Z" fill="#3C1C11"/>
<path d="M45.7113 32.5845C51.3049 44.1125 45.8609 49.8765 45.8609 49.8765C46.0263 43.7526 41.6857 40.2239 41.6857 40.2239C48.0382 54.0341 37.6898 55.3973 36.6891 55.5967C36.6752 55.5999 36.663 55.6032 36.6508 55.6048C36.6264 55.6097 36.6108 55.6129 36.5986 55.6129C36.5881 55.6129 36.5812 55.6161 36.5812 55.6161C36.8944 54.7895 37.1102 53.932 37.2129 53.0697C37.253 52.7455 37.2773 52.4213 37.293 52.0955C37.3034 51.7713 37.3017 51.4471 37.2878 51.1246C37.2634 50.4794 37.1851 49.8392 37.065 49.2086C36.9484 48.5781 36.7813 47.9573 36.5881 47.3495C36.3897 46.7432 36.153 46.15 35.892 45.5697C35.6327 44.9861 35.3298 44.4237 35.0079 43.8758C34.8477 43.6003 34.6789 43.3312 34.4979 43.067C34.3622 42.8692 34.665 41.955 34.7015 41.7346C35.1819 38.7991 35.4081 35.9511 35.2132 32.9816C34.8651 27.7007 34.0715 21.7146 37.7107 17.1825C39.8601 14.5064 43.1407 12.7169 46.6667 12.1544C48.0973 11.9259 49.5662 11.9242 50.9986 12.1479C52.4866 12.3781 53.9416 12.7963 55.3217 13.3604C55.8543 13.5776 56.4181 13.9877 56.9699 14.1384C42.5055 10.1364 40.1176 21.0565 45.7095 32.5845H45.7113Z" fill="#F57C00"/>
<path d="M34.463 47.0789C36.0817 47.0789 37.3939 45.8568 37.3939 44.3492C37.3939 42.8416 36.0817 41.6195 34.463 41.6195C32.8444 41.6195 31.5322 42.8416 31.5322 44.3492C31.5322 45.8568 32.8444 47.0789 34.463 47.0789Z" fill="#1F2D3D"/>
<path d="M35.4377 58.7868C37.0563 58.7868 38.3685 57.5647 38.3685 56.0571C38.3685 54.5495 37.0563 53.3274 35.4377 53.3274C33.819 53.3274 32.5068 54.5495 32.5068 56.0571C32.5068 57.5647 33.819 58.7868 35.4377 58.7868Z" fill="#1F2D3D"/>
<path d="M43.8769 55.6147C45.4955 55.6147 46.8077 54.3926 46.8077 52.885C46.8077 51.3774 45.4955 50.1553 43.8769 50.1553C42.2582 50.1553 40.946 51.3774 40.946 52.885C40.946 54.3926 42.2582 55.6147 43.8769 55.6147Z" fill="#1F2D3D"/>
<path d="M43.8769 65.2575C45.4955 65.2575 46.8077 64.0354 46.8077 62.5278C46.8077 61.0202 45.4955 59.7981 43.8769 59.7981C42.2582 59.7981 40.946 61.0202 40.946 62.5278C40.946 64.0354 42.2582 65.2575 43.8769 65.2575Z" fill="#1F2D3D"/>
<path d="M58.1967 17.0466C59.8153 17.0466 61.1275 15.8244 61.1275 14.3169C61.1275 12.8093 59.8153 11.5872 58.1967 11.5872C56.578 11.5872 55.2659 12.8093 55.2659 14.3169C55.2659 15.8244 56.578 17.0466 58.1967 17.0466Z" fill="#1F2D3D"/>
<path d="M262.707 41.6H253.711L262.507 31.16L254.711 21.12H263.207L267.306 27.04H267.405L271.504 21.12H280L272.204 31.16L281 41.6H272.004L267.405 35.28H267.306L262.707 41.6Z" fill="#F57C00"/>
<path d="M238.942 42.2799C230.495 42.2799 225.347 37.8799 225.347 31.3999C225.347 24.9599 230.495 20.4399 239.092 20.4399C247.538 20.4399 252.686 24.8399 252.686 31.2799C252.686 37.7599 247.538 42.2799 238.942 42.2799ZM239.042 37.4799C242.59 37.4799 244.59 35.3199 244.59 31.3599C244.59 27.3999 242.59 25.2399 239.042 25.2399C235.443 25.2399 233.444 27.3999 233.444 31.3599C233.444 35.3199 235.443 37.4799 239.042 37.4799Z" fill="#F57C00"/>
<path d="M206.891 41.6H197.894V13H224.484V18.88H206.891V25.16H221.235V31.04H206.891V41.6Z" fill="#F57C00"/>
<path d="M173.737 42.2799C165.291 42.2799 160.143 37.8799 160.143 31.3999C160.143 24.9599 165.291 20.4399 173.887 20.4399C182.334 20.4399 187.482 24.8399 187.482 31.2799C187.482 37.7599 182.334 42.2799 173.737 42.2799ZM173.837 37.4799C177.386 37.4799 179.385 35.3199 179.385 31.3599C179.385 27.3999 177.386 25.2399 173.837 25.2399C170.239 25.2399 168.239 27.3999 168.239 31.3599C168.239 35.3199 170.239 37.4799 173.837 37.4799Z" fill="#1F2D3D"/>
<path d="M148.7 20.48C153.648 20.48 156.996 23.08 156.996 27.76V41.6H149V29.8C149 26.72 147.65 25.68 145.001 25.68C141.952 25.68 140.203 26.92 140.203 29.76V41.6H132.206V21.12H140.203V24.08H140.303C141.653 22.2 144.152 20.48 148.7 20.48Z" fill="#1F2D3D"/>
<path d="M115.178 42.2799C106.731 42.2799 101.583 37.8799 101.583 31.3999C101.583 24.9599 106.731 20.4399 115.328 20.4399C123.774 20.4399 128.922 24.8399 128.922 31.2799C128.922 37.7599 123.774 42.2799 115.178 42.2799ZM115.278 37.4799C118.826 37.4799 120.825 35.3199 120.825 31.3599C120.825 27.3999 118.826 25.2399 115.278 25.2399C111.679 25.2399 109.68 27.3999 109.68 31.3599C109.68 35.3199 111.679 37.4799 115.278 37.4799Z" fill="#1F2D3D"/>
<path d="M85.2451 42.24C75.449 42.24 73 37.6 73 32.08V29.68H80.9968V32.08C80.9968 34.8 81.7965 36.36 84.7453 36.36C87.6941 36.36 88.4938 34.8 88.4938 32.08V13H97.4902V32.08C97.4902 37.6 95.0412 42.24 85.2451 42.24Z" fill="#1F2D3D"/>
<path d="M92.3324 65.7544H91V52.2456H96.0195C98.4288 52.2456 100.236 53.3036 100.236 56.1377C100.236 58.9717 98.4288 60.0486 96.0195 60.0486H92.3324V65.7544ZM92.3324 58.8394H96.1472C97.9178 58.8394 98.8486 57.9892 98.8486 56.1377C98.8486 54.305 97.9178 53.4548 96.1472 53.4548H92.3324V58.8394Z" fill="#1F2D3D"/>
<path d="M104.479 65.7544H103.147V52.2456H108.257C111.032 52.2456 112.547 53.587 112.547 56.0621C112.547 57.857 111.543 59.085 110.119 59.4629V59.5007C113.113 60.1242 112.072 65.4143 112.784 65.641V65.7544H111.36C110.758 65.1876 111.944 60.1431 108.458 60.1431H104.479V65.7544ZM104.479 58.9339H107.929C110.01 58.9339 111.214 57.9703 111.214 56.081C111.214 54.3617 110.265 53.4548 108.02 53.4548H104.479V58.9339Z" fill="#1F2D3D"/>
<path d="M121.539 66C117.761 66 115.26 63.0526 115.26 58.9906C115.26 54.9285 117.761 52 121.539 52C125.299 52 127.799 54.9285 127.799 58.9906C127.799 63.0526 125.299 66 121.539 66ZM121.539 64.7908C124.751 64.7908 126.412 62.1835 126.412 58.9906C126.412 55.7976 124.751 53.2092 121.539 53.2092C118.308 53.2092 116.647 55.7976 116.647 58.9906C116.647 62.1835 118.308 64.7908 121.539 64.7908Z" fill="#1F2D3D"/>
<path d="M135.677 65.7544H131.005V52.2456H135.732C139.383 52.2456 141.409 54.8529 141.409 59.0283C141.409 63.2038 139.328 65.7544 135.677 65.7544ZM132.337 64.5452H135.677C138.945 64.5452 140.021 62.0135 140.021 59.0283C140.021 56.0243 138.999 53.4548 135.714 53.4548H132.337V64.5452Z" fill="#1F2D3D"/>
<path d="M149.449 66C146.036 66 144.539 64.0729 144.539 61.2011V52.2456H145.872V61.2011C145.872 63.6194 147.04 64.7908 149.449 64.7908C151.859 64.7908 153.027 63.6194 153.027 61.2011V52.2456H154.359V61.2011C154.359 64.0729 152.863 66 149.449 66Z" fill="#1F2D3D"/>
<path d="M163.462 66C159.921 66 157.475 63.1093 157.475 59.0094C157.475 54.9285 159.902 52 163.48 52C166.528 52 168.518 54.0216 168.846 56.5533H167.459C167.204 55.0418 166.127 53.2092 163.462 53.2092C160.304 53.2092 158.862 55.9865 158.862 59.0094C158.862 62.0324 160.322 64.7908 163.462 64.7908C166.218 64.7908 167.368 62.8259 167.514 60.9555H168.901C168.591 63.9028 166.565 66 163.462 66Z" fill="#1F2D3D"/>
<path d="M175.949 65.7544H174.634V53.4548H170.199V52.2456H180.402V53.4548H175.949V65.7544Z" fill="#1F2D3D"/>
<path d="M192.364 65.7544H187.691V52.2456H192.419C196.069 52.2456 198.095 54.8529 198.095 59.0283C198.095 63.2038 196.015 65.7544 192.364 65.7544ZM189.024 64.5452H192.364C195.631 64.5452 196.708 62.0135 196.708 59.0283C196.708 56.0243 195.686 53.4548 192.4 53.4548H189.024V64.5452Z" fill="#1F2D3D"/>
<path d="M210.371 65.7544H201.317V52.2456H210.17V53.4548H202.65V58.1026H209.367V59.3117H202.65V64.5452H210.371V65.7544Z" fill="#1F2D3D"/>
<path d="M218.101 66C214.962 66 212.699 64.3185 212.516 61.2767H213.903C214.086 63.3738 215.327 64.7908 218.047 64.7908C220.456 64.7908 221.277 63.6005 221.277 62.108C221.296 60.1053 219.945 59.7652 217.262 59.1417C215.126 58.6316 213.064 57.9514 213.064 55.4764C213.064 53.3225 214.725 52 217.408 52C220.237 52 222.026 53.4926 222.226 56.1377H220.839C220.62 54.2672 219.616 53.2092 217.408 53.2092C215.491 53.2092 214.451 54.0216 214.451 55.4197C214.451 57.2335 216.002 57.6113 217.919 58.0459C220.602 58.6505 222.665 59.3306 222.665 62.0702C222.665 64.2618 221.204 66 218.101 66Z" fill="#1F2D3D"/>
<path d="M227.086 65.7544H225.753V52.2456H227.086V65.7544Z" fill="#1F2D3D"/>
<path d="M236.205 66C232.372 66 230.309 63.0337 230.309 59.0094C230.309 55.004 232.664 52 236.369 52C239.49 52 241.279 53.7004 241.735 56.251H240.366C239.983 54.2861 238.468 53.2092 236.369 53.2092C233.102 53.2092 231.696 56.1943 231.696 59.0094C231.696 61.8435 232.828 64.7908 236.205 64.7908C238.742 64.7908 240.622 62.8826 240.622 60.0486H236.296V58.8205H241.954V65.7544H241.042L240.64 63.3549H240.604C239.782 64.942 238.432 66 236.205 66Z" fill="#1F2D3D"/>
<path d="M246.673 65.7544H245.34V52.2456H246.965L254.029 63.8084H254.065V52.2456H255.398V65.7544H253.773L246.709 54.1916H246.673V65.7544Z" fill="#1F2D3D"/>
<path d="M268.323 65.7544H259.27V52.2456H268.122V53.4548H260.602V58.1026H267.319V59.3117H260.602V64.5452H268.323V65.7544Z" fill="#1F2D3D"/>
<path d="M272.695 65.7544H271.363V52.2456H276.473C279.248 52.2456 280.763 53.587 280.763 56.0621C280.763 57.857 279.759 59.085 278.335 59.4629V59.5007C281.329 60.1242 280.288 65.4143 281 65.641V65.7544H279.576C278.974 65.1876 280.16 60.1431 276.674 60.1431H272.695V65.7544ZM272.695 58.9339H276.145C278.226 58.9339 279.43 57.9703 279.43 56.081C279.43 54.3617 278.481 53.4548 276.236 53.4548H272.695V58.9339Z" fill="#1F2D3D"/>
<defs>
<linearGradient id="paint0_linear_170_2775" x1="46.8094" y1="39.9856" x2="46.8094" y2="43.9991" gradientUnits="userSpaceOnUse">
<stop stop-color="#F37227"/>
<stop offset="1" stop-color="#F2AC52"/>
</linearGradient>
</defs>
</svg>
