<svg width="157" height="28" viewBox="0 0 157 28" fill="none" xmlns="http://www.w3.org/2000/svg">
<path d="M14.2137 0.236627C14.2658 0.236627 14.3179 0.236627 14.3716 0.236627C14.6252 0.994061 14.8785 1.75158 15.1316 2.50916C15.1599 2.5937 15.1599 2.5937 15.1887 2.67995C15.7245 4.28383 16.2567 5.88876 16.7777 7.49753C16.7978 7.55939 16.8178 7.62125 16.8385 7.68499C16.8774 7.80521 16.9163 7.92545 16.9552 8.0457C17.0638 8.38098 17.1749 8.71532 17.2881 9.0491C17.3137 9.12482 17.3393 9.20054 17.3657 9.27855C17.4156 9.42568 17.4657 9.57271 17.5162 9.71962C17.5386 9.78589 17.5611 9.85216 17.5842 9.92044C17.6043 9.97912 17.6244 10.0378 17.645 10.0982C17.6881 10.2535 17.6881 10.2535 17.6881 10.4902C21.2842 10.5162 24.8802 10.5422 28.5852 10.569C28.5852 10.6211 28.5852 10.6731 28.5852 10.7268C28.4348 10.8454 28.2842 10.9542 28.1263 11.062C28.0241 11.1332 27.922 11.2046 27.82 11.2761C27.7649 11.3146 27.7098 11.3532 27.6531 11.3928C27.3485 11.6084 27.0492 11.8309 26.7493 12.0528C26.2579 12.4157 25.7647 12.7759 25.2687 13.1324C24.7794 13.4842 24.2927 13.8393 23.8079 14.1972C23.2657 14.5974 22.7209 14.9936 22.1735 15.3865C21.8546 15.6158 21.5374 15.8473 21.2221 16.0815C21.1194 16.1577 21.1194 16.1577 21.0147 16.2354C20.8822 16.3338 20.75 16.4325 20.618 16.5315C20.5584 16.5758 20.4988 16.6201 20.4374 16.6657C20.3848 16.705 20.3322 16.7443 20.2781 16.7848C20.136 16.8789 20.136 16.8789 19.8991 16.9578C20.2245 18.1078 20.5954 19.2433 20.965 20.3797C21.0753 20.7188 21.1851 21.058 21.2949 21.3972C21.6085 22.3661 21.9224 23.3348 22.2385 24.3028C22.3512 24.6483 22.4633 24.994 22.5751 25.3397C22.6268 25.4989 22.6788 25.658 22.7311 25.817C22.8027 26.0348 22.8732 26.2528 22.9436 26.4709C22.9752 26.5657 22.9752 26.5657 23.0074 26.6624C23.1018 26.9588 23.1517 27.1508 23.0577 27.4479C22.9821 27.3906 22.9065 27.3332 22.8285 27.2741C22.2146 26.8105 21.5952 26.3568 20.965 25.9155C20.3756 25.5025 19.7925 25.081 19.2095 24.659C18.9131 24.4447 18.6165 24.2308 18.3198 24.0169C18.2014 23.9315 18.0829 23.846 17.9645 23.7606C17.9059 23.7183 17.8472 23.676 17.7868 23.6324C17.6091 23.5042 17.4315 23.3761 17.2538 23.2479C17.1657 23.1844 17.1657 23.1844 17.0759 23.1195C16.9583 23.0347 16.8408 22.9499 16.7232 22.8651C16.4134 22.6416 16.1035 22.4182 15.7936 22.1948C15.729 22.1483 15.6645 22.1018 15.598 22.0539C15.4744 21.9648 15.3509 21.8758 15.2272 21.7867C15.1715 21.7465 15.1157 21.7063 15.0582 21.6649C14.9849 21.6121 14.9849 21.6121 14.9102 21.5583C14.8054 21.482 14.7027 21.4029 14.6013 21.3222C14.4571 21.2007 14.4571 21.2007 14.2738 21.2132C13.9457 21.3375 13.6884 21.5397 13.4092 21.7493C13.2818 21.8431 13.1544 21.9369 13.027 22.0306C12.962 22.0788 12.897 22.127 12.83 22.1767C12.5232 22.4033 12.2135 22.6259 11.9039 22.8486C11.8149 22.9128 11.8149 22.9128 11.7241 22.9784C11.3262 23.2655 10.9271 23.5508 10.5275 23.8354C9.9728 24.2307 9.42099 24.6298 8.86888 25.0286C8.68914 25.1584 8.50936 25.2881 8.32955 25.4178C8.27101 25.4601 8.21248 25.5023 8.15217 25.5458C8.03482 25.6304 7.91747 25.715 7.8001 25.7996C7.49082 26.0226 7.18186 26.246 6.87333 26.47C6.80915 26.5165 6.74497 26.563 6.67885 26.611C6.55619 26.6999 6.43363 26.7889 6.31117 26.8781C6.03025 27.0815 5.75051 27.2761 5.44857 27.4479C5.49869 26.8937 5.68028 26.3855 5.85357 25.859C5.88725 25.7556 5.92089 25.6521 5.9545 25.5487C6.02614 25.3283 6.09805 25.1081 6.17019 24.8879C6.28334 24.5424 6.39585 24.1968 6.50823 23.8511C6.62255 23.4995 6.73689 23.1479 6.85144 22.7964C7.17849 21.7927 7.50311 20.7882 7.82551 19.7829C7.90457 19.5365 7.98389 19.2902 8.06322 19.044C8.39691 18.0074 8.39691 18.0074 8.68612 16.9578C8.63854 16.9348 8.59096 16.9119 8.54194 16.8882C8.30944 16.7688 8.10275 16.6176 7.89154 16.4648C7.84388 16.4306 7.79621 16.3963 7.74711 16.3611C7.276 16.0216 6.80896 15.6767 6.34184 15.3318C5.91445 15.0166 5.48498 14.7044 5.05374 14.3944C4.1842 13.769 3.32272 13.1327 2.46179 12.4956C2.33544 12.4022 2.20907 12.3088 2.0827 12.2155C2.02149 12.1702 1.96029 12.125 1.89724 12.0783C1.58418 11.8477 1.26913 11.6208 0.949736 11.399C0.887148 11.3555 0.824559 11.312 0.760074 11.2672C0.640711 11.1846 0.521016 11.1025 0.400954 11.021C0.264562 10.9267 0.131834 10.8273 0 10.7268C0 10.6747 0 10.6227 0 10.569C5.39408 10.53 5.39408 10.53 10.8971 10.4902C10.9493 10.2559 11.0014 10.0216 11.0551 9.78029C11.0913 9.65476 11.1296 9.52976 11.1714 9.40599C11.1932 9.34107 11.2149 9.27614 11.2374 9.20925C11.2723 9.10668 11.2723 9.10668 11.308 9.00204C11.3328 8.92822 11.3576 8.8544 11.3832 8.77834C11.4366 8.61971 11.4901 8.46112 11.5438 8.30259C11.6874 7.8781 11.8299 7.45321 11.9724 7.02835C12.016 6.8985 12.016 6.8985 12.0605 6.76603C12.3458 5.91562 12.624 5.06303 12.9009 4.20987C13.3316 2.88314 13.769 1.55879 14.2137 0.236627Z" fill="#9CA3AF"/>
<path d="M33.8807 4.63296C33.9458 4.6324 34.0109 4.63185 34.078 4.63127C34.1491 4.63147 34.2203 4.63166 34.2935 4.63186C34.3687 4.63146 34.4438 4.63106 34.5212 4.63064C34.77 4.62954 35.0188 4.62962 35.2677 4.6298C35.4403 4.6295 35.6128 4.62915 35.7854 4.62878C36.1473 4.62819 36.5093 4.62821 36.8712 4.62863C37.3356 4.62909 37.8 4.62775 38.2645 4.62592C38.6209 4.62476 38.9774 4.62469 39.3338 4.62493C39.5051 4.62489 39.6764 4.62448 39.8476 4.62369C40.0868 4.62272 40.3259 4.62324 40.5651 4.62416C40.6362 4.62356 40.7074 4.62295 40.7806 4.62233C40.8783 4.62316 40.8783 4.62316 40.9779 4.62401C41.0345 4.624 41.091 4.62398 41.1492 4.62397C41.3447 4.66266 41.4141 4.7349 41.5355 4.89015C41.6161 5.22194 41.6294 5.55025 41.6342 5.89085C41.6362 5.979 41.6383 6.06715 41.6404 6.15797C41.6144 6.38874 41.6144 6.38874 41.5219 6.52399C41.2688 6.70173 40.9908 6.82876 40.7138 6.96488C40.4283 7.15127 40.3076 7.34736 40.2272 7.6768C40.1925 7.89094 40.1831 8.09052 40.1829 8.30734C40.1825 8.43009 40.1825 8.43009 40.1821 8.55531C40.1823 8.64274 40.1824 8.73017 40.1826 8.82025C40.1825 8.95569 40.1825 8.95569 40.1824 9.09386C40.1823 9.28426 40.1825 9.47466 40.1828 9.66506C40.1832 9.95776 40.1828 10.2504 40.1823 10.5431C40.1823 10.728 40.1824 10.9129 40.1826 11.0977C40.1824 11.2298 40.1824 11.2298 40.1821 11.3646C40.1824 11.4454 40.1826 11.5263 40.1829 11.6095C40.1829 11.681 40.183 11.7525 40.1831 11.8262C40.175 11.9881 40.175 11.9881 40.272 12.0676C40.4247 12.075 40.5776 12.0769 40.7304 12.0766C40.8284 12.0766 40.9265 12.0766 41.0274 12.0765C41.1352 12.0761 41.243 12.0757 41.3507 12.0753C41.4604 12.0752 41.57 12.0751 41.6797 12.075C41.9688 12.0747 42.2579 12.0739 42.547 12.073C42.8418 12.0722 43.1366 12.0719 43.4314 12.0715C44.0102 12.0706 44.589 12.0693 45.1679 12.0676C45.1739 11.4472 45.178 10.8269 45.1809 10.2065C45.1819 9.99549 45.1837 9.78452 45.1857 9.57351C45.1886 9.27005 45.1899 8.9666 45.191 8.66312C45.1922 8.56895 45.1934 8.47478 45.1947 8.37775C45.1978 7.74385 45.1978 7.74385 44.931 7.17747C44.612 6.86826 44.2152 6.67457 43.8255 6.46761C43.819 6.23916 43.8144 6.01089 43.8107 5.7824C43.8087 5.71799 43.8067 5.65358 43.8046 5.58722C43.8035 5.49304 43.8035 5.49304 43.8023 5.39697C43.8005 5.31085 43.8005 5.31085 43.7986 5.22299C43.8374 4.97012 43.8937 4.84995 44.0624 4.65353C44.305 4.59207 44.5455 4.60051 44.7946 4.60375C44.9071 4.6029 44.9071 4.6029 45.0219 4.60204C45.2704 4.6007 45.5187 4.60224 45.7672 4.60392C45.9396 4.60386 46.112 4.60366 46.2844 4.60335C46.646 4.60312 47.0076 4.60428 47.3691 4.60644C47.8329 4.60913 48.2965 4.60866 48.7603 4.60718C49.1164 4.60635 49.4725 4.60705 49.8286 4.60824C49.9996 4.60865 50.1706 4.60861 50.3416 4.60811C50.5806 4.60769 50.8195 4.60929 51.0584 4.61145C51.1293 4.61094 51.2001 4.61042 51.2731 4.60989C51.7529 4.61728 51.7529 4.61728 52.0016 4.80499C52.2308 5.13145 52.2105 5.44941 52.2155 5.84155C52.2185 5.9869 52.2185 5.98689 52.2216 6.13517C52.1957 6.38874 52.1957 6.38874 52.1075 6.52954C51.9009 6.66271 51.688 6.73349 51.4554 6.81268C50.9221 7.00917 50.9221 7.00917 50.5375 7.41409C50.3294 8.01978 50.3573 8.63738 50.3591 9.26988C50.3589 9.3938 50.3586 9.51773 50.3583 9.64165C50.3575 9.97687 50.3578 10.3121 50.3583 10.6473C50.3587 10.999 50.3583 11.3508 50.3581 11.7025C50.3578 12.2933 50.3582 12.884 50.3589 13.4748C50.3598 14.1563 50.3595 14.8379 50.3587 15.5194C50.3579 16.1059 50.3578 16.6923 50.3583 17.2788C50.3585 17.6285 50.3585 17.9781 50.358 18.3278C50.3576 18.6568 50.3579 18.9858 50.3588 19.3149C50.359 19.4351 50.3589 19.5553 50.3586 19.6756C50.3221 20.9248 50.3221 20.9248 50.8533 22.0056C51.074 22.1552 51.3049 22.2736 51.5443 22.3901C51.6069 22.4219 51.6695 22.4536 51.734 22.4863C51.8873 22.5638 52.0415 22.6398 52.1957 22.7155C52.2 22.9144 52.2031 23.1131 52.2056 23.312C52.2069 23.3675 52.2082 23.4231 52.2096 23.4804C52.2131 23.8606 52.163 24.1697 52.0378 24.5296C51.8031 24.7641 51.198 24.6969 50.8824 24.698C50.8173 24.6979 50.7523 24.6977 50.6852 24.6975C50.6152 24.6977 50.5451 24.6978 50.4729 24.698C50.2427 24.6983 50.0126 24.6981 49.7824 24.6978C49.6216 24.6979 49.4608 24.6979 49.3001 24.698C48.9637 24.6982 48.6273 24.698 48.2909 24.6976C47.8605 24.6972 47.4301 24.6974 46.9997 24.6979C46.6679 24.6982 46.3361 24.6981 46.0043 24.6979C45.8456 24.6978 45.6869 24.6979 45.5283 24.6981C45.3062 24.6983 45.0842 24.698 44.8622 24.6975C44.7646 24.6978 44.7646 24.6978 44.665 24.698C44.2984 24.6967 43.9488 24.6793 43.5886 24.6085C43.2582 24.2185 43.338 23.4853 43.3258 23.0051C43.3517 22.7944 43.3517 22.7944 43.4365 22.6659C43.6601 22.5069 43.9003 22.3866 44.1463 22.2669C44.1966 22.2416 44.2469 22.2164 44.2988 22.1903C44.673 22.0056 44.673 22.0056 44.852 22.0056C45.0679 21.4974 45.1877 21.0379 45.187 20.4837C45.1873 20.4018 45.1873 20.4018 45.1875 20.3183C45.1878 20.1399 45.1869 19.9615 45.1861 19.783C45.186 19.6584 45.1859 19.5339 45.186 19.4093C45.1858 19.1493 45.1852 18.8893 45.1841 18.6293C45.1828 18.2953 45.1825 17.9614 45.1825 17.6275C45.1825 17.3708 45.1821 17.1141 45.1815 16.8574C45.1813 16.7341 45.1811 16.6109 45.181 16.4877C45.1809 16.3163 45.1802 16.1449 45.1793 15.9734C45.179 15.8758 45.1787 15.7781 45.1784 15.6775C45.1928 15.4664 45.1928 15.4664 45.0889 15.3803C44.9387 15.3729 44.7882 15.371 44.6378 15.3713C44.4931 15.3713 44.4931 15.3713 44.3455 15.3714C44.2395 15.3718 44.1335 15.3722 44.0275 15.3726C43.9196 15.3727 43.8117 15.3728 43.7039 15.3729C43.4194 15.3732 43.135 15.374 42.8506 15.3749C42.5605 15.3757 42.2705 15.376 41.9804 15.3764C41.411 15.3773 40.8415 15.3786 40.272 15.3803C40.1616 15.6008 40.1824 15.783 40.1816 16.0298C40.1811 16.1333 40.1806 16.2368 40.1801 16.3434C40.18 16.4571 40.1799 16.5708 40.1798 16.6845C40.1796 16.801 40.1793 16.9176 40.179 17.0341C40.1785 17.279 40.1784 17.5239 40.1784 17.7687C40.1785 18.0809 40.1774 18.3932 40.176 18.7054C40.1751 18.9465 40.175 19.1876 40.175 19.4287C40.1749 19.5437 40.1746 19.6587 40.174 19.7736C40.1396 20.9748 40.1396 20.9748 40.6669 22.0056C40.8996 22.1402 41.1353 22.2569 41.3797 22.3689C41.4572 22.4052 41.5346 22.4415 41.6144 22.4789C41.6888 22.509 41.7631 22.5391 41.8396 22.5701C42.0093 22.7155 42.0093 22.7155 42.0534 23.0153C42.0522 23.1339 42.049 23.2526 42.0438 23.3711C42.0431 23.4595 42.0431 23.4595 42.0424 23.5497C42.0247 24.3564 42.0247 24.3564 41.7724 24.6085C41.3461 24.6872 40.9314 24.699 40.4988 24.6988C40.3937 24.6992 40.3937 24.6992 40.2865 24.6996C40.0563 24.7003 39.8261 24.7005 39.5959 24.7006C39.4351 24.7008 39.2744 24.7011 39.1136 24.7014C38.7772 24.7018 38.4408 24.702 38.1044 24.7019C37.674 24.7019 37.2436 24.703 36.8132 24.7044C36.4814 24.7053 36.1496 24.7054 35.8178 24.7054C35.6592 24.7055 35.5005 24.7058 35.3418 24.7064C35.1198 24.7072 34.8978 24.707 34.6757 24.7065C34.6106 24.7069 34.5456 24.7074 34.4785 24.7078C34.0906 24.7057 33.7682 24.6618 33.4021 24.5296C33.0889 24.1456 33.1315 23.4634 33.1393 22.9879C33.1652 22.7944 33.1652 22.7944 33.3133 22.6021C33.5255 22.4961 33.7336 22.4105 33.9549 22.3261C34.2998 22.193 34.5205 22.0742 34.7445 21.769C35.0313 21.116 35.0155 20.4722 35.0133 19.7722C35.0138 19.6426 35.0143 19.513 35.015 19.3833C35.0164 19.033 35.0163 18.6826 35.0158 18.3323C35.0156 18.0392 35.0161 17.7462 35.0165 17.4532C35.0176 16.7618 35.0175 16.0704 35.0166 15.379C35.0157 14.6666 35.0168 13.9543 35.0189 13.242C35.0207 12.6293 35.0212 12.0166 35.0208 11.4038C35.0205 11.0384 35.0207 10.6729 35.022 10.3074C35.0233 9.96387 35.0229 9.62032 35.0215 9.27673C35.0212 9.15096 35.0214 9.02518 35.0222 8.8994C35.0299 7.99208 35.0299 7.99208 34.6655 7.17747C34.3664 6.87739 33.9442 6.78486 33.552 6.64754C33.3231 6.54648 33.3231 6.54648 33.1652 6.30986C33.0981 5.8278 33.1612 5.26882 33.3231 4.81127C33.5638 4.65101 33.6105 4.63374 33.8807 4.63296Z" fill="#9CA3AF"/>
<path d="M109.485 4.16756C109.537 4.16717 109.588 4.16678 109.642 4.16637C109.813 4.16522 109.984 4.16468 110.155 4.16425C110.274 4.16379 110.393 4.16334 110.513 4.16288C110.762 4.16206 111.012 4.1616 111.262 4.16132C111.581 4.16089 111.901 4.15899 112.221 4.15675C112.467 4.15528 112.713 4.15487 112.959 4.15475C113.076 4.15451 113.194 4.15388 113.312 4.15284C113.477 4.15149 113.642 4.15164 113.807 4.15215C113.948 4.15172 113.948 4.15172 114.091 4.15128C114.369 4.18351 114.514 4.24944 114.736 4.41689C114.912 4.68124 114.914 4.76826 114.916 5.07721C114.917 5.16514 114.917 5.25307 114.918 5.34366C114.919 5.44016 114.919 5.53667 114.919 5.63609C114.92 5.73767 114.921 5.83926 114.921 5.94391C114.923 6.22255 114.925 6.50119 114.926 6.77984C114.927 7.07101 114.929 7.36217 114.931 7.65334C114.935 8.20474 114.938 8.75614 114.94 9.30755C114.943 9.93529 114.947 10.563 114.951 11.1908C114.959 12.4821 114.966 13.7734 114.973 15.0648C115.779 14.7558 116.378 14.0705 116.981 13.4725C117.074 13.3812 117.074 13.3812 117.168 13.288C117.719 12.7905 117.719 12.7905 117.981 12.1351C117.851 11.9156 117.678 11.8269 117.46 11.6979C117.026 11.4371 117.026 11.4371 116.947 11.3577C116.908 10.8429 116.92 10.3435 117.105 9.85914C117.429 9.67385 117.757 9.67849 118.121 9.67973C118.212 9.67913 118.212 9.67913 118.306 9.67851C118.508 9.67742 118.71 9.67749 118.912 9.67767C119.052 9.67737 119.193 9.67702 119.333 9.67665C119.627 9.67606 119.921 9.67608 120.215 9.6765C120.592 9.67696 120.97 9.67562 121.347 9.67379C121.637 9.67263 121.927 9.67256 122.217 9.6728C122.356 9.67276 122.495 9.67235 122.634 9.67156C122.828 9.67059 123.022 9.67111 123.216 9.67203C123.274 9.67143 123.331 9.67082 123.391 9.6702C123.778 9.67425 123.778 9.67425 123.968 9.80675C124.171 10.117 124.153 10.4488 124.157 10.8056C124.16 10.8628 124.162 10.9199 124.164 10.9788C124.169 11.3958 124.169 11.3958 123.998 11.587C123.809 11.677 123.628 11.7358 123.427 11.7915C122.863 11.9875 122.474 12.351 122.041 12.7471C121.935 12.8445 121.826 12.9398 121.717 13.0347C121.329 13.3749 120.957 13.7314 120.589 14.0937C120.546 14.1358 120.503 14.178 120.458 14.2215C119.973 14.6776 119.973 14.6776 119.786 15.2841C119.902 15.64 120.066 15.9583 120.244 16.2873C120.282 16.3598 120.321 16.4322 120.36 16.5069C120.762 17.2543 121.195 17.9829 121.632 18.71C121.809 19.0047 121.983 19.3007 122.157 19.5968C122.285 19.8137 122.414 20.0301 122.543 20.2464C122.707 20.522 122.867 20.7993 123.026 21.0782C123.1 21.2066 123.175 21.335 123.249 21.4634C123.281 21.5218 123.314 21.5801 123.347 21.6403C123.591 22.0554 123.845 22.227 124.291 22.4C124.368 22.4329 124.445 22.4659 124.525 22.4998C124.591 22.5254 124.657 22.5511 124.725 22.5775C124.792 22.6039 124.86 22.6303 124.93 22.6576C125.004 22.6862 125.004 22.6862 125.08 22.7155C125.109 23.9573 125.109 23.9573 124.922 24.5296C124.415 24.7121 123.935 24.7102 123.399 24.7083C123.307 24.7084 123.214 24.7086 123.118 24.7087C122.923 24.7088 122.727 24.7085 122.532 24.7079C122.233 24.707 121.935 24.7079 121.636 24.7089C121.446 24.7088 121.255 24.7086 121.065 24.7083C120.976 24.7086 120.887 24.7089 120.795 24.7092C119.932 24.7041 119.932 24.7041 119.632 24.5296C119.471 24.3336 119.354 24.1225 119.237 23.8986C119.206 23.8413 119.176 23.784 119.145 23.725C119.05 23.5404 118.958 23.3544 118.866 23.1678C118.832 23.0989 118.798 23.03 118.762 22.959C118.618 22.6681 118.474 22.3768 118.331 22.0856C117.939 21.2913 117.54 20.5017 117.115 19.7245C117.08 19.6605 117.046 19.5965 117.01 19.5306C116.801 19.1526 116.573 18.803 116.315 18.4563C116 18.498 115.834 18.5778 115.599 18.7915C115.548 18.8375 115.497 18.8834 115.444 18.9308C115.393 18.9824 115.341 19.0341 115.289 19.0873C115.202 19.1704 115.202 19.1704 115.113 19.2552C114.91 19.583 114.928 19.8675 114.938 20.2458C114.94 20.3516 114.94 20.3516 114.942 20.4596C114.959 21.0682 114.981 21.6028 115.412 22.0648C115.567 22.1807 115.709 22.2527 115.89 22.3264C116.132 22.4356 116.292 22.5193 116.473 22.7155C116.585 23.2987 116.559 23.9838 116.315 24.5296C115.915 24.6829 115.541 24.7101 115.114 24.7077C115.052 24.708 114.989 24.7083 114.925 24.7086C114.72 24.7093 114.516 24.7088 114.311 24.7083C114.168 24.7084 114.025 24.7085 113.882 24.7087C113.583 24.709 113.284 24.7086 112.985 24.7079C112.602 24.707 112.219 24.7075 111.837 24.7084C111.542 24.709 111.246 24.7088 110.951 24.7084C110.81 24.7083 110.669 24.7084 110.528 24.7088C110.33 24.7092 110.133 24.7086 109.936 24.7077C109.878 24.708 109.82 24.7084 109.761 24.7087C109.387 24.7056 109.082 24.6592 108.734 24.5296C108.483 24.0565 108.456 23.3943 108.527 22.8676C108.616 22.595 108.829 22.4686 109.07 22.3408C109.208 22.278 109.208 22.278 109.348 22.2139C109.639 22.0663 109.755 21.9716 109.919 21.6901C110.131 21.0154 110.099 20.3068 110.097 19.608C110.098 19.4786 110.098 19.3492 110.098 19.2198C110.099 18.8705 110.099 18.5211 110.098 18.1717C110.098 17.8049 110.098 17.4381 110.098 17.0713C110.099 16.4555 110.098 15.8397 110.097 15.2239C110.097 14.5134 110.097 13.8029 110.098 13.0925C110.098 12.4809 110.099 11.8693 110.098 11.2577C110.098 10.8931 110.098 10.5285 110.098 10.164C110.099 9.82109 110.099 9.47823 110.098 9.13537C110.097 9.01004 110.097 8.88471 110.098 8.75938C110.14 7.6532 110.14 7.6532 109.771 6.64506C109.398 6.37722 108.992 6.18693 108.577 5.99435C108.572 5.77907 108.569 5.56388 108.567 5.34858C108.565 5.28793 108.564 5.22728 108.563 5.1648C108.56 4.83221 108.561 4.55454 108.734 4.25914C109.001 4.17051 109.204 4.16917 109.485 4.16756Z" fill="#9CA3AF"/>
<path d="M89.5652 10.0653C90.417 10.7571 90.8161 11.7104 90.9674 12.7775C91.0243 13.482 91.0134 14.1902 91.0128 14.8966C91.0137 15.0995 91.0149 15.3025 91.0162 15.5054C91.0188 15.9817 91.0202 16.458 91.0209 16.9344C91.0222 17.8408 91.0269 18.7472 91.0313 19.6536C91.0325 19.9512 91.0331 20.2487 91.0335 20.5463C91.0341 20.7272 91.0346 20.9081 91.0352 21.089C91.0351 21.2135 91.0351 21.2135 91.0351 21.3405C91.0355 21.4536 91.0355 21.4536 91.036 21.5689C91.0362 21.6675 91.0362 21.6675 91.0363 21.768C91.0364 21.9324 91.0364 21.9324 91.1254 22.0845C91.3852 22.0543 91.566 22.0274 91.7867 21.8824C92.0669 21.7291 92.3189 21.6828 92.6257 21.769C92.9225 22.0143 93.1618 22.3099 93.2 22.6985C93.1551 23.2267 92.7417 23.6502 92.3539 23.9873C91.3259 24.7329 90.2098 24.9743 88.9523 24.8084C88.091 24.6509 87.3177 24.3002 86.7823 23.5831C86.3975 22.8892 86.2969 22.3096 86.2961 21.5286C86.2956 21.4491 86.2952 21.3695 86.2948 21.2875C86.294 21.115 86.2933 20.9424 86.2928 20.7698C86.2918 20.4962 86.2903 20.2226 86.2886 19.9491C86.2837 19.1712 86.2794 18.3934 86.2768 17.6156C86.2752 17.1395 86.2724 16.6635 86.2689 16.1874C86.2677 16.0064 86.267 15.8255 86.2668 15.6445C86.2664 15.3906 86.2646 15.1368 86.2624 14.883C86.2627 14.809 86.2629 14.735 86.2631 14.6588C86.2558 14.069 86.1641 13.5159 85.8396 13.0141C85.5754 12.7582 85.3525 12.6748 84.9858 12.669C84.506 12.681 84.1674 12.8154 83.8063 13.1302C83.1859 13.7856 83.0621 14.6204 83.0595 15.4917C83.0592 15.5473 83.0589 15.603 83.0587 15.6603C83.0579 15.8426 83.0578 16.0249 83.0577 16.2072C83.0574 16.3352 83.0572 16.4632 83.0569 16.5912C83.0564 16.859 83.0563 17.1269 83.0563 17.3947C83.0563 17.7358 83.0552 18.0769 83.0539 18.418C83.053 18.6823 83.0528 18.9466 83.0529 19.211C83.0528 19.3366 83.0525 19.4622 83.0518 19.5879C82.9928 20.8716 82.9928 20.8716 83.4658 22.0056C83.6381 22.1273 83.8015 22.2331 83.984 22.3359C84.4779 22.6222 84.4779 22.6222 84.6502 22.7944C84.7224 23.336 84.6396 23.9277 84.4923 24.4507C84.211 24.7317 83.8637 24.6965 83.4806 24.6989C83.3922 24.6988 83.3922 24.6988 83.3019 24.6988C83.2072 24.6992 83.2072 24.6992 83.1107 24.6996C82.9027 24.7003 82.6947 24.7005 82.4867 24.7006C82.3417 24.7008 82.1966 24.7011 82.0516 24.7014C81.7477 24.7018 81.4438 24.702 81.1399 24.7019C80.7513 24.7019 80.3627 24.703 79.9741 24.7044C79.6745 24.7052 79.3749 24.7054 79.0754 24.7054C78.9321 24.7055 78.7889 24.7058 78.6456 24.7064C78.445 24.7072 78.2443 24.707 78.0436 24.7065C77.9556 24.7071 77.9556 24.7071 77.8658 24.7078C77.4898 24.7056 77.186 24.6462 76.8327 24.5296C76.7265 24.1012 76.6582 23.6795 76.6403 23.238C76.6371 23.161 76.6339 23.0839 76.6307 23.0045C76.6748 22.7944 76.6748 22.7944 76.8466 22.6243C77.1349 22.4363 77.4347 22.2742 77.739 22.1135C78.1129 21.7631 78.1847 21.2316 78.2052 20.7336C78.2066 20.5889 78.2067 20.4442 78.2058 20.2995C78.2062 20.2198 78.2066 20.14 78.207 20.0578C78.2081 19.7967 78.2074 19.5355 78.2066 19.2743C78.2068 19.0915 78.207 18.9086 78.2073 18.7258C78.2076 18.3436 78.2071 17.9614 78.206 17.5792C78.2047 17.0905 78.2054 16.6019 78.2069 16.1132C78.2077 15.7359 78.2074 15.3587 78.2068 14.9815C78.2067 14.8013 78.2069 14.6212 78.2074 14.441C78.208 14.1889 78.2071 13.9368 78.2058 13.6846C78.2063 13.611 78.2067 13.5373 78.2072 13.4615C78.202 12.9214 78.152 12.366 77.7606 11.9641C77.591 11.8601 77.4206 11.7609 77.2473 11.6634C76.9907 11.5155 76.9907 11.5155 76.9117 11.3577C76.8639 10.8329 76.91 10.257 77.1486 9.78028C77.4027 9.69567 77.5883 9.69038 77.8555 9.6887C78.0006 9.68756 78.0006 9.68756 78.1486 9.6864C78.2543 9.68602 78.36 9.68568 78.4657 9.68538C78.5742 9.68493 78.6827 9.68448 78.7911 9.68402C79.0186 9.6832 79.246 9.68273 79.4734 9.68246C79.7643 9.68203 80.0552 9.68013 80.3461 9.67789C80.5702 9.67641 80.7943 9.67601 81.0184 9.67589C81.1257 9.67565 81.2329 9.67502 81.3401 9.67398C81.4903 9.67263 81.6406 9.67293 81.7908 9.67329C81.8762 9.673 81.9616 9.67272 82.0496 9.67242C82.3151 9.70564 82.4624 9.77938 82.6761 9.93803C82.7838 10.1337 82.7838 10.1337 82.8587 10.3472C82.8845 10.4183 82.9102 10.4893 82.9368 10.5625C82.9641 10.6438 82.9641 10.6438 82.992 10.7268C83.0494 10.6981 83.1068 10.6694 83.166 10.6399C83.3338 10.5561 83.5017 10.4725 83.6697 10.3891C83.8397 10.3037 84.0091 10.2168 84.1774 10.1278C85.8008 9.27915 87.9815 8.92712 89.5652 10.0653Z" fill="#9CA3AF"/>
<path d="M153.241 10.224C154.028 10.9429 154.353 11.9779 154.455 13.0141C154.468 13.3149 154.47 13.6156 154.471 13.9167C154.472 14.006 154.473 14.0953 154.474 14.1873C154.476 14.4814 154.478 14.7754 154.48 15.0694C154.482 15.2738 154.483 15.4781 154.485 15.6824C154.489 16.1646 154.493 16.6467 154.496 17.1288C154.5 17.678 154.504 18.2271 154.509 18.7763C154.518 19.9053 154.526 21.0344 154.534 22.1634C154.785 22.0833 155.008 22.0054 155.24 21.8775C155.532 21.7465 155.717 21.7287 156.034 21.769C156.333 21.9523 156.53 22.1546 156.666 22.4789C156.654 23.131 156.277 23.547 155.828 23.9809C154.969 24.6843 153.808 24.945 152.718 24.8451C152.045 24.7495 151.467 24.598 150.902 24.2141C150.832 24.1686 150.762 24.123 150.689 24.0761C150.112 23.5146 149.799 22.8075 149.766 22.0021C149.764 21.8605 149.764 21.7188 149.765 21.5772C149.764 21.4601 149.764 21.4601 149.763 21.3406C149.761 21.0849 149.761 20.8293 149.761 20.5736C149.76 20.3945 149.759 20.2154 149.758 20.0362C149.755 19.5661 149.754 19.096 149.753 18.6259C149.751 17.8736 149.747 17.1212 149.743 16.3689C149.742 16.1072 149.741 15.8455 149.741 15.5838C149.74 15.4222 149.74 15.2605 149.739 15.0989C149.739 15.027 149.739 14.9551 149.739 14.881C149.734 14.2449 149.684 13.5558 149.322 13.0141C149.053 12.7647 148.834 12.6751 148.474 12.6542C147.944 12.6797 147.494 12.8611 147.123 13.2439C146.487 14.1067 146.524 15.1597 146.53 16.1798C146.53 16.3165 146.53 16.4531 146.53 16.5898C146.53 16.8745 146.531 17.1592 146.532 17.4439C146.534 17.8072 146.534 18.1705 146.533 18.5338C146.533 18.8153 146.534 19.0969 146.534 19.3785C146.535 19.5124 146.535 19.6463 146.535 19.7802C146.5 20.8895 146.5 20.8895 146.854 21.9148C147.125 22.1723 147.438 22.3158 147.768 22.4835C148.036 22.6771 148.08 22.787 148.138 23.1099C148.128 23.3326 148.111 23.5368 148.079 23.7557C148.072 23.8117 148.065 23.8678 148.058 23.9256C148.02 24.2052 147.981 24.3702 147.822 24.6085C147.456 24.7032 147.085 24.699 146.709 24.6988C146.615 24.6992 146.615 24.6992 146.52 24.6996C146.315 24.7003 146.11 24.7005 145.905 24.7006C145.762 24.7008 145.619 24.7011 145.475 24.7014C145.176 24.7019 144.876 24.702 144.576 24.702C144.193 24.702 143.81 24.703 143.427 24.7044C143.131 24.7053 142.836 24.7054 142.54 24.7054C142.399 24.7055 142.258 24.7058 142.116 24.7064C141.918 24.7072 141.721 24.707 141.523 24.7065C141.465 24.7069 141.407 24.7074 141.348 24.7078C140.973 24.7056 140.668 24.6629 140.32 24.5296C140.212 24.2828 140.212 24.2828 140.162 23.9775C140.145 23.8759 140.128 23.7743 140.111 23.6697C140.08 23.33 140.082 23.0499 140.162 22.7155C140.525 22.3559 140.942 22.1667 141.426 22.0057C141.785 21.1033 141.696 20.0443 141.691 19.0932C141.691 18.9196 141.691 18.7461 141.692 18.5725C141.692 18.2108 141.691 17.849 141.689 17.4873C141.688 17.025 141.688 16.5627 141.688 16.1003C141.688 15.7427 141.688 15.3851 141.687 15.0275C141.687 14.857 141.687 14.6866 141.687 14.5161C141.687 14.2778 141.686 14.0395 141.685 13.8012C141.685 13.7317 141.685 13.6623 141.685 13.5907C141.681 13.0685 141.644 12.5484 141.382 12.0873C141.151 11.8747 140.908 11.7391 140.63 11.5956C140.478 11.5155 140.478 11.5155 140.399 11.4366C140.352 10.8791 140.348 10.2786 140.636 9.7803C140.889 9.69623 141.071 9.69092 141.336 9.68997C141.431 9.68946 141.526 9.68896 141.624 9.68844C141.727 9.68836 141.83 9.68827 141.936 9.68818C142.043 9.68792 142.15 9.68766 142.256 9.68738C142.48 9.68691 142.704 9.68676 142.927 9.68681C143.213 9.68682 143.5 9.68574 143.786 9.68438C144.006 9.6835 144.227 9.68335 144.447 9.68339C144.604 9.68325 144.76 9.68239 144.917 9.68153C145.013 9.68177 145.108 9.68202 145.207 9.68227C145.291 9.68215 145.375 9.68204 145.461 9.68192C145.701 9.70238 145.871 9.74931 146.085 9.85917C146.187 10.0443 146.187 10.0443 146.258 10.2585C146.336 10.5529 146.336 10.5529 146.559 10.7268C146.773 10.6116 146.981 10.4918 147.19 10.3669C149.043 9.29654 151.423 8.82711 153.241 10.224Z" fill="#9CA3AF"/>
<path d="M137.283 11.306C138.266 12.1897 139.138 13.3472 139.222 14.712C139.201 15.2873 139.008 15.7553 138.608 16.1693C136.818 17.7099 134.252 18.3657 132.051 19.0786C131.104 19.322 131.104 19.322 130.292 19.7972C130.284 20.2239 130.361 20.4608 130.632 20.793C131.273 21.4495 132.067 21.7236 132.974 21.7673C134.676 21.786 136.086 21.1155 137.328 19.9925C137.665 19.7044 137.911 19.6889 138.346 19.7183C138.811 19.8793 139.154 20.2271 139.373 20.6648C139.45 21.2279 139.383 21.6452 139.063 22.1162C137.655 23.8771 135.641 24.7996 133.425 25.0571C131.306 25.237 129.105 24.7939 127.42 23.4466C125.745 22.0061 124.964 20.1532 124.764 17.9831C124.609 15.6776 125.197 13.4313 126.706 11.6467C129.499 8.55901 134.253 8.65018 137.283 11.306ZM130.255 12.7507C129.644 13.6843 129.486 14.8094 129.473 15.9028C129.472 15.9617 129.47 16.0205 129.469 16.0811C129.473 16.4567 129.531 16.7227 129.739 17.0366C130.124 17.2825 130.505 17.169 130.931 17.0816C131.096 17.0424 131.259 16.9989 131.422 16.9528C131.482 16.9359 131.542 16.9191 131.604 16.9017C132.086 16.7604 132.557 16.593 133.026 16.4106C133.09 16.386 133.155 16.3615 133.221 16.3361C133.718 16.136 134.238 15.8932 134.515 15.4151C134.684 14.6278 134.511 13.8833 134.115 13.19C133.712 12.585 133.241 12.0588 132.503 11.9099C131.578 11.8032 130.845 12.0058 130.255 12.7507Z" fill="#9CA3AF"/>
<path d="M105.54 11.0581C106.61 11.9551 107.569 13.1587 107.725 14.59C107.753 15.1648 107.571 15.5995 107.214 16.0458C106.77 16.5166 106.221 16.815 105.655 17.1155C105.517 17.1892 105.517 17.1892 105.377 17.2643C103.605 18.1674 101.633 18.7623 99.743 19.3692C99.6638 19.3949 99.6638 19.3949 99.583 19.4211C99.4408 19.4672 99.2985 19.5127 99.1561 19.5582C98.935 19.6258 98.935 19.6258 98.7849 19.7972C98.806 20.3451 99.0066 20.6575 99.3969 21.0296C100.245 21.6952 101.231 21.831 102.279 21.7197C103.7 21.5453 104.726 20.9387 105.813 20.0338C106.056 19.8344 106.234 19.7261 106.553 19.6789C107.012 19.742 107.344 19.9002 107.664 20.2359C107.848 20.523 107.88 20.7493 107.886 21.0838C107.889 21.1932 107.889 21.1932 107.892 21.3047C107.797 22.138 106.94 22.8117 106.344 23.3335C104.501 24.793 102.183 25.2628 99.8806 25.0324C97.8253 24.7875 96.0551 23.8697 94.7577 22.2423C93.3221 20.1794 93.0032 17.7255 93.4301 15.2817C93.7073 13.9496 94.2724 12.7906 95.1525 11.7521C95.1887 11.7045 95.2248 11.6569 95.262 11.6079C96.2925 10.2851 98.0941 9.54597 99.7094 9.332C101.811 9.1303 103.889 9.74041 105.54 11.0581ZM98.8787 12.6247C98.132 13.6934 97.8729 15.1194 97.9953 16.4056C98.0561 16.6959 98.1163 16.9593 98.3758 17.1325C98.9095 17.3241 99.5843 17.066 100.103 16.9035C100.171 16.8826 100.239 16.8616 100.309 16.8401C101.731 16.4114 101.731 16.4114 102.931 15.5775C103.174 15.0112 103.114 14.3987 102.921 13.8225C102.603 13.0594 102.112 12.3445 101.336 11.9937C100.42 11.7076 99.5045 11.8853 98.8787 12.6247Z" fill="#9CA3AF"/>
<path d="M64.2635 10.9742C64.3201 11.0227 64.3768 11.0712 64.4353 11.1211C64.4993 11.1737 64.5633 11.2263 64.6293 11.2804C65.6055 12.1117 66.4327 13.2422 66.5898 14.541C66.628 15.1707 66.4219 15.6182 66.0343 16.1065C64.3127 17.8609 61.1513 18.5442 58.8711 19.2811C58.8012 19.3038 58.7314 19.3266 58.6594 19.35C58.5275 19.3929 58.3954 19.4354 58.2633 19.4774C57.9233 19.584 57.9233 19.584 57.6443 19.7972C57.6443 20.3047 57.8486 20.6205 58.197 20.9803C58.9382 21.6076 59.8408 21.8047 60.7936 21.7521C62.2957 21.6236 63.5685 21.0912 64.6549 20.0246C64.8895 19.8257 65.0932 19.7252 65.4023 19.7091C65.9264 19.7669 66.2403 19.9164 66.592 20.3247C66.8163 20.7645 66.8436 21.1213 66.7351 21.6014C66.1157 23.0033 64.4832 23.9913 63.1123 24.5448C60.8131 25.3698 58.282 25.2451 56.0567 24.2637C54.4368 23.4395 53.17 21.9917 52.5905 20.2704C51.8875 17.9862 51.9649 15.3 53.0406 13.1389C53.7078 11.9573 54.6297 10.9094 55.8281 10.2535C55.9036 10.2115 55.9792 10.1695 56.057 10.1263C58.6435 8.75992 61.9991 9.10935 64.2635 10.9742ZM57.6841 12.7667C56.9706 13.7388 56.7793 15.1419 56.8546 16.3268C56.9117 16.6431 56.9698 16.8255 57.1705 17.0761C57.7437 17.3623 58.4984 17.05 59.0755 16.869C59.1939 16.8323 59.1939 16.8323 59.3146 16.7948C60.714 16.398 60.714 16.398 61.8294 15.538C62.1031 14.9149 61.9653 14.2545 61.7378 13.6303C61.4203 12.9378 60.974 12.3509 60.2699 12.0232C59.218 11.6681 58.364 11.9208 57.6841 12.7667Z" fill="#9CA3AF"/>
<path d="M68.6614 9.68871C68.7393 9.68812 68.7393 9.68812 68.8187 9.68752C68.9902 9.68637 69.1617 9.68583 69.3333 9.6854C69.4525 9.68494 69.5718 9.68449 69.6911 9.68403C69.9412 9.6832 70.1912 9.68274 70.4413 9.68247C70.7616 9.68204 71.0819 9.68014 71.4022 9.6779C71.6486 9.67643 71.895 9.67602 72.1414 9.6759C72.2595 9.67566 72.3775 9.67502 72.4956 9.67399C72.6609 9.67264 72.826 9.67279 72.9912 9.6733C73.0852 9.67302 73.1792 9.67273 73.276 9.67243C73.5471 9.70514 73.6393 9.74894 73.8321 9.93804C73.8717 10.1275 73.8717 10.1275 73.872 10.3562C73.8729 10.443 73.8737 10.5298 73.8746 10.6192C73.874 10.7144 73.8733 10.8097 73.8727 10.9078C73.8732 11.0082 73.8738 11.1085 73.8744 11.2118C73.8756 11.4303 73.8758 11.6487 73.8753 11.8672C73.8744 12.2138 73.8758 12.5604 73.8775 12.907C73.8799 13.4566 73.8808 14.0062 73.8811 14.5559C73.8816 15.5362 73.8839 16.5165 73.8878 17.4969C73.8891 17.8402 73.8895 18.1834 73.8893 18.5267C73.7515 20.4754 73.7515 20.4754 74.4638 22.1634C74.6273 22.2431 74.7936 22.3171 74.9623 22.3852C75.3795 22.6123 75.3795 22.6123 75.4571 22.8635C75.5244 23.3985 75.5001 24.0448 75.2534 24.5296C74.879 24.6972 74.5207 24.7099 74.1172 24.7077C74.0525 24.708 73.9877 24.7083 73.921 24.7086C73.7079 24.7093 73.4949 24.7088 73.2818 24.7083C73.1331 24.7084 72.9845 24.7085 72.8358 24.7087C72.5246 24.709 72.2134 24.7086 71.9023 24.7079C71.504 24.707 71.1057 24.7075 70.7074 24.7085C70.4006 24.709 70.0937 24.7089 69.7868 24.7084C69.64 24.7083 69.4931 24.7085 69.3463 24.7088C69.1409 24.7092 68.9355 24.7086 68.7301 24.7077C68.6697 24.7081 68.6094 24.7084 68.5473 24.7087C68.2013 24.706 67.9099 24.6752 67.5939 24.5296C67.4905 24.2825 67.4905 24.2825 67.4359 23.9775C67.4171 23.8768 67.3983 23.7762 67.3789 23.6725C67.3432 23.3455 67.3137 23.027 67.4359 22.7155C67.6864 22.4483 68.0099 22.306 68.3382 22.1551C68.6137 22.0247 68.7339 21.8973 68.8573 21.6113C68.9265 21.3801 68.9465 21.1731 68.9474 20.9322C68.9478 20.8595 68.9483 20.7869 68.9487 20.7121C68.9488 20.6329 68.9489 20.5538 68.949 20.4723C68.9494 20.3885 68.9498 20.3047 68.9502 20.2184C68.9513 19.9411 68.9519 19.6638 68.9523 19.3865C68.9528 19.1938 68.9532 19.001 68.9537 18.8083C68.9545 18.404 68.955 17.9998 68.9552 17.5955C68.9557 17.0778 68.9576 16.5601 68.9598 16.0424C68.9613 15.6442 68.9617 15.246 68.9618 14.8478C68.9621 14.6569 68.9627 14.4661 68.9637 14.2752C68.9651 14.0081 68.9649 13.741 68.9644 13.4738C68.9651 13.3952 68.9659 13.3165 68.9666 13.2355C68.9639 12.7854 68.9189 12.464 68.6994 12.0676C68.5143 11.91 68.5143 11.91 68.2996 11.8063C67.9167 11.6014 67.9167 11.6014 67.7518 11.4366C67.7031 10.8854 67.6826 10.2938 67.9097 9.78029C68.1763 9.69154 68.3804 9.69032 68.6614 9.68871Z" fill="#9CA3AF"/>
<path d="M72.3385 4.00281C72.3884 4.03534 72.4383 4.06788 72.4897 4.1014C72.5444 4.13393 72.5992 4.16647 72.6556 4.19999C73.174 4.54128 73.4861 5.00231 73.6649 5.59414C73.8324 6.41072 73.7135 7.09331 73.2553 7.79088C72.8387 8.3364 72.3118 8.61892 71.6605 8.81408C70.797 8.90033 70.0244 8.75133 69.3311 8.20281C68.7335 7.68889 68.5208 7.02912 68.4279 6.26056C68.5347 5.4375 68.7689 4.80808 69.4295 4.27332C70.2336 3.71258 71.4422 3.50507 72.3385 4.00281Z" fill="#9CA3AF"/>
<path d="M155.643 3.9181C156.25 4.3292 156.657 4.78351 156.928 5.46691C157.065 6.20408 157.025 6.92593 156.646 7.58694C156.226 8.18892 155.658 8.61979 154.929 8.75494C154.046 8.84472 153.321 8.6697 152.625 8.10978C152.086 7.57142 151.869 6.92567 151.842 6.17954C151.868 5.44715 152.163 4.76613 152.698 4.25917C153.503 3.64117 154.716 3.41458 155.643 3.9181ZM152.811 5.06361C152.464 5.59117 152.398 6.08572 152.481 6.70424C152.651 7.24256 152.942 7.67133 153.429 7.96621C154.015 8.24399 154.558 8.29406 155.171 8.07959C155.748 7.82452 156.074 7.48867 156.306 6.90142C156.519 6.22333 156.428 5.75259 156.113 5.12677C155.819 4.6682 155.441 4.42693 154.929 4.25917C154.085 4.1215 153.333 4.37439 152.811 5.06361Z" fill="#9CA3AF"/>
<path d="M153.271 4.89014C153.551 4.88689 153.831 4.88363 154.12 4.88028C154.207 4.87884 154.295 4.87741 154.386 4.87593C154.455 4.87554 154.525 4.87514 154.597 4.87473C154.668 4.87391 154.739 4.87308 154.813 4.87223C155.021 4.89138 155.147 4.93791 155.324 5.04789C155.506 5.28436 155.518 5.5457 155.513 5.83939C155.46 6.09748 155.281 6.22389 155.087 6.38873C155.087 6.63387 155.229 6.77862 155.363 6.98028C155.64 7.39656 155.64 7.39656 155.64 7.57183C155.379 7.57183 155.118 7.57183 154.85 7.57183C154.821 7.51195 154.793 7.45206 154.763 7.39036C154.723 7.31197 154.684 7.23358 154.643 7.15282C154.604 7.07504 154.566 6.99726 154.526 6.91712C154.364 6.6515 154.364 6.6515 153.902 6.46761C153.902 6.832 153.902 7.19639 153.902 7.57183C153.694 7.57183 153.485 7.57183 153.271 7.57183C153.271 6.68687 153.271 5.80191 153.271 4.89014ZM153.902 5.36338C153.902 5.5716 153.902 5.77983 153.902 5.99437C154.016 6.00078 154.129 6.00536 154.243 6.00915C154.306 6.0119 154.369 6.01464 154.434 6.01747C154.619 6.00873 154.619 6.00873 154.756 5.88561C154.869 5.76155 154.869 5.76155 154.835 5.59014C154.783 5.42729 154.783 5.4273 154.613 5.36338C154.491 5.3579 154.37 5.35671 154.248 5.35845C154.183 5.35916 154.119 5.35987 154.052 5.36061C154.003 5.36152 153.953 5.36244 153.902 5.36338Z" fill="#9CA3AF"/>
<path d="M29.138 11.1211C29.0188 11.448 28.7888 11.5948 28.5112 11.7817C28.4105 11.8515 28.3098 11.9214 28.2093 11.9915C28.1552 12.029 28.1011 12.0666 28.0453 12.1052C27.7411 12.3192 27.443 12.5413 27.1442 12.7627C26.6528 13.1256 26.1596 13.4857 25.6636 13.8423C24.9866 14.3292 24.3147 14.8229 23.6438 15.3181C23.4486 15.4621 23.2532 15.6058 23.0577 15.7494C22.9605 15.8208 22.9605 15.8208 22.8614 15.8937C22.7339 15.9874 22.6064 16.081 22.4789 16.1746C22.2022 16.378 21.9262 16.5823 21.653 16.7905C21.6087 16.8241 21.5644 16.8578 21.5188 16.8925C21.4038 16.9802 21.2892 17.0685 21.1746 17.1568C21.0046 17.2732 21.0046 17.2732 20.8467 17.2732C20.8614 17.3186 20.876 17.3639 20.8911 17.4107C21.6803 19.8542 22.4636 22.2995 23.2352 24.7486C23.264 24.8398 23.2927 24.9311 23.3223 25.0251C23.3757 25.1943 23.429 25.3636 23.4822 25.5329C23.6105 25.9401 23.742 26.3455 23.8831 26.7485C23.9372 26.9328 23.9448 27.0994 23.9263 27.2901C23.7684 27.2113 23.7684 27.2113 23.71 27.0816C23.6825 26.9967 23.6825 26.9967 23.6545 26.9101C23.6333 26.8453 23.612 26.7805 23.5901 26.7138C23.5673 26.6422 23.5445 26.5706 23.521 26.4968C23.4844 26.3843 23.4844 26.3843 23.4471 26.2696C23.3661 26.0201 23.2859 25.7702 23.2058 25.5204C23.1494 25.3462 23.093 25.1721 23.0366 24.9979C22.8884 24.5399 22.741 24.0817 22.5939 23.6234C22.5067 23.3518 22.4194 23.0801 22.332 22.8085C22.0416 21.9052 21.7517 21.0017 21.4637 20.0977C21.3317 19.6838 21.1986 19.2703 21.0642 18.8572C21.0349 18.7668 21.0056 18.6765 20.9754 18.5834C20.9187 18.4083 20.8616 18.2334 20.8043 18.0586C20.7788 17.9799 20.7534 17.9013 20.7272 17.8203C20.6931 17.7159 20.6931 17.7159 20.6584 17.6094C20.6098 17.431 20.6098 17.431 20.6098 17.1944C20.7991 17.0441 20.9868 16.9093 21.1872 16.7754C21.3114 16.6903 21.4353 16.605 21.5592 16.5196C21.6241 16.4751 21.6889 16.4306 21.7557 16.3848C22.0742 16.163 22.3857 15.9319 22.6974 15.7007C23.1838 15.3409 23.672 14.984 24.1632 14.631C24.6525 14.2792 25.1392 13.9241 25.6241 13.5662C26.1736 13.1606 26.7257 12.7587 27.2805 12.3604C27.5693 12.1529 27.8569 11.944 28.1423 11.7318C28.2244 11.6709 28.2244 11.6709 28.3082 11.6088C28.4115 11.532 28.5146 11.4549 28.6174 11.3774C28.9626 11.1211 28.9626 11.1211 29.138 11.1211Z" fill="#9CA3AF"/>
<path d="M14.9243 0C15.0025 0 15.0807 0 15.1612 0C15.4411 0.836308 15.7208 1.6727 16.0002 2.50916C16.0312 2.60192 16.0312 2.60192 16.0628 2.69655C16.6954 4.59028 17.3245 6.48506 17.9371 8.38536C18.0312 8.67702 18.1288 8.96714 18.2298 9.25652C18.3198 9.54366 18.3198 9.54366 18.3198 9.85916C18.2677 9.85916 18.2156 9.85916 18.1619 9.85916C16.3709 4.50786 16.3709 4.50786 15.6992 2.44507C15.6773 2.37798 15.6554 2.31088 15.6329 2.24175C15.3901 1.49645 15.1521 0.750041 14.9243 0Z" fill="#9CA3AF"/>
<path d="M14.2926 21.8479C14.2926 21.926 14.2926 22.0041 14.2926 22.0845C14.1774 22.1965 14.1774 22.1965 14.0144 22.3131C13.954 22.3569 13.8937 22.4007 13.8315 22.4458C13.7324 22.5158 13.7324 22.5158 13.6313 22.5873C13.5634 22.6362 13.4956 22.6851 13.4257 22.7355C13.2843 22.8374 13.1425 22.9389 13.0006 23.0401C12.8086 23.1771 12.6172 23.315 12.4261 23.4534C12.0164 23.7501 11.6056 24.0454 11.1949 24.3406C10.464 24.8662 9.73605 25.3955 9.01171 25.9301C8.51708 26.2947 8.01987 26.6557 7.5206 27.014C7.26361 27.1985 7.00728 27.3834 6.75426 27.5733C6.67679 27.6311 6.59933 27.689 6.51952 27.7486C6.42196 27.8226 6.42196 27.8226 6.32242 27.898C6.15924 28 6.15924 28 5.92235 28C5.92235 27.9479 5.92235 27.8959 5.92235 27.8423C6.11367 27.6959 6.30582 27.5587 6.50471 27.4232C6.62887 27.3373 6.75297 27.2512 6.87702 27.1651C6.9735 27.0983 6.9735 27.0983 7.07193 27.0302C7.37399 26.8196 7.67231 26.604 7.9705 26.388C8.02932 26.3455 8.08814 26.303 8.14875 26.2591C8.26824 26.1727 8.38772 26.0863 8.50717 25.9999C8.80349 25.7855 9.10016 25.5717 9.3968 25.3577C9.51525 25.2723 9.6337 25.1869 9.75214 25.1014C9.98904 24.9305 10.2259 24.7596 10.4628 24.5887C10.5215 24.5464 10.5801 24.5041 10.6405 24.4605C10.7589 24.3752 10.8773 24.2898 10.9957 24.2044C11.2929 23.99 11.5901 23.7755 11.887 23.5606C12.6846 22.9837 13.4868 22.4134 14.2926 21.8479Z" fill="#9CA3AF"/>
</svg>
