<svg width="133" height="32" viewBox="0 0 133 32" fill="none" xmlns="http://www.w3.org/2000/svg">
<path d="M35.2777 23.104H27.4018L26.0141 27.0599H22.5068L29.3459 9.11797H33.3335L40.2997 27.0599H36.6908L35.2777 23.104ZM34.241 20.2063L33.5344 18.2653C32.9041 16.6285 32.0451 14.2334 31.3132 12.1171C30.5812 14.2334 29.7223 16.6285 29.1174 18.2653L28.4362 20.2063H34.241Z" fill="#9CA3AF"/>
<path d="M53.0449 21.5411H43.3033C43.5296 23.8602 44.8434 24.893 46.686 24.893C48.2007 24.893 49.1843 24.1875 49.6645 23.028H52.7193C52.0636 25.6744 49.7915 27.3619 46.6629 27.3619C42.8254 27.3619 40.177 24.7154 40.177 20.559C40.177 16.4026 42.7515 13.7562 46.6121 13.7562C50.4727 13.7562 53.0472 16.6539 53.0472 20.7873V21.5434L53.0449 21.5411ZM43.3287 19.3234H49.8654C49.6138 17.4838 48.4777 16.2228 46.5844 16.2228C44.8942 16.2228 43.6312 17.1795 43.3287 19.3234Z" fill="#9CA3AF"/>
<path d="M62.2097 13.906V16.829H61.4016C59.0557 16.829 57.6403 17.9886 57.6403 20.4575V27.0598H54.4608V14.0581H57.541V16.3772C58.1713 14.9157 59.4089 13.8575 61.427 13.8575C61.7041 13.8575 61.9327 13.8575 62.2097 13.9083V13.906Z" fill="#9CA3AF"/>
<path d="M62.2462 20.559C62.2462 16.4257 64.9223 13.7562 68.8845 13.7562C72.8467 13.7562 75.4974 16.428 75.4974 20.559C75.4974 24.6901 72.8467 27.3619 68.8845 27.3619C64.9223 27.3619 62.2462 24.6901 62.2462 20.559ZM72.2671 20.559C72.2671 17.8135 70.9302 16.375 68.8845 16.375C66.8387 16.375 65.5018 17.8112 65.5018 20.559C65.5018 23.3069 66.8133 24.7431 68.8845 24.7431C70.9556 24.7431 72.2671 23.3069 72.2671 20.559Z" fill="#9CA3AF"/>
<path d="M76.1049 22.9266H79.2104C79.3882 24.5656 80.2195 25.1442 82.1128 25.1442C84.0062 25.1442 84.6873 24.5656 84.6873 23.5813C84.6873 22.6499 84.1078 22.1958 82.1382 21.8684L80.6489 21.6172C77.8481 21.1377 76.3843 19.9044 76.3843 17.6867C76.3843 15.2431 78.303 13.7562 81.7849 13.7562C85.7979 13.7562 87.4396 15.4944 87.5389 18.1662H84.5349C84.4587 16.5041 83.4243 16.0246 81.7849 16.0246C80.2449 16.0246 79.5129 16.6032 79.5129 17.5368C79.5129 18.4705 80.2703 18.8716 81.6833 19.1252L83.3227 19.3764C86.4537 19.9297 87.8414 21.0893 87.8414 23.3323C87.8414 25.9534 85.6963 27.4149 82.062 27.4149C78.4277 27.4149 76.3081 26.0802 76.1049 22.9289V22.9266Z" fill="#9CA3AF"/>
<path d="M101.952 20.559C101.952 24.6924 99.7049 27.3619 96.1214 27.3619C94.3042 27.3619 92.9673 26.6311 92.083 25.3701V31.9978H88.9036V14.0582H91.9583V15.9231C92.8427 14.563 94.2303 13.7562 96.1237 13.7562C99.7072 13.7562 101.954 16.428 101.954 20.559H101.952ZM98.7213 20.4576C98.7213 17.712 97.4329 16.375 95.3641 16.375C93.2952 16.375 92.0068 17.8112 92.0068 20.559C92.0068 23.3069 93.2929 24.7431 95.3641 24.7431C97.4352 24.7431 98.7213 23.2055 98.7213 20.4599V20.4576Z" fill="#9CA3AF"/>
<path d="M103.316 14.0582H106.495V27.06H103.316V14.0582ZM103.341 9.39468H106.47V12.3685H103.341V9.39468Z" fill="#9CA3AF"/>
<path d="M113.537 21.0109L111.568 22.9772V27.0599H108.439V9.11797H111.568V19.4502L116.867 14.0582H120.654L115.731 18.973L120.956 27.0622H117.322L113.535 21.0155L113.537 21.0109Z" fill="#9CA3AF"/>
<path d="M132.998 21.5411H123.256C123.482 23.8602 124.796 24.893 126.639 24.893C128.153 24.893 129.137 24.1875 129.617 23.028H132.672C132.016 25.6744 129.744 27.3619 126.616 27.3619C122.778 27.3619 120.13 24.7154 120.13 20.559C120.13 16.4026 122.704 13.7562 126.565 13.7562C130.426 13.7562 133 16.6539 133 20.7873V21.5434L132.998 21.5411ZM123.279 19.3234H129.816C129.564 17.4838 128.428 16.2228 126.535 16.2228C124.845 16.2228 123.582 17.1795 123.279 19.3234Z" fill="#9CA3AF"/>
<path d="M7.90051 14.6598C8.45466 15.4021 9.48677 16.4648 11.4009 17.924C11.1908 8.66378 8.81947 2.00847 8.0529 0.157335C7.96516 -0.0524449 7.6673 -0.0524449 7.57956 0.157335C6.81529 2.00847 4.44167 8.673 4.23155 17.924C6.14569 16.4648 7.1778 15.4021 7.73195 14.6598C7.77351 14.6022 7.85894 14.6022 7.90051 14.6598Z" fill="#9CA3AF"/>
<path d="M4.23135 17.9263C4.03278 18.0762 3.82728 18.2306 3.61024 18.392C-0.0240779 21.0569 -0.0102242 25.2825 0.00132064 26.8385C0.00132064 26.9561 0.0982974 27.0529 0.218364 27.0529H4.54306C4.32602 25.7274 4.20595 22.5991 4.20595 20.1048C4.20595 19.3625 4.21519 18.6364 4.23135 17.9263Z" fill="#9CA3AF"/>
<path d="M12.0192 18.3897C11.8022 18.2307 11.5967 18.0762 11.3981 17.9264C11.4143 18.6364 11.4235 19.3625 11.4235 20.1048C11.4235 22.5991 11.3035 25.7274 11.0864 27.0529H15.4111C15.5312 27.0529 15.6258 26.9584 15.6282 26.8385C15.6397 25.2825 15.6536 21.0592 12.0215 18.3897H12.0192Z" fill="#9CA3AF"/>
<path d="M8.05964 31.8225C8.60455 30.1834 9.64359 28.6781 11.089 27.0529H4.54077C5.98618 28.6781 7.02522 30.1834 7.57014 31.8225C7.60477 31.9285 7.70175 32 7.81489 32C7.92572 32 8.02269 31.9285 8.05964 31.8225Z" fill="#9CA3AF"/>
<path d="M7.90051 14.6598C8.45466 15.4021 9.48677 16.4648 11.4009 17.924C11.1908 8.66378 8.81947 2.00847 8.0529 0.157335C7.96516 -0.0524449 7.6673 -0.0524449 7.57956 0.157335C6.81529 2.00847 4.44167 8.673 4.23155 17.924C6.14569 16.4648 7.1778 15.4021 7.73195 14.6598C7.77351 14.6022 7.85894 14.6022 7.90051 14.6598Z" fill="#9CA3AF"/>
<path d="M4.23135 17.9263C4.03278 18.0762 3.82728 18.2306 3.61024 18.392C-0.0240779 21.0569 -0.0102242 25.2825 0.00132064 26.8385C0.00132064 26.9561 0.0982974 27.0529 0.218364 27.0529H4.54306C4.32602 25.7274 4.20595 22.5991 4.20595 20.1048C4.20595 19.3625 4.21519 18.6364 4.23135 17.9263Z" fill="#9CA3AF"/>
<path d="M12.0192 18.3897C11.8022 18.2307 11.5967 18.0762 11.3981 17.9264C11.4143 18.6364 11.4235 19.3625 11.4235 20.1048C11.4235 22.5991 11.3035 25.7274 11.0864 27.0529H15.4111C15.5312 27.0529 15.6258 26.9584 15.6282 26.8385C15.6397 25.2825 15.6536 21.0592 12.0215 18.3897H12.0192Z" fill="#9CA3AF"/>
<path d="M8.05964 31.8225C8.60455 30.1834 9.64359 28.6781 11.089 27.0529H4.54077C5.98618 28.6781 7.02522 30.1834 7.57014 31.8225C7.60477 31.9285 7.70175 32 7.81489 32C7.92572 32 8.02269 31.9285 8.05964 31.8225Z" fill="#9CA3AF"/>
</svg>
