<svg width="105" height="38" viewBox="0 0 105 38" fill="none" xmlns="http://www.w3.org/2000/svg">
<path d="M18.2144 0.161754C18.2598 0.20716 18.2598 0.20716 18.2655 0.302762C18.2655 0.345365 18.2655 0.387969 18.2654 0.431863C18.2655 0.480827 18.2656 0.52979 18.2657 0.580238C18.2656 0.634696 18.2655 0.689155 18.2653 0.745265C18.2654 0.831263 18.2654 0.831263 18.2654 0.918999C18.2655 1.07886 18.2654 1.23873 18.2651 1.39859C18.2649 1.57071 18.265 1.74284 18.265 1.91496C18.2651 2.21341 18.2649 2.51186 18.2647 2.81032C18.2643 3.24183 18.2642 3.67335 18.2641 4.10487C18.264 4.80491 18.2637 5.50494 18.2633 6.20498C18.2629 6.88517 18.2625 7.56537 18.2623 8.24557C18.2623 8.30841 18.2623 8.30841 18.2623 8.37253C18.2623 8.5827 18.2622 8.79287 18.2621 9.00305C18.2617 10.7479 18.2609 12.4927 18.2598 14.2375C18.3328 14.1792 18.4058 14.121 18.4787 14.0627C18.5194 14.0303 18.56 13.9979 18.6019 13.9645C18.7225 13.8679 18.8425 13.7707 18.962 13.6727C19.0036 13.6386 19.0453 13.6045 19.0883 13.5693C19.1301 13.5351 19.1719 13.5009 19.2149 13.4656C19.2983 13.3975 19.3817 13.3293 19.4651 13.2612C19.5064 13.2275 19.5476 13.1938 19.5902 13.1591C27.4696 6.72285 27.4696 6.72285 27.5945 6.62087C27.6785 6.55222 27.7625 6.48352 27.8464 6.41477C27.9297 6.34659 28.0132 6.27859 28.0968 6.2108C28.1807 6.1421 28.2638 6.07241 28.3462 6.00186C28.3862 5.96821 28.4262 5.93455 28.4674 5.89988C28.5029 5.86932 28.5385 5.83877 28.5752 5.80729C28.6749 5.74663 28.6749 5.74663 28.7683 5.75142C29.2872 5.98965 29.6502 6.56431 29.8975 7.05435C29.974 7.27313 29.974 7.27313 29.9028 7.42664C29.8035 7.52333 29.6925 7.60032 29.5788 7.67921C29.5122 7.72711 29.4457 7.77512 29.3793 7.82323C29.3283 7.85988 29.3283 7.85988 29.2763 7.89728C29.1186 8.013 28.9663 8.1352 28.8141 8.25813C28.7581 8.30312 28.7021 8.34811 28.6461 8.3931C28.595 8.43419 28.544 8.47528 28.4929 8.51637C28.4126 8.58095 28.3321 8.64532 28.2513 8.70934C28.2052 8.74622 28.2052 8.74622 28.1581 8.78384C28.0836 8.83421 28.0836 8.83421 27.9927 8.83421C28.0201 8.86763 28.0475 8.90105 28.0758 8.93548C28.1122 8.97979 28.1485 9.0241 28.1859 9.06975C28.2218 9.11347 28.2577 9.1572 28.2947 9.20224C28.3918 9.32118 28.4881 9.4407 28.5839 9.5607C28.8096 9.48806 28.9797 9.35522 29.1666 9.21448C29.1981 9.19107 29.2296 9.16766 29.2621 9.14353C29.3394 9.08605 29.4165 9.02827 29.4935 8.97043C29.6733 9.05193 29.7605 9.15236 29.8829 9.30813C30.0157 9.48015 30.0157 9.48015 30.1684 9.63324C30.2212 9.69691 30.2212 9.69691 30.2217 9.78223C30.1548 9.92223 30.0562 10.0009 29.9398 10.1027C29.8948 10.1424 29.8497 10.182 29.8033 10.2228C29.6708 10.3365 29.5383 10.4497 29.4025 10.5596C29.5037 10.7384 29.6208 10.8928 29.7522 11.0506C29.7889 11.0949 29.8257 11.1392 29.8636 11.1848C29.8915 11.2183 29.9195 11.2517 29.9483 11.2861C30.101 11.2587 30.1884 11.2056 30.3072 11.1071C30.3394 11.0807 30.3717 11.0542 30.4049 11.0269C30.4381 10.9991 30.4713 10.9713 30.5054 10.9427C30.5393 10.9148 30.5732 10.8868 30.6081 10.858C30.6916 10.7891 30.7749 10.7199 30.8579 10.6504C31.021 10.773 31.1478 10.8983 31.2729 11.0591C31.3031 11.0975 31.3332 11.1359 31.3642 11.1754C31.4387 11.2724 31.5125 11.3698 31.5856 11.4677C31.515 11.653 31.3826 11.7573 31.2331 11.8792C31.2069 11.901 31.1806 11.9228 31.1535 11.9453C30.9447 12.1177 30.7319 12.2849 30.518 12.4509C30.2974 12.6226 30.0813 12.7994 29.8659 12.9775C29.434 13.3337 29.434 13.3337 29.2462 13.4826C29.2163 13.5064 29.1863 13.5301 29.1554 13.5546C29.0842 13.6018 29.0842 13.6018 28.9932 13.6018C28.7381 12.7777 28.4829 11.9536 28.2201 11.1045C27.8669 11.3555 27.8669 11.3555 27.6288 11.6039C27.8539 12.3531 28.0791 13.1023 28.311 13.8742C28.1746 13.9196 28.1746 13.9196 28.0635 13.8736C28.0199 13.8497 27.9763 13.8257 27.9314 13.801C27.8826 13.7744 27.8338 13.7479 27.7836 13.7205C27.7316 13.6917 27.6796 13.6628 27.626 13.633C27.5725 13.6038 27.519 13.5747 27.4655 13.5457C27.2213 13.4126 26.9787 13.277 26.7382 13.1373C26.701 13.1158 26.6637 13.0944 26.6253 13.0723C26.5567 13.0326 26.4884 12.9922 26.4206 12.9512C26.2591 12.8507 26.2591 12.8507 26.0772 12.8522C26.0489 12.8748 26.0206 12.8974 25.9915 12.9207C25.9286 12.9644 25.9286 12.9644 25.8643 13.009C25.82 13.0417 25.7757 13.0744 25.73 13.108C25.6852 13.1409 25.6404 13.1738 25.5943 13.2077C25.5603 13.2329 25.5263 13.258 25.4912 13.2839C25.9957 13.5788 26.5102 13.8543 27.0253 14.13C27.2878 14.2705 27.5495 14.4125 27.8107 14.5553C27.7511 14.7338 27.6377 14.8012 27.4924 14.91C27.4339 14.9548 27.3755 14.9997 27.3172 15.0447C27.2709 15.0803 27.2709 15.0803 27.2237 15.1166C27.0626 15.2425 26.9052 15.3728 26.7476 15.5031C26.6824 15.5569 26.6171 15.6108 26.5519 15.6645C26.4535 15.7457 26.3551 15.8269 26.2567 15.9081C26.1609 15.9871 26.0649 16.0658 25.9688 16.1445C25.9405 16.1679 25.9122 16.1913 25.8831 16.2154C25.671 16.3886 25.4484 16.541 25.2184 16.6894C25.1043 16.5402 24.9907 16.3906 24.8772 16.241C24.8284 16.1772 24.8284 16.1772 24.7786 16.112C24.7479 16.0714 24.7171 16.0307 24.6854 15.9888C24.6568 15.9512 24.6282 15.9136 24.5988 15.8749C24.5361 15.7813 24.5361 15.7813 24.5361 15.6904C24.6368 15.6046 24.7379 15.5235 24.8431 15.4436C24.872 15.4213 24.9008 15.399 24.9305 15.3761C25.0711 15.2678 25.2124 15.1606 25.3548 15.0548C25.2898 14.8508 25.176 14.716 25.0307 14.5638C25.0095 14.541 24.9882 14.5182 24.9663 14.4947C24.9141 14.439 24.8616 14.3836 24.809 14.3283C24.6789 14.3887 24.5715 14.457 24.4601 14.5471C24.4299 14.5714 24.3997 14.5957 24.3686 14.6208C24.3376 14.646 24.3066 14.6712 24.2746 14.6972C24.2429 14.7228 24.2112 14.7484 24.1785 14.7747C24.1005 14.8376 24.0227 14.9007 23.9449 14.964C23.81 14.9047 23.7292 14.8477 23.639 14.7316C23.6174 14.704 23.5958 14.6765 23.5736 14.6481C23.5517 14.6193 23.5297 14.5906 23.5072 14.561C23.4737 14.5184 23.4737 14.5184 23.4396 14.475C23.3356 14.3407 23.239 14.213 23.1717 14.0558C23.4356 13.8161 23.7058 13.5897 23.9904 13.3748C23.9208 13.1626 23.8036 13.0105 23.6663 12.8384C23.6451 12.8113 23.6238 12.7842 23.6018 12.7562C23.5497 12.6898 23.4972 12.6236 23.4446 12.5575C23.1925 12.7401 22.9534 12.9351 22.7165 13.1368C22.5589 13.2709 22.4001 13.4032 22.2394 13.5337C22.0557 13.683 21.8741 13.8346 21.6936 13.9877C21.4731 14.1749 21.2501 14.3587 21.0256 14.5411C20.8832 14.658 20.7425 14.7767 20.6021 14.8958C20.3394 15.1186 20.0735 15.3371 19.8062 15.5542C19.7218 15.6233 19.6375 15.6923 19.5532 15.7614C19.3206 15.9514 19.0862 16.1392 18.8511 16.3261C19.0188 16.5047 19.2018 16.6547 19.3942 16.8062C19.5593 16.937 19.7225 17.07 19.8858 17.203C20.1142 17.3889 20.3441 17.5727 20.5765 17.7536C20.8494 17.966 21.1165 18.1852 21.383 18.4056C21.6142 18.5963 21.8482 18.7827 22.0848 18.9668C22.25 19.0955 22.413 19.2267 22.5748 19.3598C22.7696 19.52 22.968 19.6737 23.1717 19.8223C23.3056 19.697 23.4197 19.5719 23.5263 19.4226C23.5484 19.3924 23.5704 19.3622 23.5931 19.331C23.6384 19.2685 23.6827 19.2052 23.726 19.1413C23.7942 19.0499 23.8517 18.9802 23.9449 18.9142C24.2265 18.8758 24.4671 18.9918 24.6982 19.1407C24.9265 19.3288 25.1032 19.5696 25.2199 19.841C25.2174 20.0268 25.1012 20.136 24.9853 20.2707C24.9405 20.3245 24.8959 20.3783 24.8513 20.4321C24.8182 20.4717 24.8182 20.4717 24.7845 20.5121C24.6802 20.6411 24.5857 20.7762 24.4907 20.9121C24.6107 21.002 24.7308 21.0919 24.8545 21.1845C25.0035 21.1101 25.1222 21.0317 25.2533 20.9312C26.5752 19.9211 28.0988 19.4764 29.7604 19.6622C30.7808 19.8055 31.712 20.2533 32.4952 20.9121C32.5358 20.9457 32.5765 20.9794 32.6183 21.0141C33.7801 22.0136 34.3559 23.4596 34.4964 24.9532C34.565 25.999 34.3552 27.2153 33.803 28.1195C33.7766 28.1684 33.7503 28.2174 33.7232 28.2678C33.7742 28.4206 33.8062 28.4443 33.9323 28.5365C33.965 28.5606 33.9977 28.5848 34.0313 28.6096C34.0657 28.6345 34.1 28.6593 34.1354 28.6849C34.1699 28.7103 34.2044 28.7357 34.2399 28.7618C34.3252 28.8245 34.4107 28.8868 34.4964 28.9489C34.4232 29.4792 34.1858 29.8803 33.7687 30.2202C33.6162 30.3223 33.4882 30.4041 33.3011 30.399C33.1202 30.3367 32.9913 30.2245 32.8448 30.1039C32.8155 30.0802 32.7862 30.0566 32.7559 30.0323C32.6839 29.9742 32.6123 29.9156 32.5407 29.857C32.3703 29.9313 32.2388 30.0391 32.0944 30.1549C31.3431 30.7412 30.5185 31.1196 29.5845 31.3099C29.5343 31.3202 29.4842 31.3304 29.4326 31.341C28.0132 31.5853 26.4933 31.2921 25.2987 30.484C24.0334 29.5622 23.1746 28.2952 22.9246 26.7369C22.7482 25.4907 22.9402 24.2858 23.4446 23.1369C23.4701 23.0777 23.4956 23.0184 23.521 22.9591C23.5408 22.9129 23.5606 22.8667 23.5811 22.8191C23.476 22.7142 23.3709 22.6093 23.2627 22.5013C23.1007 22.5552 23.0732 22.6023 22.9752 22.7382C22.9472 22.7768 22.9191 22.8154 22.8901 22.8551C22.8611 22.8957 22.8321 22.9362 22.8022 22.978C22.7443 23.058 22.6864 23.1379 22.6285 23.2178C22.5901 23.2713 22.5901 23.2713 22.551 23.3258C22.4895 23.4094 22.4895 23.4094 22.444 23.4548C22.0958 23.4493 21.8532 23.3535 21.5799 23.1369C21.3838 22.9314 21.17 22.6914 21.1709 22.3934C21.2381 22.216 21.3564 22.0953 21.4833 21.9564C21.6401 21.7824 21.7858 21.6189 21.8983 21.4115C21.869 21.3878 21.8398 21.3641 21.8096 21.3397C21.5719 21.1464 21.336 20.9514 21.1024 20.7532C20.8819 20.5661 20.659 20.3823 20.4346 20.2C20.2911 20.0822 20.1495 19.9624 20.008 19.8422C19.8012 19.6667 19.5916 19.4957 19.3787 19.3275C19.2125 19.1934 19.0501 19.055 18.8882 18.9157C18.6991 18.7541 18.5058 18.6103 18.3053 18.4602C18.2903 20.0335 18.2753 21.6068 18.2598 23.2278C18.6358 23.2279 18.6358 23.2279 19.0117 23.2265C19.488 23.2373 19.488 23.2373 19.6184 23.3406C19.6669 23.4236 19.6669 23.4236 19.7152 23.591C19.7275 23.6333 19.7275 23.6333 19.7401 23.6765C19.8265 24.0796 19.7511 24.4487 19.5788 24.817C19.5333 24.8624 19.5333 24.8624 19.4112 24.8675C19.3581 24.8673 19.305 24.867 19.2503 24.8668C19.193 24.8666 19.1357 24.8665 19.0766 24.8663C19.0157 24.866 18.9547 24.8656 18.8937 24.8652C18.8326 24.865 18.7714 24.8648 18.7103 24.8646C18.5601 24.864 18.41 24.8632 18.2598 24.8624C18.2598 25.0571 18.2598 25.2519 18.2598 25.4526C18.3165 25.4568 18.3731 25.4609 18.4315 25.4652C18.6987 25.4952 18.944 25.5739 19.1979 25.6598C19.246 25.676 19.2941 25.6923 19.3437 25.709C20.184 26.0013 20.8931 26.4734 21.5344 27.0872C21.5717 27.1216 21.609 27.1559 21.6474 27.1913C22.6605 28.154 23.2398 29.5308 23.2787 30.9202C23.2934 32.4852 22.7044 33.8295 21.6709 34.9878C21.6439 35.0181 21.6168 35.0484 21.589 35.0797C20.7455 35.9698 19.5046 36.5591 18.3053 36.7586C18.2903 37.0882 18.2753 37.4179 18.2598 37.7575C17.7089 38.002 17.162 38.0906 16.5822 37.887C16.5346 37.8679 16.5346 37.8679 16.4861 37.8483C16.4111 37.8184 16.336 37.7884 16.2587 37.7575C16.2437 37.4279 16.2287 37.0982 16.2132 36.7586C16.0997 36.7343 15.9862 36.7099 15.8693 36.6848C15.4805 36.596 15.1217 36.4673 14.7579 36.3046C14.7045 36.2807 14.6512 36.2569 14.5962 36.2324C13.2165 35.5805 12.1626 34.3778 11.6451 32.9502C11.1427 31.4856 11.2471 29.9169 11.9267 28.5289C12.646 27.1244 13.9167 26.1383 15.4041 25.6464C15.6935 25.5573 15.9527 25.498 16.2587 25.498C16.2587 25.2883 16.2587 25.0785 16.2587 24.8624C16.1684 24.865 16.078 24.8676 15.9849 24.8703C15.8973 24.8719 15.8097 24.8735 15.7221 24.8748C15.6314 24.8765 15.5406 24.8794 15.4499 24.8823C15.3929 24.883 15.3359 24.8838 15.2772 24.8845C15.2245 24.8857 15.1719 24.8869 15.1176 24.8881C14.9853 24.8624 14.9853 24.8624 14.9022 24.7561C14.7176 24.3383 14.6903 23.9262 14.846 23.4917C14.9291 23.2839 14.9291 23.2839 14.9853 23.2278C15.4055 23.2278 15.8257 23.2278 16.2587 23.2278C16.2362 20.8678 16.2362 20.8678 16.2132 18.4602C15.9173 18.7019 15.6214 18.9438 15.3264 19.1867C15.1144 19.3611 14.9023 19.5353 14.6896 19.7088C14.4161 19.932 14.1436 20.1562 13.871 20.3805C13.7327 20.4943 13.5944 20.6079 13.456 20.7214C13.4217 20.7496 13.3874 20.7777 13.3521 20.8067C13.287 20.8601 13.2219 20.9135 13.1568 20.9668C12.9607 21.1278 12.7671 21.2914 12.5748 21.4569C12.6154 21.5002 12.6559 21.5435 12.6977 21.588C12.7515 21.6455 12.8053 21.7031 12.859 21.7606C12.8857 21.789 12.9124 21.8174 12.9399 21.8467C13.3471 22.283 13.3471 22.283 13.3508 22.4474C13.2204 22.8378 12.9632 23.1286 12.6064 23.3333C12.4105 23.4271 12.2476 23.5015 12.029 23.4548C11.901 23.3272 11.8032 23.1811 11.7021 23.0319C11.6466 22.9526 11.591 22.8733 11.5353 22.7941C11.499 22.741 11.499 22.741 11.4619 22.6867C11.3871 22.58 11.3871 22.58 11.2559 22.4559C11.1358 22.5608 11.0157 22.6656 10.892 22.7737C10.951 22.9619 11.0231 23.1336 11.1109 23.3101C11.7565 24.6981 11.8036 26.3393 11.2871 27.7744C10.7564 29.2133 9.72333 30.2851 8.35003 30.9484C6.98865 31.5686 5.36718 31.5547 3.979 31.0375C3.25447 30.7668 2.65328 30.3592 2.06882 29.857C1.82998 29.9338 1.65908 30.0873 1.47322 30.2489C1.34481 30.3537 1.27448 30.4022 1.10609 30.3999C0.69407 30.2609 0.34261 29.8649 0.138745 29.4909C0.113292 29.432 0.0895328 29.3724 0.0676821 29.3121C0.0502698 29.2672 0.0502698 29.2672 0.0325058 29.2215C0.00418682 29.1164 -0.00361946 29.0551 0.0222016 28.9489C0.21971 28.7056 0.496147 28.5383 0.749888 28.3586C0.737302 28.3292 0.724715 28.2998 0.711747 28.2695C0.433453 27.6138 0.198534 26.9713 0.0676821 26.2699C0.0585949 26.2217 0.0495077 26.1735 0.0401451 26.1238C-0.126374 24.5305 0.218144 23.0056 1.20469 21.7294C1.33556 21.5722 1.47257 21.423 1.61402 21.2753C1.64409 21.2419 1.67417 21.2085 1.70515 21.174C2.54401 20.2762 3.85644 19.6989 5.07577 19.6331C6.79738 19.5735 8.25561 20.0723 9.57309 21.1845C9.75376 21.1244 9.85211 21.0488 9.98241 20.9121C9.8953 20.7957 9.80811 20.6793 9.7209 20.563C9.69639 20.5303 9.67189 20.4975 9.64664 20.4638C9.6226 20.4317 9.59857 20.3997 9.5738 20.3667C9.55039 20.3354 9.52698 20.3041 9.50286 20.2719C9.44665 20.1986 9.38732 20.1278 9.32739 20.0575C9.25473 19.9586 9.25473 19.9586 9.26325 19.8138C9.40378 19.4389 9.7383 19.166 10.0892 18.9978C10.4103 18.8963 10.4103 18.8963 10.5737 18.9142C10.6843 19.0059 10.75 19.0739 10.8323 19.1867C10.8536 19.2138 10.8749 19.2409 10.8968 19.2688C10.9572 19.3465 11.0158 19.4252 11.0739 19.5045C11.1011 19.5409 11.1283 19.5772 11.1564 19.6147C11.2062 19.6828 11.2541 19.7524 11.3013 19.8223C11.4323 19.7619 11.5375 19.6937 11.6478 19.6012C11.6788 19.5754 11.7098 19.5495 11.7418 19.523C11.7746 19.4953 11.8075 19.4677 11.8414 19.4392C12.0833 19.2381 12.3262 19.0389 12.5748 18.8461C12.8132 18.6609 13.0471 18.4709 13.2797 18.2786C13.5386 18.0646 13.7997 17.8543 14.0648 17.648C14.2676 17.4899 14.4676 17.3286 14.6669 17.1661C14.9971 16.897 15.3313 16.6332 15.6675 16.3715C15.4989 16.1988 15.3228 16.0395 15.1388 15.8834C15.1107 15.8595 15.0827 15.8357 15.0538 15.8111C14.8479 15.6361 14.6393 15.4646 14.4294 15.2944C14.2874 15.1782 14.1473 15.0599 14.0074 14.9413C13.8269 14.7881 13.6454 14.6365 13.4617 14.4872C13.2522 14.317 13.046 14.1435 12.8402 13.9689C12.6449 13.8035 12.447 13.6415 12.2483 13.4801C12.1037 13.3614 11.9612 13.2405 11.8187 13.1194C11.5905 12.9255 11.3584 12.7381 11.1194 12.5575C11.0464 12.6444 10.9735 12.7315 10.9005 12.8185C10.88 12.843 10.8595 12.8675 10.8383 12.8927C10.78 12.9623 10.7223 13.0323 10.6646 13.1023C10.6363 13.1353 10.608 13.1684 10.5788 13.2024C10.5621 13.2293 10.5454 13.2562 10.5282 13.2839C10.5763 13.4282 10.5977 13.4513 10.7126 13.5395C10.7406 13.5612 10.7685 13.5829 10.7973 13.6052C10.8414 13.6387 10.8414 13.6387 10.8863 13.6727C10.9154 13.6952 10.9444 13.7176 10.9743 13.7408C11.0965 13.8349 11.2183 13.9249 11.3468 14.0104C11.304 14.2415 11.1594 14.3885 11.0142 14.5667C10.9878 14.6005 10.9613 14.6343 10.934 14.6692C10.9082 14.7011 10.8823 14.7331 10.8556 14.766C10.8321 14.7953 10.8085 14.8246 10.7843 14.8547C10.7101 14.9185 10.7101 14.9185 10.5282 14.9185C10.4407 14.8644 10.4407 14.8644 10.3512 14.7894C10.319 14.7628 10.2867 14.7362 10.2535 14.7087C10.2203 14.6806 10.1872 14.6524 10.153 14.6234C10.1191 14.5953 10.0852 14.5671 10.0503 14.5381C9.96668 14.4685 9.88344 14.3986 9.80049 14.3283C9.615 14.412 9.5048 14.5342 9.37696 14.6887C9.3557 14.7131 9.33445 14.7376 9.31255 14.7627C9.24449 14.8418 9.24449 14.8418 9.16376 14.964C9.2221 15.1387 9.30428 15.1879 9.44802 15.3017C9.4914 15.3362 9.53479 15.3708 9.57948 15.4065C9.6224 15.4403 9.66531 15.474 9.70953 15.5088C9.78536 15.5693 9.86117 15.6299 9.93693 15.6904C9.89336 15.9254 9.74438 16.084 9.60151 16.2694C9.56124 16.3234 9.56124 16.3234 9.52015 16.3784C9.4811 16.4295 9.4811 16.4295 9.44127 16.4815C9.4175 16.5127 9.39373 16.5439 9.36925 16.576C9.30021 16.644 9.30021 16.644 9.16376 16.644C9.08957 16.5957 9.08957 16.5957 9.00849 16.5273C8.97801 16.5018 8.94753 16.4764 8.91613 16.4502C8.88341 16.4224 8.85069 16.3945 8.81698 16.3659C8.74711 16.3074 8.67723 16.2489 8.60734 16.1904C8.55357 16.1452 8.55357 16.1452 8.4987 16.099C8.3292 15.9568 8.15806 15.8165 7.98696 15.6763C7.92264 15.6234 7.85833 15.5705 7.79402 15.5177C7.7639 15.4929 7.73378 15.4682 7.70275 15.4427C7.64906 15.3986 7.59537 15.3545 7.5417 15.3103C7.29162 15.1046 7.04018 14.9027 6.77977 14.7101C6.75603 14.689 6.73229 14.6679 6.70782 14.6461C6.70782 14.6161 6.70782 14.5862 6.70782 14.5553C6.75807 14.5294 6.80831 14.5034 6.86008 14.4767C7.28619 14.2555 7.70807 14.0278 8.12624 13.7919C8.16966 13.7675 8.21308 13.743 8.25781 13.7178C8.50304 13.5789 8.74387 13.435 8.98184 13.2839C8.89746 13.2052 8.81224 13.128 8.72602 13.0512C8.70227 13.0288 8.67853 13.0064 8.65407 12.9833C8.57412 12.9099 8.57412 12.9099 8.43608 12.8299C8.16627 12.8612 7.9043 13.0613 7.67144 13.196C7.57809 13.2492 7.4847 13.3023 7.39127 13.3554C7.34513 13.3817 7.29898 13.4079 7.25143 13.435C7.05981 13.5434 6.86744 13.6503 6.67371 13.755C6.64206 13.7726 6.61042 13.7902 6.57781 13.8083C6.50169 13.849 6.42298 13.8848 6.34398 13.9196C6.29895 13.9046 6.25393 13.8897 6.20754 13.8742C6.22066 13.833 6.22066 13.833 6.23405 13.791C6.32484 13.5054 6.4147 13.2196 6.504 12.9336C6.53747 12.8269 6.57118 12.7202 6.60514 12.6136C6.65385 12.4605 6.70171 12.3072 6.74939 12.1538C6.76479 12.106 6.78018 12.0583 6.79604 12.0091C6.8097 11.9646 6.82337 11.9201 6.83745 11.8742C6.84977 11.8351 6.86209 11.796 6.87478 11.7557C6.89305 11.6259 6.87101 11.5755 6.79878 11.4677C6.69015 11.3678 6.69015 11.3678 6.5657 11.2748C6.52431 11.2427 6.48291 11.2106 6.44027 11.1776C6.40849 11.1534 6.37672 11.1293 6.34398 11.1045C6.27191 11.2396 6.22152 11.3733 6.17589 11.5193C6.16133 11.5656 6.14677 11.612 6.13177 11.6597C6.10859 11.7343 6.10859 11.7343 6.08495 11.8104C6.06893 11.8615 6.05291 11.9127 6.0364 11.9654C5.98528 12.1286 5.93438 12.292 5.88349 12.4553C5.84886 12.566 5.81422 12.6768 5.77956 12.7875C5.69466 13.0589 5.60993 13.3303 5.52533 13.6018C5.39783 13.5399 5.29196 13.476 5.18245 13.3858C5.1376 13.3491 5.1376 13.3491 5.09185 13.3116C5.06042 13.2856 5.029 13.2596 4.99662 13.2329C4.93066 13.1788 4.86469 13.1248 4.79871 13.0708C4.76698 13.0447 4.73525 13.0186 4.70255 12.9918C4.59853 12.9066 4.49361 12.8227 4.38832 12.7391C4.15835 12.556 3.93006 12.3709 3.70238 12.185C3.56487 12.0729 3.42722 11.9616 3.28542 11.8549C3.22351 11.8079 3.22351 11.8079 3.16035 11.76C3.12471 11.7337 3.08906 11.7075 3.05233 11.6804C2.97843 11.6039 2.97843 11.6039 2.97843 11.4223C3.03688 11.3308 3.03688 11.3308 3.11771 11.2357C3.14644 11.2015 3.17517 11.1673 3.20476 11.132C3.23513 11.0967 3.2655 11.0614 3.29679 11.025C3.32716 10.989 3.35753 10.953 3.38882 10.9159C3.46387 10.8271 3.53932 10.7386 3.61515 10.6504C3.83142 10.8105 4.0442 10.9732 4.25188 11.1442C4.29503 11.1797 4.33818 11.2152 4.38264 11.2517C4.41453 11.278 4.44642 11.3044 4.47928 11.3315C4.63344 11.1798 4.78135 11.0244 4.92556 10.8633C4.9615 10.8232 4.99744 10.7831 5.03446 10.7418C5.06137 10.7116 5.08828 10.6815 5.11601 10.6504C5.04455 10.4702 4.92706 10.3691 4.78343 10.2418C4.74046 10.2034 4.69749 10.165 4.65321 10.1254C4.53669 10.025 4.41831 9.92814 4.29736 9.83313C4.36327 9.61996 4.48931 9.48234 4.64131 9.32516C4.80628 9.16152 4.80628 9.16152 4.93409 8.97043C5.08237 8.99793 5.17087 9.04744 5.28816 9.14105C5.3356 9.17801 5.3356 9.17801 5.38401 9.21572C5.45008 9.26809 5.51605 9.32059 5.58192 9.37322C5.61349 9.39775 5.64506 9.42227 5.67758 9.44754C5.7062 9.47031 5.73481 9.49309 5.76429 9.51656C5.7905 9.53112 5.8167 9.54569 5.84369 9.5607C6.0281 9.49933 6.10514 9.37471 6.21891 9.22583C6.24037 9.19903 6.26182 9.17222 6.28393 9.1446C6.35278 9.05773 6.35278 9.05773 6.43494 8.92502C6.37458 8.74424 6.28656 8.70043 6.13363 8.58732C6.07951 8.54683 6.02545 8.50627 5.97143 8.46564C5.94305 8.44435 5.91467 8.42306 5.88542 8.40113C5.73946 8.29003 5.59703 8.17462 5.45427 8.05948C5.16451 7.82653 4.86966 7.60167 4.57024 7.38123C4.63036 6.78477 5.00951 6.31826 5.44396 5.92897C5.67235 5.74418 5.67235 5.74418 5.79573 5.75284C5.91416 5.80252 5.99779 5.86898 6.09668 5.95096C6.13666 5.98379 6.17665 6.01663 6.21784 6.05046C6.25947 6.08505 6.30109 6.11964 6.34398 6.15528C6.42638 6.22249 6.50881 6.28965 6.59128 6.35677C6.67562 6.42581 6.75995 6.49487 6.84426 6.56393C6.92763 6.63205 7.01101 6.70016 7.09441 6.76826C9.76259 8.94772 12.4308 11.1272 15.099 13.3067C15.1401 13.3402 15.1812 13.3737 15.2235 13.4083C15.3088 13.478 15.3939 13.5479 15.479 13.6179C15.5215 13.6529 15.564 13.6878 15.6078 13.7238C15.6455 13.7549 15.6832 13.786 15.722 13.818C15.8829 13.9464 16.0485 14.0687 16.2132 14.1921C16.2282 12.3491 16.2432 10.506 16.2587 8.60718C15.9285 8.60718 15.5983 8.60718 15.2581 8.60718C15.2581 8.98178 15.2581 9.35637 15.2581 9.74232C14.8979 9.74232 14.5377 9.74232 14.1666 9.74232C14.1666 9.36772 14.1666 8.99313 14.1666 8.60718C13.8064 8.60718 13.4462 8.60718 13.0751 8.60718C13.0751 8.98178 13.0751 9.35637 13.0751 9.74232C12.6999 9.74232 12.3247 9.74232 11.9381 9.74232C11.9381 8.66348 11.9381 7.58465 11.9381 6.47312C12.1325 6.50548 12.2512 6.52689 12.422 6.60143C12.4613 6.61841 12.5006 6.63539 12.5411 6.65288C12.5828 6.67123 12.6244 6.68958 12.6674 6.70849C12.7108 6.72735 12.7543 6.74622 12.7991 6.76566C12.9377 6.82584 13.076 6.88643 13.2144 6.94704C13.3529 7.0074 13.4915 7.06767 13.6301 7.12793C13.7162 7.1654 13.8022 7.20295 13.8882 7.24058C13.9274 7.25769 13.9666 7.27481 14.0069 7.29245C14.0411 7.30744 14.0754 7.32242 14.1106 7.33787C14.2195 7.38439 14.3295 7.42813 14.4395 7.47204C14.4245 7.20233 14.4095 6.93263 14.394 6.65474C14.3394 6.63231 14.2848 6.60988 14.2286 6.58677C14.0248 6.50296 13.821 6.41897 13.6173 6.33493C13.5294 6.29869 13.4414 6.26249 13.3534 6.22634C13.2265 6.17417 13.0996 6.12182 12.9727 6.06944C12.9338 6.05349 12.8949 6.03754 12.8548 6.02111C12.6196 5.92375 12.392 5.81749 12.1655 5.70123C12.2274 5.57748 12.2884 5.57099 12.4165 5.52091C12.4821 5.49502 12.4821 5.49502 12.5489 5.4686C12.6202 5.44099 12.6202 5.44099 12.6929 5.41283C12.7413 5.39381 12.7897 5.37479 12.8396 5.3552C12.9947 5.2943 13.15 5.23384 13.3053 5.17339C13.4103 5.13227 13.5153 5.09112 13.6202 5.04994C13.878 4.94887 14.136 4.84819 14.394 4.74771C14.409 4.49299 14.424 4.23826 14.4395 3.97582C14.2585 4.04567 14.0775 4.11552 13.8965 4.18541C13.8323 4.21022 13.7681 4.23501 13.7038 4.25981C13.2313 4.44225 12.7592 4.62573 12.288 4.81164C12.2482 4.8273 12.2083 4.84296 12.1672 4.8591C12.1326 4.87275 12.098 4.8864 12.0624 4.90047C11.9836 4.92933 11.9836 4.92933 11.9381 4.92933C11.9381 3.83551 11.9381 2.7417 11.9381 1.61473C12.3133 1.61473 12.6885 1.61473 13.0751 1.61473C13.0751 2.00431 13.0751 2.39389 13.0751 2.79527C13.4353 2.79527 13.7955 2.79527 14.1666 2.79527C14.1666 2.4057 14.1666 2.01612 14.1666 1.61473C14.5268 1.61473 14.887 1.61473 15.2581 1.61473C15.2581 2.00431 15.2581 2.39389 15.2581 2.79527C15.5883 2.79527 15.9185 2.79527 16.2587 2.79527C16.2587 1.9412 16.2587 1.08712 16.2587 0.20716C16.8714 -0.0222388 17.5911 -0.0937778 18.2144 0.161754ZM2.68956 22.594C2.20631 23.1327 1.87975 23.7993 1.70498 24.4991C1.69478 24.5362 1.68457 24.5733 1.67406 24.6116C1.46133 25.528 1.62117 26.5204 2.02334 27.3597C2.27874 27.1951 2.5144 27.0242 2.74019 26.8205C2.84199 26.7694 2.84199 26.7694 2.97647 26.7948C3.48915 27.0372 3.79086 27.5235 3.99872 28.0289C4.02941 28.1512 4.03418 28.1992 3.979 28.3132C3.86157 28.4139 3.86157 28.4139 3.71464 28.5175C3.54636 28.637 3.39283 28.7529 3.25131 28.9035C4.27123 29.6251 5.40901 30.004 6.66376 29.8016C7.42935 29.6599 8.1296 29.3367 8.70896 28.8126C8.74672 28.7792 8.78447 28.7457 8.82337 28.7112C9.39467 28.1758 9.81408 27.4662 9.84899 26.6697C9.83737 26.1798 9.65447 25.7076 9.30021 25.3618C8.86044 25.0579 8.51026 25.0073 7.98127 25.044C7.60494 25.12 7.32122 25.3507 7.07167 25.6343C6.84095 25.9903 6.75621 26.3479 6.79878 26.7694C6.91162 27.2329 7.13515 27.59 7.5421 27.8446C7.76864 27.957 8.0102 28.0222 8.25416 28.0862C8.09047 28.2177 7.92651 28.3488 7.76187 28.4792C7.64151 28.5747 7.52312 28.6718 7.4062 28.7715C7.35533 28.8136 7.30446 28.8557 7.25359 28.8978C7.20856 28.9361 7.16354 28.9743 7.11715 29.0138C6.98071 29.0851 6.98071 29.0851 6.81992 29.0617C6.06915 28.7405 5.59402 28.0796 5.29544 27.3472C5.14205 26.9056 5.18705 26.4442 5.29793 25.9975C5.26539 25.9996 5.23285 26.0017 5.19933 26.0039C4.55168 26.0273 4.03227 25.8116 3.54125 25.3973C3.05599 24.9424 2.78527 24.4059 2.61459 23.7726C2.61459 23.7427 2.61459 23.7127 2.61459 23.6818C2.69831 23.6109 2.7822 23.5453 2.87041 23.4803C2.92445 23.4398 2.97846 23.3991 3.03244 23.3585C3.06075 23.3372 3.08907 23.316 3.11825 23.2941C3.29223 23.1623 3.46293 23.0263 3.6341 22.8909C3.74691 22.802 3.85932 22.7171 3.979 22.6375C3.97689 22.6819 3.97478 22.7263 3.9726 22.7721C3.95841 23.2866 4.0301 23.6226 4.38903 24.0062C4.71566 24.3111 5.05959 24.4808 5.51592 24.4683C5.99056 24.3995 6.4101 24.1431 6.70782 23.7726C6.94041 23.4132 6.99364 23.0589 6.93523 22.6375C6.81235 22.1967 6.60679 21.8775 6.22459 21.6272C5.00432 20.941 3.55476 21.677 2.68956 22.594ZM27.8436 21.997C27.7265 22.14 27.6482 22.2834 27.5833 22.4559C27.5726 22.4843 27.5619 22.5126 27.5508 22.5419C27.4443 22.8831 27.4846 23.2313 27.6317 23.5541C27.8737 23.9874 28.2176 24.2263 28.6749 24.4083C29.1194 24.5161 29.4879 24.4364 29.8797 24.2052C30.196 23.9804 30.3638 23.6989 30.514 23.3469C30.5513 23.1068 30.5233 22.8777 30.4941 22.6375C30.6318 22.7418 30.7689 22.8466 30.9052 22.9527C31.0314 23.0507 31.1593 23.1459 31.2882 23.2404C31.3552 23.291 31.4221 23.3416 31.489 23.3924C31.5217 23.4157 31.5545 23.439 31.5882 23.463C31.8055 23.6309 31.8055 23.6309 31.8262 23.7715C31.8163 23.8679 31.7966 23.9527 31.7675 24.0451C31.7463 24.1129 31.7463 24.1129 31.7245 24.1822C31.3942 24.9631 30.9446 25.4967 30.1757 25.8613C29.9476 25.9398 29.7369 25.9677 29.4964 25.9805C29.4653 25.9822 29.4342 25.984 29.4021 25.9858C29.3265 25.99 29.2508 25.9938 29.1751 25.9975C29.1823 26.0261 29.1895 26.0546 29.1968 26.0841C29.3244 26.8368 29.1878 27.4729 28.7601 28.106C28.4602 28.5153 28.0751 28.9138 27.5833 29.0851C27.3599 29.026 27.2006 28.8801 27.0262 28.736C26.9656 28.6869 26.905 28.6377 26.8445 28.5886C26.8153 28.5648 26.7861 28.541 26.756 28.5165C26.6487 28.429 26.5407 28.3423 26.4321 28.2564C26.4013 28.2318 26.3706 28.2073 26.3388 28.1819C26.2668 28.1231 26.2668 28.1231 26.1734 28.1316C26.1734 28.1016 26.1734 28.0716 26.1734 28.0407C26.2297 28.0389 26.286 28.037 26.344 28.0351C26.7786 27.9845 27.1476 27.7619 27.4185 27.4233C27.6755 27.044 27.724 26.6779 27.6743 26.2245C27.594 25.8487 27.3687 25.5665 27.083 25.3164C26.6702 25.0533 26.295 25.0068 25.8096 25.044C25.3972 25.1412 25.1126 25.3631 24.8886 25.7165C24.6076 26.2198 24.5536 26.6636 24.701 27.2263C24.8487 27.6959 25.0869 28.0735 25.4003 28.4494C25.4217 28.4768 25.4431 28.5043 25.4651 28.5326C26.0244 29.2293 26.9765 29.7036 27.8562 29.8116C28.9692 29.9305 30.1056 29.7408 31.0114 29.0425C31.0669 28.9967 31.122 28.9506 31.1763 28.9035C30.9828 28.7018 30.7723 28.5427 30.5456 28.3802C30.4486 28.2678 30.4486 28.2678 30.4495 28.1124C30.6014 27.5589 30.9243 27.1069 31.4101 26.8003C31.5248 26.7584 31.5635 26.7665 31.6766 26.8148C31.805 26.908 31.9276 27.0055 32.0505 27.1057C32.231 27.2514 32.231 27.2514 32.4497 27.3143C32.9376 26.1746 33.0327 25.0781 32.5862 23.9088C32.4001 23.4627 32.1644 23.0584 31.8585 22.6829C31.8283 22.6448 31.7981 22.6067 31.767 22.5674C31.1988 21.8911 30.3768 21.4478 29.4935 21.3661C28.857 21.3153 28.2801 21.5353 27.8436 21.997ZM13.6663 28.858C13.0627 29.5465 12.8497 30.4574 12.8932 31.3553C12.9798 32.5093 13.5173 33.5195 14.3855 34.2755C14.9364 34.7132 15.5553 35.0362 16.2587 35.124C16.2587 34.7944 16.2587 34.4647 16.2587 34.1251C16.8956 33.9243 17.5801 33.9016 18.2144 34.1251C18.2294 34.4547 18.2444 34.7844 18.2598 35.124C19.2574 34.9995 20.1153 34.3662 20.7337 33.5917C21.4023 32.7008 21.7453 31.6362 21.6028 30.5216C21.4946 29.7988 21.2557 29.1257 20.6708 28.6519C20.266 28.3584 19.7271 28.2106 19.2288 28.2873C18.8517 28.3804 18.5303 28.5592 18.3176 28.8894C18.0777 29.3166 17.9946 29.7218 18.1074 30.2122C18.2617 30.6315 18.532 30.9832 18.9421 31.1737C19.2902 31.31 19.7129 31.3398 20.0649 31.1964C20.3084 31.0555 20.5336 30.885 20.7613 30.7197C20.7613 31.304 20.7613 31.8884 20.7613 32.4905C19.8595 32.7906 18.9993 32.9197 18.1064 32.5018C17.7649 32.3182 17.5012 32.0991 17.3048 31.764C17.2719 31.7968 17.2391 31.8296 17.2053 31.8633C17.1631 31.9055 17.1208 31.9476 17.0774 31.991C17.0436 32.0275 17.0098 32.0641 16.975 32.1017C16.4144 32.6233 15.7362 32.7876 14.9849 32.7776C14.5684 32.7532 14.1736 32.6302 13.8028 32.4451C13.7878 31.8757 13.7728 31.3063 13.7573 30.7197C13.9374 30.8545 14.1175 30.9894 14.3031 31.1283C14.6516 31.3135 15.0495 31.3231 15.433 31.2347C15.8949 31.0696 16.1845 30.7455 16.3952 30.311C16.5398 29.8955 16.4735 29.3634 16.2864 28.9772C16.0825 28.6451 15.8161 28.4227 15.4401 28.3132C14.7861 28.1701 14.1419 28.4043 13.6663 28.858Z" fill="#9CA3AF"/>
<path d="M65.7414 5.79203C67.2598 5.78997 68.7781 5.78835 70.2965 5.78739C70.4762 5.78728 70.656 5.78716 70.8357 5.78704C70.8715 5.78702 70.9073 5.78699 70.9442 5.78697C71.5216 5.78658 72.0989 5.78586 72.6763 5.78502C73.2699 5.78417 73.8635 5.78367 74.4571 5.78349C74.8226 5.78336 75.1881 5.78297 75.5536 5.78223C75.8351 5.78169 76.1167 5.78164 76.3982 5.78176C76.5127 5.78173 76.6273 5.78156 76.7419 5.78121C77.6251 5.77863 78.507 5.80143 79.3742 5.985C79.4454 5.99983 79.4454 5.99983 79.518 6.01495C80.7808 6.28774 81.878 6.84312 82.842 7.69906C82.8868 7.73796 82.8868 7.73796 82.9325 7.77764C83.8486 8.62672 84.429 9.98456 84.4868 11.2185C84.5369 12.879 84.1593 14.2508 83.0108 15.4909C81.8968 16.6591 80.4195 17.3089 78.8852 17.7337C78.9137 17.7375 78.9422 17.7414 78.9716 17.7453C80.9801 18.023 82.9668 18.7238 84.2415 20.3897C84.3411 20.531 84.4344 20.674 84.5248 20.8213C84.5531 20.8654 84.5813 20.9095 84.6105 20.955C85.5367 22.4562 85.6795 24.3804 85.2827 26.0705C85.0354 27.066 84.5955 27.9351 83.9336 28.7218C83.9068 28.7541 83.8801 28.7864 83.8526 28.8197C83.6689 29.0365 83.4715 29.2234 83.2514 29.4029C83.1899 29.454 83.1899 29.454 83.1272 29.5061C81.279 30.9888 78.8881 31.418 76.5777 31.4111C76.4571 31.411 76.3364 31.411 76.2158 31.4111C75.9576 31.4111 75.6995 31.4109 75.4414 31.4103C75.0683 31.4096 74.6951 31.4094 74.3219 31.4093C73.7163 31.4091 73.1106 31.4085 72.5049 31.4076C71.9171 31.4068 71.3293 31.4061 70.7415 31.4057C70.7052 31.4057 70.6689 31.4057 70.6315 31.4057C70.4492 31.4055 70.2669 31.4054 70.0846 31.4053C68.5762 31.4044 67.0679 31.4028 65.5595 31.4007C65.5595 30.9063 65.5595 30.4118 65.5595 29.9024C66.5651 29.9024 67.5706 29.9024 68.6067 29.9024C68.6067 22.4404 68.6067 14.9785 68.6067 7.29041C67.6611 7.29041 66.7156 7.29041 65.7414 7.29041C65.7414 6.79595 65.7414 6.30148 65.7414 5.79203ZM72.9273 7.29041C72.9273 10.5269 72.9273 13.7634 72.9273 17.098C75.9161 17.2589 75.9161 17.2589 78.385 16.0083C78.728 15.6506 78.9767 15.2646 79.2036 14.8277C79.2251 14.7868 79.2465 14.7458 79.2686 14.7036C79.9506 13.3081 79.9813 11.5269 79.4994 10.066C79.3009 9.50436 79.0397 9.02045 78.6578 8.56177C78.6333 8.5294 78.6088 8.49703 78.5836 8.46368C78.0818 7.83054 77.2934 7.49081 76.5203 7.33582C75.3274 7.22756 74.1251 7.29041 72.9273 7.29041ZM72.9273 18.5964C72.9273 22.3274 72.9273 26.0583 72.9273 29.9024C75.1528 29.9958 75.1528 29.9958 77.3446 29.647C77.3818 29.6356 77.4189 29.6242 77.4572 29.6124C78.0424 29.4231 78.561 29.1286 79.0217 28.7218C79.0639 28.6885 79.0639 28.6885 79.107 28.6546C80.0929 27.8703 80.485 26.5377 80.6732 25.3476C80.8665 23.5287 80.6579 21.5238 79.5017 20.0432C78.7162 19.1392 77.7164 18.7991 76.5657 18.5964C75.3651 18.5964 74.1644 18.5964 72.9273 18.5964Z" fill="#9CA3AF"/>
<path d="M41.091 5.79203C44.513 5.79203 47.9349 5.79203 51.4606 5.79203C51.4606 6.2865 51.4606 6.78096 51.4606 7.29041C50.5 7.29041 49.5395 7.29041 48.5498 7.29041C48.5536 9.31877 48.5577 11.3471 48.5625 13.3755C48.5631 13.6155 48.5637 13.8554 48.5642 14.0954C48.5644 14.1432 48.5645 14.191 48.5646 14.2402C48.5664 15.0116 48.5679 15.7831 48.5692 16.5545C48.5707 17.3473 48.5724 18.1401 48.5745 18.9328C48.5758 19.4212 48.5768 19.9096 48.5774 20.398C48.5779 20.7338 48.5787 21.0696 48.5798 21.4055C48.5804 21.5986 48.5809 21.7918 48.5809 21.985C48.5814 23.06 48.603 24.1295 48.7886 25.1915C48.7984 25.2485 48.8082 25.3055 48.8184 25.3643C49.0422 26.611 49.4557 27.8084 50.369 28.7218C50.4107 28.7642 50.4107 28.7642 50.4532 28.8075C51.3976 29.7001 52.773 29.848 54.0094 29.8245C55.3241 29.7814 56.6569 29.4671 57.6004 28.4948C57.6304 28.4948 57.6604 28.4948 57.6914 28.4948C57.7035 28.4683 57.7156 28.4419 57.7281 28.4146C57.7835 28.3109 57.8457 28.2325 57.9216 28.1429C59.2511 26.4534 59.2514 24.081 59.2521 22.0396C59.2523 21.8409 59.253 21.6423 59.2536 21.4436C59.2546 21.1008 59.2553 20.758 59.2557 20.4152C59.2564 19.9196 59.2576 19.4239 59.2589 18.9283C59.2609 18.1239 59.2626 17.3194 59.264 16.515C59.2654 15.7343 59.2669 14.9537 59.2687 14.173C59.2689 14.1248 59.269 14.0765 59.2691 14.0268C59.2696 13.7847 59.2702 13.5425 59.2708 13.3004C59.2755 11.2971 59.2795 9.29375 59.2832 7.29041C58.3827 7.29041 57.4822 7.29041 56.5544 7.29041C56.5544 6.79595 56.5544 6.30148 56.5544 5.79203C58.9857 5.79203 61.4171 5.79203 63.9222 5.79203C63.9222 6.2865 63.9222 6.78096 63.9222 7.29041C63.0967 7.29041 62.2712 7.29041 61.4208 7.29041C61.421 7.49552 61.4212 7.70063 61.4214 7.91195C61.4232 9.79675 61.4245 11.6816 61.4254 13.5664C61.4255 13.8138 61.4256 14.0613 61.4258 14.3088C61.4258 14.3827 61.4258 14.3827 61.4258 14.4581C61.4262 15.2538 61.4269 16.0494 61.4278 16.8451C61.4286 17.6627 61.4291 18.4803 61.4293 19.2979C61.4294 19.8017 61.4298 20.3054 61.4306 20.8091C61.4311 21.1554 61.4312 21.5017 61.4311 21.8481C61.431 22.0473 61.4311 22.2465 61.4316 22.4458C61.436 24.3355 61.3124 26.19 60.5518 27.9464C60.5248 28.009 60.4986 28.0719 60.4732 28.1351C60.3845 28.3537 60.3845 28.3537 60.2838 28.404C60.2522 28.4792 60.2221 28.5549 60.1928 28.631C59.4749 29.9349 58.1874 30.8195 56.7867 31.2576C56.038 31.4722 55.2824 31.5982 54.5077 31.6732C54.4576 31.6781 54.4576 31.6781 54.4065 31.6831C51.8282 31.9173 48.6099 31.7676 46.4954 30.1007C45.8718 29.5796 45.3545 29.0279 44.9569 28.3132C44.9418 28.2863 44.9268 28.2595 44.9112 28.2319C43.8235 26.2674 43.8036 23.9036 43.8093 21.717C43.8097 21.5224 43.8095 21.3279 43.8095 21.1333C43.8094 20.798 43.8097 20.4627 43.8102 20.1274C43.811 19.6426 43.8112 19.1579 43.8113 18.6731C43.8115 17.8862 43.8121 17.0993 43.813 16.3124C43.8138 15.549 43.8145 14.7856 43.8148 14.0223C43.8149 13.9514 43.8149 13.9514 43.8149 13.8791C43.815 13.6421 43.8152 13.4051 43.8153 13.1681C43.8162 11.2089 43.8178 9.24963 43.8198 7.29041C42.9193 7.29041 42.0188 7.29041 41.091 7.29041C41.091 6.79595 41.091 6.30148 41.091 5.79203Z" fill="#9CA3AF"/>
<path d="M102.49 6.56393C102.536 6.58257 102.583 6.6012 102.63 6.6204C102.766 6.67617 102.901 6.73434 103.035 6.7938C103.076 6.81082 103.117 6.82785 103.159 6.84539C103.196 6.8626 103.233 6.87982 103.271 6.89756C103.304 6.91208 103.336 6.92659 103.37 6.94155C103.562 7.13776 103.501 7.61503 103.508 7.8772C103.51 7.94981 103.51 7.94981 103.512 8.02389C103.516 8.18314 103.52 8.34239 103.524 8.50165C103.527 8.61293 103.53 8.72421 103.533 8.8355C103.54 9.0685 103.546 9.30151 103.552 9.53452C103.56 9.83223 103.568 10.1299 103.576 10.4276C103.582 10.6574 103.588 10.8872 103.594 11.117C103.597 11.2267 103.6 11.3364 103.603 11.4461C103.607 11.6 103.611 11.7538 103.615 11.9077C103.616 11.9524 103.617 11.9972 103.618 12.0433C103.626 12.3361 103.627 12.6276 103.627 12.9207C103.071 12.9207 102.516 12.9207 101.944 12.9207C101.911 12.6922 101.878 12.4637 101.844 12.2283C101.6 10.5945 101.148 8.88261 99.7607 7.83529C98.5515 7.05175 97.082 6.81913 95.6705 7.11022C94.8094 7.30765 94.1436 7.66181 93.5299 8.28934C93.502 8.31679 93.4741 8.34424 93.4454 8.37253C92.7117 9.15027 92.4787 10.3456 92.4839 11.3769C92.5258 12.3119 92.9328 13.1403 93.6197 13.7751C94.8333 14.8539 96.4194 15.4077 97.9306 15.9294C99.6965 16.54 101.433 17.2527 102.808 18.551C102.868 18.6067 102.868 18.6067 102.93 18.6636C104.179 19.8584 104.94 21.6343 104.997 23.3569C105.042 25.5624 104.628 27.6219 103.074 29.2862C101.881 30.5273 100.264 31.2236 98.5925 31.5483C98.5575 31.5552 98.5225 31.562 98.4865 31.5691C97.7404 31.7053 97.0013 31.7355 96.2445 31.7328C96.1966 31.7327 96.1486 31.7326 96.0992 31.7325C95.3255 31.7303 94.5692 31.6956 93.8028 31.5824C93.722 31.5711 93.722 31.5711 93.6395 31.5595C92.1735 31.351 90.7096 31.0086 89.3685 30.3678C89.3342 30.3518 89.2998 30.3358 89.2645 30.3193C89.1709 30.272 89.1709 30.272 89.0274 30.1748C88.9814 30.0195 88.9745 29.8663 88.9695 29.705C88.9671 29.6329 88.9671 29.6329 88.9647 29.5593C88.9631 29.507 88.9616 29.4546 88.96 29.4007C88.9583 29.3453 88.9565 29.2898 88.9546 29.2326C88.9498 29.0806 88.9451 28.9286 88.9405 28.7766C88.9357 28.6167 88.9306 28.4569 88.9256 28.297C88.9172 28.028 88.9089 27.759 88.9007 27.4899C88.8913 27.1808 88.8817 26.8717 88.872 26.5626C88.8626 26.2637 88.8533 25.9648 88.8441 25.6659C88.8402 25.5396 88.8362 25.4132 88.8323 25.2869C88.8267 25.1091 88.8213 24.9312 88.8159 24.7534C88.8143 24.7022 88.8127 24.651 88.811 24.5982C88.7989 24.1863 88.8 23.7767 88.8 23.364C89.3553 23.364 89.9106 23.364 90.4827 23.364C90.494 23.5363 90.5053 23.7086 90.5169 23.8861C90.6601 25.8227 91.1735 27.7012 92.6658 29.0397C93.8522 30.0024 95.4892 30.3493 96.9891 30.1993C98.1345 30.0657 99.192 29.6427 99.9452 28.7403C100.521 28.0115 100.803 27.1311 100.943 26.2245C100.949 26.1867 100.955 26.1488 100.962 26.1098C101.114 24.9262 100.905 23.8444 100.174 22.8865C99.0312 21.5185 97.0823 20.9652 95.4584 20.3984C93.768 19.8064 92.212 19.0511 90.8921 17.8245C90.8584 17.7939 90.8248 17.7633 90.7901 17.7317C89.6199 16.6237 88.9392 14.9252 88.8909 13.3294C88.8891 13.2735 88.8873 13.2177 88.8854 13.1601C88.8427 11.1416 89.3967 9.23016 90.8011 7.74448C90.8317 7.711 90.8623 7.67752 90.8938 7.64302C93.7511 4.63021 99.0264 5.1708 102.49 6.56393Z" fill="#9CA3AF"/>
</svg>
