<svg viewBox="0 0 1200 675" xmlns="http://www.w3.org/2000/svg" font-family="system-ui,-apple-system,sans-serif">
  <!-- Background -->
  <rect width="1200" height="675" fill="#FCE4EC"/>

  <!-- Main card -->
  <rect x="60" y="40" width="1080" height="595" rx="16" fill="white" stroke="#F5A0B5" stroke-width="1.5"/>

  <!-- Header -->
  <rect x="60" y="40" width="1080" height="52" rx="16" fill="#1F2D3D"/>
  <rect x="60" y="76" width="1080" height="16" fill="#1F2D3D"/>
  <text x="96" y="72" font-size="14" font-weight="600" fill="white">Goodlife Health Clubs — Membership</text>

  <!-- Step progress -->
  <rect x="380" y="54" width="440" height="28" rx="8" fill="#253347"/>
  <!-- Steps -->
  <circle cx="420" cy="68" r="10" fill="#E91E63"/>
  <text x="420" y="72" font-size="10" font-weight="700" fill="white" text-anchor="middle">1</text>
  <line x1="430" y1="68" x2="498" y2="68" stroke="#E91E63" stroke-width="2"/>
  <circle cx="510" cy="68" r="10" fill="#E91E63"/>
  <text x="510" y="72" font-size="10" font-weight="700" fill="white" text-anchor="middle">2</text>
  <line x1="520" y1="68" x2="588" y2="68" stroke="#4B6273" stroke-width="2" stroke-dasharray="4 2"/>
  <circle cx="600" cy="68" r="10" fill="#4B6273"/>
  <text x="600" y="72" font-size="10" font-weight="700" fill="white" text-anchor="middle">3</text>
  <line x1="610" y1="68" x2="678" y2="68" stroke="#4B6273" stroke-width="2" stroke-dasharray="4 2"/>
  <circle cx="690" cy="68" r="10" fill="#4B6273"/>
  <text x="690" y="72" font-size="10" font-weight="700" fill="white" text-anchor="middle">4</text>
  <line x1="700" y1="68" x2="768" y2="68" stroke="#4B6273" stroke-width="2" stroke-dasharray="4 2"/>
  <circle cx="780" cy="68" r="10" fill="#4B6273"/>
  <text x="780" y="72" font-size="10" font-weight="700" fill="white" text-anchor="middle">5</text>

  <!-- Left - Form area -->
  <text x="100" y="128" font-size="11" font-weight="600" fill="#9CA3AF" letter-spacing="1.2">STEP 2 OF 5 — CHOOSE YOUR PLAN</text>
  <text x="100" y="160" font-size="22" font-weight="700" fill="#1F2D3D">Select a membership type</text>
  <text x="100" y="182" font-size="13" fill="#4F5D75">You can change or cancel your membership at any time online.</text>

  <!-- Membership cards -->
  <!-- Basic -->
  <rect x="100" y="204" width="220" height="200" rx="12" fill="#F9FAFB" stroke="#E5E7EB" stroke-width="1.5"/>
  <text x="210" y="238" font-size="13" font-weight="700" fill="#4F5D75" text-anchor="middle">Basic</text>
  <text x="210" y="266" font-size="28" font-weight="700" fill="#1F2D3D" text-anchor="middle">$29</text>
  <text x="210" y="284" font-size="12" fill="#9CA3AF" text-anchor="middle">per fortnight</text>
  <line x1="120" y1="298" x2="300" y2="298" stroke="#E5E7EB" stroke-width="1"/>
  <text x="130" y="318" font-size="12" fill="#4F5D75">✓ 1 club access</text>
  <text x="130" y="338" font-size="12" fill="#4F5D75">✓ Standard hours</text>
  <text x="130" y="358" font-size="12" fill="#9CA3AF">× Group classes</text>
  <text x="130" y="378" font-size="12" fill="#9CA3AF">× Guest passes</text>

  <!-- Standard — Selected -->
  <rect x="336" y="196" width="220" height="216" rx="12" fill="#FCE4EC" stroke="#E91E63" stroke-width="2"/>
  <!-- Recommended badge -->
  <rect x="406" y="186" width="80" height="20" rx="10" fill="#E91E63"/>
  <text x="446" y="200" font-size="10" font-weight="700" fill="white" text-anchor="middle">POPULAR</text>
  <circle cx="538" cy="210" r="9" fill="#E91E63"/>
  <path d="M532 210 L536 214 L544 206" stroke="white" stroke-width="2" fill="none" stroke-linecap="round" stroke-linejoin="round"/>
  <text x="446" y="238" font-size="13" font-weight="700" fill="#E91E63" text-anchor="middle">Standard</text>
  <text x="446" y="266" font-size="28" font-weight="700" fill="#1F2D3D" text-anchor="middle">$49</text>
  <text x="446" y="284" font-size="12" fill="#9CA3AF" text-anchor="middle">per fortnight</text>
  <line x1="356" y1="298" x2="536" y2="298" stroke="#F5A0B5" stroke-width="1"/>
  <text x="366" y="318" font-size="12" fill="#1F2D3D">✓ All clubs access</text>
  <text x="366" y="338" font-size="12" fill="#1F2D3D">✓ 24/7 access</text>
  <text x="366" y="358" font-size="12" fill="#1F2D3D">✓ Unlimited classes</text>
  <text x="366" y="378" font-size="12" fill="#9CA3AF">× Guest passes</text>

  <!-- Premium -->
  <rect x="572" y="204" width="220" height="200" rx="12" fill="#F9FAFB" stroke="#E5E7EB" stroke-width="1.5"/>
  <text x="682" y="238" font-size="13" font-weight="700" fill="#4F5D75" text-anchor="middle">Premium</text>
  <text x="682" y="266" font-size="28" font-weight="700" fill="#1F2D3D" text-anchor="middle">$79</text>
  <text x="682" y="284" font-size="12" fill="#9CA3AF" text-anchor="middle">per fortnight</text>
  <line x1="592" y1="298" x2="772" y2="298" stroke="#E5E7EB" stroke-width="1"/>
  <text x="602" y="318" font-size="12" fill="#4F5D75">✓ All clubs access</text>
  <text x="602" y="338" font-size="12" fill="#4F5D75">✓ 24/7 access</text>
  <text x="602" y="358" font-size="12" fill="#4F5D75">✓ Unlimited classes</text>
  <text x="602" y="378" font-size="12" fill="#4F5D75">✓ 2 guest passes/mo</text>

  <!-- Duration selector -->
  <text x="100" y="440" font-size="12" font-weight="600" fill="#1F2D3D">Membership duration</text>
  <rect x="100" y="450" width="692" height="44" rx="10" fill="#F3F4F6"/>
  <rect x="104" y="454" width="220" height="36" rx="8" fill="#E91E63"/>
  <text x="214" y="476" font-size="13" font-weight="600" fill="white" text-anchor="middle">12 months</text>
  <text x="428" y="476" font-size="13" fill="#4F5D75" text-anchor="middle">6 months</text>
  <text x="638" y="476" font-size="13" fill="#4F5D75" text-anchor="middle">No lock-in</text>

  <!-- Cancellation note -->
  <rect x="100" y="510" width="692" height="36" rx="8" fill="#FCE4EC"/>
  <text x="124" y="532" font-size="12" fill="#C2185B">✓  Cancel anytime online — no phone calls, no fees after your minimum term.</text>

  <!-- Right panel — summary -->
  <rect x="836" y="104" width="260" height="530" rx="12" fill="#F9FAFB" stroke="#E5E7EB" stroke-width="1.5"/>
  <text x="966" y="136" font-size="14" font-weight="700" fill="#1F2D3D" text-anchor="middle">Your summary</text>
  <line x1="856" y1="148" x2="1076" y2="148" stroke="#E5E7EB" stroke-width="1"/>

  <text x="856" y="172" font-size="12" fill="#9CA3AF">Plan</text>
  <text x="1076" y="172" font-size="12" font-weight="600" fill="#1F2D3D" text-anchor="end">Standard</text>

  <text x="856" y="196" font-size="12" fill="#9CA3AF">Duration</text>
  <text x="1076" y="196" font-size="12" font-weight="600" fill="#1F2D3D" text-anchor="end">12 months</text>

  <text x="856" y="220" font-size="12" fill="#9CA3AF">Club access</text>
  <text x="1076" y="220" font-size="12" font-weight="600" fill="#1F2D3D" text-anchor="end">All clubs</text>

  <line x1="856" y1="236" x2="1076" y2="236" stroke="#E5E7EB" stroke-width="1"/>

  <text x="856" y="262" font-size="12" fill="#9CA3AF">Joining fee</text>
  <text x="1076" y="262" font-size="12" fill="#2A9D8F" text-anchor="end">Waived</text>

  <text x="856" y="286" font-size="12" fill="#9CA3AF">Fortnightly</text>
  <text x="1076" y="286" font-size="16" font-weight="700" fill="#E91E63" text-anchor="end">$49.00</text>

  <line x1="856" y1="302" x2="1076" y2="302" stroke="#E5E7EB" stroke-width="1"/>

  <text x="856" y="324" font-size="11" fill="#9CA3AF">Minimum commitment</text>
  <text x="1076" y="324" font-size="12" fill="#1F2D3D" text-anchor="end">$1,274</text>
  <text x="966" y="346" font-size="11" fill="#9CA3AF" text-anchor="middle">26 fortnights at $49</text>

  <rect x="856" y="560" width="220" height="44" rx="10" fill="#E91E63"/>
  <text x="966" y="586" font-size="13" font-weight="600" fill="white" text-anchor="middle">Continue to location →</text>

  <text x="966" y="618" font-size="11" fill="#9CA3AF" text-anchor="middle">No payment taken today</text>
</svg>
