<svg viewBox="0 0 1200 560" xmlns="http://www.w3.org/2000/svg" font-family="system-ui,-apple-system,sans-serif">
  <rect width="1200" height="560" fill="#F9FAFB"/>

  <text x="600" y="44" font-size="12" font-weight="600" fill="#9CA3AF" text-anchor="middle" letter-spacing="1.5">PROGRESSIVE CONFIGURATION — THE PERSISTENT LIVE SUMMARY</text>
  <text x="600" y="64" font-size="13" fill="#4F5D75" text-anchor="middle">By the time someone reaches payment, they already understand exactly what they're signing up for.</text>

  <!-- Step flow (left) -->
  <rect x="60" y="88" width="720" height="440" rx="16" fill="white" stroke="#E5E7EB" stroke-width="1.5"/>

  <!-- Steps -->
  <!-- Step 1 - completed -->
  <circle cx="108" cy="132" r="18" fill="#E91E63"/>
  <text x="108" y="138" font-size="12" font-weight="700" fill="white" text-anchor="middle">✓</text>
  <text x="148" y="128" font-size="13" font-weight="600" fill="#1F2D3D">Club location</text>
  <text x="148" y="146" font-size="12" fill="#4F5D75">Goodlife Melbourne City · 123 Collins St</text>
  <rect x="148" y="152" width="100" height="20" rx="4" fill="#E0F5F2"/>
  <text x="198" y="166" font-size="11" fill="#2A9D8F" text-anchor="middle">24/7 access</text>
  <line x1="108" y1="152" x2="108" y2="186" stroke="#E91E63" stroke-width="2"/>

  <!-- Step 2 - completed -->
  <circle cx="108" cy="204" r="18" fill="#E91E63"/>
  <text x="108" y="210" font-size="12" font-weight="700" fill="white" text-anchor="middle">✓</text>
  <text x="148" y="200" font-size="13" font-weight="600" fill="#1F2D3D">Membership plan</text>
  <text x="148" y="218" font-size="12" fill="#4F5D75">Standard · All clubs · Unlimited classes</text>
  <rect x="148" y="224" width="80" height="20" rx="4" fill="#FCE4EC"/>
  <text x="188" y="238" font-size="11" fill="#E91E63" text-anchor="middle">$49 / fortnight</text>
  <line x1="108" y1="224" x2="108" y2="258" stroke="#E91E63" stroke-width="2"/>

  <!-- Step 3 - ACTIVE -->
  <circle cx="108" cy="276" r="20" fill="#E91E63" stroke="#FCE4EC" stroke-width="4"/>
  <text x="108" y="282" font-size="12" font-weight="700" fill="white" text-anchor="middle">3</text>
  <text x="148" y="272" font-size="13" font-weight="700" fill="#E91E63">Membership duration</text>
  <text x="148" y="290" font-size="12" fill="#4F5D75">How long do you want to commit?</text>

  <!-- Duration options -->
  <rect x="148" y="302" width="580" height="56" rx="10" fill="#F3F4F6"/>
  <rect x="152" y="306" width="184" height="44" rx="8" fill="#E91E63"/>
  <text x="244" y="326" font-size="13" font-weight="600" fill="white" text-anchor="middle">12 months</text>
  <text x="244" y="342" font-size="11" fill="white" text-anchor="middle">Best value</text>
  <text x="444" y="332" font-size="13" fill="#4F5D75" text-anchor="middle">6 months</text>
  <text x="644" y="332" font-size="13" fill="#4F5D75" text-anchor="middle">No lock-in</text>
  <text x="648" y="348" font-size="11" fill="#9CA3AF" text-anchor="middle">+$8 /f'night</text>

  <line x1="108" y1="360" x2="108" y2="390" stroke="#9CA3AF" stroke-width="2" stroke-dasharray="4 2"/>

  <!-- Step 4 - pending -->
  <circle cx="108" cy="402" r="18" fill="#F3F4F6" stroke="#E5E7EB" stroke-width="2"/>
  <text x="108" y="408" font-size="12" font-weight="600" fill="#9CA3AF" text-anchor="middle">4</text>
  <text x="148" y="398" font-size="13" fill="#9CA3AF">Extras (optional)</text>
  <text x="148" y="416" font-size="12" fill="#9CA3AF">Personal training · Nutrition · Locker</text>

  <line x1="108" y1="422" x2="108" y2="452" stroke="#9CA3AF" stroke-width="2" stroke-dasharray="4 2"/>

  <!-- Step 5 - pending -->
  <circle cx="108" cy="464" r="18" fill="#F3F4F6" stroke="#E5E7EB" stroke-width="2"/>
  <text x="108" y="470" font-size="12" font-weight="600" fill="#9CA3AF" text-anchor="middle">5</text>
  <text x="148" y="460" font-size="13" fill="#9CA3AF">Your details &amp; payment</text>
  <text x="148" y="478" font-size="12" fill="#9CA3AF">No payment taken until step 5</text>

  <!-- ── Live summary panel ── -->
  <rect x="804" y="88" width="336" height="440" rx="16" fill="#1F2D3D"/>
  <text x="972" y="120" font-size="13" font-weight="700" fill="white" text-anchor="middle">Your summary</text>
  <line x1="824" y1="132" x2="1120" y2="132" stroke="#2A3547" stroke-width="1"/>

  <!-- Summary rows — updates live as selections are made -->
  <text x="824" y="160" font-size="12" fill="#6B7A8D">Club</text>
  <text x="1120" y="160" font-size="12" fill="white" text-anchor="end">Melbourne City</text>

  <text x="824" y="188" font-size="12" fill="#6B7A8D">Plan</text>
  <text x="1120" y="188" font-size="12" fill="white" text-anchor="end">Standard</text>

  <text x="824" y="216" font-size="12" fill="#6B7A8D">Duration</text>
  <text x="1120" y="216" font-size="12" fill="#E91E63" text-anchor="end" font-weight="600">12 months ←</text>

  <text x="824" y="244" font-size="12" fill="#6B7A8D">Access</text>
  <text x="1120" y="244" font-size="12" fill="white" text-anchor="end">All clubs · 24/7</text>

  <text x="824" y="272" font-size="12" fill="#6B7A8D">Classes</text>
  <text x="1120" y="272" font-size="12" fill="white" text-anchor="end">Unlimited</text>

  <line x1="824" y1="290" x2="1120" y2="290" stroke="#2A3547" stroke-width="1"/>

  <text x="824" y="318" font-size="12" fill="#6B7A8D">Joining fee</text>
  <text x="1120" y="318" font-size="12" fill="#2A9D8F" text-anchor="end">Waived ✓</text>

  <text x="824" y="346" font-size="12" fill="#6B7A8D">Fortnightly</text>
  <text x="1120" y="346" font-size="20" font-weight="700" fill="#E91E63" text-anchor="end">$49.00</text>

  <text x="824" y="378" font-size="12" fill="#6B7A8D">Min. total</text>
  <text x="1120" y="378" font-size="12" fill="white" text-anchor="end">$1,274</text>
  <text x="972" y="394" font-size="11" fill="#4F5D75" text-anchor="middle">26 payments of $49</text>

  <line x1="824" y1="410" x2="1120" y2="410" stroke="#2A3547" stroke-width="1"/>

  <rect x="824" y="424" width="68" height="24" rx="6" fill="#E91E63"/>
  <text x="858" y="440" font-size="11" fill="white" text-anchor="middle">Active</text>
  <text x="824" y="464" font-size="11" fill="#6B7A8D">Cancel any time online after</text>
  <text x="824" y="479" font-size="11" fill="#6B7A8D">your minimum term ends.</text>
  <text x="824" y="497" font-size="11" fill="#6B7A8D">No phone call needed.</text>
</svg>
