<svg width="110" height="30" viewBox="0 0 110 30" fill="none" xmlns="http://www.w3.org/2000/svg">
<path d="M16.6459 0.0286353C18.477 0.0286353 20.308 0.0286353 22.1945 0.0286353C22.4679 0.68412 22.7328 1.33231 22.9714 1.99958C23.0164 2.12448 23.0164 2.12448 23.0624 2.25192C23.1587 2.51901 23.2546 2.78623 23.3505 3.05345C23.4835 3.42277 23.6167 3.79202 23.7499 4.16128C23.7827 4.25206 23.8154 4.34283 23.8491 4.43636C24.1333 5.22483 24.4208 6.01211 24.7101 6.79871C24.7307 6.85462 24.7513 6.91053 24.7724 6.96812C24.8818 7.26552 24.9913 7.56286 25.101 7.86015C25.2572 7.62603 25.3409 7.44573 25.434 7.18416C25.4641 7.10009 25.4942 7.01602 25.5252 6.9294C25.5576 6.83795 25.5899 6.7465 25.6232 6.65229C25.6573 6.55687 25.6914 6.46146 25.7265 6.36315C25.8376 6.05198 25.9482 5.74064 26.0588 5.4293C26.1725 5.1104 26.2864 4.79154 26.4003 4.47269C26.4761 4.26049 26.5518 4.04827 26.6275 3.83603C27.0813 2.56461 27.5442 1.29667 28.0074 0.0286353C29.8385 0.0286353 31.6695 0.0286353 33.556 0.0286353C33.556 4.35533 33.556 8.68202 33.556 13.1398C32.3935 13.1398 31.2309 13.1398 30.0331 13.1398C30.004 10.265 29.975 7.39026 29.945 4.42836C28.7033 7.78325 28.7033 7.78325 27.4708 11.1415C27.372 11.4119 27.2729 11.6823 27.1738 11.9526C27.1302 12.0723 27.1302 12.0723 27.0857 12.1944C27.0588 12.2676 27.0319 12.3409 27.0042 12.4163C26.981 12.4799 26.9577 12.5435 26.9337 12.6091C26.8614 12.7904 26.7737 12.9653 26.6863 13.1398C25.64 13.1398 24.5937 13.1398 23.5156 13.1398C23.0203 11.9522 23.0203 11.9522 22.8709 11.536C22.837 11.4421 22.8031 11.3483 22.7682 11.2516C22.7331 11.1534 22.698 11.0552 22.6617 10.9541C22.6034 10.7922 22.545 10.6304 22.4867 10.4686C22.3854 10.1877 22.2845 9.9066 22.1835 9.62554C22.0647 9.29479 21.9458 8.96407 21.8265 8.63346C21.7529 8.42917 21.6794 8.22482 21.6062 8.02037C21.1723 6.81674 20.7113 5.62507 20.2569 4.42836C20.2279 7.30314 20.1988 10.1779 20.1689 13.1398C19.0063 13.1398 17.8437 13.1398 16.6459 13.1398C16.6459 8.81313 16.6459 4.48644 16.6459 0.0286353Z" fill="#9CA3AF"/>
<path d="M94.6791 0.0286353C96.1614 0.0286353 97.6437 0.0286353 99.1709 0.0286353C100.759 1.9024 100.759 1.90239 101.145 2.71281C101.628 3.66039 102.183 4.5385 102.779 5.41862C103.286 6.16897 103.782 6.92737 104.279 7.68416C104.308 5.15784 104.337 2.63151 104.367 0.0286353C105.53 0.0286353 106.692 0.0286353 107.89 0.0286353C107.89 4.35533 107.89 8.68202 107.89 13.1398C106.466 13.1398 105.042 13.1398 103.575 13.1398C103.18 12.5764 102.79 12.0132 102.413 11.4384C102.363 11.3612 102.312 11.284 102.259 11.2045C102.098 10.9587 101.936 10.7129 101.775 10.467C100.621 8.71243 99.4555 6.96685 98.2901 5.22031C98.2611 7.83375 98.232 10.4472 98.2021 13.1398C97.0395 13.1398 95.8769 13.1398 94.6791 13.1398C94.6791 8.81313 94.6791 4.48644 94.6791 0.0286353Z" fill="#9CA3AF"/>
<path d="M49.4093 0.0286238C50.8116 0.0231792 52.214 0.0177345 53.6588 0.0121248C54.0998 0.00972153 54.5408 0.00731823 54.9952 0.00484209C55.5383 0.00364978 55.5383 0.00364978 55.7934 0.00342824C55.9697 0.0030258 56.1459 0.00210351 56.3222 0.000753601C57.9972 -0.0114222 59.3898 0.111203 60.6597 1.31417C61.5164 2.21888 61.7721 3.24775 61.7582 4.47166C61.7048 5.35766 61.468 6.08619 60.9469 6.8042C60.9027 6.86659 60.8584 6.92898 60.8128 6.99325C60.2284 7.73653 59.3742 8.13521 58.4809 8.3881C58.6116 8.6949 58.7858 8.88456 59.0258 9.11406C59.2704 9.35298 59.508 9.59139 59.7304 9.85101C60.0344 10.205 60.3524 10.5448 60.6717 10.8849C61.1514 11.3965 61.6277 11.9102 62.0919 12.4359C62.1641 12.5174 62.1641 12.5174 62.2378 12.6005C62.5323 12.9413 62.5323 12.9413 62.5323 13.1398C61.9197 13.1622 61.3072 13.1776 60.6943 13.1881C60.4861 13.1926 60.2779 13.1986 60.0698 13.2062C58.2439 13.2715 58.2439 13.2715 57.8247 12.9568C57.6232 12.7343 57.4789 12.5228 57.3359 12.2599C57.2634 12.1729 57.1908 12.0859 57.1161 11.9962C57.0596 11.9253 57.0032 11.8544 56.9451 11.7814C56.6742 11.4467 56.3946 11.1247 56.1029 10.808C55.8078 10.4875 55.5245 10.1615 55.2497 9.82351C55.1843 9.74445 55.1189 9.66539 55.0515 9.58394C54.8699 9.35604 54.8699 9.35604 54.7267 9.1419C54.5753 8.91443 54.5753 8.91443 54.2533 8.65209C53.643 8.60853 53.643 8.60853 53.0203 8.56409C53.0203 10.0741 53.0203 11.5841 53.0203 13.1398C51.8287 13.1398 50.637 13.1398 49.4093 13.1398C49.4093 8.81312 49.4093 4.48643 49.4093 0.0286238ZM53.0203 3.02044C53.0203 3.86255 53.0203 4.70465 53.0203 5.57228C53.6002 5.57835 54.18 5.5836 54.7598 5.58678C54.957 5.58811 55.1542 5.58991 55.3513 5.59219C55.6351 5.5954 55.9189 5.5969 56.2027 5.59806C56.2905 5.59942 56.3783 5.60078 56.4688 5.60219C56.9422 5.6023 57.2813 5.57902 57.6882 5.3083C58.0292 4.93074 58.1615 4.69526 58.153 4.1788C58.1093 3.83807 57.9826 3.6491 57.7763 3.37242C57.3614 3.11337 56.9843 3.00906 56.4998 3.01045C56.4223 3.01045 56.3447 3.01046 56.2648 3.01047C56.1404 3.01115 56.1404 3.01115 56.0134 3.01184C55.9279 3.01197 55.8424 3.01209 55.7543 3.01222C55.4815 3.01271 55.2087 3.01382 54.9359 3.01494C54.7508 3.01538 54.5657 3.01578 54.3806 3.01614C53.9272 3.01704 53.4738 3.01876 53.0203 3.02044Z" fill="#9CA3AF"/>
<path d="M58.4809 16.7476C59.7797 16.744 61.0785 16.7403 62.4167 16.7366C62.8247 16.735 63.2327 16.7334 63.653 16.7317C64.1566 16.7309 64.1566 16.7309 64.3934 16.7308C64.5565 16.7305 64.7196 16.7299 64.8827 16.729C66.5767 16.7201 68.267 16.7517 69.5781 17.9795C69.6342 18.0319 69.6903 18.0843 69.7481 18.1383C70.6476 19.0679 70.7593 20.2153 70.7413 21.4402C70.7106 22.3908 70.3119 23.2739 69.6673 23.9786C69.0802 24.5105 68.1907 25.1071 67.3763 25.1071C67.8748 25.6875 68.3941 26.2478 68.9143 26.8087C69.2033 27.1209 69.4906 27.4349 69.778 27.7486C69.9427 27.9283 70.1076 28.1077 70.2728 28.2869C71.6038 29.7321 71.6038 29.7321 71.6038 29.8588C70.9787 29.8812 70.3537 29.8965 69.7283 29.9071C69.5158 29.9115 69.3034 29.9175 69.091 29.9252C67.2273 29.9905 67.2273 29.9905 66.8053 29.6756C66.6037 29.453 66.4609 29.2427 66.3194 28.9788C66.2479 28.8929 66.1764 28.8069 66.1027 28.7183C66.047 28.6482 65.9914 28.5781 65.9341 28.5059C65.6483 28.1527 65.3517 27.8152 65.0424 27.4829C64.7279 27.1451 64.4258 26.8015 64.1341 26.4435C64.0694 26.3651 64.0047 26.2867 63.938 26.206C63.7653 25.987 63.7653 25.987 63.6421 25.7928C63.5183 25.5929 63.5183 25.5929 63.2368 25.3711C62.6265 25.3275 62.6265 25.3275 62.0038 25.2831C62.0038 26.7931 62.0038 28.303 62.0038 29.8588C60.8412 29.8588 59.6787 29.8588 58.4809 29.8588C58.4809 25.5321 58.4809 21.2054 58.4809 16.7476ZM62.0038 19.8274C62.0038 20.6695 62.0038 21.5116 62.0038 22.3792C62.5412 22.3853 63.0785 22.3906 63.616 22.3937C63.7985 22.3951 63.981 22.3969 64.1636 22.3992C64.427 22.4024 64.6905 22.4039 64.9539 22.405C65.0346 22.4064 65.1153 22.4078 65.1984 22.4092C65.7607 22.4093 66.3565 22.3622 66.815 22.0031C67.11 21.6865 67.2002 21.3968 67.2002 20.9713C67.0688 20.5637 66.9212 20.2712 66.5836 20.0034C66.2821 19.8621 66.0454 19.8056 65.7133 19.8074C65.6305 19.8074 65.5476 19.8075 65.4623 19.8075C65.374 19.8084 65.2857 19.8093 65.1948 19.8102C65.1035 19.8105 65.0123 19.8107 64.9182 19.811C64.6275 19.812 64.3368 19.8142 64.046 19.8164C63.8486 19.8173 63.6512 19.8181 63.4538 19.8188C62.9704 19.8206 62.4872 19.824 62.0038 19.8274Z" fill="#9CA3AF"/>
<path d="M72.4846 16.7476C76.1467 16.7476 79.8088 16.7476 83.5818 16.7476C83.5818 17.7639 83.5818 18.7803 83.5818 19.8274C81.1114 19.8274 78.6409 19.8274 76.0956 19.8274C76.0956 20.4662 76.0956 21.1051 76.0956 21.7633C78.5079 21.7633 80.9203 21.7633 83.4057 21.7633C83.4057 22.7796 83.4057 23.7959 83.4057 24.8431C80.9934 24.8431 78.581 24.8431 76.0956 24.8431C76.0956 25.511 76.0956 26.1788 76.0956 26.867C78.566 26.867 81.0365 26.867 83.5818 26.867C83.5818 27.8543 83.5818 28.8416 83.5818 29.8588C79.9197 29.8588 76.2576 29.8588 72.4846 29.8588C72.4846 25.5321 72.4846 21.2054 72.4846 16.7476Z" fill="#9CA3AF"/>
<path d="M36.1102 0.0286353C39.8013 0.0286353 43.4925 0.0286353 47.2955 0.0286353C47.2955 1.01593 47.2955 2.00323 47.2955 3.02045C44.796 3.02045 42.2965 3.02045 39.7212 3.02045C39.7212 3.68833 39.7212 4.35621 39.7212 5.04432C42.1335 5.04432 44.5459 5.04432 47.0313 5.04432C47.0313 6.03162 47.0313 7.01892 47.0313 8.03614C44.619 8.03614 42.2066 8.03614 39.7212 8.03614C39.7212 8.70402 39.7212 9.37189 39.7212 10.06C42.2207 10.06 44.7203 10.06 47.2955 10.06C47.2955 11.0763 47.2955 12.0927 47.2955 13.1398C43.6044 13.1398 39.9132 13.1398 36.1102 13.1398C36.1102 8.81313 36.1102 4.48644 36.1102 0.0286353Z" fill="#9CA3AF"/>
<path d="M16.6459 16.7476C20.308 16.7476 23.9701 16.7476 27.7432 16.7476C27.7432 17.7639 27.7432 18.7803 27.7432 19.8274C25.2437 19.8274 22.7441 19.8274 20.1689 19.8274C20.1689 20.4662 20.1689 21.1051 20.1689 21.7633C22.6103 21.7633 25.0517 21.7633 27.567 21.7633C27.567 22.7796 27.567 23.7959 27.567 24.8431C25.1256 24.8431 22.6842 24.8431 20.1689 24.8431C20.1689 25.511 20.1689 26.1788 20.1689 26.867C22.6684 26.867 25.1679 26.867 27.7432 26.867C27.7432 27.8543 27.7432 28.8416 27.7432 29.8588C24.0811 29.8588 20.419 29.8588 16.6459 29.8588C16.6459 25.5321 16.6459 21.2054 16.6459 16.7476Z" fill="#9CA3AF"/>
<path d="M5.90924 0.0180488C5.99041 0.0182442 6.07157 0.0184396 6.1552 0.0186409C6.24688 0.0186475 6.33857 0.0186542 6.43303 0.018661C6.53275 0.0191152 6.63248 0.0195694 6.73522 0.0200373C6.88752 0.020224 6.88752 0.020224 7.04289 0.0204146C7.36866 0.020909 7.69443 0.0220138 8.0202 0.0231308C8.24044 0.0235719 8.46068 0.0239735 8.68093 0.0243339C9.22216 0.0253065 9.76338 0.026781 10.3046 0.0286305C10.7251 0.852603 11.1277 1.67955 11.4935 2.52959C11.6237 2.83187 11.7552 3.13354 11.8865 3.43532C11.9146 3.50008 11.9427 3.56483 11.9717 3.63155C12.2997 4.38612 12.6328 5.13841 12.966 5.89071C13.0735 6.13343 13.1809 6.37617 13.2883 6.61892C13.5609 7.23493 13.8336 7.85089 14.1064 8.46682C14.4842 9.32008 14.8612 10.1737 15.2367 11.0279C15.2806 11.1277 15.3245 11.2274 15.3697 11.3301C15.4856 11.594 15.6008 11.8581 15.7156 12.1224C15.7484 12.1969 15.7812 12.2714 15.8149 12.3482C16.0294 12.8453 16.0294 12.8453 16.0294 13.1398C14.7215 13.1398 13.4136 13.1398 12.0661 13.1398C11.6488 12.3061 11.2832 11.4471 10.9211 10.588C7.95657 10.5444 7.95657 10.5444 4.93212 10.5C4.84493 10.7904 4.75774 11.0807 4.6679 11.3799C4.61211 11.5306 4.55394 11.6806 4.49107 11.8285C4.44526 11.9368 4.44526 11.9368 4.39852 12.0473C4.36753 12.1192 4.33653 12.1912 4.3046 12.2654C4.25708 12.3779 4.25708 12.3779 4.20861 12.4927C3.97584 13.0393 3.97584 13.0393 3.87524 13.1398C3.75356 13.148 3.63146 13.1502 3.50951 13.1498C3.43193 13.1498 3.35435 13.1498 3.27442 13.1498C3.19011 13.1493 3.1058 13.1489 3.01893 13.1484C2.93304 13.1483 2.84715 13.1482 2.75866 13.148C2.48314 13.1475 2.20763 13.1464 1.93211 13.1453C1.74582 13.1449 1.55952 13.1445 1.37323 13.1441C0.915482 13.1431 0.457741 13.1417 0 13.1398C0.050744 12.7428 0.155077 12.4252 0.323051 12.0626C0.346904 12.0105 0.370756 11.9585 0.395331 11.9048C0.446941 11.7923 0.498828 11.68 0.550963 11.5677C0.693441 11.2608 0.833715 10.9528 0.974314 10.645C1.00343 10.5814 1.03254 10.5179 1.06253 10.4523C1.35217 9.81867 1.63195 9.18087 1.9101 8.5421C2.01244 8.30742 2.11487 8.07278 2.21732 7.83815C2.24378 7.77753 2.27025 7.71693 2.29751 7.65448C2.86571 6.3542 3.44191 5.0574 4.01681 3.76006C4.1574 3.44279 4.29788 3.12547 4.43826 2.80811C4.60455 2.43216 4.77104 2.0563 4.9377 1.68052C4.99972 1.54058 5.06167 1.40062 5.12355 1.26063C5.2084 1.06872 5.29351 0.876921 5.37868 0.685152C5.40374 0.628335 5.42879 0.571518 5.4546 0.512979C5.66889 0.0318368 5.66889 0.0318368 5.90924 0.0180488ZM7.92662 3.37242C7.20376 5.04674 7.20376 5.04674 6.49543 6.72721C6.45753 6.81755 6.45753 6.81755 6.41886 6.90971C6.2938 7.19931 6.2938 7.19931 6.25323 7.50817C7.38673 7.50817 8.52024 7.50817 9.6881 7.50817C9.49123 6.90542 9.49123 6.90542 9.26452 6.31936C9.23633 6.25247 9.20814 6.18559 9.17909 6.11668C9.14963 6.04762 9.12017 5.97857 9.08982 5.90742C9.05891 5.83432 9.02801 5.76122 8.99617 5.68591C8.89865 5.45543 8.80072 5.22512 8.70277 4.99482C8.63606 4.83735 8.56937 4.67986 8.50272 4.52237C8.34036 4.13892 8.17763 3.75563 8.0147 3.37242C7.98563 3.37242 7.95657 3.37242 7.92662 3.37242Z" fill="#9CA3AF"/>
<path d="M83.6699 0.0286353C85.2103 0.0286353 86.7507 0.0286353 88.3378 0.0286353C88.9134 1.26189 89.4777 2.49632 90.0161 3.74614C90.4084 4.65645 90.8075 5.56347 91.2112 6.46874C91.3295 6.73397 91.4477 6.99922 91.5659 7.26447C91.5962 7.33241 91.6265 7.40035 91.6577 7.47035C92.018 8.27883 92.3768 9.08797 92.7351 9.89733C92.8082 10.0623 92.8813 10.2273 92.9544 10.3923C94.0626 12.8914 94.0626 12.8914 94.0626 13.1398C92.7256 13.1398 91.3887 13.1398 90.0112 13.1398C89.8368 12.7369 89.6625 12.334 89.4828 11.9189C89.4276 11.7919 89.3724 11.6648 89.3156 11.534C89.2727 11.4344 89.2298 11.3348 89.1855 11.2321C89.1191 11.0787 89.1191 11.0787 89.0514 10.9221C88.9543 10.676 88.9543 10.676 88.9543 10.5C86.978 10.529 85.0016 10.5581 82.9653 10.588C82.4422 11.8511 82.4422 11.8511 81.9084 13.1398C80.6006 13.1398 79.2927 13.1398 77.9451 13.1398C78.2421 12.2499 78.2421 12.2499 78.4299 11.8392C78.4938 11.6983 78.4938 11.6983 78.5589 11.5547C78.6284 11.4028 78.6284 11.4028 78.6993 11.2479C78.8031 11.0191 78.9065 10.7902 79.0099 10.5612C79.0512 10.47 79.0512 10.47 79.0932 10.3769C79.4392 9.61017 79.7763 8.83955 80.114 8.06914C80.2492 7.76068 80.3846 7.45224 80.5199 7.14382C80.5541 7.06595 80.5883 6.98807 80.6235 6.90784C81.0172 6.01099 81.4131 5.11511 81.8094 4.21938C81.8444 4.14012 81.8795 4.06087 81.9156 3.97922C82.4986 2.66157 83.0836 1.34481 83.6699 0.0286353ZM85.8718 3.46042C85.6475 3.9944 85.4233 4.52844 85.1993 5.06252C85.123 5.24425 85.0467 5.42597 84.9704 5.60767C84.8608 5.86865 84.7513 6.12967 84.6418 6.39071C84.6076 6.47211 84.5734 6.55351 84.5381 6.63738C84.5064 6.71312 84.4747 6.78885 84.442 6.86688C84.4 6.96683 84.4 6.96683 84.3572 7.0688C84.2989 7.21322 84.2477 7.36044 84.1984 7.50817C85.3319 7.50817 86.4654 7.50817 87.6332 7.50817C87.5707 7.19575 87.5166 6.9713 87.3977 6.68707C87.3678 6.61487 87.3378 6.54267 87.3069 6.46829C87.2746 6.39164 87.2423 6.315 87.209 6.23603C87.1759 6.15658 87.1428 6.07712 87.1087 5.99526C87.0032 5.74228 86.8971 5.48955 86.791 5.23681C86.7193 5.06502 86.6475 4.89321 86.5758 4.72139C86.4003 4.30089 86.2242 3.8806 86.0479 3.46042C85.9898 3.46042 85.9316 3.46042 85.8718 3.46042Z" fill="#9CA3AF"/>
<path d="M103.874 16.7304C104.044 16.7307 104.214 16.731 104.384 16.7312C104.827 16.7318 105.271 16.7336 105.714 16.7355C106.168 16.7373 106.622 16.7381 107.076 16.739C107.964 16.7409 108.852 16.7439 109.74 16.7476C109.614 17.1327 109.47 17.4955 109.299 17.863C109.274 17.9167 109.249 17.9705 109.223 18.0258C109.171 18.1384 109.119 18.2508 109.066 18.3632C108.985 18.5359 108.905 18.7087 108.825 18.8816C108.431 19.7272 108.431 19.7272 108.331 19.8274C108.142 19.8369 107.952 19.8403 107.763 19.8413C107.704 19.8417 107.644 19.8422 107.583 19.8426C107.454 19.8436 107.325 19.8443 107.196 19.8449C106.991 19.846 106.786 19.8477 106.581 19.8496C105.999 19.855 105.417 19.8598 104.834 19.8627C104.479 19.8646 104.123 19.8677 103.767 19.8716C103.631 19.8728 103.496 19.8736 103.36 19.8739C103.17 19.8743 102.98 19.8764 102.79 19.8788C102.682 19.8795 102.574 19.8802 102.462 19.8809C102.134 19.9191 101.919 20.0099 101.637 20.1794C101.426 20.4568 101.426 20.7191 101.461 21.0593C101.613 21.3941 101.74 21.5377 102.077 21.6753C102.255 21.7024 102.255 21.7024 102.443 21.7006C102.549 21.7023 102.549 21.7023 102.658 21.7041C102.735 21.7046 102.812 21.7051 102.891 21.7055C102.971 21.7068 103.051 21.7081 103.134 21.7094C103.391 21.7135 103.648 21.7165 103.905 21.7193C107.872 21.7628 107.872 21.7628 109.123 22.9952C109.873 23.8777 110.059 24.9678 109.985 26.1011C109.843 27.2281 109.45 28.1275 108.595 28.8909C107.645 29.6022 106.589 29.8738 105.421 29.8688C105.304 29.8688 105.304 29.8688 105.184 29.8688C104.927 29.8688 104.669 29.8681 104.412 29.8674C104.233 29.8672 104.054 29.8671 103.875 29.867C103.405 29.8667 102.935 29.8658 102.465 29.8648C101.985 29.8639 101.505 29.8635 101.025 29.8631C100.084 29.8621 99.1431 29.8606 98.202 29.8588C98.202 28.8715 98.202 27.8842 98.202 26.867C98.4207 26.8657 98.6394 26.8644 98.8647 26.8631C99.5878 26.8587 100.311 26.8528 101.034 26.8462C101.472 26.8423 101.911 26.8388 102.349 26.8365C102.772 26.8342 103.195 26.8306 103.619 26.8262C103.78 26.8248 103.941 26.8237 104.102 26.8232C104.329 26.8223 104.555 26.8199 104.781 26.817C104.881 26.8172 104.881 26.8172 104.983 26.8174C105.399 26.81 105.687 26.7352 106.041 26.515C106.24 26.2689 106.3 26.1211 106.332 25.8055C106.304 25.5423 106.288 25.4051 106.129 25.1951C105.651 24.8823 105.219 24.8936 104.667 24.8953C104.532 24.8939 104.532 24.8939 104.394 24.8925C104.106 24.8895 103.818 24.8881 103.531 24.8871C100.049 24.8751 100.049 24.8751 98.791 23.7322C97.9342 22.7987 97.7321 21.6881 97.7727 20.463C97.881 19.4428 98.3046 18.4902 99.0828 17.8035C100.545 16.7445 102.141 16.7205 103.874 16.7304Z" fill="#9CA3AF"/>
<path d="M90.0119 16.7376C90.1242 16.7376 90.1242 16.7376 90.2387 16.7376C90.4832 16.7376 90.7277 16.7383 90.9721 16.739C91.1428 16.7392 91.3134 16.7393 91.4841 16.7394C91.9311 16.7397 92.378 16.7406 92.825 16.7416C93.282 16.7425 93.7389 16.7429 94.1959 16.7433C95.0909 16.7442 95.9859 16.7457 96.881 16.7476C96.8123 17.1237 96.6946 17.4361 96.5369 17.7857C96.4993 17.8694 96.4993 17.8694 96.4609 17.9548C96.4081 18.072 96.3551 18.1891 96.3019 18.3062C96.2202 18.4859 96.1392 18.666 96.0584 18.8461C95.6613 19.7261 95.6613 19.7261 95.5599 19.8274C95.3681 19.8365 95.1761 19.8393 94.9842 19.8399C94.894 19.8403 94.894 19.8403 94.8019 19.8408C94.6708 19.8415 94.5397 19.8419 94.4086 19.8422C94.2009 19.8429 93.9932 19.8443 93.7855 19.8459C93.1948 19.8505 92.6041 19.8547 92.0133 19.8561C91.6523 19.857 91.2913 19.8596 90.9303 19.8632C90.7928 19.8643 90.6553 19.8648 90.5179 19.8646C90.325 19.8644 90.1322 19.8663 89.9392 19.8688C89.8296 19.8693 89.7199 19.8698 89.607 19.8703C89.2505 19.9238 89.0576 20.0439 88.7782 20.2674C88.6371 20.5493 88.6467 20.8414 88.6901 21.1473C88.8772 21.4503 88.9674 21.5623 89.3066 21.6753C89.569 21.6868 89.8296 21.6937 90.0921 21.6969C90.2534 21.6998 90.4147 21.7028 90.576 21.7057C90.8285 21.7098 91.081 21.7137 91.3335 21.7172C95.0413 21.7712 95.0413 21.7712 96.2565 22.9677C97.0283 23.8209 97.1969 24.7951 97.1703 25.9276C97.087 27.0001 96.7092 28.0947 95.8729 28.8114C94.865 29.5499 93.8685 29.8897 92.6204 29.8788C92.5421 29.8788 92.4638 29.8788 92.3831 29.8788C92.1272 29.8787 91.8714 29.8774 91.6155 29.876C91.4369 29.8756 91.2583 29.8754 91.0798 29.8752C90.612 29.8745 90.1442 29.8728 89.6764 29.8709C89.1981 29.8691 88.7199 29.8683 88.2417 29.8674C87.3049 29.8655 86.3681 29.8624 85.4314 29.8588C85.4314 28.8715 85.4314 27.8842 85.4314 26.867C85.6469 26.8657 85.8625 26.8644 86.0846 26.8631C86.7978 26.8586 87.5111 26.8528 88.2244 26.8462C88.6567 26.8423 89.089 26.8388 89.5213 26.8365C89.9388 26.8342 90.3562 26.8306 90.7737 26.8262C90.9327 26.8247 91.0917 26.8237 91.2507 26.8232C91.474 26.8223 91.6972 26.8199 91.9205 26.817C92.0184 26.8172 92.0184 26.8172 92.1184 26.8174C92.5707 26.8093 92.8774 26.7264 93.2699 26.515C93.4901 26.1684 93.5441 25.9828 93.4956 25.5745C93.3355 25.2353 93.1711 25.0724 92.8296 24.9311C92.5108 24.8818 92.1963 24.8841 91.8742 24.8867C91.7819 24.8859 91.6895 24.8851 91.5944 24.8842C91.2997 24.8817 91.005 24.8814 90.7103 24.8816C87.2107 24.8778 87.2107 24.8778 86.018 23.7734C85.1745 22.8375 84.9377 21.8211 84.9656 20.5857C85.0019 20.1314 85.0964 19.7258 85.2552 19.2994C85.2777 19.2384 85.3002 19.1774 85.3234 19.1145C85.699 18.2503 86.4323 17.5734 87.2809 17.1876C88.189 16.8439 89.0481 16.7332 90.0119 16.7376Z" fill="#9CA3AF"/>
<path d="M28.2716 16.7476C28.9218 16.7252 29.5719 16.7098 30.2224 16.6993C30.4434 16.6949 30.6644 16.6889 30.8854 16.6812C31.204 16.6705 31.5223 16.6655 31.841 16.6617C31.939 16.6571 32.037 16.6526 32.138 16.6479C32.5696 16.6476 32.8343 16.662 33.1762 16.9401C33.3769 17.1611 33.5569 17.3861 33.7322 17.6276C33.8047 17.7146 33.8773 17.8016 33.952 17.8912C34.0085 17.9621 34.0649 18.033 34.123 18.106C34.462 18.5248 34.8197 18.9216 35.1847 19.3177C35.5374 19.7102 35.8683 20.1196 36.1982 20.5314C36.6416 20.202 36.962 19.8142 37.306 19.384C37.5161 19.1274 37.7348 18.8831 37.9597 18.6395C38.3263 18.2419 38.6705 17.8312 39.0073 17.4083C39.0685 17.3354 39.1297 17.2626 39.1927 17.1876C39.2481 17.1113 39.3034 17.0351 39.3604 16.9565C39.7734 16.6401 40.1524 16.6927 40.6587 16.7046C40.8073 16.7056 40.8073 16.7056 40.9589 16.7065C41.2748 16.709 41.5906 16.7145 41.9065 16.7201C42.1209 16.7223 42.3353 16.7243 42.5497 16.7261C43.0748 16.731 43.5998 16.7383 44.1249 16.7476C43.9663 17.0874 43.7478 17.3354 43.4918 17.6056C43.4036 17.7001 43.3154 17.7948 43.2273 17.8895C43.1846 17.9352 43.1419 17.981 43.0979 18.0281C42.8993 18.2426 42.7084 18.4635 42.5168 18.6842C42.3357 18.8912 42.1515 19.0953 41.9671 19.2994C41.7302 19.5617 41.4947 19.825 41.2625 20.0914C40.9637 20.4341 40.659 20.7714 40.3542 21.1088C40.1358 21.352 39.9207 21.5977 39.7064 21.8444C39.4495 22.1356 39.1852 22.4202 38.9213 22.7051C38.7703 22.8858 38.6694 23.0445 38.5762 23.2592C38.6179 23.2988 38.6596 23.3384 38.7025 23.3792C39.0413 23.7084 39.3543 24.0453 39.6496 24.4141C39.9701 24.8132 40.3071 25.1905 40.657 25.5636C40.7068 25.6167 40.7567 25.6699 40.808 25.7246C40.8564 25.7762 40.9048 25.8277 40.9546 25.8808C41.3401 26.2918 41.7074 26.7172 42.0727 27.1461C42.1622 27.2511 42.2518 27.356 42.3414 27.4609C42.3865 27.5137 42.4316 27.5665 42.478 27.6209C42.8564 28.062 43.2467 28.4905 43.6429 28.9156C44.301 29.6386 44.301 29.6386 44.301 29.8588C43.6557 29.8902 43.0106 29.9117 42.3647 29.9265C42.1455 29.9326 41.9263 29.941 41.7072 29.9517C39.7865 30.0433 39.7865 30.0433 39.2657 29.6005C39.0321 29.3523 38.8505 29.0838 38.6788 28.7903C38.5011 28.507 38.2755 28.2652 38.0533 28.0164C37.9663 27.9154 37.8795 27.8142 37.7929 27.7129C37.4932 27.3643 37.1927 27.0165 36.8918 26.669C36.8428 26.6123 36.7938 26.5556 36.7432 26.4971C36.5659 26.2927 36.3898 26.0904 36.1982 25.899C35.6562 26.479 35.1328 27.0655 34.6346 27.684C34.3329 28.0484 34.0148 28.3996 33.6821 28.7361C33.5422 28.8963 33.5422 28.8963 33.4343 29.1345C33.2512 29.4479 33.0863 29.6889 32.7634 29.8588C32.003 30.0268 31.1961 29.9492 30.4239 29.9193C30.2069 29.9144 29.9899 29.91 29.7728 29.9061C29.2428 29.8954 28.7132 29.8793 28.1835 29.8588C28.3356 29.5947 28.4847 29.3601 28.6962 29.1404C28.7429 29.0912 28.7896 29.0421 28.8377 28.9914C28.9117 28.9144 28.9117 28.9144 28.9872 28.8359C29.3319 28.4718 29.6659 28.1067 29.9781 27.7139C30.367 27.2278 30.7926 26.7815 31.2212 26.3307C31.5971 25.9332 31.9477 25.5239 32.2879 25.0954C32.6142 24.7057 32.9659 24.3399 33.3187 23.9741C33.3696 23.9207 33.4206 23.8673 33.4731 23.8123C33.5188 23.765 33.5645 23.7177 33.6116 23.6689C33.7413 23.5122 33.8243 23.3559 33.9083 23.1712C33.8646 23.1286 33.8209 23.0859 33.7759 23.042C33.4187 22.6899 33.0772 22.3308 32.75 21.951C32.5663 21.7392 32.3789 21.5312 32.1909 21.3233C31.9557 21.063 31.7221 20.8016 31.4918 20.5369C31.2443 20.2528 30.9917 19.9737 30.7377 19.6954C30.4335 19.3622 30.1334 19.0262 29.8373 18.6859C29.6549 18.478 29.4699 18.2727 29.2845 18.0675C29.2183 17.994 29.1521 17.9205 29.0839 17.8448C28.9564 17.7034 28.8287 17.5622 28.7006 17.4213C28.6444 17.3587 28.5882 17.2961 28.5303 17.2316C28.4803 17.1762 28.4302 17.1209 28.3786 17.0638C28.2716 16.9236 28.2716 16.9236 28.2716 16.7476Z" fill="#9CA3AF"/>
<path d="M44.6533 16.7476C45.9667 16.744 47.28 16.7403 48.6331 16.7366C49.252 16.7342 49.252 16.7342 49.8834 16.7317C50.3926 16.731 50.3926 16.731 50.632 16.7308C50.7969 16.7305 50.9619 16.7299 51.1268 16.729C52.8852 16.7199 54.5888 16.7638 55.9267 18.0675C56.8198 19.0182 57.1179 20.1856 57.0937 21.467C57.0074 22.6279 56.6137 23.6893 55.7506 24.4911C55.4972 24.6882 55.2348 24.8571 54.9579 25.0191C54.9039 25.0526 54.8498 25.086 54.7942 25.1205C53.5271 25.8373 51.9631 25.666 50.5653 25.6516C50.3417 25.6502 50.1182 25.649 49.8947 25.6479C49.3512 25.6453 48.8078 25.6401 48.2643 25.6351C48.2643 27.0289 48.2643 28.4227 48.2643 29.8588C47.0727 29.8588 45.8811 29.8588 44.6533 29.8588C44.6533 25.5321 44.6533 21.2054 44.6533 16.7476ZM48.2643 19.8274C48.2643 20.7276 48.2643 21.6278 48.2643 22.5552C48.8552 22.5633 49.4458 22.5703 50.0367 22.5746C50.2375 22.5763 50.4383 22.5787 50.6392 22.5818C50.9284 22.5861 51.2176 22.5881 51.5069 22.5896C51.6408 22.5923 51.6408 22.5923 51.7775 22.5951C52.3303 22.5953 52.6571 22.5284 53.1084 22.2033C53.4193 21.8616 53.4938 21.5377 53.4844 21.0762C53.4424 20.7351 53.338 20.4369 53.1084 20.1794C52.5669 19.8089 52.0702 19.7796 51.4295 19.793C51.3386 19.7935 51.2477 19.794 51.1541 19.7945C50.866 19.7965 50.5781 19.8009 50.29 19.8054C50.0938 19.8072 49.8976 19.8088 49.7014 19.8102C49.2223 19.8138 48.7434 19.8207 48.2643 19.8274Z" fill="#9CA3AF"/>
<path d="M75.5224 0.00284244C75.638 0.00321596 75.7535 0.00358948 75.8726 0.00397433C76.1752 0.00496741 76.4778 0.00754739 76.7804 0.0104958C77.091 0.0132288 77.4016 0.0144234 77.7122 0.0157323C78.3183 0.018396 78.9243 0.0235663 79.5305 0.0286221C79.5305 1.04496 79.5305 2.0613 79.5305 3.10843C79.2503 3.11274 78.9701 3.11705 78.6814 3.12149C78.4068 3.12626 78.1322 3.1313 77.8576 3.13636C77.6683 3.13971 77.479 3.14278 77.2897 3.14555C75.1976 3.10224 75.1976 3.10224 73.3622 3.96672C72.9605 4.38854 72.7539 4.8482 72.5726 5.39629C72.5436 5.4834 72.5145 5.57052 72.4846 5.66027C72.3922 6.81577 72.4197 7.87804 73.0935 8.85523C73.1892 9.00406 73.1892 9.00406 73.2772 9.26805C73.4398 9.36668 73.4398 9.36668 73.6295 9.44404C73.6836 9.47307 73.7376 9.50211 73.7933 9.53203C73.8757 9.57559 73.8757 9.57559 73.9598 9.62003C74.0138 9.64906 74.0679 9.6781 74.1236 9.70802C74.6489 9.92759 75.1582 9.99476 75.724 10.0084C75.8164 10.011 75.8164 10.011 75.9106 10.0136C76.1043 10.0188 76.2981 10.0229 76.4919 10.027C76.6245 10.0304 76.7571 10.0338 76.8896 10.0373C77.2121 10.0457 77.5346 10.0531 77.8571 10.06C77.5924 10.7565 77.2802 11.4251 76.9543 12.0949C76.9055 12.1958 76.8567 12.2968 76.8064 12.4008C76.6871 12.6473 76.5676 12.8936 76.4479 13.1398C74.2569 13.1809 72.1695 13.0427 70.4809 11.4624C69.1174 10.0254 68.7258 8.13494 68.7693 6.20268C68.8329 4.48528 69.3513 2.92578 70.5359 1.66202C71.9068 0.39772 73.7029 -0.0198546 75.5224 0.00284244Z" fill="#9CA3AF"/>
<path d="M63.5011 0.0286353C64.6636 0.0286353 65.8262 0.0286353 67.024 0.0286353C67.024 4.35533 67.024 8.68202 67.024 13.1398C65.8614 13.1398 64.6989 13.1398 63.5011 13.1398C63.5011 8.81313 63.5011 4.48644 63.5011 0.0286353Z" fill="#9CA3AF"/>
</svg>
