<svg width="139" height="23" viewBox="0 0 139 23" fill="none" xmlns="http://www.w3.org/2000/svg">
<path d="M123.18 0.994849C124.224 0.994849 125.269 0.994849 126.344 0.994849C126.444 1.36377 126.543 1.73268 126.646 2.11278C126.96 3.25699 127.313 4.38565 127.681 5.51354C128.156 6.96937 128.584 8.43333 128.99 9.90955C129.273 10.9304 129.584 11.9318 129.931 12.9327C130.181 13.6793 130.397 14.4346 130.608 15.1927C130.748 15.683 130.879 16.0487 131.166 16.4768C131.903 14.2845 132.606 12.0838 133.234 9.85796C134.077 6.88231 135.007 3.92818 135.987 0.994849C136.981 0.994849 137.975 0.994849 139 0.994849C139 7.93916 139 14.8835 139 22.0382C138.254 22.0382 137.508 22.0382 136.74 22.0382C136.665 14.0771 136.665 14.0771 136.589 5.95507C136.291 7.09593 135.993 8.23678 135.685 9.4122C135.356 10.6146 135.024 11.8147 134.665 13.0084C134.243 14.4116 133.873 15.8262 133.514 17.2465C133.101 18.866 132.607 20.4558 132.07 22.0382C131.423 22.0382 130.777 22.0382 130.111 22.0382C129.8 21.1077 129.524 20.1721 129.254 19.2293C129.201 19.0447 129.148 18.8602 129.093 18.67C128.678 17.2095 128.288 15.7432 127.916 14.2707C127.714 13.475 127.498 12.6882 127.252 11.9046C126.933 10.8881 126.664 9.86193 126.401 8.82975C126.311 8.47939 126.221 8.12906 126.131 7.77876C126.092 7.62668 126.054 7.4746 126.014 7.31792C125.88 6.81151 125.735 6.30823 125.591 5.80476C125.541 11.1618 125.492 16.5189 125.44 22.0382C124.695 22.0382 123.949 22.0382 123.18 22.0382C123.18 15.0939 123.18 8.1496 123.18 0.994849Z" fill="#9CA3AF"/>
<path d="M85.9667 0.994849C86.7622 0.994849 87.5577 0.994849 88.3773 0.994849C89.7097 3.71014 91.0399 6.42474 92.3048 9.17217C93.1053 10.9041 93.944 12.6172 94.7849 14.3299C94.8386 14.4395 94.8923 14.5491 94.9476 14.6619C95.0486 14.8681 95.1499 15.0742 95.2515 15.2801C95.4455 15.6759 95.6199 16.0582 95.7598 16.4768C95.8095 11.3677 95.8592 6.2587 95.9104 0.994849C96.6562 0.994849 97.402 0.994849 98.1704 0.994849C98.1704 7.93916 98.1704 14.8835 98.1704 22.0382C97.4246 22.0382 96.6788 22.0382 95.9104 22.0382C94.9788 20.187 94.0619 18.329 93.1514 16.4674C93.0817 16.325 93.012 16.1826 92.9402 16.0359C91.4481 12.986 89.9842 9.92411 88.5279 6.85693C88.4782 11.8668 88.4285 16.8766 88.3773 22.0382C87.5818 22.0382 86.7863 22.0382 85.9667 22.0382C85.9667 15.0939 85.9667 8.1496 85.9667 0.994849Z" fill="#9CA3AF"/>
<path d="M72.6142 0.656651C72.7653 0.655489 72.9163 0.654326 73.072 0.653129C74.9238 0.657965 76.6402 1.15978 77.9815 2.49795C79.4492 4.27525 79.3989 6.16956 79.3375 8.36003C78.4923 8.36003 77.647 8.36003 76.7762 8.36003C76.7669 7.96941 76.7576 7.5788 76.748 7.17634C76.6889 5.88643 76.4313 4.90592 75.5332 3.93529C74.2327 3.19805 72.8439 3.01016 71.3759 3.34814C70.501 3.65311 69.8663 4.09691 69.3937 4.9029C69.1175 5.59768 69.0523 6.1866 69.0462 6.93194C69.045 7.04108 69.0437 7.15022 69.0424 7.26266C69.0388 7.62141 69.0375 7.98013 69.0365 8.33889C69.0351 8.59012 69.0338 8.84135 69.0324 9.09258C69.0299 9.61869 69.0287 10.1448 69.0283 10.6709C69.0275 11.3417 69.0218 12.0124 69.0149 12.6833C69.0104 13.2022 69.0093 13.7211 69.0092 14.24C69.0086 14.4871 69.0067 14.7343 69.0035 14.9814C68.985 16.5549 69.0415 17.9079 70.2035 19.0978C70.334 19.1753 70.4646 19.2528 70.599 19.3327C70.742 19.4195 70.8849 19.5063 71.0322 19.5957C72.1646 20.0431 73.6326 19.9428 74.7611 19.5393C75.7203 19.0854 76.1643 18.446 76.5291 17.4466C76.7216 16.7108 76.7131 15.9556 76.7291 15.1991C76.7447 14.6287 76.7602 14.0583 76.7762 13.4706C75.5332 13.4706 74.2903 13.4706 73.0096 13.4706C73.0096 12.6769 73.0096 11.8833 73.0096 11.0656C75.0978 11.0656 77.186 11.0656 79.3375 11.0656C79.3437 12.0825 79.3499 13.0993 79.3563 14.147C79.3591 14.4656 79.3618 14.7842 79.3646 15.1125C79.3655 15.3684 79.3663 15.6243 79.3669 15.8802C79.3684 16.0104 79.37 16.1405 79.3716 16.2746C79.372 17.907 78.8638 19.2231 77.9533 20.5727C76.3624 22.1246 74.3522 22.5402 72.1969 22.522C70.3252 22.4087 68.6881 21.623 67.4351 20.2345C66.6344 19.013 66.3356 17.7159 66.3343 16.2758C66.3331 16.1569 66.3318 16.0379 66.3305 15.9153C66.3269 15.5255 66.3256 15.1357 66.3246 14.7459C66.3232 14.4722 66.3218 14.1985 66.3204 13.9248C66.318 13.3523 66.3168 12.7797 66.3164 12.2071C66.3155 11.4777 66.3099 10.7484 66.303 10.0189C66.2985 9.45385 66.2974 8.88879 66.2973 8.32368C66.2966 8.05499 66.2948 7.78629 66.2916 7.51762C66.2692 5.45161 66.4879 3.7578 67.9907 2.19322C69.3819 1.0092 70.8324 0.643048 72.6142 0.656651Z" fill="#9CA3AF"/>
<path d="M41.5211 1.2955C42.9598 2.15866 43.7115 3.34197 44.233 4.90294C44.2437 5.31491 44.2471 5.7219 44.2425 6.1336C44.2393 6.52112 44.2362 6.90864 44.233 7.3079C43.3381 7.3079 42.4432 7.3079 41.5211 7.3079C41.4834 6.23694 41.4834 6.23694 41.4762 5.90513C41.4377 5.15909 41.2336 4.72736 40.7678 4.15139C39.6072 3.26454 38.5891 3.11082 37.1519 3.24953C36.2486 3.50249 35.7302 4.00594 35.1933 4.75263C34.8494 5.4387 34.9294 6.44645 35.1297 7.17285C35.959 8.82004 38.0532 9.4785 39.6275 10.1532C41.6873 11.066 43.4712 12.2368 44.3743 14.3819C44.8916 16.1978 44.6086 18.0602 43.7381 19.6967C42.8356 21.1914 41.5626 21.918 39.9027 22.3565C38.0461 22.7799 36.1469 22.5739 34.4676 21.656C33.0574 20.7397 32.1982 19.4758 31.7657 17.8578C31.7058 17.0962 31.7195 16.3387 31.728 15.5749C32.623 15.5749 33.5179 15.5749 34.4399 15.5749C34.4645 16.0936 34.489 16.6122 34.5135 17.1309C34.5942 17.7048 34.7618 18.0785 35.0426 18.5811C35.0923 18.7299 35.142 18.8788 35.1933 19.0321C35.449 19.1977 35.449 19.1977 35.7959 19.3327C35.9528 19.4088 36.1098 19.485 36.2714 19.5634C36.8537 19.8114 37.4086 19.8585 38.037 19.8494C38.195 19.8485 38.195 19.8485 38.3561 19.8476C39.234 19.8233 39.8667 19.6109 40.6171 19.1824C40.7663 19.1328 40.9154 19.0832 41.0691 19.0321C41.238 18.6799 41.238 18.6799 41.3704 18.2805C41.4217 18.1939 41.473 18.1073 41.5258 18.0181C41.8822 17.1908 41.8291 16.0527 41.5505 15.2068C40.672 13.6684 38.918 12.9664 37.3779 12.2681C35.3587 11.3526 33.257 10.3151 32.4154 8.12521C31.9851 6.65312 31.9603 5.0613 32.5631 3.63529C33.3 2.34036 34.3701 1.41573 35.7271 0.829307C37.4883 0.372645 39.9052 0.43639 41.5211 1.2955Z" fill="#9CA3AF"/>
<path d="M104.649 0.994849C105.544 0.994849 106.439 0.994849 107.361 0.994849C107.362 1.29873 107.362 1.29873 107.363 1.60875C107.372 3.51954 107.383 5.43031 107.396 7.34108C107.403 8.32339 107.409 9.30569 107.413 10.288C107.417 11.2363 107.423 12.1846 107.431 13.1328C107.433 13.4943 107.435 13.8558 107.436 14.2173C107.437 14.7243 107.441 15.2312 107.446 15.7381C107.446 15.9614 107.446 15.9614 107.446 16.1893C107.46 17.2715 107.605 18.1341 108.302 19.0038C109.461 19.9229 110.584 19.9023 112.031 19.7836C112.484 19.678 112.815 19.5392 113.237 19.3327C113.355 19.2892 113.473 19.2458 113.594 19.2011C113.95 18.9556 114.009 18.6851 114.141 18.2805C114.218 18.1316 114.218 18.1316 114.296 17.9797C114.516 17.2996 114.488 16.6361 114.49 15.9258C114.491 15.7645 114.493 15.6031 114.495 15.4368C114.499 14.9041 114.502 14.3714 114.504 13.8387C114.507 13.4691 114.51 13.0995 114.513 12.7298C114.521 11.7575 114.527 10.7851 114.532 9.81276C114.538 8.82033 114.546 7.82792 114.554 6.8355C114.568 4.88863 114.581 2.94174 114.593 0.994849C115.488 0.994849 116.382 0.994849 117.305 0.994849C117.319 3.09727 117.329 5.19968 117.336 7.30214C117.339 8.27855 117.343 9.25492 117.35 10.2313C117.357 11.1747 117.36 12.1181 117.362 13.0615C117.363 13.4203 117.365 13.7791 117.368 14.1378C117.411 18.9847 117.411 18.9847 115.581 20.9138C114.146 22.2015 112.178 22.5889 110.302 22.5414C108.622 22.376 107.141 21.735 105.967 20.5163C105.111 19.451 104.629 18.025 104.631 16.6663C104.631 16.5274 104.63 16.3885 104.63 16.2454C104.631 16.0949 104.631 15.9444 104.632 15.7893C104.632 15.6294 104.632 15.4695 104.632 15.3047C104.632 14.7769 104.633 14.2491 104.634 13.7213C104.634 13.355 104.635 12.9888 104.635 12.6225C104.635 11.659 104.637 10.6956 104.638 9.73212C104.64 8.74877 104.641 7.76542 104.641 6.78207C104.643 4.853 104.646 2.92392 104.649 0.994849Z" fill="#9CA3AF"/>
<path d="M18.4714 0.621404C18.9156 0.95223 19.191 1.24892 19.2815 1.80564C19.2822 2.00155 19.2822 2.00155 19.283 2.20142C19.2836 2.34529 19.2842 2.48915 19.2848 2.63738C19.283 2.78667 19.2813 2.93596 19.2795 3.08977C19.2812 3.23848 19.283 3.38719 19.2848 3.54041C19.2792 4.91018 19.2792 4.91018 18.771 5.50413C17.8988 6.15677 17.2402 6.28899 16.1721 6.30265C16.0608 6.30701 15.9495 6.31137 15.8348 6.31586C15.2193 6.3229 14.8177 6.27328 14.2911 5.94273C13.8407 5.61461 13.8407 5.61461 13.4309 5.68823C13.0373 5.80731 12.7602 5.95109 12.419 6.17817C12.3009 6.25591 12.1827 6.33364 12.0609 6.41373C11.9354 6.49798 11.8098 6.58223 11.6804 6.66903C11.4117 6.84616 11.1429 7.02328 10.8741 7.2004C10.736 7.29207 10.5979 7.38374 10.4555 7.47819C9.76719 7.93479 9.07628 8.38745 8.38467 8.83913C8.2591 8.9221 8.13352 9.00508 8.00415 9.09057C7.44022 9.45929 6.9116 9.80132 6.26597 10.0134C6.17898 10.974 6.1114 11.9399 6.41663 12.8693C6.99516 13.4838 7.65882 13.7849 8.41086 14.1519C9.18215 14.5604 9.9002 15.0569 10.6257 15.5403C11.0486 15.8217 11.4737 16.0995 11.8988 16.3775C12.0436 16.4726 12.1884 16.5678 12.3376 16.6658C12.4719 16.7522 12.6061 16.8386 12.7445 16.9277C12.8784 17.0156 13.0124 17.1034 13.1504 17.194C13.492 17.4265 13.492 17.4265 13.8744 17.2753C13.9987 17.2102 14.123 17.1451 14.2511 17.078C15.2784 16.5933 16.4727 16.6231 17.5651 16.886C18.3211 17.1628 18.8081 17.4145 19.223 18.1302C19.3108 18.6798 19.3071 19.2186 19.2983 19.7742C19.3018 19.9943 19.3018 19.9943 19.3054 20.2189C19.3005 21.1199 19.2279 21.658 18.6203 22.3388C17.4452 23.0472 16.1924 23.0663 14.8538 22.9401C14.1455 22.6803 13.5728 22.2499 13.1965 21.5873C13.0576 21.1716 13.028 20.9285 13.0311 20.5005C13.0318 20.3196 13.0318 20.3196 13.0326 20.135C13.0345 19.9471 13.0345 19.9471 13.0364 19.7554C13.0371 19.6284 13.0377 19.5014 13.0384 19.3705C13.0402 19.0573 13.0429 18.744 13.0458 18.4308C12.9388 18.3921 12.8319 18.3534 12.7217 18.3136C12.2596 18.1161 11.8712 17.8766 11.4521 17.6C11.2908 17.4939 11.1294 17.3879 10.9632 17.2786C10.8367 17.1948 10.8367 17.1948 10.7076 17.1093C10.4448 16.9357 10.181 16.7635 9.91697 16.5917C9.13178 16.0798 8.35185 15.5636 7.59016 15.0171C7.47601 14.9373 7.36186 14.8574 7.24425 14.7752C7.03727 14.6297 6.83291 14.4805 6.63189 14.3269C6.3271 14.1002 6.3271 14.1002 5.81398 13.9215C5.46576 14.0217 5.19814 14.1617 4.89213 14.3544C4.05739 14.8501 2.97996 14.768 2.04741 14.673C1.34313 14.4502 0.768817 14.1816 0.278297 13.622C-0.0113567 12.931 0.011505 12.2675 0.0134599 11.5259C0.00918718 11.3791 0.00491447 11.2324 0.000512292 11.0812C-0.00276479 9.87556 -0.00276479 9.87556 0.413658 9.33644C1.26009 8.59523 1.92859 8.43667 3.0173 8.45396C3.12655 8.45221 3.23579 8.45047 3.34835 8.44867C3.91838 8.45174 4.35035 8.50345 4.86822 8.74871C5.42253 8.98731 5.55456 8.97826 6.11531 8.81094C6.50931 8.60517 6.50931 8.60517 6.90688 8.33888C7.05914 8.24096 7.2114 8.14303 7.36828 8.04215C7.69901 7.82511 8.02956 7.60781 8.35995 7.39027C8.52999 7.27857 8.70008 7.16694 8.8702 7.05537C8.95492 6.99965 9.03963 6.94393 9.12691 6.88653C9.67014 6.53285 10.2231 6.21254 10.7947 5.90691C12.1381 5.24595 12.1381 5.24595 13.0264 4.11897C13.1381 3.51768 13.1208 2.96322 13.0599 2.3576C13.0142 1.83556 13.0506 1.73733 13.3142 1.23674C14.6141 -0.288484 16.7914 -0.291291 18.4714 0.621404Z" fill="#9CA3AF"/>
<path d="M48.7529 0.994849C49.6976 0.994849 50.6422 0.994849 51.6155 0.994849C51.7128 1.24354 51.81 1.49223 51.9102 1.74845C52.2333 2.57415 52.5569 3.39965 52.8808 4.22501C53.077 4.72496 53.273 5.22499 53.4685 5.72521C53.6575 6.2088 53.8471 6.69218 54.037 7.17541C54.1439 7.44766 54.2502 7.72013 54.3565 7.99261C54.7102 8.89101 55.0824 9.76017 55.5327 10.6147C55.8997 9.67954 56.2666 8.74438 56.6335 7.80921C56.7578 7.49235 56.8821 7.17548 57.0065 6.85862C57.7731 4.90493 58.5379 2.95056 59.2993 0.994849C60.244 0.994849 61.1886 0.994849 62.1619 0.994849C61.3847 3.04951 60.5855 5.09274 59.7446 7.12221C59.6085 7.45255 59.4744 7.78364 59.3406 8.11493C58.946 9.08708 58.5472 10.0363 58.0481 10.9611C56.2823 14.3852 56.6679 18.2839 56.738 22.0382C55.8928 22.0382 55.0476 22.0382 54.1768 22.0382C54.1872 21.8385 54.1976 21.6387 54.2084 21.4328C54.4387 16.3718 53.7145 12.55 51.5484 7.98573C50.9858 6.79144 50.4996 5.5666 50.0112 4.34071C49.8677 3.98192 49.7219 3.6241 49.5753 3.26656C49.5306 3.15736 49.486 3.04816 49.4399 2.93566C49.3575 2.73429 49.275 2.53301 49.1921 2.33183C49.0106 1.88547 48.8706 1.46429 48.7529 0.994849Z" fill="#9CA3AF"/>
</svg>
