<svg viewBox="1 9 60 61" xmlns="http://www.w3.org/2000/svg">
<path d="M4.05838 45.7773C5.67703 45.7773 6.9892 44.5551 6.9892 43.0476C6.9892 41.54 5.67703 40.3179 4.05838 40.3179C2.43974 40.3179 1.12756 41.54 1.12756 43.0476C1.12756 44.5551 2.43974 45.7773 4.05838 45.7773Z" fill="#1F2D3D"/>
<path d="M49.9473 16.4482C50.8297 15.8582 51.9993 15.5583 53.4229 15.5583C54.3523 15.5583 55.3721 15.6847 56.4529 15.9344C58.6354 16.5373 60.0155 13.8061 58.1289 12.6228L58.0854 12.5953C54.5141 10.3568 50.2537 9.12488 46.0889 9.12488C43.2521 9.12488 40.598 9.68734 38.2032 10.796C31.6784 13.811 28.1281 20.2233 29.1566 27.1284C29.1967 27.3943 29.2402 27.6569 29.2906 27.9178C29.6352 29.7479 30.2061 31.4936 30.7595 33.1874C31.1059 34.2443 31.4383 35.2655 31.7133 36.2818C31.8229 36.6886 31.9238 37.0955 32.0126 37.504C32.0561 37.7082 32.0979 37.9124 32.1344 38.1183C32.3607 39.3518 32.4756 40.561 32.4773 41.7248C32.4773 42.1139 32.4668 42.4964 32.4425 42.8741L32.432 43.0362L32.4199 43.1853C32.0961 47.0933 30.4793 49.8456 27.6112 51.3661C26.2728 52.0744 24.6995 52.4343 22.9365 52.4343C20.3276 52.4343 17.3446 51.6432 14.5391 50.2087C13.0841 49.4631 11.6535 48.5473 10.1655 47.411C9.03944 46.5487 3.3031 41.6632 3.3031 41.6632C3.05945 42.7833 2.86279 44.5096 2.89585 45.4983C3.3675 52.8476 7.33385 59.8208 13.5088 64.1519C18.079 67.3597 23.8188 69.1249 29.6718 69.1249C31.762 69.1249 33.8296 68.8963 35.8206 68.4473C38.4555 67.8525 40.9808 66.8669 43.3252 65.5199L45.6956 63.9914C51.3205 59.9359 55.0954 53.9255 56.0544 47.5002C56.0648 47.4353 56.0735 47.3721 56.0805 47.3073C56.084 47.2797 56.0892 47.2522 56.0927 47.2246C56.1031 47.1468 56.1136 47.069 56.1223 46.9912L56.1362 46.8842V46.8745C56.2075 46.2974 56.2545 45.7123 56.2771 45.1223C56.2771 45.1174 56.2771 45.1126 56.2771 45.1061V45.085L56.2893 44.7527C56.2893 44.7349 56.2893 44.7171 56.2893 44.6976C56.2893 44.649 56.2911 44.5987 56.2911 44.5501C56.2911 44.4966 56.2946 44.4447 56.2946 44.3912C56.2946 44.3767 56.2946 44.3621 56.2946 44.3459H56.3033V44.3329C56.3033 44.012 56.2928 43.6748 56.2737 43.3004C56.2737 43.2809 56.2719 43.2615 56.2702 43.242C56.1223 40.48 55.4296 37.5882 54.2078 34.6479C54.1069 34.4064 54.0042 34.1665 53.9015 33.9298C53.8545 33.8228 53.8058 33.7159 53.7571 33.6056C53.7484 33.5878 53.7414 33.5716 53.7327 33.5538L53.7292 33.5473C53.6892 33.4581 53.6492 33.3706 53.6091 33.2847C53.5952 33.2571 53.583 33.228 53.5691 33.2004C53.5117 33.0772 53.4542 32.9557 53.4003 32.8454C53.2872 32.6072 53.1688 32.3705 53.0487 32.1322C52.8172 31.6751 52.5684 31.2261 52.3125 30.7836C51.8844 30.0461 51.4319 29.328 50.9881 28.6262C49.9317 26.9518 48.9223 25.3535 48.3357 23.671C48.2975 23.5592 48.2592 23.4457 48.2244 23.3339C48.1443 23.0761 48.0729 22.8152 48.0155 22.5526C47.5508 20.4632 47.9668 17.7644 49.9404 16.4417L49.9473 16.4482Z" fill="#1F2D3D"/>
<path d="M44.5051 60.0075C44.2667 61.2298 43.6663 62.3985 42.7891 63.4018C42.629 63.5899 42.4567 63.7649 42.2774 63.94C40.1559 65.159 37.8273 66.0845 35.3507 66.6438C28.2969 68.2356 20.5104 66.7362 14.7131 62.6692C8.90891 58.5989 5.32197 52.1199 4.89209 45.3897C4.89209 45.3897 4.89209 45.3897 4.89209 45.3929C5.49427 46.137 8.17621 48.2977 8.89847 48.8504C10.3621 49.9689 11.9163 50.9901 13.5766 51.8411C17.9955 54.0991 23.965 55.4364 28.598 52.9855C28.7999 52.8802 28.993 52.7683 29.181 52.6532C29.2419 52.6159 29.3046 52.577 29.3655 52.5381C29.3985 52.5187 29.4334 52.496 29.4664 52.4733C29.5395 52.4247 29.6161 52.376 29.6875 52.3242C30.0303 52.0891 30.3488 51.8395 30.6499 51.5753C30.7091 51.5218 30.77 51.4699 30.8274 51.4148C30.8466 51.3954 30.8692 51.3759 30.8901 51.3565C30.9545 51.2949 31.0189 51.2333 31.0815 51.1701C31.4853 50.7713 31.8455 50.3466 32.1693 49.8992C32.2006 49.8571 32.2319 49.8117 32.2615 49.7679C32.4146 49.5507 32.5574 49.327 32.6914 49.1001C32.7349 49.0288 32.7766 48.9558 32.8167 48.8829C32.8671 48.7921 32.9159 48.7013 32.9646 48.6089C32.9994 48.5425 33.0342 48.4776 33.0656 48.4095C33.0777 48.3869 33.0899 48.3642 33.1004 48.3398C33.1334 48.2734 33.1682 48.2021 33.1978 48.134C33.2083 48.1129 33.217 48.0918 33.2274 48.0691C33.2605 47.9995 33.2935 47.9297 33.3214 47.8617C33.3806 47.7271 33.4363 47.591 33.4885 47.4548C33.5128 47.3948 33.5355 47.3348 33.5598 47.2733C33.5755 47.2327 33.5894 47.1938 33.6051 47.1533C33.626 47.0933 33.6486 47.0333 33.6677 46.9718C33.6851 46.9247 33.7008 46.8777 33.7165 46.8307C33.7791 46.6395 33.84 46.4466 33.8922 46.2504C33.9166 46.1661 33.9392 46.0818 33.9619 45.9975C33.9653 45.9862 33.9688 45.9732 33.9706 45.9619C33.9932 45.8727 34.0158 45.7852 34.0367 45.6961C34.1046 45.4172 34.1603 45.1368 34.2107 44.8531C34.2316 44.9018 34.256 44.9536 34.2803 45.0071C34.2995 45.0493 34.3204 45.0963 34.3413 45.1433C35.965 48.7807 35.9616 52.8721 34.3343 56.5079C34.1637 56.8904 34.0402 57.1611 34.0123 57.2243L34.0054 57.2373L35.3176 57.247C35.4534 57.247 35.5491 57.247 35.6622 57.2422C35.7719 57.2373 35.878 57.2341 35.9859 57.226C36.2 57.2114 36.4106 57.1936 36.6212 57.1709C37.0406 57.1222 37.4583 57.0525 37.8725 56.9634C38.7009 56.7883 39.5154 56.5273 40.2934 56.1707C40.6815 55.994 41.0609 55.7898 41.4229 55.558C41.7849 55.3294 42.1313 55.0766 42.4532 54.7929C42.6186 54.6567 42.7648 54.5011 42.9179 54.3536L43.1337 54.1186C43.1929 54.057 43.2451 53.9921 43.2973 53.9273C43.407 54.1267 43.5079 54.3261 43.6071 54.5287C43.8838 55.1041 44.1118 55.7006 44.2824 56.3069C44.6305 57.5177 44.7366 58.7837 44.5017 60.0108L44.5051 60.0075Z" fill="#F5F5F5"/>
<path d="M54.2861 43.3815C54.3035 43.7025 54.3139 44.025 54.3139 44.3476V44.3541L54.3052 44.0574V44.1093C54.3052 44.2471 54.3052 44.3849 54.3017 44.5227C54.3017 44.5891 54.3017 44.6556 54.2983 44.722C54.2948 44.8258 54.2896 44.9311 54.2878 45.0349C54.2669 45.5844 54.2234 46.1306 54.1556 46.6736C54.1416 46.7838 54.1294 46.8924 54.1138 47.0027C54.1051 47.0821 54.0929 47.1599 54.0807 47.2393C53.1792 53.2983 49.6097 58.824 44.4755 62.5246L44.4703 62.5295C44.5486 62.4209 44.6252 62.3139 44.7 62.2004C45.1003 61.5991 45.4014 60.9345 45.6085 60.2472C45.8139 59.5567 45.9096 58.8386 45.92 58.1238C45.9287 57.4074 45.8452 56.6958 45.6955 56.0004C45.5424 55.3066 45.3196 54.6291 45.0463 53.971C44.9089 53.642 44.754 53.3194 44.5869 53.0001C44.5033 52.8412 44.4181 52.6824 44.3241 52.5268L44.1814 52.2901C44.1309 52.2091 44.0874 52.1394 44.0213 52.0437L43.3164 51.0242L42.6237 52.1021C42.2617 52.6678 41.8266 53.1881 41.2958 53.6225C40.7789 54.0683 40.1732 54.4313 39.5293 54.7328C38.8854 55.0359 38.1892 55.2613 37.4774 55.4379C37.2146 55.5028 36.9518 55.5546 36.6855 55.5984C36.6716 55.6016 36.6594 55.6049 36.6472 55.6065C36.6228 55.6114 36.6072 55.6146 36.595 55.6146C36.5846 55.6146 36.5776 55.6179 36.5776 55.6179C36.8909 54.7912 37.1067 53.9337 37.2094 53.0714C37.2494 52.7472 37.2738 52.423 37.2894 52.0972C37.2999 51.773 37.2981 51.4488 37.2842 51.1263C37.2598 50.4812 37.1815 49.8409 37.0614 49.2104C36.9448 48.5798 36.7777 47.959 36.5846 47.3512C36.3862 46.7449 36.1495 46.1517 35.8884 45.5714C35.6291 44.9879 35.3263 44.4254 35.0043 43.8775C34.8442 43.602 34.6754 43.3329 34.4943 43.0687C34.4735 43.0395 34.4543 43.012 34.4352 42.9844C34.5448 41.2419 34.4056 39.4735 34.101 37.8072C33.4205 34.0872 31.6888 30.62 31.1319 26.8741C30.2443 20.9156 33.2256 15.171 39.0872 12.4625C44.7748 9.83008 51.8234 10.9161 56.9663 14.1401C54.2182 13.4998 51.0803 13.3994 48.7777 14.9392C46.2002 16.6671 45.4205 20.0403 46.0627 22.9368C46.879 26.605 49.5644 29.6134 51.2474 32.9347C51.3605 33.1584 51.4719 33.3837 51.5798 33.609C51.6355 33.7208 51.6877 33.8359 51.7416 33.9494C51.7956 34.0612 51.8461 34.1763 51.8983 34.2898C51.954 34.4032 52.0062 34.5183 52.0514 34.6334C52.1524 34.8636 52.2498 35.0921 52.3455 35.3223C53.4159 37.8996 54.1329 40.5935 54.2774 43.3605C54.2774 43.3686 54.2774 43.375 54.2774 43.3831L54.2861 43.3815Z" fill="#D85401"/>
<path d="M45.7113 32.5845C51.3049 44.1125 45.8609 49.8765 45.8609 49.8765C46.0263 43.7526 41.6857 40.2239 41.6857 40.2239C48.0382 54.0341 37.6898 55.3973 36.6891 55.5967C36.6752 55.5999 36.663 55.6032 36.6508 55.6048C36.6264 55.6097 36.6108 55.6129 36.5986 55.6129C36.5881 55.6129 36.5812 55.6162 36.5812 55.6162C36.8944 54.7895 37.1102 53.932 37.2129 53.0697C37.253 52.7455 37.2773 52.4213 37.293 52.0955C37.3034 51.7713 37.3017 51.4471 37.2878 51.1246C37.2634 50.4794 37.1851 49.8392 37.065 49.2086C36.9484 48.5781 36.7813 47.9573 36.5881 47.3495C36.3897 46.7432 36.153 46.15 35.892 45.5697C35.6327 44.9862 35.3298 44.4237 35.0079 43.8758C34.8477 43.6003 34.6789 43.3312 34.4979 43.067C34.3622 42.8692 34.665 41.955 34.7015 41.7346C35.1819 38.7991 35.4081 35.9511 35.2132 32.9816C34.8651 27.7007 34.0715 21.7146 37.7107 17.1825C39.8601 14.5064 43.1407 12.7169 46.6667 12.1544C48.0973 11.9259 49.5662 11.9242 50.9986 12.1479C52.4866 12.3781 53.9416 12.7963 55.3217 13.3604C55.8543 13.5776 56.4181 13.9877 56.9699 14.1384C42.5055 10.1364 40.1176 21.0565 45.7095 32.5845H45.7113Z" fill="#F57C00"/>
<path d="M34.463 47.0789C36.0817 47.0789 37.3939 45.8568 37.3939 44.3492C37.3939 42.8416 36.0817 41.6195 34.463 41.6195C32.8444 41.6195 31.5322 42.8416 31.5322 44.3492C31.5322 45.8568 32.8444 47.0789 34.463 47.0789Z" fill="#1F2D3D"/>
<path d="M35.4377 58.7868C37.0563 58.7868 38.3685 57.5647 38.3685 56.0571C38.3685 54.5495 37.0563 53.3274 35.4377 53.3274C33.819 53.3274 32.5068 54.5495 32.5068 56.0571C32.5068 57.5647 33.819 58.7868 35.4377 58.7868Z" fill="#1F2D3D"/>
<path d="M43.8769 55.6147C45.4955 55.6147 46.8077 54.3926 46.8077 52.885C46.8077 51.3774 45.4955 50.1553 43.8769 50.1553C42.2582 50.1553 40.946 51.3774 40.946 52.885C40.946 54.3926 42.2582 55.6147 43.8769 55.6147Z" fill="#1F2D3D"/>
<path d="M43.8769 65.2575C45.4955 65.2575 46.8077 64.0354 46.8077 62.5278C46.8077 61.0202 45.4955 59.7981 43.8769 59.7981C42.2582 59.7981 40.946 61.0202 40.946 62.5278C40.946 64.0354 42.2582 65.2575 43.8769 65.2575Z" fill="#1F2D3D"/>
<path d="M58.1967 17.0466C59.8153 17.0466 61.1275 15.8244 61.1275 14.3169C61.1275 12.8093 59.8153 11.5872 58.1967 11.5872C56.578 11.5872 55.2659 12.8093 55.2659 14.3169C55.2659 15.8244 56.578 17.0466 58.1967 17.0466Z" fill="#1F2D3D"/>
</svg>
